G04 Easy-PC Gerber Version 27.0 Build 5942*
%FSLAX33Y33*%
%MOMM*%
%AMT17*0 Rounded Rectangle Pad at angle 0*4,1,36,-0.55000,-0.75000,0.55000,-0.75000,0.58900,-0.74620,0.62650,-0.73480,0.66110,-0.71630,0.69140,-0.69140,0.71630,-0.66110,0.73480,-0.62650,0.74620,-0.58900,0.75000,-0.55000,0.75000,0.55000,0.74620,0.58900,0.73480,0.62650,0.71630,0.66110,0.69140,0.69140,0.66110,0.71630,0.62650,0.73480,0.58900,0.74620,0.55000,0.75000,-0.55000,0.75000,-0.58900,0.74620,-0.62650,0.73480,-0.66110,0.71630,-0.69140,0.69140,-0.71630,0.66110,-0.73480,0.62650,-0.74620,0.58900,-0.75000,0.55000,-0.75000,-0.55000,-0.74620,-0.58900,-0.73480,-0.62650,-0.71630,-0.66110,-0.69140,-0.69140,-0.66110,-0.71630,-0.62650,-0.73480,-0.58900,-0.74620,-0.55000,-0.75000,0*%
%ADD17T17*%
%AMT71*0 Rounded Rectangle Pad at angle 0*4,1,36,-0.57500,-0.77500,0.57500,-0.77500,0.61400,-0.77120,0.65150,-0.75980,0.68610,-0.74130,0.71640,-0.71640,0.74130,-0.68610,0.75980,-0.65150,0.77120,-0.61400,0.77500,-0.57500,0.77500,0.57500,0.77120,0.61400,0.75980,0.65150,0.74130,0.68610,0.71640,0.71640,0.68610,0.74130,0.65150,0.75980,0.61400,0.77120,0.57500,0.77500,-0.57500,0.77500,-0.61400,0.77120,-0.65150,0.75980,-0.68610,0.74130,-0.71640,0.71640,-0.74130,0.68610,-0.75980,0.65150,-0.77120,0.61400,-0.77500,0.57500,-0.77500,-0.57500,-0.77120,-0.61400,-0.75980,-0.65150,-0.74130,-0.68610,-0.71640,-0.71640,-0.68610,-0.74130,-0.65150,-0.75980,-0.61400,-0.77120,-0.57500,-0.77500,0*%
%ADD71T71*%
%AMT19*0 Rounded Rectangle Pad at angle 0*4,1,36,-0.60000,-0.80000,0.60000,-0.80000,0.63900,-0.79620,0.67650,-0.78480,0.71110,-0.76630,0.74140,-0.74140,0.76630,-0.71110,0.78480,-0.67650,0.79620,-0.63900,0.80000,-0.60000,0.80000,0.60000,0.79620,0.63900,0.78480,0.67650,0.76630,0.71110,0.74140,0.74140,0.71110,0.76630,0.67650,0.78480,0.63900,0.79620,0.60000,0.80000,-0.60000,0.80000,-0.63900,0.79620,-0.67650,0.78480,-0.71110,0.76630,-0.74140,0.74140,-0.76630,0.71110,-0.78480,0.67650,-0.79620,0.63900,-0.80000,0.60000,-0.80000,-0.60000,-0.79620,-0.63900,-0.78480,-0.67650,-0.76630,-0.71110,-0.74140,-0.74140,-0.71110,-0.76630,-0.67650,-0.78480,-0.63900,-0.79620,-0.60000,-0.80000,0*%
%ADD19T19*%
%ADD14R,1.52400X1.52400*%
%ADD10C,0.12700*%
%ADD13C,0.30000*%
%ADD11C,0.70000*%
%ADD12C,1.42240*%
%ADD16C,1.50000*%
%ADD15C,1.52400*%
%ADD21C,1.80000*%
%ADD18C,2.00000*%
%ADD70C,3.00000*%
%AMT20*0 Rounded Rectangle Pad at angle 90*4,1,36,0.77500,-0.57500,0.77500,0.57500,0.77120,0.61400,0.75980,0.65150,0.74130,0.68610,0.71640,0.71640,0.68610,0.74130,0.65150,0.75980,0.61400,0.77120,0.57500,0.77500,-0.57500,0.77500,-0.61400,0.77120,-0.65150,0.75980,-0.68610,0.74130,-0.71640,0.71640,-0.74130,0.68610,-0.75980,0.65150,-0.77120,0.61400,-0.77500,0.57500,-0.77500,-0.57500,-0.77120,-0.61400,-0.75980,-0.65150,-0.74130,-0.68610,-0.71640,-0.71640,-0.68610,-0.74130,-0.65150,-0.75980,-0.61400,-0.77120,-0.57500,-0.77500,0.57500,-0.77500,0.61400,-0.77120,0.65150,-0.75980,0.68610,-0.74130,0.71640,-0.71640,0.74130,-0.68610,0.75980,-0.65150,0.77120,-0.61400,0.77500,-0.57500,0*%
%ADD20T20*%
X0Y0D02*
D02*
D10*
X701Y74357D02*
Y701D01*
X66737D01*
Y74357D01*
X701D01*
X3395Y41032D02*
Y62283D01*
G75*
G02*
X3395Y62294I1109J16D01*
G01*
G75*
G02*
X3721Y63081I1114J0D01*
G01*
X7531Y66891D01*
G75*
G02*
X8329Y67217I787J-787D01*
G01*
X10358D01*
X9374Y68201D01*
G75*
G02*
X7190Y69914I-421J1713D01*
G01*
G75*
G02*
X10717I1764J0D01*
G01*
G75*
G02*
X10666Y69493I-1764J0D01*
G01*
X11554Y68605D01*
X12852D01*
G75*
G02*
X12270Y69914I1182J1309D01*
G01*
G75*
G02*
X15797I1764J0D01*
G01*
G75*
G02*
X15215Y68605I-1764J0D01*
G01*
X24450D01*
X24543Y68697D01*
G75*
G02*
X23938Y69914I921J1216D01*
G01*
G75*
G02*
X26734Y70759I1526J0D01*
G01*
G75*
G02*
X29046Y71027I1270J-845D01*
G01*
X29501D01*
G75*
G02*
X31814Y70759I1043J-1114D01*
G01*
G75*
G02*
X34305Y70827I1270J-845D01*
G01*
X34402D01*
G75*
G02*
X36894Y70759I1222J-914D01*
G01*
G75*
G02*
X39385Y70827I1270J-845D01*
G01*
X39482D01*
G75*
G02*
X41974Y70759I1222J-914D01*
G01*
G75*
G02*
X44769Y69914I1270J-845D01*
G01*
G75*
G02*
X43784Y68487I-1526J0D01*
G01*
X45528D01*
Y68899D01*
X45940D01*
Y68950D01*
G75*
G02*
X45940Y68961I1109J16D01*
G01*
G75*
G02*
X46266Y69748I1114J0D01*
G01*
X47219Y70701D01*
G75*
G02*
X48017Y71027I787J-787D01*
G01*
X57838D01*
G75*
G02*
X58636Y70701I11J-1114D01*
G01*
X60541Y68796D01*
G75*
G02*
X60865Y68075I-787J-787D01*
G01*
G75*
G02*
X60867Y64133I-1111J-1972D01*
G01*
Y55770D01*
X64351Y52286D01*
G75*
G02*
X64677Y51499I-787J-788D01*
G01*
G75*
G02*
X64677Y51488I-1111J5D01*
G01*
Y48096D01*
G75*
G02*
Y46011I-1114J-1043D01*
G01*
Y32142D01*
G75*
G02*
X64677Y32131I-1111J-16D01*
G01*
G75*
G02*
X64351Y31344I-1114J0D01*
G01*
X62529Y29521D01*
G75*
G02*
X62137Y28231I-1505J-248D01*
G01*
Y22696D01*
G75*
G02*
X61024Y20128I-1114J-1043D01*
G01*
G75*
G02*
X59910Y22696I0J1526D01*
G01*
Y28160D01*
X55002D01*
G75*
G02*
X54204Y28486I-11J1113D01*
G01*
X51990Y30700D01*
X51404D01*
G75*
G02*
X51978Y28232I-541J-1427D01*
G01*
G75*
G02*
X52402Y27625I-224J-608D01*
G01*
Y25842D01*
G75*
G02*
X52280Y25464I-647J0D01*
G01*
G75*
G02*
X52402Y25085I-525J-379D01*
G01*
Y23302D01*
G75*
G02*
X51978Y22695I-647J0D01*
G01*
G75*
G02*
X49872Y20494I-1115J-1041D01*
G01*
Y10859D01*
G75*
G02*
X49597Y10205I-914J0D01*
G01*
X42627Y3235D01*
G75*
G02*
X41974Y2960I-653J639D01*
G01*
X26685D01*
G75*
G02*
X23938Y3874I-1222J914D01*
G01*
G75*
G02*
X24618Y5144I1526J0D01*
G01*
G75*
G02*
Y7684I845J1270D01*
G01*
G75*
G02*
Y10224I845J1270D01*
G01*
G75*
G02*
Y12764I845J1270D01*
G01*
G75*
G02*
X25464Y15559I845J1270D01*
G01*
G75*
G02*
X26685Y14947I0J-1525D01*
G01*
X40325D01*
X41734Y16356D01*
G75*
G02*
X41718Y16574I1509J218D01*
G01*
G75*
G02*
X42398Y17844I1526J0D01*
G01*
G75*
G02*
Y20384I845J1270D01*
G01*
G75*
G02*
Y22924I845J1270D01*
G01*
G75*
G02*
Y25464I845J1270D01*
G01*
G75*
G02*
Y28003I845J1270D01*
G01*
G75*
G02*
X41760Y29630I845J1270D01*
G01*
X41668D01*
G75*
G02*
X41010Y29898I-12J913D01*
G01*
X40375Y30533D01*
G75*
G02*
X40107Y31178I646J646D01*
G01*
G75*
G02*
X40108Y31191I910J-1D01*
G01*
Y33706D01*
G75*
G02*
X40107Y33719I910J14D01*
G01*
G75*
G02*
X40375Y34365I914J0D01*
G01*
X41010Y35000D01*
G75*
G02*
X41668Y35267I646J-646D01*
G01*
X42022D01*
G75*
G02*
X42398Y35624I1222J-914D01*
G01*
G75*
G02*
X41760Y37250I845J1270D01*
G01*
X40386D01*
G75*
G02*
X39733Y37525I0J914D01*
G01*
X33658Y43600D01*
X29225D01*
G75*
G02*
X28849Y43243I-1222J914D01*
G01*
G75*
G02*
X29487Y41617I-845J-1270D01*
G01*
X29909D01*
G75*
G02*
X30562Y41342I0J-914D01*
G01*
X32452Y39452D01*
G75*
G02*
X32727Y38798I-639J-653D01*
G01*
Y28639D01*
G75*
G02*
X32452Y27985I-914J0D01*
G01*
X30562Y26095D01*
G75*
G02*
X29909Y25820I-653J639D01*
G01*
X29225D01*
G75*
G02*
X28849Y25464I-1222J914D01*
G01*
G75*
G02*
Y22924I-845J-1270D01*
G01*
G75*
G02*
Y20384I-845J-1270D01*
G01*
G75*
G02*
X28003Y17588I-845J-1270D01*
G01*
G75*
G02*
X26782Y18200I0J1526D01*
G01*
X26685D01*
G75*
G02*
X23938Y19114I-1222J914D01*
G01*
G75*
G02*
X24618Y20384I1526J0D01*
G01*
G75*
G02*
Y22924I845J1270D01*
G01*
G75*
G02*
X25464Y25719I845J1270D01*
G01*
G75*
G02*
X26685Y25107I0J-1525D01*
G01*
X26782D01*
G75*
G02*
X27158Y25464I1222J-914D01*
G01*
G75*
G02*
Y28003I845J1270D01*
G01*
G75*
G02*
Y30544I845J1270D01*
G01*
G75*
G02*
X26782Y30900I845J1270D01*
G01*
X26416D01*
G75*
G02*
X25763Y31175I0J914D01*
G01*
X23819Y33119D01*
G75*
G02*
X23769Y33084I-896J1235D01*
G01*
G75*
G02*
X22924Y30288I-845J-1270D01*
G01*
G75*
G02*
X22078Y33084I0J1526D01*
G01*
G75*
G02*
X21440Y34710I845J1270D01*
G01*
X19492D01*
X18497Y33715D01*
G75*
G02*
X17844Y33440I-653J639D01*
G01*
X16525D01*
G75*
G02*
X13778Y34353I-1222J914D01*
G01*
G75*
G02*
X14458Y35624I1526J0D01*
G01*
G75*
G02*
X14034Y36048I845J1270D01*
G01*
G75*
G02*
X11238Y36894I-1270J845D01*
G01*
G75*
G02*
X11650Y37936I1526J0D01*
G01*
Y38387D01*
G75*
G02*
X11649Y38388I1179J1012D01*
G01*
X7528D01*
G75*
G02*
X4639Y39316I-1236J1113D01*
G01*
X3721Y40234D01*
G75*
G02*
X3395Y41021I787J788D01*
G01*
G75*
G02*
X3395Y41032I1109J-5D01*
G01*
X7440Y3007D02*
Y4740D01*
G75*
G02*
X8087Y5387I647J0D01*
G01*
X9820D01*
G75*
G02*
X10465Y4787I0J-647D01*
G01*
X14082D01*
G75*
G02*
X14458Y5144I1222J-914D01*
G01*
G75*
G02*
X14082Y5500I845J1270D01*
G01*
X10859D01*
G75*
G02*
X10205Y5775I0J914D01*
G01*
X9175Y6805D01*
X8087D01*
G75*
G02*
X7440Y7452I0J647D01*
G01*
Y9185D01*
G75*
G02*
X8087Y9832I647J0D01*
G01*
X9820D01*
G75*
G02*
X10467Y9185I0J-647D01*
G01*
Y8097D01*
X11237Y7327D01*
X14082D01*
G75*
G02*
X14458Y7684I1222J-914D01*
G01*
G75*
G02*
X14082Y8040I845J1270D01*
G01*
X12764D01*
G75*
G02*
X12110Y8315I0J914D01*
G01*
X9175Y11250D01*
X8087D01*
G75*
G02*
X7440Y11897I0J647D01*
G01*
Y13630D01*
G75*
G02*
X8087Y14277I647J0D01*
G01*
X9820D01*
G75*
G02*
X9945Y14265I0J-647D01*
G01*
Y14925D01*
X9175Y15695D01*
X8087D01*
G75*
G02*
X7440Y16342I0J647D01*
G01*
Y18075D01*
G75*
G02*
X8087Y18722I647J0D01*
G01*
X9820D01*
G75*
G02*
X10467Y18075I0J-647D01*
G01*
Y16987D01*
X11497Y15957D01*
G75*
G02*
X11533Y15920I-639J-654D01*
G01*
Y17783D01*
X9175Y20140D01*
X8087D01*
G75*
G02*
X7440Y20787I0J647D01*
G01*
Y22520D01*
G75*
G02*
X8087Y23167I647J0D01*
G01*
X9820D01*
G75*
G02*
X9945Y23155I0J-647D01*
G01*
Y23815D01*
X9175Y24585D01*
X8087D01*
G75*
G02*
X7440Y25232I0J647D01*
G01*
Y26965D01*
G75*
G02*
X8087Y27612I647J0D01*
G01*
X9820D01*
G75*
G02*
X10467Y26965I0J-647D01*
G01*
Y25877D01*
X11215Y25129D01*
Y26990D01*
X9175Y29030D01*
X8087D01*
G75*
G02*
X7440Y29677I0J647D01*
G01*
Y31410D01*
G75*
G02*
X8087Y32057I647J0D01*
G01*
X9820D01*
G75*
G02*
X9945Y32045I0J-647D01*
G01*
Y32705D01*
X9175Y33475D01*
X8087D01*
G75*
G02*
X7440Y34122I0J647D01*
G01*
Y35855D01*
G75*
G02*
X8087Y36502I647J0D01*
G01*
X9820D01*
G75*
G02*
X10467Y35855I0J-647D01*
G01*
Y34767D01*
X11497Y33737D01*
G75*
G02*
X11772Y33084I-639J-653D01*
G01*
Y31239D01*
X14037Y28974D01*
G75*
G02*
X14312Y28321I-639J-653D01*
G01*
Y26477D01*
X15086Y25703D01*
G75*
G02*
X15304Y25719I218J-1510D01*
G01*
G75*
G02*
X16149Y22924I0J-1526D01*
G01*
G75*
G02*
Y20384I-845J-1270D01*
G01*
G75*
G02*
X15304Y17588I-845J-1270D01*
G01*
G75*
G02*
X14082Y18200I0J1526D01*
G01*
X13716D01*
G75*
G02*
X13352Y18276I0J914D01*
G01*
G75*
G02*
X13360Y18161I-906J-115D01*
G01*
Y15682D01*
X14087Y14954D01*
G75*
G02*
X16829Y14034I1216J-921D01*
G01*
G75*
G02*
X16149Y12764I-1526J0D01*
G01*
G75*
G02*
Y10224I-845J-1270D01*
G01*
G75*
G02*
Y7684I-845J-1270D01*
G01*
G75*
G02*
Y5144I-845J-1270D01*
G01*
G75*
G02*
X15304Y2348I-845J-1270D01*
G01*
G75*
G02*
X14082Y2960I0J1526D01*
G01*
X10465D01*
G75*
G02*
X9820Y2360I-646J47D01*
G01*
X8087D01*
G75*
G02*
X7440Y3007I0J647D01*
G01*
X764Y19425D02*
G36*
X764Y19425D02*
Y764D01*
X66673D01*
Y19425D01*
X49872D01*
Y10859D01*
G75*
G02*
X49597Y10205I-914J0D01*
G01*
X42627Y3235D01*
G75*
G02*
X41974Y2960I-654J639D01*
G01*
X26685D01*
G75*
G02*
X23938Y3874I-1222J914D01*
G01*
Y3874D01*
G75*
G02*
X24618Y5144I1525J0D01*
G01*
G75*
G02*
X23938Y6414I845J1270D01*
G01*
G75*
G02*
X24618Y7684I1526J0D01*
G01*
G75*
G02*
X23938Y8954I845J1270D01*
G01*
G75*
G02*
X24618Y10224I1526J0D01*
G01*
G75*
G02*
X23938Y11494I845J1270D01*
G01*
G75*
G02*
X24618Y12764I1526J0D01*
G01*
G75*
G02*
X23938Y14034I845J1270D01*
G01*
G75*
G02*
X25464Y15559I1526J0D01*
G01*
G75*
G02*
X26685Y14947I0J-1526D01*
G01*
X40325D01*
X41734Y16356D01*
G75*
G02*
X41718Y16573I1494J217D01*
G01*
G75*
G02*
Y16574I1611J1D01*
G01*
Y16574D01*
G75*
G02*
X42398Y17844I1525J0D01*
G01*
G75*
G02*
X41718Y19114I845J1270D01*
G01*
G75*
G02*
X41750Y19425I1526J0D01*
G01*
X29497D01*
G75*
G02*
X29529Y19114I-1493J-312D01*
G01*
G75*
G02*
X28003Y17588I-1526J0D01*
G01*
G75*
G02*
X26782Y18200I0J1526D01*
G01*
X26685D01*
G75*
G02*
X23938Y19114I-1222J914D01*
G01*
Y19114D01*
G75*
G02*
X23970Y19425I1525J0D01*
G01*
X16797D01*
G75*
G02*
X16829Y19114I-1493J-312D01*
G01*
G75*
G02*
X15304Y17588I-1526J0D01*
G01*
G75*
G02*
X14082Y18200I0J1526D01*
G01*
X13716D01*
G75*
G02*
X13352Y18276I0J915D01*
G01*
G75*
G02*
X13360Y18161I-905J-114D01*
G01*
Y18161D01*
Y15682D01*
X14087Y14954D01*
G75*
G02*
X16829Y14034I1216J-921D01*
G01*
Y14033D01*
G75*
G02*
X16149Y12764I-1525J0D01*
G01*
G75*
G02*
X16829Y11494I-845J-1270D01*
G01*
G75*
G02*
X16149Y10224I-1526J0D01*
G01*
G75*
G02*
X16829Y8954I-845J-1270D01*
G01*
G75*
G02*
X16149Y7684I-1526J0D01*
G01*
G75*
G02*
X16829Y6414I-845J-1270D01*
G01*
G75*
G02*
X16149Y5144I-1526J0D01*
G01*
G75*
G02*
X16829Y3874I-845J-1270D01*
G01*
G75*
G02*
X15304Y2348I-1526J0D01*
G01*
G75*
G02*
X14082Y2960I0J1526D01*
G01*
X10465D01*
G75*
G02*
X9820Y2360I-646J47D01*
G01*
X8087D01*
G75*
G02*
X7440Y3007I0J647D01*
G01*
Y3007D01*
Y4740D01*
Y4740D01*
G75*
G02*
X8087Y5387I647J0D01*
G01*
X9820D01*
G75*
G02*
X10465Y4787I0J-647D01*
G01*
X14082D01*
G75*
G02*
X14458Y5144I1220J-911D01*
G01*
G75*
G02*
X14082Y5500I843J1268D01*
G01*
X10859D01*
G75*
G02*
X10205Y5775I0J914D01*
G01*
X9175Y6805D01*
X8087D01*
G75*
G02*
X7440Y7452I0J647D01*
G01*
Y7452D01*
Y9185D01*
Y9185D01*
G75*
G02*
X8087Y9832I647J0D01*
G01*
X9820D01*
G75*
G02*
X10467Y9185I0J-647D01*
G01*
Y9185D01*
Y8097D01*
X11237Y7327D01*
X14082D01*
G75*
G02*
X14458Y7684I1220J-911D01*
G01*
G75*
G02*
X14082Y8040I843J1268D01*
G01*
X12764D01*
G75*
G02*
X12110Y8315I0J914D01*
G01*
X9175Y11250D01*
X8087D01*
G75*
G02*
X7440Y11897I0J647D01*
G01*
Y11897D01*
Y13630D01*
Y13630D01*
G75*
G02*
X8087Y14277I647J0D01*
G01*
X9820D01*
G75*
G02*
X9945Y14265I0J-649D01*
G01*
Y14925D01*
X9175Y15695D01*
X8087D01*
G75*
G02*
X7440Y16342I0J647D01*
G01*
Y16342D01*
Y18075D01*
Y18075D01*
G75*
G02*
X8087Y18722I647J0D01*
G01*
X9820D01*
G75*
G02*
X10467Y18075I0J-647D01*
G01*
Y18075D01*
Y16987D01*
X11497Y15957D01*
G75*
G02*
X11533Y15920I-645J-659D01*
G01*
Y17783D01*
X9890Y19425D01*
X764D01*
G37*
Y37013D02*
G36*
X764Y37013D02*
Y19425D01*
X9890D01*
X9175Y20140D01*
X8087D01*
G75*
G02*
X7440Y20787I0J647D01*
G01*
Y20787D01*
Y22520D01*
Y22520D01*
G75*
G02*
X8087Y23167I647J0D01*
G01*
X9820D01*
G75*
G02*
X9945Y23155I0J-649D01*
G01*
Y23815D01*
X9175Y24585D01*
X8087D01*
G75*
G02*
X7440Y25232I0J647D01*
G01*
Y25232D01*
Y26965D01*
Y26965D01*
G75*
G02*
X8087Y27612I647J0D01*
G01*
X9820D01*
G75*
G02*
X10467Y26965I0J-647D01*
G01*
Y26965D01*
Y25877D01*
X11215Y25129D01*
Y26990D01*
X9175Y29030D01*
X8087D01*
G75*
G02*
X7440Y29677I0J647D01*
G01*
Y29677D01*
Y31410D01*
Y31410D01*
G75*
G02*
X8087Y32057I647J0D01*
G01*
X9820D01*
G75*
G02*
X9945Y32045I0J-649D01*
G01*
Y32705D01*
X9175Y33475D01*
X8087D01*
G75*
G02*
X7440Y34122I0J647D01*
G01*
Y34122D01*
Y35855D01*
Y35855D01*
G75*
G02*
X8087Y36502I647J0D01*
G01*
X9820D01*
G75*
G02*
X10467Y35855I0J-647D01*
G01*
Y35855D01*
Y34767D01*
X11497Y33737D01*
G75*
G02*
X11772Y33084I-639J-654D01*
G01*
Y31239D01*
X14037Y28974D01*
G75*
G02*
X14312Y28321I-639J-654D01*
G01*
Y26477D01*
X15086Y25703D01*
G75*
G02*
X15304Y25719I217J-1494D01*
G01*
G75*
G02*
X16829Y24194I0J-1526D01*
G01*
G75*
G02*
X16149Y22924I-1526J0D01*
G01*
G75*
G02*
X16829Y21654I-845J-1270D01*
G01*
G75*
G02*
X16149Y20384I-1526J0D01*
G01*
G75*
G02*
X16797Y19425I-845J-1270D01*
G01*
X23970D01*
G75*
G02*
X24618Y20384I1493J-312D01*
G01*
G75*
G02*
X23938Y21654I845J1270D01*
G01*
G75*
G02*
X24618Y22924I1526J0D01*
G01*
G75*
G02*
X23938Y24194I845J1270D01*
G01*
G75*
G02*
X25464Y25719I1526J0D01*
G01*
G75*
G02*
X26685Y25107I0J-1526D01*
G01*
X26782D01*
G75*
G02*
X27158Y25464I1220J-911D01*
G01*
G75*
G02*
X26478Y26734I845J1270D01*
G01*
G75*
G02*
X27158Y28003I1526J0D01*
G01*
G75*
G02*
X26478Y29274I845J1270D01*
G01*
G75*
G02*
X27158Y30544I1526J0D01*
G01*
G75*
G02*
X26782Y30900I843J1268D01*
G01*
X26416D01*
G75*
G02*
X25763Y31175I0J914D01*
G01*
X23819Y33119D01*
G75*
G02*
X23769Y33084I-953J1318D01*
G01*
G75*
G02*
X24449Y31814I-845J-1270D01*
G01*
G75*
G02*
X22924Y30288I-1526J0D01*
G01*
G75*
G02*
X21398Y31814I0J1526D01*
G01*
G75*
G02*
X22078Y33084I1526J0D01*
G01*
G75*
G02*
X21398Y34354I845J1270D01*
G01*
G75*
G02*
X21440Y34710I1526J0D01*
G01*
X19492D01*
X18497Y33715D01*
G75*
G02*
X17844Y33440I-654J639D01*
G01*
X16525D01*
G75*
G02*
X13778Y34353I-1222J914D01*
G01*
Y34354D01*
G75*
G02*
X14458Y35624I1525J0D01*
G01*
G75*
G02*
X14034Y36048I844J1269D01*
G01*
G75*
G02*
X11238Y36894I-1270J845D01*
G01*
Y36894D01*
G75*
G02*
X11243Y37013I1525J0D01*
G01*
X764D01*
G37*
X29225Y25820D02*
G36*
X29225Y25820D02*
G75*
G02*
X28849Y25464I-1220J911D01*
G01*
G75*
G02*
X29529Y24194I-845J-1270D01*
G01*
G75*
G02*
X28849Y22924I-1526J0D01*
G01*
G75*
G02*
X29529Y21654I-845J-1270D01*
G01*
G75*
G02*
X28849Y20384I-1526J0D01*
G01*
G75*
G02*
X29497Y19425I-845J-1270D01*
G01*
X41750D01*
G75*
G02*
X42398Y20384I1493J-312D01*
G01*
G75*
G02*
X41718Y21654I845J1270D01*
G01*
G75*
G02*
X42398Y22924I1526J0D01*
G01*
G75*
G02*
X41718Y24194I845J1270D01*
G01*
G75*
G02*
X42398Y25464I1526J0D01*
G01*
G75*
G02*
X41718Y26734I845J1270D01*
G01*
G75*
G02*
X42398Y28003I1526J0D01*
G01*
G75*
G02*
X41718Y29274I845J1270D01*
G01*
G75*
G02*
X41760Y29630I1526J0D01*
G01*
X41668D01*
G75*
G02*
X41010Y29898I-13J913D01*
G01*
X40375Y30533D01*
G75*
G02*
X40107Y31178I647J646D01*
G01*
G75*
G02*
Y31182I379J2D01*
G01*
G75*
G02*
X40108Y31191I370J1D01*
G01*
Y33706D01*
G75*
G02*
X40107Y33716I374J9D01*
G01*
G75*
G02*
Y33719I367J2D01*
G01*
G75*
G02*
X40375Y34365I914J0D01*
G01*
X41010Y35000D01*
G75*
G02*
X41668Y35267I646J-645D01*
G01*
X42022D01*
G75*
G02*
X42398Y35624I1220J-911D01*
G01*
G75*
G02*
X41718Y36894I845J1270D01*
G01*
G75*
G02*
X41723Y37013I1525J1D01*
G01*
X32727D01*
Y28639D01*
G75*
G02*
X32452Y27985I-914J0D01*
G01*
X30562Y26095D01*
G75*
G02*
X29909Y25820I-654J639D01*
G01*
X29225D01*
G37*
X49872Y20494D02*
G36*
X49872Y20494D02*
Y19425D01*
X66673D01*
Y37013D01*
X64677D01*
Y32142D01*
G75*
G02*
X64677Y32134I-284J-8D01*
G01*
G75*
G02*
Y32131I-284J-1D01*
G01*
G75*
G02*
X64351Y31344I-1114J0D01*
G01*
X62529Y29521D01*
G75*
G02*
X62549Y29274I-1506J-248D01*
G01*
G75*
G02*
X62137Y28231I-1526J0D01*
G01*
Y22696D01*
G75*
G02*
X62549Y21654I-1114J-1043D01*
G01*
G75*
G02*
X61024Y20128I-1526J0D01*
G01*
G75*
G02*
X59498Y21654I0J1526D01*
G01*
G75*
G02*
X59910Y22696I1526J0D01*
G01*
Y28160D01*
X55002D01*
G75*
G02*
X54204Y28486I-11J1114D01*
G01*
X51990Y30700D01*
X51404D01*
G75*
G02*
X52389Y29274I-541J-1427D01*
G01*
G75*
G02*
X51978Y28232I-1526J0D01*
G01*
G75*
G02*
X52402Y27625I-224J-608D01*
G01*
Y25842D01*
G75*
G02*
X52280Y25464I-648J0D01*
G01*
G75*
G02*
X52402Y25085I-525J-379D01*
G01*
Y23302D01*
G75*
G02*
X51978Y22695I-648J0D01*
G01*
G75*
G02*
X52389Y21654I-1115J-1041D01*
G01*
G75*
G02*
X49872Y20494I-1526J0D01*
G01*
G37*
X764Y74293D02*
G36*
X764Y74293D02*
Y37013D01*
X11243D01*
G75*
G02*
X11650Y37936I1520J-119D01*
G01*
Y38387D01*
G75*
G02*
X11649Y38388I2J3D01*
G01*
X7528D01*
G75*
G02*
X4639Y39316I-1236J1113D01*
G01*
X3721Y40234D01*
G75*
G02*
X3395Y41021I788J788D01*
G01*
G75*
G02*
Y41024I295J1D01*
G01*
G75*
G02*
X3395Y41032I287J0D01*
G01*
Y62283D01*
G75*
G02*
X3395Y62291I284J8D01*
G01*
G75*
G02*
Y62294I284J1D01*
G01*
G75*
G02*
X3721Y63081I1114J0D01*
G01*
X7531Y66891D01*
G75*
G02*
X8329Y67217I788J-788D01*
G01*
X10358D01*
X9374Y68201D01*
G75*
G02*
X7190Y69914I-421J1713D01*
G01*
G75*
G02*
X10717I1764J0D01*
G01*
G75*
G02*
X10666Y69493I-1770J1D01*
G01*
X11554Y68605D01*
X12852D01*
G75*
G02*
X12270Y69914I1182J1309D01*
G01*
G75*
G02*
X15797I1764J0D01*
G01*
G75*
G02*
X15215Y68605I-1764J0D01*
G01*
X24450D01*
X24543Y68697D01*
G75*
G02*
X23938Y69913I921J1216D01*
G01*
Y69914D01*
G75*
G02*
X26734Y70759I1526J0D01*
G01*
G75*
G02*
X29046Y71027I1270J-845D01*
G01*
X29501D01*
G75*
G02*
X31814Y70759I1043J-1114D01*
G01*
G75*
G02*
X34305Y70827I1270J-845D01*
G01*
X34402D01*
G75*
G02*
X36894Y70759I1222J-914D01*
G01*
G75*
G02*
X39385Y70827I1270J-845D01*
G01*
X39482D01*
G75*
G02*
X41974Y70759I1222J-914D01*
G01*
G75*
G02*
X44769Y69914I1270J-845D01*
G01*
Y69913D01*
G75*
G02*
X43784Y68487I-1525J0D01*
G01*
X45528D01*
Y68899D01*
X45940D01*
Y68950D01*
G75*
G02*
X45940Y68958I284J8D01*
G01*
G75*
G02*
Y68961I284J1D01*
G01*
G75*
G02*
X46266Y69748I1114J0D01*
G01*
X47219Y70701D01*
G75*
G02*
X48017Y71027I788J-788D01*
G01*
X57838D01*
G75*
G02*
X58636Y70701I11J-1114D01*
G01*
X60541Y68796D01*
G75*
G02*
X60865Y68075I-788J-788D01*
G01*
G75*
G02*
X62017Y66104I-1111J-1972D01*
G01*
G75*
G02*
X60867Y64133I-2264J0D01*
G01*
Y55770D01*
X64351Y52286D01*
G75*
G02*
X64677Y51499I-788J-788D01*
G01*
G75*
G02*
Y51496I-284J-1D01*
G01*
G75*
G02*
X64677Y51488I-284J-1D01*
G01*
Y48096D01*
G75*
G02*
X65089Y47053I-1114J-1043D01*
G01*
G75*
G02*
X64677Y46011I-1526J0D01*
G01*
Y37013D01*
X66673D01*
Y74293D01*
X764D01*
G37*
X29225Y43600D02*
G36*
X29225Y43600D02*
G75*
G02*
X28849Y43243I-1220J911D01*
G01*
G75*
G02*
X29529Y41973I-845J-1270D01*
G01*
G75*
G02*
X29487Y41617I-1526J0D01*
G01*
X29909D01*
G75*
G02*
X30562Y41342I0J-914D01*
G01*
X32452Y39452D01*
G75*
G02*
X32727Y38798I-639J-654D01*
G01*
Y37013D01*
X41723D01*
G75*
G02*
X41760Y37250I1521J-119D01*
G01*
X40386D01*
G75*
G02*
X39733Y37525I0J914D01*
G01*
X33658Y43600D01*
X29225D01*
G37*
X5622Y48480D02*
Y45937D01*
G75*
G02*
X7955Y44414I670J-1523D01*
G01*
G75*
G02*
X5622Y42892I-1663J0D01*
G01*
Y41482D01*
X5971Y41133D01*
G75*
G02*
X7528Y40615I321J-1632D01*
G01*
X11650D01*
G75*
G02*
X12327Y41068I1236J-1114D01*
G01*
G75*
G02*
X11793Y41335I119J906D01*
G01*
X10538Y42590D01*
G75*
G02*
X10263Y43243I639J653D01*
G01*
Y48914D01*
G75*
G02*
X7987Y48480I-1309J679D01*
G01*
X5622D01*
G36*
X5622Y48480D02*
Y45937D01*
G75*
G02*
X7955Y44414I670J-1523D01*
G01*
G75*
G02*
X5622Y42892I-1663J0D01*
G01*
Y41482D01*
X5971Y41133D01*
G75*
G02*
X7528Y40615I321J-1632D01*
G01*
X11650D01*
G75*
G02*
X12327Y41068I1236J-1114D01*
G01*
G75*
G02*
X11793Y41335I119J906D01*
G01*
X10538Y42590D01*
G75*
G02*
X10263Y43243I639J653D01*
G01*
Y48914D01*
G75*
G02*
X7987Y48480I-1309J679D01*
G01*
X5622D01*
G37*
Y61832D02*
Y50707D01*
X7987D01*
G75*
G02*
X10263Y50273I967J-1114D01*
G01*
Y51816D01*
G75*
G02*
X10538Y52469I914J0D01*
G01*
X12110Y54042D01*
G75*
G02*
X12764Y54317I653J-639D01*
G01*
X13765D01*
Y55565D01*
G75*
G02*
X14412Y56212I647J0D01*
G01*
X15550D01*
X17190Y57852D01*
G75*
G02*
X17844Y58127I653J-639D01*
G01*
X33023D01*
X33124Y58228D01*
G75*
G02*
X33084Y58228I-39J1523D01*
G01*
G75*
G02*
X31862Y58840I0J1526D01*
G01*
X26685D01*
G75*
G02*
X23938Y59754I-1222J914D01*
G01*
G75*
G02*
X26685Y60667I1526J0D01*
G01*
X27090D01*
Y61072D01*
G75*
G02*
X27220Y63603I914J1222D01*
G01*
X24889D01*
X20402Y59115D01*
G75*
G02*
X19749Y58840I-653J639D01*
G01*
X13002D01*
G75*
G02*
X9730Y59754I-1509J914D01*
G01*
G75*
G02*
X13002Y60667I1764J0D01*
G01*
X19370D01*
X19529Y60826D01*
G75*
G02*
X18000Y63336I-415J1468D01*
G01*
Y64990D01*
X8780D01*
X5622Y61832D01*
G36*
X5622Y61832D02*
Y50707D01*
X7987D01*
G75*
G02*
X10263Y50273I967J-1114D01*
G01*
Y51816D01*
G75*
G02*
X10538Y52469I914J0D01*
G01*
X12110Y54042D01*
G75*
G02*
X12764Y54317I653J-639D01*
G01*
X13765D01*
Y55565D01*
G75*
G02*
X14412Y56212I647J0D01*
G01*
X15550D01*
X17190Y57852D01*
G75*
G02*
X17844Y58127I653J-639D01*
G01*
X33023D01*
X33124Y58228D01*
G75*
G02*
X33084Y58228I-39J1523D01*
G01*
G75*
G02*
X31862Y58840I0J1526D01*
G01*
X26685D01*
G75*
G02*
X23938Y59754I-1222J914D01*
G01*
G75*
G02*
X26685Y60667I1526J0D01*
G01*
X27090D01*
Y61072D01*
G75*
G02*
X27220Y63603I914J1222D01*
G01*
X24889D01*
X20402Y59115D01*
G75*
G02*
X19749Y58840I-653J639D01*
G01*
X13002D01*
G75*
G02*
X9730Y59754I-1509J914D01*
G01*
G75*
G02*
X13002Y60667I1764J0D01*
G01*
X19370D01*
X19529Y60826D01*
G75*
G02*
X18000Y63336I-415J1468D01*
G01*
Y64990D01*
X8780D01*
X5622Y61832D01*
G37*
X18779Y54317D02*
X49594D01*
G75*
G02*
X50247Y54042I0J-914D01*
G01*
X53186Y51103D01*
G75*
G02*
X54317Y48372I218J-1510D01*
G01*
Y48067D01*
X54685Y47700D01*
G75*
G02*
X54952Y47053I-646J-646D01*
G01*
G75*
G02*
X54952Y47041I-911J1D01*
G01*
Y45673D01*
G75*
G02*
X57165Y45427I992J-1159D01*
G01*
X58801D01*
G75*
G02*
X59454Y45152I0J-914D01*
G01*
X59598Y45008D01*
G75*
G02*
X59475Y45466I791J457D01*
G01*
Y51120D01*
X55248Y55347D01*
X19809D01*
X18779Y54317D01*
G36*
X18779Y54317D02*
X49594D01*
G75*
G02*
X50247Y54042I0J-914D01*
G01*
X53186Y51103D01*
G75*
G02*
X54317Y48372I218J-1510D01*
G01*
Y48067D01*
X54685Y47700D01*
G75*
G02*
X54952Y47053I-646J-646D01*
G01*
G75*
G02*
X54952Y47041I-911J1D01*
G01*
Y45673D01*
G75*
G02*
X57165Y45427I992J-1159D01*
G01*
X58801D01*
G75*
G02*
X59454Y45152I0J-914D01*
G01*
X59598Y45008D01*
G75*
G02*
X59475Y45466I791J457D01*
G01*
Y51120D01*
X55248Y55347D01*
X19809D01*
X18779Y54317D01*
G37*
X26309Y5144D02*
G75*
G02*
X26685Y4787I-845J-1270D01*
G01*
X41595D01*
X42431Y5623D01*
G75*
G02*
X41974Y5500I-457J791D01*
G01*
X26685D01*
G75*
G02*
X26309Y5144I-1222J914D01*
G01*
G36*
X26309Y5144D02*
G75*
G02*
X26685Y4787I-845J-1270D01*
G01*
X41595D01*
X42431Y5623D01*
G75*
G02*
X41974Y5500I-457J791D01*
G01*
X26685D01*
G75*
G02*
X26309Y5144I-1222J914D01*
G01*
G37*
Y7684D02*
G75*
G02*
X26685Y7327I-845J-1270D01*
G01*
X41595D01*
X42431Y8163D01*
G75*
G02*
X41974Y8040I-457J791D01*
G01*
X26685D01*
G75*
G02*
X26309Y7684I-1222J914D01*
G01*
G36*
X26309Y7684D02*
G75*
G02*
X26685Y7327I-845J-1270D01*
G01*
X41595D01*
X42431Y8163D01*
G75*
G02*
X41974Y8040I-457J791D01*
G01*
X26685D01*
G75*
G02*
X26309Y7684I-1222J914D01*
G01*
G37*
Y10224D02*
G75*
G02*
X26685Y9867I-845J-1270D01*
G01*
X41595D01*
X42431Y10703D01*
G75*
G02*
X41974Y10580I-457J791D01*
G01*
X26685D01*
G75*
G02*
X26309Y10224I-1222J914D01*
G01*
G36*
X26309Y10224D02*
G75*
G02*
X26685Y9867I-845J-1270D01*
G01*
X41595D01*
X42431Y10703D01*
G75*
G02*
X41974Y10580I-457J791D01*
G01*
X26685D01*
G75*
G02*
X26309Y10224I-1222J914D01*
G01*
G37*
Y12764D02*
G75*
G02*
X26685Y12407I-845J-1270D01*
G01*
X41595D01*
X44235Y15047D01*
Y15414D01*
G75*
G02*
X43243Y15048I-992J1159D01*
G01*
G75*
G02*
X43026Y15064I0J1525D01*
G01*
X41357Y13395D01*
G75*
G02*
X40703Y13120I-653J639D01*
G01*
X26685D01*
G75*
G02*
X26309Y12764I-1222J914D01*
G01*
G36*
X26309Y12764D02*
G75*
G02*
X26685Y12407I-845J-1270D01*
G01*
X41595D01*
X44235Y15047D01*
Y15414D01*
G75*
G02*
X43243Y15048I-992J1159D01*
G01*
G75*
G02*
X43026Y15064I0J1525D01*
G01*
X41357Y13395D01*
G75*
G02*
X40703Y13120I-653J639D01*
G01*
X26685D01*
G75*
G02*
X26309Y12764I-1222J914D01*
G01*
G37*
X27634Y65430D02*
X29896D01*
G75*
G02*
X30555Y65162I12J-914D01*
G01*
X31190Y64527D01*
G75*
G02*
X31457Y63881I-646J-646D01*
G01*
G75*
G02*
X31457Y63869I-911J1D01*
G01*
Y63515D01*
G75*
G02*
X31765Y63207I-913J-1222D01*
G01*
X31862D01*
G75*
G02*
X34353Y63139I1222J-914D01*
G01*
G75*
G02*
X36845Y63207I1270J-845D01*
G01*
X36942D01*
G75*
G02*
X39434Y63139I1222J-914D01*
G01*
G75*
G02*
X42229Y62294I1270J-845D01*
G01*
G75*
G02*
X39434Y61448I-1526J0D01*
G01*
G75*
G02*
X36942Y61380I-1270J845D01*
G01*
X36845D01*
G75*
G02*
X36537Y61072I-1222J913D01*
G01*
Y59436D01*
G75*
G02*
X36262Y58783I-914J0D01*
G01*
X34654Y57175D01*
X48375D01*
X47546Y58004D01*
G75*
G02*
X47210Y58787I777J797D01*
G01*
G75*
G02*
X46849Y59754I1113J967D01*
G01*
G75*
G02*
X49798I1475J0D01*
G01*
G75*
G02*
X49630Y59069I-1475J0D01*
G01*
X50055Y58645D01*
X58640D01*
Y64133D01*
G75*
G02*
X58327Y67861I1114J1971D01*
G01*
X57387Y68800D01*
X48579D01*
Y65848D01*
X45528D01*
Y66260D01*
X28465D01*
X27634Y65430D01*
G36*
X27634Y65430D02*
X29896D01*
G75*
G02*
X30555Y65162I12J-914D01*
G01*
X31190Y64527D01*
G75*
G02*
X31457Y63881I-646J-646D01*
G01*
G75*
G02*
X31457Y63869I-911J1D01*
G01*
Y63515D01*
G75*
G02*
X31765Y63207I-913J-1222D01*
G01*
X31862D01*
G75*
G02*
X34353Y63139I1222J-914D01*
G01*
G75*
G02*
X36845Y63207I1270J-845D01*
G01*
X36942D01*
G75*
G02*
X39434Y63139I1222J-914D01*
G01*
G75*
G02*
X42229Y62294I1270J-845D01*
G01*
G75*
G02*
X39434Y61448I-1526J0D01*
G01*
G75*
G02*
X36942Y61380I-1270J845D01*
G01*
X36845D01*
G75*
G02*
X36537Y61072I-1222J913D01*
G01*
Y59436D01*
G75*
G02*
X36262Y58783I-914J0D01*
G01*
X34654Y57175D01*
X48375D01*
X47546Y58004D01*
G75*
G02*
X47210Y58787I777J797D01*
G01*
G75*
G02*
X46849Y59754I1113J967D01*
G01*
G75*
G02*
X49798I1475J0D01*
G01*
G75*
G02*
X49630Y59069I-1475J0D01*
G01*
X50055Y58645D01*
X58640D01*
Y64133D01*
G75*
G02*
X58327Y67861I1114J1971D01*
G01*
X57387Y68800D01*
X48579D01*
Y65848D01*
X45528D01*
Y66260D01*
X28465D01*
X27634Y65430D01*
G37*
X28849Y48324D02*
G75*
G02*
X29225Y47967I-845J-1270D01*
G01*
X33658D01*
X34653Y48962D01*
G75*
G02*
X35306Y49237I653J-639D01*
G01*
X40120D01*
X39916Y49441D01*
G75*
G02*
X39590Y50228I787J788D01*
G01*
G75*
G02*
X39590Y50239I1109J-5D01*
G01*
Y51091D01*
G75*
G02*
X39220Y52490I1113J1043D01*
G01*
X32027D01*
G75*
G02*
X29322Y51220I-1483J-357D01*
G01*
X28917D01*
Y50815D01*
G75*
G02*
X28849Y48324I-914J-1222D01*
G01*
G36*
X28849Y48324D02*
G75*
G02*
X29225Y47967I-845J-1270D01*
G01*
X33658D01*
X34653Y48962D01*
G75*
G02*
X35306Y49237I653J-639D01*
G01*
X40120D01*
X39916Y49441D01*
G75*
G02*
X39590Y50228I787J788D01*
G01*
G75*
G02*
X39590Y50239I1109J-5D01*
G01*
Y51091D01*
G75*
G02*
X39220Y52490I1113J1043D01*
G01*
X32027D01*
G75*
G02*
X29322Y51220I-1483J-357D01*
G01*
X28917D01*
Y50815D01*
G75*
G02*
X28849Y48324I-914J-1222D01*
G01*
G37*
X34933Y44908D02*
X40230Y39611D01*
G75*
G02*
X40107Y40069I791J457D01*
G01*
G75*
G02*
X40108Y40081I910J-1D01*
G01*
Y42596D01*
G75*
G02*
X40107Y42608I910J14D01*
G01*
G75*
G02*
X40375Y43255I914J0D01*
G01*
X41010Y43890D01*
G75*
G02*
X41668Y44157I646J-646D01*
G01*
X41760D01*
G75*
G02*
X42398Y45783I1483J357D01*
G01*
G75*
G02*
X42022Y46140I845J1270D01*
G01*
X36319D01*
X35324Y45145D01*
G75*
G02*
X34933Y44908I-653J639D01*
G01*
G36*
X34933Y44908D02*
X40230Y39611D01*
G75*
G02*
X40107Y40069I791J457D01*
G01*
G75*
G02*
X40108Y40081I910J-1D01*
G01*
Y42596D01*
G75*
G02*
X40107Y42608I910J14D01*
G01*
G75*
G02*
X40375Y43255I914J0D01*
G01*
X41010Y43890D01*
G75*
G02*
X41668Y44157I646J-646D01*
G01*
X41760D01*
G75*
G02*
X42398Y45783I1483J357D01*
G01*
G75*
G02*
X42022Y46140I845J1270D01*
G01*
X36319D01*
X35324Y45145D01*
G75*
G02*
X34933Y44908I-653J639D01*
G01*
G37*
X41817Y51091D02*
Y50707D01*
X42201D01*
G75*
G02*
X44286I1043J-1114D01*
G01*
X47357D01*
G75*
G02*
X49755Y49237I967J-1114D01*
G01*
X50228D01*
G75*
G02*
X50882Y48962I0J-914D01*
G01*
X52613Y47231D01*
G75*
G02*
X52490Y47689I791J457D01*
G01*
G75*
G02*
X52490Y47701I910J-1D01*
G01*
Y48372D01*
G75*
G02*
X51878Y49594I913J1222D01*
G01*
G75*
G02*
X51894Y49812I1525J0D01*
G01*
X49215Y52490D01*
X42187D01*
G75*
G02*
X41817Y51091I-1483J-356D01*
G01*
G36*
X41817Y51091D02*
Y50707D01*
X42201D01*
G75*
G02*
X44286I1043J-1114D01*
G01*
X47357D01*
G75*
G02*
X49755Y49237I967J-1114D01*
G01*
X50228D01*
G75*
G02*
X50882Y48962I0J-914D01*
G01*
X52613Y47231D01*
G75*
G02*
X52490Y47689I791J457D01*
G01*
G75*
G02*
X52490Y47701I910J-1D01*
G01*
Y48372D01*
G75*
G02*
X51878Y49594I913J1222D01*
G01*
G75*
G02*
X51894Y49812I1525J0D01*
G01*
X49215Y52490D01*
X42187D01*
G75*
G02*
X41817Y51091I-1483J-356D01*
G01*
G37*
X45449Y42330D02*
X47256Y40523D01*
G75*
G02*
X49849Y39434I1068J-1090D01*
G01*
G75*
G02*
X49169Y38164I-1526J0D01*
G01*
G75*
G02*
X49807Y36537I-845J-1270D01*
G01*
X51833D01*
X50860Y37510D01*
G75*
G02*
X50585Y38164I639J653D01*
G01*
Y44135D01*
X49850Y44870D01*
X49807D01*
G75*
G02*
X47256Y43424I-1483J-357D01*
G01*
X46437Y42605D01*
G75*
G02*
X45783Y42330I-653J639D01*
G01*
X45449D01*
G36*
X45449Y42330D02*
X47256Y40523D01*
G75*
G02*
X49849Y39434I1068J-1090D01*
G01*
G75*
G02*
X49169Y38164I-1526J0D01*
G01*
G75*
G02*
X49807Y36537I-845J-1270D01*
G01*
X51833D01*
X50860Y37510D01*
G75*
G02*
X50585Y38164I639J653D01*
G01*
Y44135D01*
X49850Y44870D01*
X49807D01*
G75*
G02*
X47256Y43424I-1483J-357D01*
G01*
X46437Y42605D01*
G75*
G02*
X45783Y42330I-653J639D01*
G01*
X45449D01*
G37*
D02*
D11*
X2604Y47053D02*
Y67691D01*
X7366Y72454D01*
X50864D01*
X4508Y49594D02*
Y62294D01*
X8319Y66104D01*
X19114D01*
X8954Y49594D02*
X4508D01*
X12764Y31814D02*
X15304D01*
X12764Y36894D02*
Y39379D01*
X12885Y39501D01*
X6029D01*
X4508Y41021D01*
Y49594D01*
X19114Y16574D02*
X28003D01*
X19114Y62294D02*
Y66104D01*
X26734D01*
X28003Y67374D01*
X22924Y47053D02*
X20066D01*
X19114Y48006D01*
Y49594D01*
X28003Y69914D02*
Y67374D01*
Y69914D02*
X30544D01*
Y67374D02*
X28003D01*
X30544D02*
Y69914D01*
X38164Y59754D02*
X42608D01*
X43243Y60389D01*
Y62294D01*
X40703Y52134D02*
Y50228D01*
X41339Y49594D01*
X43243D01*
X48324D01*
X43243Y62294D02*
X47053D01*
Y64834D01*
Y62294D01*
X53403D01*
Y64834D01*
X47053Y67374D02*
Y68961D01*
X48006Y69914D01*
X57849D01*
X59754Y68009D01*
Y66104D01*
X47053Y67374D02*
X30544D01*
X48324Y59754D02*
Y58801D01*
X49594Y57531D01*
X59754D01*
X50864Y54674D02*
X54356D01*
X58484Y50546D01*
Y47053D01*
X50864Y54674D02*
X22924D01*
X53403Y59754D02*
X55943D01*
X53403D02*
Y64834D01*
X54674Y66104D02*
X53403Y64834D01*
X55943Y49594D02*
Y47053D01*
X58484D02*
X55943D01*
X59754Y57531D02*
Y66104D01*
X61024Y29274D02*
Y21654D01*
Y29274D02*
X54991D01*
X52451Y31814D01*
X48324D01*
X61024Y29274D02*
Y29591D01*
X63564Y32131D01*
Y47053D01*
Y51499D01*
X59754Y55309D01*
Y57531D01*
D02*
D12*
X8954Y49594D03*
X19114D03*
X48324D03*
Y59754D03*
X50864Y62294D03*
Y72454D03*
X55943Y49594D03*
Y59754D03*
D02*
D13*
X8954Y3874D02*
X15304D01*
X8954Y8319D02*
X10859Y6414D01*
X15304D01*
X8954Y12764D02*
X12764Y8954D01*
X15304D01*
X8954Y17209D02*
X10859Y15304D01*
Y13716D01*
X13081Y11494D01*
X15304D01*
X8954Y26099D02*
X10859Y24194D01*
Y21971D01*
X13716Y19114D01*
X15304D01*
X8954Y30544D02*
X12129Y27369D01*
Y23241D01*
X13716Y21654D01*
X15304D01*
X8954Y69914D02*
X11176Y67691D01*
X24828D01*
X25464Y68326D01*
Y69914D01*
X11494Y59754D02*
X19749D01*
X24511Y64516D01*
X29909D01*
X30544Y63881D01*
Y62294D01*
X12764Y47053D02*
X15304D01*
Y14034D02*
X13716D01*
X12446Y15304D01*
Y18161D01*
X8954Y21654D01*
X15304Y24194D02*
X13399Y26099D01*
Y28321D01*
X10859Y30861D01*
Y33084D01*
X8954Y34989D01*
X15304Y34353D02*
X17844D01*
X19114Y35624D01*
X24828D01*
X26099Y34353D01*
X28003D01*
X15304Y36894D02*
X17844D01*
X19114Y38164D01*
X23876D01*
X25146Y36894D01*
X28003D01*
X15304Y39434D02*
X17844D01*
X19114Y40703D01*
X24511D01*
X25781Y39434D01*
X28003D01*
X15304Y41974D02*
X12446D01*
X11176Y43243D01*
Y51816D01*
X12764Y53403D01*
X16574D01*
X19431Y56261D01*
X55626D01*
X60389Y51499D01*
Y45466D01*
X61658Y44196D01*
Y34353D01*
X59118Y31814D01*
X55943D01*
X15304Y41974D02*
X17844D01*
X19114Y43243D01*
X25146D01*
X26416Y41974D01*
X28003D01*
X15304Y44514D02*
X16574D01*
X17209Y45149D01*
Y52451D01*
X18161Y53403D01*
X49594D01*
X53403Y49594D01*
X15304Y44514D02*
X12984D01*
X12885Y44414D01*
X15304Y52134D02*
Y47053D01*
Y54674D02*
X17844Y57214D01*
X33401D01*
X35624Y59436D01*
Y62294D01*
X19114Y52134D02*
X22924D01*
Y34353D02*
X23876D01*
X26416Y31814D01*
X28003D01*
X22924Y39434D02*
X24194D01*
X25464Y38164D01*
X29909D01*
X30544Y37529D01*
Y29909D01*
X29909Y29274D01*
X28003D01*
X22924Y41974D02*
X24828D01*
X26099Y40703D01*
X29909D01*
X31814Y38798D01*
Y28639D01*
X29909Y26734D01*
X28003D01*
X22924Y52134D02*
Y49911D01*
X27051Y45783D01*
X34671D01*
X35941Y47053D01*
X43243D01*
X25464Y3874D02*
X41974D01*
X48959Y10859D01*
Y22289D01*
X44514Y26734D01*
X43243D01*
X25464Y6414D02*
X41974D01*
X47689Y12129D01*
Y21019D01*
X44514Y24194D01*
X43243D01*
X25464Y8954D02*
X41974D01*
X46419Y13399D01*
Y19749D01*
X44514Y21654D01*
X43243D01*
X25464Y11494D02*
X41974D01*
X45149Y14669D01*
Y18479D01*
X44514Y19114D01*
X43243D01*
X25464Y14034D02*
X40703D01*
X43243Y16574D01*
X25464Y19114D02*
X28003D01*
X25464Y21654D02*
X28003D01*
X25464Y24194D02*
X28003D01*
X25464Y52134D02*
X28003D01*
X25464Y59754D02*
X28003D01*
Y52134D02*
Y49594D01*
Y59754D02*
Y62294D01*
X30544Y52134D02*
X28003D01*
X33084Y59754D02*
X28003D01*
X33084Y62294D02*
X30544D01*
X33084Y69914D02*
X35624D01*
Y62294D02*
X38164D01*
Y69914D02*
X40703D01*
X43243Y29274D02*
X44514D01*
X49594Y24194D01*
X50864D01*
X43243Y31814D02*
X46101D01*
X47371Y33084D01*
X58484D01*
X60389Y34989D01*
Y42926D01*
X58801Y44514D01*
X55943D01*
X43243Y36894D02*
X44831D01*
X46101Y35624D01*
X56896D01*
X57849Y36576D01*
Y41339D01*
X57214Y41974D01*
X55943D01*
X43243Y39434D02*
X41656D01*
X41021Y40069D01*
Y42608D01*
X41656Y43243D01*
X45783D01*
X47053Y44514D01*
X48324D01*
X43243Y41974D02*
X44514D01*
X47053Y39434D01*
X48324D01*
X43243Y44514D02*
X45149D01*
X46419Y45783D01*
X50228D01*
X51499Y44514D01*
Y38164D01*
X52769Y36894D01*
X55943D01*
X48324D02*
X46419D01*
X45149Y38164D01*
X40386D01*
X34036Y44514D01*
X28003D01*
X50864Y21654D02*
Y24194D01*
Y26734D02*
Y29274D01*
X47371D01*
X46101Y30544D01*
X41656D01*
X41021Y31178D01*
Y33719D01*
X41656Y34353D01*
X43243D01*
X55943D02*
X57849D01*
X59118Y35624D01*
Y41974D01*
X57849Y43243D01*
X54674D01*
X54039Y43879D01*
Y47053D01*
X53403Y47689D01*
Y49594D01*
X55943Y39434D02*
X53721D01*
X52769Y40386D01*
Y45783D01*
X50228Y48324D01*
X35306D01*
X34036Y47053D01*
X28003D01*
D02*
D14*
X47053Y67374D03*
D02*
D15*
X2604Y47053D03*
X12764Y31814D03*
Y36894D03*
Y47053D03*
X15304Y3874D03*
Y6414D03*
Y8954D03*
Y11494D03*
Y14034D03*
Y19114D03*
Y21654D03*
Y24194D03*
Y31814D03*
Y34353D03*
Y36894D03*
Y39434D03*
Y41974D03*
Y44514D03*
Y47053D03*
X19114Y52134D03*
Y62294D03*
X22924Y31814D03*
Y34353D03*
Y36894D03*
Y39434D03*
Y41974D03*
Y44514D03*
Y47053D03*
X25464Y3874D03*
Y6414D03*
Y8954D03*
Y11494D03*
Y14034D03*
Y19114D03*
Y21654D03*
Y24194D03*
Y59754D03*
Y69914D03*
X28003Y16574D03*
Y19114D03*
Y21654D03*
Y24194D03*
Y26734D03*
Y29274D03*
Y31814D03*
Y34353D03*
Y36894D03*
Y39434D03*
Y41974D03*
Y44514D03*
Y47053D03*
Y49594D03*
Y62294D03*
Y69914D03*
X30544Y52134D03*
Y62294D03*
Y69914D03*
X33084Y59754D03*
Y62294D03*
Y69914D03*
X35624Y62294D03*
Y69914D03*
X38164Y59754D03*
Y62294D03*
Y69914D03*
X40703Y52134D03*
Y62294D03*
Y69914D03*
X43243Y16574D03*
Y19114D03*
Y21654D03*
Y24194D03*
Y26734D03*
Y29274D03*
Y31814D03*
Y34353D03*
Y36894D03*
Y39434D03*
Y41974D03*
Y44514D03*
Y47053D03*
Y49594D03*
Y62294D03*
Y69914D03*
X47053Y64834D03*
X48324Y31814D03*
Y34353D03*
Y36894D03*
Y39434D03*
Y41974D03*
Y44514D03*
Y47053D03*
X50864Y21654D03*
Y29274D03*
X53403Y49594D03*
Y59754D03*
X55943Y31814D03*
Y34353D03*
Y36894D03*
Y39434D03*
Y41974D03*
Y44514D03*
Y47053D03*
X58484D03*
X61024Y21654D03*
Y29274D03*
X63564Y47053D03*
D02*
D16*
X6414Y3874D03*
Y8319D03*
Y12764D03*
Y17209D03*
Y21654D03*
Y26099D03*
Y30544D03*
Y34989D03*
D02*
D17*
X8954Y3874D03*
Y8319D03*
Y12764D03*
Y17209D03*
Y21654D03*
Y26099D03*
Y30544D03*
Y34989D03*
D02*
D18*
Y69914D03*
X11494Y59754D03*
X14034Y69914D03*
D02*
D19*
X19114Y16574D03*
X21654D03*
X50864D03*
X53403D03*
D02*
D70*
X54674Y66104D03*
X59754D03*
D02*
D71*
X50864Y24194D03*
Y26734D03*
X53403Y24194D03*
Y26734D03*
D02*
D20*
X15304Y52134D03*
Y54674D03*
X22924Y52134D03*
Y54674D03*
X25464Y52134D03*
Y54674D03*
D02*
D21*
X6292Y39501D03*
Y44414D03*
X12885Y39501D03*
Y44414D03*
X0Y0D02*
M02*
