G05
M48
;#@! TF.GenerationSoftware,Number One Systems,Easy-PC,27.0.5940
;#@! TF.CreationDate,2026-07-31T08:02:30--1:00*
;#@! TF.FileFunction,Plated,1,4,PTH
;FILE_FORMAT=3:3
;TYPE=PLATED
METRIC,000.000
FMAT,2
T1C000.800
T2C000.813
T3C000.950
T4C001.000
T5C001.150
T6C001.300
%
T001
X006414Y003874
X006414Y008319
X006414Y012764
X006414Y017209
X006414Y021654
X006414Y026099
X006414Y030544
X006414Y034989
X008954Y003874
X008954Y008319
X008954Y012764
X008954Y017209
X008954Y021654
X008954Y026099
X008954Y030544
X008954Y034989
T002
X002604Y047054
X008954Y049594
X012764Y031814
X012764Y036894
X012764Y047054
X015304Y003874
X015304Y006414
X015304Y008954
X015304Y011494
X015304Y014034
X015304Y019114
X015304Y021654
X015304Y024194
X015304Y031814
X015304Y034354
X015304Y036894
X015304Y039434
X015304Y041974
X015304Y044514
X015304Y047054
X019114Y049594
X019114Y052134
X019114Y062294
X022924Y031814
X022924Y034354
X022924Y036894
X022924Y039434
X022924Y041974
X022924Y044514
X022924Y047054
X025464Y003874
X025464Y006414
X025464Y008954
X025464Y011494
X025464Y014034
X025464Y019114
X025464Y021654
X025464Y024194
X025464Y059754
X025464Y069914
X028004Y016574
X028004Y019114
X028004Y021654
X028004Y024194
X028004Y026734
X028004Y029274
X028004Y031814
X028004Y034354
X028004Y036894
X028004Y039434
X028004Y041974
X028004Y044514
X028004Y047054
X028004Y049594
X028004Y062294
X028004Y069914
X030544Y052134
X030544Y062294
X030544Y069914
X033084Y059754
X033084Y062294
X033084Y069914
X035624Y062294
X035624Y069914
X038164Y059754
X038164Y062294
X038164Y069914
X040704Y052134
X040704Y062294
X040704Y069914
X043244Y016574
X043244Y019114
X043244Y021654
X043244Y024194
X043244Y026734
X043244Y029274
X043244Y031814
X043244Y034354
X043244Y036894
X043244Y039434
X043244Y041974
X043244Y044514
X043244Y047054
X043244Y049594
X043244Y062294
X043244Y069914
X047054Y064834
X047054Y067374
X048324Y031814
X048324Y034354
X048324Y036894
X048324Y039434
X048324Y041974
X048324Y044514
X048324Y047054
X048324Y049594
X048324Y059754
X050864Y021654
X050864Y029274
X050864Y062294
X050864Y072454
X053404Y049594
X053404Y059754
X055944Y031814
X055944Y034354
X055944Y036894
X055944Y039434
X055944Y041974
X055944Y044514
X055944Y047054
X055944Y049594
X055944Y059754
X058484Y047054
X061024Y021654
X061024Y029274
X063564Y047054
T003
X015304Y052134
X015304Y054674
X019114Y016574
X021654Y016574
X022924Y052134
X022924Y054674
X025464Y052134
X025464Y054674
X050864Y016574
X050864Y024194
X050864Y026734
X053404Y016574
X053404Y024194
X053404Y026734
T004
X006292Y039501
X006292Y044414
X012885Y039501
X012885Y044414
T005
X008954Y069914
X011494Y059754
X014034Y069914
T006
X054674Y066104
X059754Y066104
M30
