G04 Easy-PC Gerber Version 27.0 Build 5942*
%FSLAX33Y33*%
%MOMM*%
%AMT21*0 Rounded Rectangle Pad at angle 0*4,1,36,-0.55000,-0.75000,0.55000,-0.75000,0.58900,-0.74620,0.62650,-0.73480,0.66110,-0.71630,0.69140,-0.69140,0.71630,-0.66110,0.73480,-0.62650,0.74620,-0.58900,0.75000,-0.55000,0.75000,0.55000,0.74620,0.58900,0.73480,0.62650,0.71630,0.66110,0.69140,0.69140,0.66110,0.71630,0.62650,0.73480,0.58900,0.74620,0.55000,0.75000,-0.55000,0.75000,-0.58900,0.74620,-0.62650,0.73480,-0.66110,0.71630,-0.69140,0.69140,-0.71630,0.66110,-0.73480,0.62650,-0.74620,0.58900,-0.75000,0.55000,-0.75000,-0.55000,-0.74620,-0.58900,-0.73480,-0.62650,-0.71630,-0.66110,-0.69140,-0.69140,-0.66110,-0.71630,-0.62650,-0.73480,-0.58900,-0.74620,-0.55000,-0.75000,0*%
%ADD21T21*%
%AMT27*0 Rounded Rectangle Pad at angle 0*4,1,36,-0.56000,-0.76000,0.56000,-0.76000,0.59900,-0.75620,0.63650,-0.74480,0.67110,-0.72630,0.70140,-0.70140,0.72630,-0.67110,0.74480,-0.63650,0.75620,-0.59900,0.76000,-0.56000,0.76000,0.56000,0.75620,0.59900,0.74480,0.63650,0.72630,0.67110,0.70140,0.70140,0.67110,0.72630,0.63650,0.74480,0.59900,0.75620,0.56000,0.76000,-0.56000,0.76000,-0.59900,0.75620,-0.63650,0.74480,-0.67110,0.72630,-0.70140,0.70140,-0.72630,0.67110,-0.74480,0.63650,-0.75620,0.59900,-0.76000,0.56000,-0.76000,-0.56000,-0.75620,-0.59900,-0.74480,-0.63650,-0.72630,-0.67110,-0.70140,-0.70140,-0.67110,-0.72630,-0.63650,-0.74480,-0.59900,-0.75620,-0.56000,-0.76000,0*%
%ADD27T27*%
%ADD16R,1.52400X1.52400*%
%ADD70R,1.52400X1.52400*%
%ADD24R,1.65100X1.65100*%
%ADD18R,2.54000X2.54000*%
%ADD10C,0.12700*%
%ADD13C,0.30000*%
%ADD11C,0.70000*%
%ADD12C,1.42240*%
%ADD20C,1.50000*%
%ADD14C,1.52000*%
%ADD15C,1.52400*%
%ADD71C,1.60000*%
%ADD23C,1.65100*%
%ADD25C,1.77800*%
%ADD22C,2.15900*%
%ADD17C,3.55600*%
%ADD19O,2.20000X1.50000*%
%ADD26C,3.81000*%
X0Y0D02*
D02*
D10*
X701Y42924D02*
Y701D01*
X88009D01*
Y42924D01*
X701D01*
X2643Y13399D02*
Y30226D01*
G75*
G02*
X2918Y30879I914J0D01*
G01*
X4808Y32770D01*
G75*
G02*
X5461Y33045I653J-639D01*
G01*
X33719D01*
G75*
G02*
X34372Y32770I0J-914D01*
G01*
X37272Y29870D01*
X55309D01*
G75*
G02*
X55962Y29595I0J-914D01*
G01*
X58169Y27387D01*
G75*
G02*
X58444Y26734I-639J-653D01*
G01*
Y25733D01*
G75*
G02*
X58410Y23264I-914J-1222D01*
G01*
G75*
G02*
X58801Y22883I-879J-1293D01*
G01*
G75*
G02*
X60322Y23514I1270J-912D01*
G01*
X61101Y24293D01*
G75*
G02*
X61086Y24511I1509J218D01*
G01*
G75*
G02*
X63881Y25356I1526J0D01*
G01*
G75*
G02*
X64238Y25733I1270J-845D01*
G01*
Y27051D01*
G75*
G02*
X64513Y27704I914J0D01*
G01*
X67435Y30627D01*
G75*
G02*
X66421Y31286I256J1504D01*
G01*
G75*
G02*
X63881I-1270J845D01*
G01*
G75*
G02*
X61341I-1270J845D01*
G01*
G75*
G02*
X58801I-1270J845D01*
G01*
G75*
G02*
X56261I-1270J845D01*
G01*
G75*
G02*
X53721I-1270J845D01*
G01*
G75*
G02*
X50926Y32131I-1270J845D01*
G01*
G75*
G02*
X51538Y33353I1525J0D01*
G01*
Y38103D01*
X51432Y38208D01*
G75*
G02*
X49911Y38839I-251J1543D01*
G01*
G75*
G02*
X47230Y40425I-1270J912D01*
G01*
X44972D01*
G75*
G02*
X42291Y38839I-1411J-674D01*
G01*
G75*
G02*
X42135Y38653I-1270J912D01*
G01*
Y38309D01*
G75*
G02*
Y36113I-1114J-1098D01*
G01*
Y33098D01*
G75*
G02*
X42496Y32131I-1114J-967D01*
G01*
G75*
G02*
X39780Y31335I-1475J0D01*
G01*
G75*
G02*
X36958Y32131I-1299J796D01*
G01*
G75*
G02*
X37568Y33350I1524J0D01*
G01*
Y40691D01*
G75*
G02*
X37567Y40703I910J14D01*
G01*
G75*
G02*
X37835Y41350I914J0D01*
G01*
X38470Y41985D01*
G75*
G02*
X39128Y42252I646J-646D01*
G01*
X71171D01*
G75*
G02*
X71830Y41985I12J-914D01*
G01*
X72147Y41667D01*
G75*
G02*
X72378Y41277I-646J-646D01*
G01*
X73027D01*
Y38226D01*
X72691D01*
G75*
G02*
X71144Y35689I-1190J-1014D01*
G01*
Y32131D01*
G75*
G02*
X71116Y31906I-914J0D01*
G01*
G75*
G02*
X71512Y31975I385J-1045D01*
G01*
X76253D01*
G75*
G02*
X77051Y31648I11J-1114D01*
G01*
X78638Y30061D01*
G75*
G02*
X78765Y29910I-787J-787D01*
G01*
X81345D01*
Y29435D01*
X83555D01*
G75*
G02*
X84353Y29108I11J-1114D01*
G01*
X86258Y27203D01*
G75*
G02*
X86585Y26416I-787J-788D01*
G01*
G75*
G02*
X86585Y26405I-1111J5D01*
G01*
Y19750D01*
X87060D01*
Y16572D01*
X86585D01*
Y11504D01*
G75*
G02*
X86585Y11494I-1111J-16D01*
G01*
G75*
G02*
X86258Y10706I-1114J0D01*
G01*
X85098Y9546D01*
G75*
G02*
X87060Y8001I373J-1545D01*
G01*
G75*
G02*
X85457Y6412I-1589J0D01*
G01*
X85243Y6198D01*
G75*
G02*
X80646Y4030I-2312J-1055D01*
G01*
X75056D01*
G75*
G02*
X70274Y5618I-2285J1114D01*
G01*
G75*
G02*
X70220Y5618I-43J1111D01*
G01*
X69217D01*
Y5206D01*
X66166D01*
Y8257D01*
X69217D01*
Y7844D01*
X69770D01*
X71349Y9423D01*
G75*
G02*
X72147Y9750I787J-787D01*
G01*
X75818D01*
Y13527D01*
X79885D01*
Y9750D01*
X82152D01*
X84358Y11955D01*
Y16572D01*
X83882D01*
Y19750D01*
X84358D01*
Y25955D01*
X83105Y27208D01*
X81345D01*
Y26732D01*
X80870D01*
Y25607D01*
X81178Y25298D01*
G75*
G02*
X81505Y24511I-787J-788D01*
G01*
G75*
G02*
X81505Y24500I-1111J5D01*
G01*
Y23440D01*
G75*
G02*
X80391Y20128I-1114J-1469D01*
G01*
G75*
G02*
X79278Y23440I0J1843D01*
G01*
Y24050D01*
X78969Y24359D01*
G75*
G02*
X78642Y25146I787J788D01*
G01*
G75*
G02*
X78643Y25157I1109J-5D01*
G01*
Y25950D01*
G75*
G02*
X78638Y25946I-785J781D01*
G01*
X76424Y23732D01*
Y23440D01*
G75*
G02*
X75311Y20128I-1114J-1469D01*
G01*
G75*
G02*
X74198Y23440I0J1843D01*
G01*
Y24183D01*
G75*
G02*
X74197Y24194I1109J16D01*
G01*
G75*
G02*
X74524Y24981I1114J0D01*
G01*
X76738Y27195D01*
Y28812D01*
X75802Y29747D01*
X71962D01*
X68805Y26590D01*
Y25554D01*
G75*
G02*
Y23468I-1114J-1043D01*
G01*
Y23069D01*
G75*
G02*
X66593Y20858I-1114J-1098D01*
G01*
X66265D01*
Y18305D01*
X66565Y18005D01*
X66724D01*
G75*
G02*
X68658I967J-1114D01*
G01*
X69823D01*
G75*
G02*
X72392Y16891I1043J-1114D01*
G01*
G75*
G02*
X69823Y15778I-1526J0D01*
G01*
X68805D01*
Y15394D01*
G75*
G02*
X67741Y12826I-1114J-1043D01*
G01*
X64986Y10071D01*
G75*
G02*
X64188Y9745I-787J787D01*
G01*
X41800D01*
X40865Y8810D01*
Y5234D01*
G75*
G02*
X39751Y2666I-1114J-1043D01*
G01*
G75*
G02*
X38638Y5234I0J1526D01*
G01*
Y8158D01*
X30966D01*
G75*
G02*
X29941Y7758I-1025J1114D01*
G01*
X29241D01*
G75*
G02*
X28216Y8158I0J1514D01*
G01*
X26037D01*
Y7746D01*
X22985D01*
Y9627D01*
X22289D01*
G75*
G02*
X22183Y9634I0J913D01*
G01*
G75*
G02*
X19479Y8358I-1482J-363D01*
G01*
X14729D01*
X12725Y6353D01*
Y5703D01*
G75*
G02*
X13325Y5057I-47J-646D01*
G01*
Y3325D01*
G75*
G02*
X12677Y2678I-647J0D01*
G01*
X10945D01*
G75*
G02*
X10298Y3325I0J647D01*
G01*
Y5057D01*
G75*
G02*
X10898Y5703I647J0D01*
G01*
Y6731D01*
G75*
G02*
X11173Y7384I914J0D01*
G01*
X13698Y9910D01*
G75*
G02*
X14351Y10185I653J-639D01*
G01*
X19479D01*
G75*
G02*
X20742Y10796I1222J-913D01*
G01*
X18100Y13438D01*
X8288D01*
G75*
G02*
X7904Y13081I-1207J913D01*
G01*
G75*
G02*
Y10541I-823J-1270D01*
G01*
G75*
G02*
X7081Y7758I-823J-1270D01*
G01*
X6381D01*
G75*
G02*
X5558Y10541I0J1514D01*
G01*
G75*
G02*
X5174Y10898I823J1270D01*
G01*
X5144D01*
G75*
G02*
X4490Y11173I0J914D01*
G01*
X2918Y12745D01*
G75*
G02*
X2643Y13399I639J653D01*
G01*
X20458Y3325D02*
Y5057D01*
G75*
G02*
X21105Y5705I647J0D01*
G01*
X22193D01*
X22905Y6417D01*
G75*
G02*
X23559Y6692I653J-639D01*
G01*
X28003D01*
G75*
G02*
X28657Y6417I0J-914D01*
G01*
X29373Y5701D01*
G75*
G02*
X29591Y5717I218J-1510D01*
G01*
G75*
G02*
X31116Y4191I0J-1526D01*
G01*
G75*
G02*
X29591Y2666I-1526J0D01*
G01*
G75*
G02*
X28065Y4191I0J1526D01*
G01*
G75*
G02*
X28081Y4409I1525J0D01*
G01*
X27625Y4865D01*
X23937D01*
X23485Y4413D01*
Y3325D01*
G75*
G02*
X22837Y2678I-647J0D01*
G01*
X21105D01*
G75*
G02*
X20458Y3325I0J647D01*
G01*
X764Y4679D02*
G36*
X764Y4679D02*
Y764D01*
X87946D01*
Y4679D01*
X85430D01*
G75*
G02*
X80646Y4030I-2499J465D01*
G01*
X75056D01*
G75*
G02*
X70272Y4679I-2285J1114D01*
G01*
X41196D01*
G75*
G02*
X41277Y4191I-1446J-488D01*
G01*
G75*
G02*
X39751Y2666I-1526J0D01*
G01*
G75*
G02*
X38226Y4191I0J1526D01*
G01*
G75*
G02*
X38306Y4679I1526J0D01*
G01*
X31036D01*
G75*
G02*
X31116Y4191I-1446J-488D01*
G01*
G75*
G02*
X29591Y2666I-1526J0D01*
G01*
G75*
G02*
X28065Y4191I0J1526D01*
G01*
G75*
G02*
Y4192I1611J1D01*
G01*
G75*
G02*
X28081Y4409I1509J0D01*
G01*
X27812Y4679D01*
X23751D01*
X23485Y4413D01*
Y3325D01*
Y3325D01*
G75*
G02*
X22837Y2678I-647J0D01*
G01*
X21105D01*
G75*
G02*
X20458Y3325I0J647D01*
G01*
Y3325D01*
Y4679D01*
X13325D01*
Y3325D01*
Y3325D01*
G75*
G02*
X12677Y2678I-647J0D01*
G01*
X10945D01*
G75*
G02*
X10298Y3325I0J647D01*
G01*
Y3325D01*
Y4679D01*
X764D01*
G37*
Y22427D02*
G36*
X764Y22427D02*
Y4679D01*
X10298D01*
Y5057D01*
Y5057D01*
G75*
G02*
X10898Y5703I647J0D01*
G01*
Y6731D01*
G75*
G02*
X11173Y7384I914J0D01*
G01*
X13698Y9910D01*
G75*
G02*
X14351Y10185I654J-639D01*
G01*
X19479D01*
G75*
G02*
X20742Y10796I1222J-913D01*
G01*
X18100Y13438D01*
X8288D01*
G75*
G02*
X7904Y13081I-1210J916D01*
G01*
G75*
G02*
X8595Y11811I-823J-1270D01*
G01*
G75*
G02*
X7904Y10541I-1514J0D01*
G01*
G75*
G02*
X8595Y9271I-823J-1270D01*
G01*
G75*
G02*
X7081Y7758I-1514J0D01*
G01*
X6381D01*
G75*
G02*
X4867Y9271I0J1514D01*
G01*
G75*
G02*
X5558Y10541I1514J0D01*
G01*
G75*
G02*
X5174Y10898I823J1269D01*
G01*
X5144D01*
G75*
G02*
X4490Y11173I0J914D01*
G01*
X2918Y12745D01*
G75*
G02*
X2643Y13399I639J654D01*
G01*
Y22427D01*
X764D01*
G37*
X12725Y6353D02*
G36*
X12725Y6353D02*
Y5703D01*
G75*
G02*
X13325Y5057I-48J-646D01*
G01*
Y4679D01*
X20458D01*
Y5057D01*
Y5057D01*
G75*
G02*
X21105Y5705I647J0D01*
G01*
X22193D01*
X22905Y6417D01*
G75*
G02*
X23559Y6692I654J-639D01*
G01*
X28003D01*
G75*
G02*
X28657Y6417I0J-914D01*
G01*
X29373Y5701D01*
G75*
G02*
X29591Y5717I217J-1494D01*
G01*
G75*
G02*
X31036Y4679I0J-1525D01*
G01*
X38306D01*
G75*
G02*
X38638Y5234I1445J-488D01*
G01*
Y8158D01*
X30966D01*
G75*
G02*
X29941Y7758I-1025J1113D01*
G01*
X29241D01*
G75*
G02*
X28216Y8158I0J1513D01*
G01*
X26037D01*
Y7746D01*
X22985D01*
Y9627D01*
X22289D01*
G75*
G02*
X22183Y9634I-1J905D01*
G01*
G75*
G02*
X22227Y9271I-1482J-363D01*
G01*
G75*
G02*
X19479Y8358I-1526J0D01*
G01*
X14729D01*
X12725Y6353D01*
G37*
X23937Y4865D02*
G36*
X23937Y4865D02*
X23751Y4679D01*
X27812D01*
X27625Y4865D01*
X23937D01*
G37*
X40865Y8810D02*
G36*
X40865Y8810D02*
Y5234D01*
G75*
G02*
X41196Y4679I-1114J-1043D01*
G01*
X70272D01*
G75*
G02*
X70230Y5144I2499J465D01*
G01*
G75*
G02*
X70274Y5618I2542J0D01*
G01*
G75*
G02*
X70220Y5618I-45J1208D01*
G01*
X69217D01*
Y5206D01*
X66166D01*
Y8257D01*
X69217D01*
Y7844D01*
X69770D01*
X71349Y9423D01*
G75*
G02*
X72147Y9750I788J-788D01*
G01*
X75818D01*
Y13527D01*
X79885D01*
Y9750D01*
X82152D01*
X84358Y11955D01*
Y16572D01*
X83882D01*
Y19750D01*
X84358D01*
Y22427D01*
X82177D01*
G75*
G02*
X82234Y21971I-1786J-456D01*
G01*
G75*
G02*
X80391Y20128I-1843J0D01*
G01*
G75*
G02*
X78548Y21971I0J1843D01*
G01*
G75*
G02*
X78605Y22427I1843J0D01*
G01*
X77097D01*
G75*
G02*
X77154Y21971I-1786J-456D01*
G01*
G75*
G02*
X75311Y20128I-1843J0D01*
G01*
G75*
G02*
X73468Y21971I0J1843D01*
G01*
G75*
G02*
X73525Y22427I1843J0D01*
G01*
X69187D01*
G75*
G02*
X69255Y21971I-1496J-456D01*
G01*
G75*
G02*
X66593Y20858I-1563J0D01*
G01*
X66265D01*
Y18305D01*
X66565Y18005D01*
X66724D01*
G75*
G02*
X68658I967J-1114D01*
G01*
X69823D01*
G75*
G02*
X72392Y16891I1043J-1114D01*
G01*
G75*
G02*
X69823Y15778I-1526J0D01*
G01*
X68805D01*
Y15394D01*
G75*
G02*
X69217Y14351I-1114J-1043D01*
G01*
G75*
G02*
X67741Y12826I-1526J0D01*
G01*
X64986Y10071D01*
G75*
G02*
X64188Y9745I-788J788D01*
G01*
X41800D01*
X40865Y8810D01*
G37*
X85457Y6412D02*
G36*
X85457Y6412D02*
X85243Y6198D01*
G75*
G02*
X85473Y5144I-2312J-1055D01*
G01*
G75*
G02*
X85430Y4679I-2542J0D01*
G01*
X87946D01*
Y22427D01*
X86585D01*
Y19750D01*
X87060D01*
Y16572D01*
X86585D01*
Y11504D01*
G75*
G02*
X86585Y11496I-284J-8D01*
G01*
G75*
G02*
Y11494I-284J-1D01*
G01*
G75*
G02*
X86258Y10706I-1114J0D01*
G01*
X85098Y9546D01*
G75*
G02*
X87060Y8001I373J-1545D01*
G01*
Y8001D01*
G75*
G02*
X85457Y6412I-1589J0D01*
G01*
G37*
X764Y42861D02*
G36*
X764Y42861D02*
Y22427D01*
X2643D01*
Y30226D01*
G75*
G02*
X2918Y30879I914J0D01*
G01*
X4808Y32770D01*
G75*
G02*
X5461Y33045I654J-639D01*
G01*
X33719D01*
G75*
G02*
X34372Y32770I0J-914D01*
G01*
X37272Y29870D01*
X55309D01*
G75*
G02*
X55962Y29595I0J-914D01*
G01*
X58169Y27387D01*
G75*
G02*
X58444Y26734I-639J-654D01*
G01*
Y25733D01*
G75*
G02*
X59056Y24511I-914J-1222D01*
G01*
G75*
G02*
X58410Y23264I-1526J0D01*
G01*
G75*
G02*
X58801Y22883I-880J-1294D01*
G01*
G75*
G02*
X60322Y23514I1270J-912D01*
G01*
X61101Y24293D01*
G75*
G02*
X61086Y24510I1494J217D01*
G01*
G75*
G02*
Y24511I1611J1D01*
G01*
G75*
G02*
X63881Y25356I1526J0D01*
G01*
G75*
G02*
X64238Y25733I1268J-843D01*
G01*
Y27051D01*
G75*
G02*
X64513Y27704I914J0D01*
G01*
X67435Y30627D01*
G75*
G02*
X66421Y31286I256J1504D01*
G01*
G75*
G02*
X63881I-1270J845D01*
G01*
G75*
G02*
X61341I-1270J845D01*
G01*
G75*
G02*
X58801I-1270J845D01*
G01*
G75*
G02*
X56261I-1270J845D01*
G01*
G75*
G02*
X53721I-1270J845D01*
G01*
G75*
G02*
X50926Y32131I-1270J845D01*
G01*
G75*
G02*
X51538Y33353I1526J0D01*
G01*
Y38103D01*
X51432Y38208D01*
G75*
G02*
X49911Y38839I-251J1543D01*
G01*
G75*
G02*
X47078Y39751I-1270J912D01*
G01*
G75*
G02*
X47230Y40425I1563J0D01*
G01*
X44972D01*
G75*
G02*
X45125Y39751I-1411J-674D01*
G01*
G75*
G02*
X42291Y38839I-1563J0D01*
G01*
G75*
G02*
X42135Y38653I-1262J904D01*
G01*
Y38309D01*
G75*
G02*
X42585Y37211I-1114J-1098D01*
G01*
G75*
G02*
X42135Y36113I-1564J0D01*
G01*
Y33098D01*
G75*
G02*
X42496Y32131I-1113J-967D01*
G01*
Y32131D01*
G75*
G02*
X39780Y31335I-1475J0D01*
G01*
G75*
G02*
X36958Y32131I-1299J796D01*
G01*
Y32131D01*
G75*
G02*
X37568Y33350I1524J0D01*
G01*
Y40691D01*
G75*
G02*
X37567Y40701I374J9D01*
G01*
G75*
G02*
Y40703I367J2D01*
G01*
G75*
G02*
X37835Y41350I914J0D01*
G01*
X38470Y41985D01*
G75*
G02*
X39128Y42252I646J-645D01*
G01*
X71171D01*
G75*
G02*
X71830Y41985I13J-913D01*
G01*
X72147Y41667D01*
G75*
G02*
X72378Y41277I-646J-646D01*
G01*
X73027D01*
Y38226D01*
X72691D01*
G75*
G02*
X73065Y37211I-1190J-1014D01*
G01*
G75*
G02*
X71144Y35689I-1563J0D01*
G01*
Y32131D01*
G75*
G02*
Y32130I-938J0D01*
G01*
G75*
G02*
X71116Y31906I-908J0D01*
G01*
G75*
G02*
X71512Y31975I385J-1045D01*
G01*
X76253D01*
G75*
G02*
X77051Y31648I11J-1114D01*
G01*
X78638Y30061D01*
G75*
G02*
X78765Y29910I-779J-781D01*
G01*
X81345D01*
Y29435D01*
X83555D01*
G75*
G02*
X84353Y29108I11J-1114D01*
G01*
X86258Y27203D01*
G75*
G02*
X86585Y26416I-788J-788D01*
G01*
G75*
G02*
Y26413I-284J-1D01*
G01*
G75*
G02*
X86585Y26405I-284J-1D01*
G01*
Y22427D01*
X87946D01*
Y42861D01*
X764D01*
G37*
X68805Y23468D02*
G36*
X68805Y23468D02*
Y23069D01*
G75*
G02*
X69187Y22427I-1114J-1098D01*
G01*
X73525D01*
G75*
G02*
X74198Y23440I1786J-456D01*
G01*
Y24183D01*
G75*
G02*
X74197Y24191I284J8D01*
G01*
G75*
G02*
Y24194I284J1D01*
G01*
G75*
G02*
X74524Y24981I1114J0D01*
G01*
X76738Y27195D01*
Y28812D01*
X75802Y29747D01*
X71962D01*
X68805Y26590D01*
Y25554D01*
G75*
G02*
X69217Y24511I-1114J-1043D01*
G01*
G75*
G02*
X68805Y23468I-1526J0D01*
G01*
G37*
X76424Y23732D02*
G36*
X76424Y23732D02*
Y23440D01*
G75*
G02*
X77097Y22427I-1114J-1469D01*
G01*
X78605D01*
G75*
G02*
X79278Y23440I1786J-456D01*
G01*
Y24050D01*
X78969Y24359D01*
G75*
G02*
X78642Y25146I788J788D01*
G01*
G75*
G02*
Y25149I295J1D01*
G01*
G75*
G02*
X78643Y25157I287J0D01*
G01*
Y25950D01*
G75*
G02*
X78638Y25946I-44J40D01*
G01*
X76424Y23732D01*
G37*
X80870Y26732D02*
G36*
X80870Y26732D02*
Y25607D01*
X81178Y25298D01*
G75*
G02*
X81505Y24511I-788J-788D01*
G01*
G75*
G02*
Y24508I-284J-1D01*
G01*
G75*
G02*
X81505Y24500I-284J-1D01*
G01*
Y23440D01*
G75*
G02*
X82177Y22427I-1114J-1469D01*
G01*
X84358D01*
Y25955D01*
X83105Y27208D01*
X81345D01*
Y26732D01*
X80870D01*
G37*
X5422Y29213D02*
Y28222D01*
G75*
G02*
X6381Y28565I959J-1171D01*
G01*
X7081D01*
G75*
G02*
X7904Y25781I0J-1514D01*
G01*
G75*
G02*
Y23241I-823J-1270D01*
G01*
G75*
G02*
X8288Y22885I-823J-1270D01*
G01*
X11433D01*
X18813Y30265D01*
X6474D01*
X5422Y29213D01*
G36*
X5422Y29213D02*
Y28222D01*
G75*
G02*
X6381Y28565I959J-1171D01*
G01*
X7081D01*
G75*
G02*
X7904Y25781I0J-1514D01*
G01*
G75*
G02*
Y23241I-823J-1270D01*
G01*
G75*
G02*
X8288Y22885I-823J-1270D01*
G01*
X11433D01*
X18813Y30265D01*
X6474D01*
X5422Y29213D01*
G37*
X7904Y20701D02*
G75*
G02*
Y18161I-823J-1270D01*
G01*
G75*
G02*
Y15621I-823J-1270D01*
G01*
G75*
G02*
X8288Y15265I-823J-1270D01*
G01*
X18479D01*
G75*
G02*
X19132Y14989I0J-914D01*
G01*
X22667Y11454D01*
X38738D01*
X40050Y12767D01*
G75*
G02*
X40703Y13042I653J-639D01*
G01*
X58740D01*
X60110Y14412D01*
Y19052D01*
X59425Y19738D01*
G75*
G02*
X59157Y20384I646J646D01*
G01*
G75*
G02*
X59158Y20396I910J-1D01*
G01*
Y20702D01*
G75*
G02*
X58801Y21059I914J1269D01*
G01*
G75*
G02*
X56261I-1270J912D01*
G01*
G75*
G02*
X53721I-1270J912D01*
G01*
G75*
G02*
X52094Y20449I-1270J912D01*
G01*
Y20092D01*
X54182Y18005D01*
X56564D01*
G75*
G02*
X59006Y16891I967J-1114D01*
G01*
G75*
G02*
X56564Y15778I-1475J0D01*
G01*
X53732D01*
G75*
G02*
X52934Y16104I-11J1113D01*
G01*
X50720Y18317D01*
X41984D01*
G75*
G02*
X41186Y18644I-11J1113D01*
G01*
X40234Y19596D01*
G75*
G02*
X39907Y20384I787J788D01*
G01*
G75*
G02*
X39908Y20394I1109J-5D01*
G01*
Y21004D01*
G75*
G02*
X39780Y21175I1114J967D01*
G01*
G75*
G02*
X37262Y21058I-1299J796D01*
G01*
X31148D01*
G75*
G02*
X30764Y20701I-1207J913D01*
G01*
G75*
G02*
Y18161I-823J-1270D01*
G01*
G75*
G02*
Y15621I-823J-1270D01*
G01*
G75*
G02*
X29941Y12838I-823J-1270D01*
G01*
X29241D01*
G75*
G02*
X28418Y15621I0J1514D01*
G01*
G75*
G02*
Y18161I823J1270D01*
G01*
G75*
G02*
X28034Y18517I823J1270D01*
G01*
X21923D01*
G75*
G02*
X19176Y19431I-1222J914D01*
G01*
G75*
G02*
X21923Y20345I1526J0D01*
G01*
X28034D01*
G75*
G02*
X28418Y20701I1207J-913D01*
G01*
G75*
G02*
Y23241I823J1270D01*
G01*
G75*
G02*
Y25781I823J1270D01*
G01*
G75*
G02*
X29241Y28565I823J1270D01*
G01*
X29941D01*
G75*
G02*
X30764Y25781I0J-1514D01*
G01*
G75*
G02*
Y23241I-823J-1270D01*
G01*
G75*
G02*
X31148Y22885I-823J-1270D01*
G01*
X37262D01*
G75*
G02*
X39780Y22767I1219J-914D01*
G01*
G75*
G02*
X42496Y21971I1241J-796D01*
G01*
G75*
G02*
X42135Y21004I-1475J0D01*
G01*
Y20845D01*
X42435Y20545D01*
X50268D01*
Y23028D01*
G75*
G02*
X48386Y24511I-357J1483D01*
G01*
G75*
G02*
X51181Y25356I1526J0D01*
G01*
G75*
G02*
X52492Y26036I1270J-845D01*
G01*
X52390Y26138D01*
X35624D01*
G75*
G02*
X34970Y26413I0J914D01*
G01*
X32070Y29313D01*
X20444D01*
X12464Y21333D01*
G75*
G02*
X11811Y21058I-653J639D01*
G01*
X8288D01*
G75*
G02*
X7904Y20701I-1207J913D01*
G01*
G36*
X7904Y20701D02*
G75*
G02*
Y18161I-823J-1270D01*
G01*
G75*
G02*
Y15621I-823J-1270D01*
G01*
G75*
G02*
X8288Y15265I-823J-1270D01*
G01*
X18479D01*
G75*
G02*
X19132Y14989I0J-914D01*
G01*
X22667Y11454D01*
X38738D01*
X40050Y12767D01*
G75*
G02*
X40703Y13042I653J-639D01*
G01*
X58740D01*
X60110Y14412D01*
Y19052D01*
X59425Y19738D01*
G75*
G02*
X59157Y20384I646J646D01*
G01*
G75*
G02*
X59158Y20396I910J-1D01*
G01*
Y20702D01*
G75*
G02*
X58801Y21059I914J1269D01*
G01*
G75*
G02*
X56261I-1270J912D01*
G01*
G75*
G02*
X53721I-1270J912D01*
G01*
G75*
G02*
X52094Y20449I-1270J912D01*
G01*
Y20092D01*
X54182Y18005D01*
X56564D01*
G75*
G02*
X59006Y16891I967J-1114D01*
G01*
G75*
G02*
X56564Y15778I-1475J0D01*
G01*
X53732D01*
G75*
G02*
X52934Y16104I-11J1113D01*
G01*
X50720Y18317D01*
X41984D01*
G75*
G02*
X41186Y18644I-11J1113D01*
G01*
X40234Y19596D01*
G75*
G02*
X39907Y20384I787J788D01*
G01*
G75*
G02*
X39908Y20394I1109J-5D01*
G01*
Y21004D01*
G75*
G02*
X39780Y21175I1114J967D01*
G01*
G75*
G02*
X37262Y21058I-1299J796D01*
G01*
X31148D01*
G75*
G02*
X30764Y20701I-1207J913D01*
G01*
G75*
G02*
Y18161I-823J-1270D01*
G01*
G75*
G02*
Y15621I-823J-1270D01*
G01*
G75*
G02*
X29941Y12838I-823J-1270D01*
G01*
X29241D01*
G75*
G02*
X28418Y15621I0J1514D01*
G01*
G75*
G02*
Y18161I823J1270D01*
G01*
G75*
G02*
X28034Y18517I823J1270D01*
G01*
X21923D01*
G75*
G02*
X19176Y19431I-1222J914D01*
G01*
G75*
G02*
X21923Y20345I1526J0D01*
G01*
X28034D01*
G75*
G02*
X28418Y20701I1207J-913D01*
G01*
G75*
G02*
Y23241I823J1270D01*
G01*
G75*
G02*
Y25781I823J1270D01*
G01*
G75*
G02*
X29241Y28565I823J1270D01*
G01*
X29941D01*
G75*
G02*
X30764Y25781I0J-1514D01*
G01*
G75*
G02*
Y23241I-823J-1270D01*
G01*
G75*
G02*
X31148Y22885I-823J-1270D01*
G01*
X37262D01*
G75*
G02*
X39780Y22767I1219J-914D01*
G01*
G75*
G02*
X42496Y21971I1241J-796D01*
G01*
G75*
G02*
X42135Y21004I-1475J0D01*
G01*
Y20845D01*
X42435Y20545D01*
X50268D01*
Y23028D01*
G75*
G02*
X48386Y24511I-357J1483D01*
G01*
G75*
G02*
X51181Y25356I1526J0D01*
G01*
G75*
G02*
X52492Y26036I1270J-845D01*
G01*
X52390Y26138D01*
X35624D01*
G75*
G02*
X34970Y26413I0J914D01*
G01*
X32070Y29313D01*
X20444D01*
X12464Y21333D01*
G75*
G02*
X11811Y21058I-653J639D01*
G01*
X8288D01*
G75*
G02*
X7904Y20701I-1207J913D01*
G01*
G37*
X60254Y11972D02*
X63737D01*
X66166Y14401D01*
G75*
G02*
X66578Y15394I1525J-50D01*
G01*
Y15778D01*
X66114D01*
G75*
G02*
X65316Y16104I-11J1113D01*
G01*
X64364Y17056D01*
G75*
G02*
X64037Y17844I787J788D01*
G01*
G75*
G02*
X64038Y17854I1109J-5D01*
G01*
Y20873D01*
G75*
G02*
X63881Y21059I1114J1098D01*
G01*
G75*
G02*
X61341I-1270J912D01*
G01*
G75*
G02*
X61019Y20728I-1270J912D01*
G01*
X61669Y20077D01*
G75*
G02*
X61937Y19431I-646J-646D01*
G01*
G75*
G02*
X61937Y19419I-911J1D01*
G01*
Y14034D01*
G75*
G02*
X61662Y13380I-914J0D01*
G01*
X60254Y11972D01*
G36*
X60254Y11972D02*
X63737D01*
X66166Y14401D01*
G75*
G02*
X66578Y15394I1525J-50D01*
G01*
Y15778D01*
X66114D01*
G75*
G02*
X65316Y16104I-11J1113D01*
G01*
X64364Y17056D01*
G75*
G02*
X64037Y17844I787J788D01*
G01*
G75*
G02*
X64038Y17854I1109J-5D01*
G01*
Y20873D01*
G75*
G02*
X63881Y21059I1114J1098D01*
G01*
G75*
G02*
X61341I-1270J912D01*
G01*
G75*
G02*
X61019Y20728I-1270J912D01*
G01*
X61669Y20077D01*
G75*
G02*
X61937Y19431I-646J-646D01*
G01*
G75*
G02*
X61937Y19419I-911J1D01*
G01*
Y14034D01*
G75*
G02*
X61662Y13380I-914J0D01*
G01*
X60254Y11972D01*
G37*
D02*
D11*
X24511Y9271D02*
X29591D01*
X24511Y11811D02*
X29591D01*
Y9271D02*
X39751D01*
X29591Y11811D02*
X31814D01*
X33401Y13399D01*
X57849D01*
X59754Y15304D01*
Y18161D01*
X58484Y19431D01*
X57531D01*
X39751Y4191D02*
Y9271D01*
X41339Y10859D01*
X64198D01*
X67691Y14351D01*
X41021Y21971D02*
Y20384D01*
X41974Y19431D01*
X51181D01*
X41021Y39751D02*
Y32131D01*
X43561D02*
X49911D01*
X43561Y37211D02*
Y32131D01*
Y37211D02*
X51181D01*
X46101Y39751D02*
Y37211D01*
X47371Y21971D02*
X43561D01*
X48641Y37211D02*
Y35306D01*
X49911Y34036D01*
Y32131D01*
Y21971D02*
X47371D01*
X49911Y32131D02*
Y30861D01*
X50546Y30226D01*
X57849D01*
X60071Y28003D01*
Y24511D01*
X51181Y19431D02*
X53721Y16891D01*
X57531D01*
X65151Y21971D02*
Y17844D01*
X66104Y16891D01*
X67691D01*
X65151Y21971D02*
X67588D01*
X67691D01*
Y16891D02*
Y14351D01*
Y24511D02*
Y27051D01*
X71501Y30861D01*
X76264D01*
X77851Y29274D01*
Y26734D01*
X75311Y24194D01*
Y21971D01*
X67691Y24511D02*
Y21971D01*
X70866Y16891D02*
X67691D01*
X72771Y5144D02*
X82614D01*
X85471Y8001D01*
X75946Y28321D02*
X72454D01*
X71501Y27369D01*
Y20701D01*
X70231Y19431D01*
X67691D01*
X77851Y21971D02*
Y15304D01*
X79756Y28321D02*
X83566D01*
X85471Y26416D01*
Y18161D01*
X80391Y21971D02*
Y24511D01*
X79756Y25146D01*
Y28321D01*
X85471Y18161D02*
Y11494D01*
X82614Y8636D01*
X72136D01*
X70231Y6731D01*
X67691D01*
D02*
D12*
X41021Y21971D03*
Y32131D03*
X43561Y21971D03*
Y32131D03*
X57531Y16891D03*
Y19431D03*
X67691Y16891D03*
Y19431D03*
D02*
D13*
X6731Y11811D02*
X5144D01*
X3556Y13399D01*
Y30226D01*
X5461Y32131D01*
X33719D01*
X36894Y28956D01*
X55309D01*
X57531Y26734D01*
Y24511D01*
X6731Y19431D02*
X5144D01*
X4508Y20066D01*
Y29591D01*
X6096Y31178D01*
X33084D01*
X36259Y28003D01*
X53403D01*
X54991Y26416D01*
Y24511D01*
X6731Y21971D02*
X11811D01*
X20066Y30226D01*
X32449D01*
X35624Y27051D01*
X52769D01*
X53721Y26099D01*
Y23241D01*
X54991Y21971D01*
X20701Y9271D02*
X14351D01*
X11811Y6731D01*
Y4191D01*
X29591D02*
X28003Y5779D01*
X23559D01*
X21971Y4191D01*
X29591Y19431D02*
X20701D01*
X29591Y21971D02*
X38481D01*
Y32131D02*
Y40703D01*
X39116Y41339D01*
X71184D01*
X71501Y41021D01*
Y39751D01*
X52451Y24511D02*
X51181Y23241D01*
Y19431D01*
X52451Y32131D02*
Y38481D01*
X51181Y39751D01*
X54991Y24511D02*
X57531Y21971D01*
X54991Y32131D02*
Y38481D01*
X53721Y39751D01*
X57531Y32131D02*
Y38481D01*
X56261Y39751D01*
X60071Y21971D02*
Y20384D01*
X61024Y19431D01*
Y14034D01*
X59118Y12129D01*
X40703D01*
X39116Y10541D01*
X22289D01*
X18479Y14351D01*
X6731D01*
X60071Y32131D02*
Y38481D01*
X58801Y39751D01*
X62611Y24511D02*
X60071Y21971D01*
X62611Y32131D02*
Y38481D01*
X61341Y39751D01*
X65151Y32131D02*
Y38481D01*
X63881Y39751D01*
X67691Y32131D02*
Y38481D01*
X66421Y39751D01*
X68961D02*
X70231Y38481D01*
Y32131D01*
X65151Y27051D01*
Y24511D01*
D02*
D14*
X38481Y21971D03*
Y32131D03*
D02*
D15*
X20701Y9271D03*
Y19431D03*
X24511Y11811D03*
X29591Y4191D03*
X39751D03*
X49911Y24511D03*
Y32131D03*
X52451Y24511D03*
Y32131D03*
X54991Y24511D03*
Y32131D03*
X57531Y24511D03*
Y32131D03*
X60071Y24511D03*
Y32131D03*
X62611Y24511D03*
Y32131D03*
X65151Y24511D03*
Y32131D03*
X67691Y14351D03*
Y24511D03*
Y32131D03*
X70866Y11811D03*
Y16891D03*
D02*
D16*
X24511Y9271D03*
D02*
D17*
X72771Y5144D03*
X82931D03*
D02*
D18*
X77851Y11494D03*
Y15304D03*
D02*
D19*
X6731Y9271D03*
Y11811D03*
Y14351D03*
Y16891D03*
Y19431D03*
Y21971D03*
Y24511D03*
Y27051D03*
X29591Y9271D03*
Y11811D03*
Y14351D03*
Y16891D03*
Y19431D03*
Y21971D03*
Y24511D03*
Y27051D03*
D02*
D70*
X67691Y6731D03*
X71501Y39751D03*
D02*
D71*
X41021Y37211D03*
Y39751D03*
X43561Y37211D03*
Y39751D03*
X46101Y37211D03*
Y39751D03*
X48641Y37211D03*
Y39751D03*
X49911Y21971D03*
X51181Y37211D03*
Y39751D03*
X52451Y21971D03*
X53721Y37211D03*
Y39751D03*
X54991Y21971D03*
X56261Y37211D03*
Y39751D03*
X57531Y21971D03*
X58801Y37211D03*
Y39751D03*
X60071Y21971D03*
X61341Y37211D03*
Y39751D03*
X62611Y21971D03*
X63881Y37211D03*
Y39751D03*
X65151Y21971D03*
X66421Y37211D03*
Y39751D03*
X67691Y21971D03*
X68961Y37211D03*
Y39751D03*
X71501Y37211D03*
D02*
D20*
X14351Y4191D03*
X24511D03*
D02*
D21*
X11811D03*
X21971D03*
D02*
D22*
X75311Y21971D03*
X77851D03*
X80391D03*
D02*
D23*
X85471Y8001D03*
D02*
D24*
X79756Y28321D03*
X85471Y18161D03*
D02*
D25*
X75946Y28321D03*
D02*
D26*
X3556Y38481D03*
X32131D03*
X85154D03*
D02*
D27*
X47371Y21971D03*
X0Y0D02*
M02*
