G05
M48
;#@! TF.GenerationSoftware,Number One Systems,Easy-PC,27.0.5940
;#@! TF.CreationDate,2026-08-05T19:36:06--1:00*
;#@! TF.FileFunction,Plated,1,4,PTH
;FILE_FORMAT=3:3
;TYPE=PLATED
METRIC,000.000
FMAT,2
T1C000.800
T2C000.813
T3C000.900
T4C000.940
T5C000.950
T6C001.067
T7C001.397
T8C001.400
T9C003.200
%
T001
X011811Y004191
X014351Y004191
X021971Y004191
X024511Y004191
X038481Y021971
X038481Y032131
T002
X016891Y014351
X016891Y024511
X024511Y009271
X024511Y011811
X029591Y004191
X039751Y004191
X041021Y021971
X041021Y032131
X043561Y021971
X043561Y032131
X049911Y024511
X049911Y032131
X052451Y024511
X052451Y032131
X054991Y024511
X054991Y032131
X057531Y016891
X057531Y019431
X057531Y024511
X057531Y032131
X060071Y024511
X060071Y032131
X062611Y024511
X062611Y032131
X065151Y024511
X065151Y032131
X067691Y006731
X067691Y014351
X067691Y016891
X067691Y019431
X067691Y024511
X067691Y032131
X070866Y011811
X070866Y016891
X075946Y028321
X079756Y028321
T003
X006731Y009271
X006731Y011811
X006731Y014351
X006731Y016891
X006731Y019431
X006731Y021971
X006731Y024511
X006731Y027051
X029591Y009271
X029591Y011811
X029591Y014351
X029591Y016891
X029591Y019431
X029591Y021971
X029591Y024511
X029591Y027051
T004
X041021Y037211
X041021Y039751
X043561Y037211
X043561Y039751
X046101Y037211
X046101Y039751
X048641Y037211
X048641Y039751
X051181Y037211
X051181Y039751
X053721Y037211
X053721Y039751
X056261Y037211
X056261Y039751
X058801Y037211
X058801Y039751
X061341Y037211
X061341Y039751
X063881Y037211
X063881Y039751
X066421Y037211
X066421Y039751
X068961Y037211
X068961Y039751
X071501Y037211
X071501Y039751
X085471Y008001
X085471Y018161
T005
X047371Y021971
X049911Y021971
X052451Y021971
X054991Y021971
X057531Y021971
X060071Y021971
X062611Y021971
X065151Y021971
X067691Y021971
T006
X075311Y021971
X077851Y021971
X080391Y021971
T007
X077851Y011494
X077851Y015304
T008
X072771Y005144
X082931Y005144
T009
X003556Y038481
X032131Y038481
X085154Y038481
M30
