G04 Easy-PC Gerber Version 27.0 Build 5942*
%FSLAX33Y33*%
%MOMM*%
%ADD71R,1.52400X1.52400*%
%ADD23R,1.65100X1.65100*%
%ADD19R,2.54000X2.54000*%
%ADD10C,0.12700*%
%ADD14C,0.25400*%
%ADD13C,0.30000*%
%ADD11C,0.70000*%
%ADD12C,1.42240*%
%ADD15C,1.52000*%
%ADD16C,1.52400*%
%ADD70O,2.20000X1.50000*%
%ADD17R,1.52400X1.52400*%
%ADD20C,1.60000*%
%ADD21C,1.65100*%
%ADD24C,1.77800*%
%ADD22C,2.15900*%
%ADD18C,3.55600*%
%ADD25C,3.81000*%
X0Y0D02*
D02*
D10*
X701Y39432D02*
Y701D01*
X88962D01*
Y39432D01*
X701D01*
X1373Y14998D02*
Y33401D01*
G75*
G02*
X1800Y34175I913J0D01*
G01*
X5784Y38158D01*
G75*
G02*
X6421Y38419I630J-630D01*
G01*
X73081D01*
G75*
G02*
X73718Y38158I7J-891D01*
G01*
X75306Y36571D01*
G75*
G02*
X75567Y35941I-630J-630D01*
G01*
G75*
G02*
Y35934I-886J-4D01*
G01*
Y28646D01*
G75*
G02*
Y28639I-886J-4D01*
G01*
G75*
G02*
X75306Y28009I-891J0D01*
G01*
X71122Y23825D01*
Y15189D01*
G75*
G02*
X70877Y14340I-891J-203D01*
G01*
X68344Y11808D01*
G75*
G02*
X67691Y11533I-653J639D01*
G01*
X64528D01*
G75*
G02*
X63870Y11800I-12J913D01*
G01*
X62918Y12753D01*
G75*
G02*
X62650Y13399I646J646D01*
G01*
G75*
G02*
X62650Y13411I910J-1D01*
G01*
Y17892D01*
G75*
G02*
X62038Y19114I913J1222D01*
G01*
G75*
G02*
X64834Y19959I1526J0D01*
G01*
G75*
G02*
X65190Y20335I1270J-845D01*
G01*
Y21654D01*
G75*
G02*
X65465Y22307I914J0D01*
G01*
X68388Y25230D01*
G75*
G02*
X67374Y25888I256J1504D01*
G01*
G75*
G02*
X64834I-1270J845D01*
G01*
G75*
G02*
X62294I-1270J845D01*
G01*
G75*
G02*
X59754I-1270J845D01*
G01*
G75*
G02*
X57214I-1270J845D01*
G01*
G75*
G02*
X54674I-1270J845D01*
G01*
G75*
G02*
X51878Y26734I-1270J845D01*
G01*
G75*
G02*
X52490Y27955I1525J0D01*
G01*
Y32705D01*
X52385Y32810D01*
G75*
G02*
X50864Y33442I-251J1543D01*
G01*
G75*
G02*
X48030Y34353I-1270J912D01*
G01*
G75*
G02*
X48739Y35663I1563J0D01*
G01*
X45368D01*
G75*
G02*
X46077Y34353I-855J-1309D01*
G01*
G75*
G02*
X43243Y33442I-1563J0D01*
G01*
G75*
G02*
X43087Y33256I-1270J912D01*
G01*
Y32911D01*
G75*
G02*
Y30716I-1114J-1098D01*
G01*
Y30370D01*
X44021Y29436D01*
G75*
G02*
X44357Y28639I-777J-797D01*
G01*
Y22767D01*
X47357D01*
G75*
G02*
X48112Y23113I967J-1114D01*
G01*
X47685Y23540D01*
G75*
G02*
X47410Y24194I639J653D01*
G01*
Y25514D01*
G75*
G02*
X48324Y28257I914J1219D01*
G01*
G75*
G02*
X49237Y25514I0J-1524D01*
G01*
Y24572D01*
X51559Y22250D01*
X54979D01*
G75*
G02*
X55637Y21982I12J-914D01*
G01*
X56590Y21030D01*
G75*
G02*
X56857Y20384I-646J-646D01*
G01*
G75*
G02*
X56857Y20371I-911J1D01*
G01*
Y20335D01*
G75*
G02*
X57214Y19959I-914J-1222D01*
G01*
G75*
G02*
X60009Y19114I1270J-845D01*
G01*
G75*
G02*
X59397Y17892I-1526J0D01*
G01*
Y13716D01*
G75*
G02*
X59122Y13063I-914J0D01*
G01*
X57867Y11808D01*
G75*
G02*
X57214Y11533I-653J639D01*
G01*
X54674D01*
G75*
G02*
X54020Y11808I0J914D01*
G01*
X51438Y14390D01*
X32827D01*
X30562Y12125D01*
G75*
G02*
X29909Y11850I-653J639D01*
G01*
X19809D01*
X18814Y10855D01*
G75*
G02*
X18161Y10580I-653J639D01*
G01*
X6065D01*
G75*
G02*
X5682Y10224I-1207J913D01*
G01*
G75*
G02*
X4859Y7440I-823J-1270D01*
G01*
X4159D01*
G75*
G02*
X3335Y10224I0J1514D01*
G01*
G75*
G02*
Y12764I823J1270D01*
G01*
G75*
G02*
X2907Y13182I823J1270D01*
G01*
G75*
G02*
X2593Y13388I331J852D01*
G01*
X1640Y14340D01*
G75*
G02*
X1372Y14986I646J646D01*
G01*
G75*
G02*
X1373Y14998I910J-1D01*
G01*
X59181Y6414D02*
G75*
G02*
X62492Y7527I1843J0D01*
G01*
X63420D01*
X65634Y9741D01*
G75*
G02*
X66432Y10067I787J-787D01*
G01*
X67118D01*
Y10479D01*
X70169D01*
Y10067D01*
X74230D01*
Y13527D01*
X78297D01*
Y10067D01*
X80882D01*
X83088Y12272D01*
Y16255D01*
X82612D01*
Y19433D01*
X83088D01*
Y19922D01*
X81200Y21810D01*
X79757D01*
Y21335D01*
X76580D01*
Y24513D01*
X79757D01*
Y24037D01*
X81650D01*
G75*
G02*
X82448Y23711I11J-1114D01*
G01*
X84988Y21171D01*
G75*
G02*
X85315Y20384I-787J-788D01*
G01*
G75*
G02*
X85315Y20373I-1111J5D01*
G01*
Y19433D01*
X85790D01*
Y16255D01*
X85315D01*
Y11822D01*
G75*
G02*
X85315Y11811I-1111J-16D01*
G01*
G75*
G02*
X84988Y11024I-1114J0D01*
G01*
X82131Y8166D01*
G75*
G02*
X81333Y7840I-787J787D01*
G01*
X70169D01*
Y7474D01*
G75*
G02*
X73468Y6257I1014J-2330D01*
G01*
X79059D01*
G75*
G02*
X82398Y7456I2285J-1114D01*
G01*
X82612Y7669D01*
G75*
G02*
X82612Y7684I1584J18D01*
G01*
G75*
G02*
X85790I1589J0D01*
G01*
G75*
G02*
X84187Y6095I-1589J0D01*
G01*
X83818Y5725D01*
G75*
G02*
X79059Y4030I-2474J-582D01*
G01*
X73468D01*
G75*
G02*
X68642Y5144I-2285J1114D01*
G01*
G75*
G02*
X70070Y7428I2542J0D01*
G01*
X67118D01*
Y7840D01*
X66882D01*
X64668Y5626D01*
G75*
G02*
X63870Y5300I-787J787D01*
G01*
X62492D01*
G75*
G02*
X59181Y6414I-1469J1114D01*
G01*
X33463Y5523D02*
Y13654D01*
X36514D01*
Y13042D01*
X37516D01*
G75*
G02*
X37845Y12985I12J-913D01*
G01*
G75*
G02*
X39434Y12339I318J-1492D01*
G01*
G75*
G02*
X41974I1270J-845D01*
G01*
G75*
G02*
X44769Y11494I1270J-845D01*
G01*
G75*
G02*
X44157Y10272I-1526J0D01*
G01*
Y8954D01*
G75*
G02*
X43882Y8300I-914J0D01*
G01*
X41992Y6410D01*
G75*
G02*
X41339Y6135I-653J639D01*
G01*
X36514D01*
Y5523D01*
X33463D01*
X46798Y7939D02*
X47210D01*
Y10527D01*
G75*
G02*
X46849Y11494I1114J967D01*
G01*
G75*
G02*
X49798I1475J0D01*
G01*
G75*
G02*
X49437Y10527I-1475J0D01*
G01*
Y7939D01*
X49849D01*
Y7527D01*
X54475D01*
G75*
G02*
X57787Y6414I1469J-1114D01*
G01*
G75*
G02*
X54475Y5300I-1843J0D01*
G01*
X49849D01*
Y4888D01*
X49437D01*
Y4202D01*
G75*
G02*
X49437Y4191I-1111J-16D01*
G01*
G75*
G02*
X49111Y3404I-1114J0D01*
G01*
X48158Y2451D01*
G75*
G02*
X47360Y2125I-787J787D01*
G01*
X28332D01*
G75*
G02*
X27534Y2451I-11J1113D01*
G01*
X26581Y3404D01*
G75*
G02*
X26255Y4191I787J788D01*
G01*
G75*
G02*
X26255Y4202I1109J-5D01*
G01*
Y7647D01*
G75*
G02*
X27019Y10467I764J1307D01*
G01*
X27719D01*
G75*
G02*
X28482Y7647I0J-1514D01*
G01*
Y4652D01*
X28782Y4352D01*
X46910D01*
X47210Y4652D01*
Y4888D01*
X46798D01*
Y7939D01*
X83438Y33084D02*
G75*
G02*
X88775I2668J0D01*
G01*
G75*
G02*
X83438I-2668J0D01*
G01*
X764Y9589D02*
G36*
X764Y9589D02*
Y764D01*
X88898D01*
Y9589D01*
X83553D01*
X82131Y8166D01*
G75*
G02*
X81333Y7840I-788J788D01*
G01*
X70169D01*
Y7474D01*
G75*
G02*
X73468Y6257I1014J-2330D01*
G01*
X79059D01*
G75*
G02*
X82398Y7456I2285J-1113D01*
G01*
X82612Y7669D01*
G75*
G02*
X82612Y7680I496J10D01*
G01*
G75*
G02*
Y7684I487J2D01*
G01*
G75*
G02*
X85790I1589J0D01*
G01*
G75*
G02*
X84187Y6095I-1589J0D01*
G01*
X83818Y5725D01*
G75*
G02*
X83885Y5144I-2474J-582D01*
G01*
G75*
G02*
X79059Y4030I-2542J0D01*
G01*
X73468D01*
G75*
G02*
X68642Y5143I-2285J1113D01*
G01*
Y5144D01*
G75*
G02*
X70070Y7428I2542J0D01*
G01*
X67118D01*
Y7840D01*
X66882D01*
X64668Y5626D01*
G75*
G02*
X63870Y5300I-788J788D01*
G01*
X62492D01*
G75*
G02*
X59181Y6414I-1469J1114D01*
G01*
G75*
G02*
X62492Y7527I1843J0D01*
G01*
X63420D01*
X65481Y9589D01*
X49437D01*
Y7939D01*
X49849D01*
Y7527D01*
X54475D01*
G75*
G02*
X57787Y6414I1469J-1114D01*
G01*
G75*
G02*
X54475Y5300I-1843J0D01*
G01*
X49849D01*
Y4888D01*
X49437D01*
Y4202D01*
G75*
G02*
X49437Y4194I-284J-8D01*
G01*
G75*
G02*
Y4191I-284J-1D01*
G01*
G75*
G02*
X49111Y3404I-1114J0D01*
G01*
X48158Y2451D01*
G75*
G02*
X47360Y2125I-788J788D01*
G01*
X28332D01*
G75*
G02*
X27534Y2451I-11J1114D01*
G01*
X26581Y3404D01*
G75*
G02*
X26255Y4191I788J788D01*
G01*
G75*
G02*
Y4194I295J1D01*
G01*
G75*
G02*
X26255Y4202I287J0D01*
G01*
Y7647D01*
G75*
G02*
X25505Y8954I764J1307D01*
G01*
G75*
G02*
X25645Y9589I1514J0D01*
G01*
X6232D01*
G75*
G02*
X6372Y8954I-1374J-635D01*
G01*
G75*
G02*
X4859Y7440I-1514J0D01*
G01*
X4159D01*
G75*
G02*
X2645Y8954I0J1514D01*
G01*
G75*
G02*
X2785Y9589I1514J0D01*
G01*
X764D01*
G37*
X28482Y7647D02*
G36*
X28482Y7647D02*
Y4652D01*
X28782Y4352D01*
X46910D01*
X47210Y4652D01*
Y4888D01*
X46798D01*
Y7939D01*
X47210D01*
Y9589D01*
X44157D01*
Y8954D01*
G75*
G02*
X43882Y8300I-914J0D01*
G01*
X41992Y6410D01*
G75*
G02*
X41339Y6135I-654J639D01*
G01*
X36514D01*
Y5523D01*
X33463D01*
Y9589D01*
X29092D01*
G75*
G02*
X29232Y8954I-1374J-635D01*
G01*
G75*
G02*
X28482Y7647I-1514J0D01*
G01*
G37*
X764Y22930D02*
G36*
X764Y22930D02*
Y9589D01*
X2785D01*
G75*
G02*
X3335Y10224I1374J-635D01*
G01*
G75*
G02*
X2645Y11494I823J1270D01*
G01*
G75*
G02*
X3335Y12764I1514J0D01*
G01*
G75*
G02*
X2907Y13182I823J1269D01*
G01*
G75*
G02*
X2593Y13388I331J851D01*
G01*
X1640Y14340D01*
G75*
G02*
X1372Y14986I647J646D01*
G01*
G75*
G02*
Y14989I379J2D01*
G01*
G75*
G02*
X1373Y14998I370J1D01*
G01*
Y22930D01*
X764D01*
G37*
X6065Y10580D02*
G36*
X6065Y10580D02*
G75*
G02*
X5682Y10224I-1210J916D01*
G01*
G75*
G02*
X6232Y9589I-823J-1270D01*
G01*
X25645D01*
G75*
G02*
X27019Y10467I1374J-635D01*
G01*
X27719D01*
G75*
G02*
X29092Y9589I0J-1514D01*
G01*
X33463D01*
Y13654D01*
X36514D01*
Y13042D01*
X37516D01*
G75*
G02*
X37845Y12985I12J-916D01*
G01*
G75*
G02*
X39434Y12339I318J-1492D01*
G01*
G75*
G02*
X41974I1270J-845D01*
G01*
G75*
G02*
X44769Y11494I1270J-845D01*
G01*
G75*
G02*
X44157Y10272I-1526J0D01*
G01*
Y9589D01*
X47210D01*
Y10527D01*
G75*
G02*
X46849Y11494I1114J967D01*
G01*
G75*
G02*
X49798I1475J0D01*
G01*
Y11493D01*
G75*
G02*
X49437Y10527I-1474J0D01*
G01*
Y9589D01*
X65481D01*
X65634Y9741D01*
G75*
G02*
X66432Y10067I788J-788D01*
G01*
X67118D01*
Y10479D01*
X70169D01*
Y10067D01*
X74230D01*
Y13527D01*
X78297D01*
Y10067D01*
X80882D01*
X83088Y12272D01*
Y16255D01*
X82612D01*
Y19433D01*
X83088D01*
Y19922D01*
X81200Y21810D01*
X79757D01*
Y21335D01*
X76580D01*
Y22930D01*
X71122D01*
Y15189D01*
G75*
G02*
X71144Y14986I-890J-204D01*
G01*
G75*
G02*
X70877Y14340I-913J0D01*
G01*
X68344Y11808D01*
G75*
G02*
X67691Y11533I-654J639D01*
G01*
X64528D01*
G75*
G02*
X63870Y11800I-13J913D01*
G01*
X62918Y12753D01*
G75*
G02*
X62650Y13399I647J646D01*
G01*
G75*
G02*
Y13402I379J2D01*
G01*
G75*
G02*
X62650Y13411I370J1D01*
G01*
Y17892D01*
G75*
G02*
X62038Y19114I914J1222D01*
G01*
G75*
G02*
X64834Y19959I1526J0D01*
G01*
G75*
G02*
X65190Y20335I1268J-843D01*
G01*
Y21654D01*
G75*
G02*
X65465Y22307I914J0D01*
G01*
X66088Y22930D01*
X50879D01*
X51559Y22250D01*
X54979D01*
G75*
G02*
X55637Y21982I13J-913D01*
G01*
X56590Y21030D01*
G75*
G02*
X56857Y20384I-647J-646D01*
G01*
G75*
G02*
Y20381I-367J-2D01*
G01*
G75*
G02*
X56857Y20371I-374J-1D01*
G01*
Y20335D01*
G75*
G02*
X57214Y19959I-911J-1220D01*
G01*
G75*
G02*
X60009Y19114I1270J-845D01*
G01*
G75*
G02*
X59397Y17892I-1526J0D01*
G01*
Y13716D01*
G75*
G02*
X59122Y13063I-914J0D01*
G01*
X57867Y11808D01*
G75*
G02*
X57214Y11533I-654J639D01*
G01*
X54674D01*
G75*
G02*
X54020Y11808I0J914D01*
G01*
X51438Y14390D01*
X32827D01*
X30562Y12125D01*
G75*
G02*
X29909Y11850I-654J639D01*
G01*
X19809D01*
X18814Y10855D01*
G75*
G02*
X18161Y10580I-654J639D01*
G01*
X6065D01*
G37*
X44357Y22930D02*
G36*
X44357Y22930D02*
Y22767D01*
X47357D01*
G75*
G02*
X47584Y22930I967J-1114D01*
G01*
X44357D01*
G37*
X84988Y11024D02*
G36*
X84988Y11024D02*
X83553Y9589D01*
X88898D01*
Y22930D01*
X83230D01*
X84988Y21171D01*
G75*
G02*
X85315Y20384I-788J-788D01*
G01*
G75*
G02*
Y20381I-284J-1D01*
G01*
G75*
G02*
X85315Y20373I-284J-1D01*
G01*
Y19433D01*
X85790D01*
Y16255D01*
X85315D01*
Y11822D01*
G75*
G02*
X85315Y11814I-284J-8D01*
G01*
G75*
G02*
Y11811I-284J-1D01*
G01*
G75*
G02*
X84988Y11024I-1114J0D01*
G01*
G37*
X764Y33084D02*
G36*
X764Y33084D02*
Y22930D01*
X1373D01*
Y33084D01*
X764D01*
G37*
X43087Y30716D02*
G36*
X43087Y30716D02*
Y30370D01*
X44021Y29436D01*
G75*
G02*
X44357Y28639I-777J-797D01*
G01*
Y28639D01*
Y22930D01*
X47584D01*
G75*
G02*
X48112Y23113I740J-1276D01*
G01*
X47685Y23540D01*
G75*
G02*
X47410Y24194I639J654D01*
G01*
Y25514D01*
G75*
G02*
X46800Y26734I914J1219D01*
G01*
G75*
G02*
X48324Y28257I1524J0D01*
G01*
G75*
G02*
X49847Y26734I0J-1524D01*
G01*
G75*
G02*
X49237Y25514I-1524J0D01*
G01*
Y24572D01*
X50879Y22930D01*
X66088D01*
X68388Y25230D01*
G75*
G02*
X67374Y25888I256J1504D01*
G01*
G75*
G02*
X64834I-1270J845D01*
G01*
G75*
G02*
X62294I-1270J845D01*
G01*
G75*
G02*
X59754I-1270J845D01*
G01*
G75*
G02*
X57214I-1270J845D01*
G01*
G75*
G02*
X54674I-1270J845D01*
G01*
G75*
G02*
X51878Y26734I-1270J845D01*
G01*
G75*
G02*
X52490Y27955I1526J0D01*
G01*
Y32705D01*
X52385Y32810D01*
G75*
G02*
X51222Y33084I-251J1543D01*
G01*
X50505D01*
G75*
G02*
X48682I-912J1270D01*
G01*
X45425D01*
G75*
G02*
X43602I-912J1270D01*
G01*
X43087D01*
Y32911D01*
G75*
G02*
X43537Y31814I-1114J-1098D01*
G01*
G75*
G02*
X43087Y30716I-1564J0D01*
G01*
G37*
X71122Y23825D02*
G36*
X71122Y23825D02*
Y22930D01*
X76580D01*
Y24513D01*
X79757D01*
Y24037D01*
X81650D01*
G75*
G02*
X82448Y23711I11J-1114D01*
G01*
X83230Y22930D01*
X88898D01*
Y33084D01*
X88775D01*
G75*
G02*
X83438I-2668J0D01*
G01*
X75567D01*
Y28646D01*
Y28639D01*
G75*
G02*
X75306Y28009I-891J0D01*
G01*
X71122Y23825D01*
G37*
X764Y39368D02*
G36*
X764Y39368D02*
Y33084D01*
X1373D01*
Y33401D01*
Y33401D01*
G75*
G02*
X1800Y34175I913J0D01*
G01*
X5784Y38158D01*
G75*
G02*
X6421Y38419I630J-630D01*
G01*
X73081D01*
G75*
G02*
X73718Y38158I7J-891D01*
G01*
X75306Y36571D01*
G75*
G02*
X75567Y35941I-630J-630D01*
G01*
Y35934D01*
Y33084D01*
X83438D01*
G75*
G02*
X88775I2668J0D01*
G01*
X88898D01*
Y39368D01*
X764D01*
G37*
X43087Y33256D02*
G36*
X43087Y33256D02*
Y33084D01*
X43602D01*
G75*
G02*
X43243Y33442I912J1270D01*
G01*
G75*
G02*
X43087Y33256I-1262J904D01*
G01*
G37*
X46077Y34353D02*
G36*
X46077Y34353D02*
G75*
G02*
X45425Y33084I-1563J0D01*
G01*
X48682D01*
G75*
G02*
X48030Y34353I912J1270D01*
G01*
G75*
G02*
X48739Y35663I1564J0D01*
G01*
X45368D01*
G75*
G02*
X46077Y34353I-855J-1309D01*
G01*
G37*
X50864Y33442D02*
G36*
X50864Y33442D02*
G75*
G02*
X50505Y33084I-1270J912D01*
G01*
X51222D01*
G75*
G02*
X50864Y33442I912J1270D01*
G01*
G37*
X3200Y33055D02*
Y27904D01*
G75*
G02*
X4159Y28247I959J-1171D01*
G01*
X4859D01*
G75*
G02*
X5682Y25464I0J-1514D01*
G01*
G75*
G02*
Y22924I-823J-1270D01*
G01*
G75*
G02*
Y20384I-823J-1270D01*
G01*
G75*
G02*
X6065Y20027I-823J-1270D01*
G01*
X8893D01*
X18143Y29277D01*
G75*
G02*
X18796Y29552I653J-639D01*
G01*
X32449D01*
G75*
G02*
X33102Y29277I0J-914D01*
G01*
X34732Y27647D01*
X36944D01*
G75*
G02*
X38838Y28100I1219J-914D01*
G01*
Y35306D01*
G75*
G02*
X39113Y35959I914J0D01*
G01*
X39791Y36638D01*
X6782D01*
X3200Y33055D01*
X30415Y33084D02*
G75*
G02*
X35752I2668J0D01*
G01*
G75*
G02*
X30415I-2668J0D01*
G01*
X3263D02*
G36*
X3263Y33084D02*
Y27954D01*
G75*
G02*
X4159Y28247I895J-1220D01*
G01*
X4859D01*
G75*
G02*
X6372Y26734I0J-1514D01*
G01*
G75*
G02*
X5682Y25464I-1514J0D01*
G01*
G75*
G02*
X6372Y24194I-823J-1270D01*
G01*
G75*
G02*
X5682Y22924I-1514J0D01*
G01*
G75*
G02*
X6372Y21654I-823J-1270D01*
G01*
G75*
G02*
X5682Y20384I-1514J0D01*
G01*
G75*
G02*
X6014Y20090I-823J-1269D01*
G01*
X8956D01*
X18143Y29277D01*
G75*
G02*
X18796Y29552I654J-639D01*
G01*
X32449D01*
G75*
G02*
X33102Y29277I0J-914D01*
G01*
X34732Y27647D01*
X36944D01*
G75*
G02*
X38838Y28100I1219J-913D01*
G01*
Y33084D01*
X35752D01*
G75*
G02*
X30415I-2668J0D01*
G01*
X3263D01*
G37*
Y33119D02*
G36*
X3263Y33119D02*
Y33084D01*
X30415D01*
G75*
G02*
X35752I2668J0D01*
G01*
X38838D01*
Y35306D01*
G75*
G02*
X39113Y35959I914J0D01*
G01*
X39728Y36575D01*
X6719D01*
X3263Y33119D01*
G37*
X5682Y17844D02*
G75*
G02*
Y15304I-823J-1270D01*
G01*
G75*
G02*
Y12764I-823J-1270D01*
G01*
G75*
G02*
X6065Y12407I-823J-1270D01*
G01*
X17783D01*
X18778Y13402D01*
G75*
G02*
X19431Y13677I653J-639D01*
G01*
X25548D01*
G75*
G02*
X26195Y15304I1471J357D01*
G01*
G75*
G02*
Y17844I823J1270D01*
G01*
G75*
G02*
Y20384I823J1270D01*
G01*
G75*
G02*
Y22924I823J1270D01*
G01*
G75*
G02*
Y25464I823J1270D01*
G01*
G75*
G02*
X25875Y27725I823J1270D01*
G01*
X19174D01*
X9924Y18475D01*
G75*
G02*
X9271Y18200I-653J639D01*
G01*
X6065D01*
G75*
G02*
X5682Y17844I-1207J913D01*
G01*
G36*
X5682Y17844D02*
G75*
G02*
Y15304I-823J-1270D01*
G01*
G75*
G02*
Y12764I-823J-1270D01*
G01*
G75*
G02*
X6065Y12407I-823J-1270D01*
G01*
X17783D01*
X18778Y13402D01*
G75*
G02*
X19431Y13677I653J-639D01*
G01*
X25548D01*
G75*
G02*
X26195Y15304I1471J357D01*
G01*
G75*
G02*
Y17844I823J1270D01*
G01*
G75*
G02*
Y20384I823J1270D01*
G01*
G75*
G02*
Y22924I823J1270D01*
G01*
G75*
G02*
Y25464I823J1270D01*
G01*
G75*
G02*
X25875Y27725I823J1270D01*
G01*
X19174D01*
X9924Y18475D01*
G75*
G02*
X9271Y18200I-653J639D01*
G01*
X6065D01*
G75*
G02*
X5682Y17844I-1207J913D01*
G01*
G37*
X28542D02*
G75*
G02*
Y15304I-823J-1270D01*
G01*
G75*
G02*
X28925Y14947I-823J-1270D01*
G01*
X29213D01*
X31478Y17212D01*
G75*
G02*
X32131Y17487I653J-639D01*
G01*
X38738D01*
X39790Y18539D01*
Y20432D01*
G75*
G02*
X39434Y20808I914J1222D01*
G01*
G75*
G02*
X37946Y20144I-1270J845D01*
G01*
X36277Y18475D01*
G75*
G02*
X35624Y18200I-653J639D01*
G01*
X28925D01*
G75*
G02*
X28542Y17844I-1207J913D01*
G01*
G36*
X28542Y17844D02*
G75*
G02*
Y15304I-823J-1270D01*
G01*
G75*
G02*
X28925Y14947I-823J-1270D01*
G01*
X29213D01*
X31478Y17212D01*
G75*
G02*
X32131Y17487I653J-639D01*
G01*
X38738D01*
X39790Y18539D01*
Y20432D01*
G75*
G02*
X39434Y20808I914J1222D01*
G01*
G75*
G02*
X37946Y20144I-1270J845D01*
G01*
X36277Y18475D01*
G75*
G02*
X35624Y18200I-653J639D01*
G01*
X28925D01*
G75*
G02*
X28542Y17844I-1207J913D01*
G01*
G37*
Y25464D02*
G75*
G02*
Y22924I-823J-1270D01*
G01*
G75*
G02*
X28925Y22567I-823J-1270D01*
G01*
X34928D01*
X37657Y25297D01*
G75*
G02*
X36944Y25820I506J1437D01*
G01*
X34353D01*
G75*
G02*
X33700Y26095I0J914D01*
G01*
X32070Y27725D01*
X28862D01*
G75*
G02*
X28542Y25464I-1144J-992D01*
G01*
G36*
X28542Y25464D02*
G75*
G02*
Y22924I-823J-1270D01*
G01*
G75*
G02*
X28925Y22567I-823J-1270D01*
G01*
X34928D01*
X37657Y25297D01*
G75*
G02*
X36944Y25820I506J1437D01*
G01*
X34353D01*
G75*
G02*
X33700Y26095I0J914D01*
G01*
X32070Y27725D01*
X28862D01*
G75*
G02*
X28542Y25464I-1144J-992D01*
G01*
G37*
X38123Y23179D02*
G75*
G02*
X39434Y22499I41J-1525D01*
G01*
G75*
G02*
X41974I1270J-845D01*
G01*
G75*
G02*
X42130Y22696I1270J-845D01*
G01*
Y28177D01*
X41196Y29111D01*
G75*
G02*
X40860Y29909I777J797D01*
G01*
Y30716D01*
G75*
G02*
X40665Y30959I1114J1098D01*
G01*
Y26099D01*
G75*
G02*
X40390Y25445I-914J0D01*
G01*
X38123Y23179D01*
G36*
X38123Y23179D02*
G75*
G02*
X39434Y22499I41J-1525D01*
G01*
G75*
G02*
X41974I1270J-845D01*
G01*
G75*
G02*
X42130Y22696I1270J-845D01*
G01*
Y28177D01*
X41196Y29111D01*
G75*
G02*
X40860Y29909I777J797D01*
G01*
Y30716D01*
G75*
G02*
X40665Y30959I1114J1098D01*
G01*
Y26099D01*
G75*
G02*
X40390Y25445I-914J0D01*
G01*
X38123Y23179D01*
G37*
X40051Y16217D02*
X48375D01*
X47546Y17046D01*
G75*
G02*
X47210Y17844I777J797D01*
G01*
Y20540D01*
X44286D01*
G75*
G02*
X41974Y20808I-1043J1114D01*
G01*
G75*
G02*
X41617Y20432I-1270J845D01*
G01*
Y18161D01*
G75*
G02*
X41342Y17508I-914J0D01*
G01*
X40051Y16217D01*
G36*
X40051Y16217D02*
X48375D01*
X47546Y17046D01*
G75*
G02*
X47210Y17844I777J797D01*
G01*
Y20540D01*
X44286D01*
G75*
G02*
X41974Y20808I-1043J1114D01*
G01*
G75*
G02*
X41617Y20432I-1270J845D01*
G01*
Y18161D01*
G75*
G02*
X41342Y17508I-914J0D01*
G01*
X40051Y16217D01*
G37*
D02*
D11*
X27369Y8954D02*
Y4191D01*
X28321Y3239D01*
X47371D01*
X48324Y4191D01*
Y6414D01*
X27369Y11494D02*
X31814D01*
X32449Y12129D01*
Y7049D02*
Y12129D01*
X41974Y34353D02*
Y29909D01*
X43243Y28639D01*
Y21654D01*
X48324D01*
X44514Y31814D02*
X52134D01*
X47053Y34353D02*
Y31814D01*
X48324Y6414D02*
Y11494D01*
X49594Y31814D02*
Y29909D01*
X50864Y28639D01*
Y26734D01*
Y24511D01*
X51816Y23559D01*
X58484D01*
X61024Y21019D01*
Y19114D01*
X53403Y16574D02*
X49594D01*
X48324Y17844D01*
Y21654D01*
X53403Y19114D02*
Y16574D01*
X55943Y6414D02*
X48324D01*
X55943Y14034D02*
X53403Y16574D01*
X61024Y6414D02*
X63881D01*
X66421Y8954D01*
X68644D01*
X61024Y19114D02*
Y16574D01*
X66104D02*
Y14034D01*
X68644Y8954D02*
X81344D01*
X84201Y11811D01*
Y17844D01*
X68644Y19114D02*
Y17209D01*
X68009Y16574D01*
X66104D01*
X71184Y5144D02*
X81661D01*
X84201Y7684D01*
X78169Y22924D02*
X81661D01*
X84201Y20384D01*
Y17844D01*
D02*
D12*
X48324Y11494D03*
Y21654D03*
X55943Y14034D03*
X66104D03*
D02*
D13*
X2286Y33401D02*
Y14986D01*
X3239Y14034D01*
X4508D01*
Y19114D02*
X9271D01*
X18796Y28639D01*
X32449D01*
X34353Y26734D01*
X38164D01*
X27369Y14034D02*
X29591D01*
X32131Y16574D01*
X39116D01*
X40703Y18161D01*
Y21654D01*
X27369D02*
X35306D01*
X39751Y26099D01*
Y35306D01*
X41021Y36576D01*
X71819D01*
X72454Y35941D01*
Y34353D01*
X34989Y9589D02*
X40069D01*
X40703Y10224D01*
Y11494D01*
X34989Y12129D02*
X37529D01*
X38164Y11494D01*
Y21654D02*
X35624Y19114D01*
X27369D01*
X43243Y11494D02*
Y8954D01*
X41339Y7049D01*
X34989D01*
X48324Y26734D02*
Y24194D01*
X51181Y21336D01*
X54991D01*
X55943Y20384D01*
Y19114D01*
X53403Y26734D02*
Y33084D01*
X52134Y34353D01*
X55943Y26734D02*
Y33084D01*
X54674Y34353D01*
X58484Y19114D02*
Y13716D01*
X57214Y12446D01*
X54674D01*
X51816Y15304D01*
X32449D01*
X29909Y12764D01*
X19431D01*
X18161Y11494D01*
X4508D01*
X58484Y26734D02*
Y33084D01*
X57214Y34353D01*
X61024Y26734D02*
Y33084D01*
X59754Y34353D01*
X63564Y19114D02*
Y13399D01*
X64516Y12446D01*
X67691D01*
X70231Y14986D01*
X63564Y26734D02*
Y33084D01*
X62294Y34353D01*
X66104Y26734D02*
Y33084D01*
X64834Y34353D01*
X68644Y26734D02*
Y33084D01*
X67374Y34353D01*
X69914D02*
X71184Y33084D01*
Y26734D01*
X66104Y21654D01*
Y19114D01*
D02*
D14*
X70231Y14986D02*
Y24194D01*
X74676Y28639D01*
Y35941D01*
X73089Y37529D01*
X6414D01*
X2286Y33401D01*
D02*
D15*
X38164Y26734D03*
X48324D03*
D02*
D16*
X38164Y11494D03*
Y21654D03*
X40703Y11494D03*
Y21654D03*
X43243Y11494D03*
Y21654D03*
X45783Y6414D03*
X50864Y19114D03*
Y26734D03*
X53403Y19114D03*
Y26734D03*
X55943Y19114D03*
Y26734D03*
X58484Y19114D03*
Y26734D03*
X61024Y16574D03*
Y19114D03*
Y26734D03*
X63564Y19114D03*
Y26734D03*
X66104Y16574D03*
Y19114D03*
Y26734D03*
X68644Y16574D03*
Y19114D03*
Y26734D03*
D02*
D17*
X48324Y6414D03*
D02*
D18*
X71184Y5144D03*
X81344D03*
D02*
D19*
X76264Y11494D03*
Y15304D03*
D02*
D70*
X4508Y8954D03*
Y11494D03*
Y14034D03*
Y16574D03*
Y19114D03*
Y21654D03*
Y24194D03*
Y26734D03*
X27369Y8954D03*
Y11494D03*
Y14034D03*
Y16574D03*
Y19114D03*
Y21654D03*
Y24194D03*
Y26734D03*
D02*
D71*
X34989Y7049D03*
Y9589D03*
Y12129D03*
X68644Y8954D03*
X72454Y34353D03*
D02*
D20*
X41974Y31814D03*
Y34353D03*
X44514Y31814D03*
Y34353D03*
X47053Y31814D03*
Y34353D03*
X49594Y31814D03*
Y34353D03*
X52134Y31814D03*
Y34353D03*
X54674Y31814D03*
Y34353D03*
X57214Y31814D03*
Y34353D03*
X59754Y31814D03*
Y34353D03*
X62294Y31814D03*
Y34353D03*
X64834Y31814D03*
Y34353D03*
X67374Y31814D03*
Y34353D03*
X69914Y31814D03*
Y34353D03*
X72454Y31814D03*
D02*
D21*
X32449Y7049D03*
Y9589D03*
Y12129D03*
X84201Y7684D03*
D02*
D22*
X55943Y6414D03*
X58484D03*
X61024D03*
D02*
D23*
X78169Y22924D03*
X84201Y17844D03*
D02*
D24*
X74359Y22924D03*
D02*
D25*
X33084Y33084D03*
X86106D03*
X0Y0D02*
M02*
