G05
M48
;#@! TF.GenerationSoftware,Number One Systems,Easy-PC,27.0.5940
;#@! TF.CreationDate,2026-07-27T08:36:13--1:00*
;#@! TF.FileFunction,Plated,1,4,PTH
;FILE_FORMAT=3:3
;TYPE=PLATED
METRIC,000.000
FMAT,2
T1C000.800
T2C000.813
T3C000.900
T4C000.940
T5C001.067
T6C001.397
T7C001.400
T8C003.200
%
T001
X032449Y007049
X032449Y009589
X032449Y012129
X034989Y007049
X034989Y009589
X034989Y012129
X038164Y026734
X048324Y026734
T002
X038164Y011494
X038164Y021654
X040704Y011494
X040704Y021654
X043244Y011494
X043244Y021654
X045784Y006414
X048324Y006414
X048324Y011494
X048324Y021654
X050864Y019114
X050864Y026734
X053404Y019114
X053404Y026734
X055944Y014034
X055944Y019114
X055944Y026734
X058484Y019114
X058484Y026734
X061024Y016574
X061024Y019114
X061024Y026734
X063564Y019114
X063564Y026734
X066104Y014034
X066104Y016574
X066104Y019114
X066104Y026734
X068644Y008954
X068644Y016574
X068644Y019114
X068644Y026734
X074359Y022924
X078169Y022924
T003
X004509Y008954
X004509Y011494
X004509Y014034
X004509Y016574
X004509Y019114
X004509Y021654
X004509Y024194
X004509Y026734
X027369Y008954
X027369Y011494
X027369Y014034
X027369Y016574
X027369Y019114
X027369Y021654
X027369Y024194
X027369Y026734
T004
X041974Y031814
X041974Y034354
X044514Y031814
X044514Y034354
X047054Y031814
X047054Y034354
X049594Y031814
X049594Y034354
X052134Y031814
X052134Y034354
X054674Y031814
X054674Y034354
X057214Y031814
X057214Y034354
X059754Y031814
X059754Y034354
X062294Y031814
X062294Y034354
X064834Y031814
X064834Y034354
X067374Y031814
X067374Y034354
X069914Y031814
X069914Y034354
X072454Y031814
X072454Y034354
X084201Y007684
X084201Y017844
T005
X055944Y006414
X058484Y006414
X061024Y006414
T006
X076264Y011494
X076264Y015304
T007
X071184Y005144
X081344Y005144
T008
X033084Y033084
X086106Y033084
M30
