G04 Easy-PC Gerber Version 27.0 Build 5942*
%FSLAX33Y33*%
%MOMM*%
%AMT71*0 Rounded Rectangle Pad at angle 0*4,1,36,-0.56000,-0.76000,0.56000,-0.76000,0.59900,-0.75620,0.63650,-0.74480,0.67110,-0.72630,0.70140,-0.70140,0.72630,-0.67110,0.74480,-0.63650,0.75620,-0.59900,0.76000,-0.56000,0.76000,0.56000,0.75620,0.59900,0.74480,0.63650,0.72630,0.67110,0.70140,0.70140,0.67110,0.72630,0.63650,0.74480,0.59900,0.75620,0.56000,0.76000,-0.56000,0.76000,-0.59900,0.75620,-0.63650,0.74480,-0.67110,0.72630,-0.70140,0.70140,-0.72630,0.67110,-0.74480,0.63650,-0.75620,0.59900,-0.76000,0.56000,-0.76000,-0.56000,-0.75620,-0.59900,-0.74480,-0.63650,-0.72630,-0.67110,-0.70140,-0.70140,-0.67110,-0.72630,-0.63650,-0.74480,-0.59900,-0.75620,-0.56000,-0.76000,0*%
%ADD71T71*%
%AMT18*0 Rounded Rectangle Pad at angle 0*4,1,36,-0.60000,-0.80000,0.60000,-0.80000,0.63900,-0.79620,0.67650,-0.78480,0.71110,-0.76630,0.74140,-0.74140,0.76630,-0.71110,0.78480,-0.67650,0.79620,-0.63900,0.80000,-0.60000,0.80000,0.60000,0.79620,0.63900,0.78480,0.67650,0.76630,0.71110,0.74140,0.74140,0.71110,0.76630,0.67650,0.78480,0.63900,0.79620,0.60000,0.80000,-0.60000,0.80000,-0.63900,0.79620,-0.67650,0.78480,-0.71110,0.76630,-0.74140,0.74140,-0.76630,0.71110,-0.78480,0.67650,-0.79620,0.63900,-0.80000,0.60000,-0.80000,-0.60000,-0.79620,-0.63900,-0.78480,-0.67650,-0.76630,-0.71110,-0.74140,-0.74140,-0.71110,-0.76630,-0.67650,-0.78480,-0.63900,-0.79620,-0.60000,-0.80000,0*%
%ADD18T18*%
%ADD15R,1.52400X1.52400*%
%ADD10C,0.12700*%
%ADD13C,0.30000*%
%ADD11C,0.70000*%
%ADD12C,1.42240*%
%ADD19C,1.50000*%
%ADD14C,1.52000*%
%ADD16C,1.52400*%
%AMT70*0 Rounded Rectangle Pad at angle 90*4,1,36,0.75000,-0.55000,0.75000,0.55000,0.74620,0.58900,0.73480,0.62650,0.71630,0.66110,0.69140,0.69140,0.66110,0.71630,0.62650,0.73480,0.58900,0.74620,0.55000,0.75000,-0.55000,0.75000,-0.58900,0.74620,-0.62650,0.73480,-0.66110,0.71630,-0.69140,0.69140,-0.71630,0.66110,-0.73480,0.62650,-0.74620,0.58900,-0.75000,0.55000,-0.75000,-0.55000,-0.74620,-0.58900,-0.73480,-0.62650,-0.71630,-0.66110,-0.69140,-0.69140,-0.66110,-0.71630,-0.62650,-0.73480,-0.58900,-0.74620,-0.55000,-0.75000,0.55000,-0.75000,0.58900,-0.74620,0.62650,-0.73480,0.66110,-0.71630,0.69140,-0.69140,0.71630,-0.66110,0.73480,-0.62650,0.74620,-0.58900,0.75000,-0.55000,0*%
%ADD70T70*%
%ADD17O,2.20000X1.50000*%
%ADD20C,1.60000*%
X0Y0D02*
D02*
D10*
X701Y30568D02*
Y3214D01*
G75*
G02*
X735Y3215I34J-647D01*
G01*
X2567D01*
G75*
G02*
X2631Y3211I0J-647D01*
G01*
G75*
G02*
X2628Y3275I644J63D01*
G01*
Y5107D01*
G75*
G02*
X3275Y5755I647J0D01*
G01*
X5107D01*
G75*
G02*
X5755Y5107I0J-647D01*
G01*
Y3275D01*
G75*
G02*
X5649Y2921I-647J0D01*
G01*
G75*
G02*
X5755Y2567I-542J-354D01*
G01*
Y735D01*
G75*
G02*
X5754Y701I-648J0D01*
G01*
X28932D01*
X26730Y2903D01*
G75*
G02*
X26455Y3556I639J653D01*
G01*
Y16513D01*
X22226Y20742D01*
G75*
G02*
X22227Y20701I-1524J-39D01*
G01*
G75*
G02*
X19479Y19788I-1526J0D01*
G01*
X18857D01*
X17170Y18100D01*
Y6096D01*
G75*
G02*
X16895Y5443I-914J0D01*
G01*
X15864Y4413D01*
Y3325D01*
G75*
G02*
X15217Y2678I-647J0D01*
G01*
X13485D01*
G75*
G02*
X12838Y3325I0J647D01*
G01*
Y5057D01*
G75*
G02*
X13485Y5705I647J0D01*
G01*
X14573D01*
X15342Y6474D01*
Y18479D01*
G75*
G02*
X15618Y19132I914J0D01*
G01*
X17825Y21340D01*
G75*
G02*
X18479Y21615I653J-639D01*
G01*
X19479D01*
G75*
G02*
X20701Y22227I1222J-914D01*
G01*
G75*
G02*
X20742Y22226I2J-1523D01*
G01*
X16253Y26715D01*
G75*
G02*
X15977Y27369I639J653D01*
G01*
Y28322D01*
G75*
G02*
X15621Y28679I914J1269D01*
G01*
G75*
G02*
X13081I-1270J912D01*
G01*
G75*
G02*
X10248Y29591I-1270J912D01*
G01*
G75*
G02*
X11141Y31003I1563J0D01*
G01*
X5719D01*
G75*
G02*
X5649Y30861I-612J211D01*
G01*
G75*
G02*
X5755Y30507I-542J-354D01*
G01*
Y28675D01*
G75*
G02*
X5107Y28028I-647J0D01*
G01*
X3275D01*
G75*
G02*
X2628Y28675I0J647D01*
G01*
Y30507D01*
G75*
G02*
X2631Y30571I647J0D01*
G01*
G75*
G02*
X2567Y30568I-63J644D01*
G01*
X735D01*
G75*
G02*
X701Y30568I0J648D01*
G01*
X17283Y3325D02*
Y5057D01*
G75*
G02*
X17883Y5703I647J0D01*
G01*
Y14974D01*
G75*
G02*
X17882Y14986I910J14D01*
G01*
G75*
G02*
X18150Y15632I914J0D01*
G01*
X18785Y16267D01*
G75*
G02*
X19443Y16535I646J-646D01*
G01*
X19479D01*
G75*
G02*
X22227Y15621I1222J-914D01*
G01*
G75*
G02*
X21546Y14351I-1526J0D01*
G01*
G75*
G02*
X21615Y11859I-845J-1270D01*
G01*
Y7109D01*
X23019Y5705D01*
X24107D01*
G75*
G02*
X24755Y5057I0J-647D01*
G01*
Y3325D01*
G75*
G02*
X24107Y2678I-647J0D01*
G01*
X22375D01*
G75*
G02*
X21728Y3325I0J647D01*
G01*
Y4413D01*
X20063Y6078D01*
G75*
G02*
X19788Y6731I639J653D01*
G01*
Y11859D01*
G75*
G02*
X19710Y11922I914J1222D01*
G01*
Y5703D01*
G75*
G02*
X20310Y5057I-47J-646D01*
G01*
Y3325D01*
G75*
G02*
X19662Y2678I-647J0D01*
G01*
X17930D01*
G75*
G02*
X17283Y3325I0J647D01*
G01*
X3364Y26416D02*
G75*
G02*
X4191Y27243I827J0D01*
G01*
X11811D01*
G75*
G02*
X12638Y26416I0J-827D01*
G01*
Y7366D01*
G75*
G02*
X11811Y6539I-827J0D01*
G01*
X4191D01*
G75*
G02*
X3364Y7366I0J827D01*
G01*
Y26416D01*
X764Y9912D02*
G36*
X764Y9912D02*
Y3215D01*
X2567D01*
G75*
G02*
X2631Y3211I-1J-673D01*
G01*
G75*
G02*
X2628Y3275I670J65D01*
G01*
Y5107D01*
Y5107D01*
G75*
G02*
X3275Y5755I647J0D01*
G01*
X5107D01*
G75*
G02*
X5755Y5107I0J-647D01*
G01*
Y5107D01*
Y3275D01*
G75*
G02*
X5649Y2921I-648J0D01*
G01*
G75*
G02*
X5755Y2567I-543J-354D01*
G01*
Y764D01*
X28869D01*
X26730Y2903D01*
G75*
G02*
X26455Y3556I639J654D01*
G01*
Y9912D01*
X21615D01*
Y7109D01*
X23019Y5705D01*
X24107D01*
G75*
G02*
X24755Y5057I0J-647D01*
G01*
Y5057D01*
Y3325D01*
Y3325D01*
G75*
G02*
X24107Y2678I-647J0D01*
G01*
X22375D01*
G75*
G02*
X21728Y3325I0J647D01*
G01*
Y3325D01*
Y4413D01*
X20063Y6078D01*
G75*
G02*
X19788Y6731I639J654D01*
G01*
Y9912D01*
X19710D01*
Y5703D01*
G75*
G02*
X20310Y5057I-48J-646D01*
G01*
Y3325D01*
Y3325D01*
G75*
G02*
X19662Y2678I-647J0D01*
G01*
X17930D01*
G75*
G02*
X17283Y3325I0J647D01*
G01*
Y3325D01*
Y5057D01*
Y5057D01*
G75*
G02*
X17883Y5703I647J0D01*
G01*
Y9912D01*
X17170D01*
Y6096D01*
G75*
G02*
X16895Y5443I-914J0D01*
G01*
X15864Y4413D01*
Y3325D01*
Y3325D01*
G75*
G02*
X15217Y2678I-647J0D01*
G01*
X13485D01*
G75*
G02*
X12838Y3325I0J647D01*
G01*
Y3325D01*
Y5057D01*
Y5057D01*
G75*
G02*
X13485Y5705I647J0D01*
G01*
X14573D01*
X15342Y6474D01*
Y9912D01*
X12638D01*
Y7366D01*
Y7366D01*
G75*
G02*
X11811Y6539I-827J0D01*
G01*
X4191D01*
G75*
G02*
X3364Y7366I0J827D01*
G01*
Y7366D01*
Y9912D01*
X764D01*
G37*
Y30568D02*
G36*
X764Y30568D02*
Y9912D01*
X3364D01*
Y26416D01*
Y26416D01*
G75*
G02*
X4191Y27243I827J0D01*
G01*
X11811D01*
G75*
G02*
X12638Y26416I0J-827D01*
G01*
Y26416D01*
Y9912D01*
X15342D01*
Y18479D01*
G75*
G02*
X15618Y19132I914J0D01*
G01*
X17825Y21340D01*
G75*
G02*
X18479Y21615I654J-639D01*
G01*
X19479D01*
G75*
G02*
X20701Y22227I1222J-914D01*
G01*
G75*
G02*
X20742Y22226I3J-1387D01*
G01*
X16253Y26715D01*
G75*
G02*
X15977Y27369I639J654D01*
G01*
Y28322D01*
G75*
G02*
X15621Y28679I914J1270D01*
G01*
G75*
G02*
X13081I-1270J912D01*
G01*
G75*
G02*
X10248Y29591I-1270J912D01*
G01*
G75*
G02*
X11021Y30940I1563J0D01*
G01*
X5693D01*
G75*
G02*
X5649Y30861I-584J274D01*
G01*
G75*
G02*
X5755Y30507I-543J-354D01*
G01*
Y28675D01*
Y28675D01*
G75*
G02*
X5107Y28028I-647J0D01*
G01*
X3275D01*
G75*
G02*
X2628Y28675I0J647D01*
G01*
Y28675D01*
Y30507D01*
G75*
G02*
X2631Y30571I673J-1D01*
G01*
G75*
G02*
X2567Y30568I-65J670D01*
G01*
X764D01*
G37*
X17170Y18100D02*
G36*
X17170Y18100D02*
Y9912D01*
X17883D01*
Y14974D01*
G75*
G02*
X17882Y14983I374J9D01*
G01*
G75*
G02*
Y14986I367J2D01*
G01*
G75*
G02*
X18150Y15632I914J0D01*
G01*
X18785Y16267D01*
G75*
G02*
X19443Y16535I646J-645D01*
G01*
X19479D01*
G75*
G02*
X22227Y15621I1222J-914D01*
G01*
Y15621D01*
G75*
G02*
X21546Y14351I-1525J0D01*
G01*
G75*
G02*
X22227Y13081I-845J-1270D01*
G01*
G75*
G02*
X21615Y11859I-1526J0D01*
G01*
Y9912D01*
X26455D01*
Y16513D01*
X22226Y20742D01*
G75*
G02*
X22227Y20705I-1374J-37D01*
G01*
G75*
G02*
Y20701I-1393J-2D01*
G01*
G75*
G02*
X19479Y19788I-1526J0D01*
G01*
X18857D01*
X17170Y18100D01*
G37*
X19710Y11922D02*
G36*
X19710Y11922D02*
Y9912D01*
X19788D01*
Y11859D01*
G75*
G02*
X19710Y11922I959J1278D01*
G01*
G37*
X4191Y7366D02*
X11811D01*
Y26416D01*
X4191D01*
Y7366D01*
G36*
X4191Y7366D02*
X11811D01*
Y26416D01*
X4191D01*
Y7366D01*
G37*
X22885Y28322D02*
Y25842D01*
X29912Y18814D01*
G75*
G02*
X30187Y18161I-639J-653D01*
G01*
Y16990D01*
G75*
G02*
X31964Y16675I674J-1369D01*
G01*
G75*
G02*
X32228Y16891I1087J-1054D01*
G01*
G75*
G02*
Y19431I823J1270D01*
G01*
G75*
G02*
X31964Y19648I823J1270D01*
G01*
G75*
G02*
X29336Y20701I-1103J1054D01*
G01*
G75*
G02*
X31964Y21755I1526J0D01*
G01*
G75*
G02*
X33051Y22215I1087J-1054D01*
G01*
X33751D01*
G75*
G02*
X34574Y19431I0J-1514D01*
G01*
G75*
G02*
Y16891I-823J-1270D01*
G01*
G75*
G02*
Y14351I-823J-1270D01*
G01*
G75*
G02*
Y11811I-823J-1270D01*
G01*
G75*
G02*
Y9271I-823J-1270D01*
G01*
G75*
G02*
X33751Y6488I-823J-1270D01*
G01*
X33051D01*
G75*
G02*
X32228Y9271I0J1514D01*
G01*
G75*
G02*
Y11811I823J1270D01*
G01*
G75*
G02*
X31964Y12028I823J1270D01*
G01*
G75*
G02*
X30187Y11713I-1103J1054D01*
G01*
Y5204D01*
X31874Y3517D01*
X44735D01*
G75*
G02*
X45188Y5410I1366J674D01*
G01*
Y12116D01*
G75*
G02*
X45187Y12129I910J14D01*
G01*
G75*
G02*
X45455Y12775I914J0D01*
G01*
X46408Y13727D01*
G75*
G02*
X47066Y13994I646J-646D01*
G01*
X47419D01*
G75*
G02*
X47728Y14303I1222J-913D01*
G01*
Y14399D01*
G75*
G02*
X47796Y16891I914J1222D01*
G01*
G75*
G02*
X47728Y19383I845J1270D01*
G01*
Y19479D01*
G75*
G02*
X47796Y21971I914J1222D01*
G01*
G75*
G02*
Y24511I845J1270D01*
G01*
G75*
G02*
X47528Y26824I845J1270D01*
G01*
Y31017D01*
X40007D01*
Y30606D01*
X36956D01*
Y31017D01*
X34515D01*
Y27088D01*
G75*
G02*
X33751Y24268I-764J-1307D01*
G01*
X33051D01*
G75*
G02*
X32026Y24668I0J1514D01*
G01*
X30554D01*
G75*
G02*
X29756Y24994I-11J1113D01*
G01*
X28804Y25946D01*
G75*
G02*
X28477Y26734I787J788D01*
G01*
G75*
G02*
X28478Y26744I1109J-5D01*
G01*
Y28493D01*
G75*
G02*
X28321Y28679I1114J1098D01*
G01*
G75*
G02*
X25781I-1270J912D01*
G01*
G75*
G02*
X23241I-1270J912D01*
G01*
G75*
G02*
X22885Y28322I-1270J912D01*
G01*
X41021Y14607D02*
G75*
G02*
X42547Y13081I0J-1526D01*
G01*
G75*
G02*
X41021Y11556I-1526J0D01*
G01*
G75*
G02*
X39496Y13081I0J1526D01*
G01*
G75*
G02*
X41021Y14607I1526J0D01*
G01*
Y19687D02*
G75*
G02*
X42547Y18161I0J-1526D01*
G01*
G75*
G02*
X41021Y16636I-1526J0D01*
G01*
G75*
G02*
X39496Y18161I0J1526D01*
G01*
G75*
G02*
X41021Y19687I1526J0D01*
G01*
Y24767D02*
G75*
G02*
X42547Y23241I0J-1526D01*
G01*
G75*
G02*
X41021Y21715I-1526J0D01*
G01*
G75*
G02*
X39496Y23241I0J1526D01*
G01*
G75*
G02*
X41021Y24767I1526J0D01*
G01*
X30187Y11713D02*
G36*
X30187Y11713D02*
Y5204D01*
X31811Y3581D01*
X44705D01*
G75*
G02*
X44578Y4191I1396J611D01*
G01*
G75*
G02*
X45188Y5410I1524J0D01*
G01*
Y12116D01*
G75*
G02*
X45187Y12126I374J9D01*
G01*
G75*
G02*
Y12129I367J2D01*
G01*
G75*
G02*
X45455Y12775I914J0D01*
G01*
X45762Y13081D01*
X42547D01*
G75*
G02*
X41021Y11556I-1526J0D01*
G01*
G75*
G02*
X39496Y13081I0J1526D01*
G01*
X35265D01*
G75*
G02*
X34574Y11811I-1514J0D01*
G01*
G75*
G02*
X35265Y10541I-823J-1270D01*
G01*
G75*
G02*
X34574Y9271I-1514J0D01*
G01*
G75*
G02*
X35265Y8001I-823J-1270D01*
G01*
G75*
G02*
X33751Y6488I-1514J0D01*
G01*
X33051D01*
G75*
G02*
X31537Y8001I0J1514D01*
G01*
G75*
G02*
X32228Y9271I1514J0D01*
G01*
G75*
G02*
X31538Y10541I823J1270D01*
G01*
G75*
G02*
X32228Y11811I1514J0D01*
G01*
G75*
G02*
X31964Y12028I824J1271D01*
G01*
G75*
G02*
X30187Y11713I-1103J1053D01*
G01*
G37*
Y18161D02*
G36*
X30187Y18161D02*
Y16990D01*
G75*
G02*
X31964Y16675I674J-1368D01*
G01*
G75*
G02*
X32228Y16891I1087J-1054D01*
G01*
G75*
G02*
X31538Y18161I823J1270D01*
G01*
X30187D01*
G37*
X34574Y14351D02*
G36*
X34574Y14351D02*
G75*
G02*
X35265Y13081I-823J-1270D01*
G01*
X39496D01*
G75*
G02*
X41021Y14607I1526J0D01*
G01*
G75*
G02*
X42547Y13081I0J-1526D01*
G01*
X45762D01*
X46408Y13727D01*
G75*
G02*
X47066Y13994I646J-645D01*
G01*
X47419D01*
G75*
G02*
X47728Y14303I1218J-910D01*
G01*
Y14399D01*
G75*
G02*
X47115Y15621I914J1222D01*
G01*
G75*
G02*
X47732Y16846I1526J0D01*
G01*
Y16936D01*
G75*
G02*
X47115Y18161I909J1225D01*
G01*
X42547D01*
G75*
G02*
X41021Y16636I-1526J0D01*
G01*
G75*
G02*
X39496Y18161I0J1526D01*
G01*
X35265D01*
G75*
G02*
X34574Y16891I-1514J0D01*
G01*
G75*
G02*
X35265Y15621I-823J-1270D01*
G01*
G75*
G02*
X34574Y14351I-1514J0D01*
G01*
G37*
X25485Y23241D02*
G36*
X25485Y23241D02*
X29912Y18814D01*
G75*
G02*
X30187Y18161I-639J-654D01*
G01*
X31538D01*
G75*
G02*
X32228Y19431I1514J0D01*
G01*
G75*
G02*
X31964Y19648I824J1271D01*
G01*
G75*
G02*
X29336Y20701I-1103J1054D01*
G01*
G75*
G02*
X31964Y21755I1526J0D01*
G01*
G75*
G02*
X33051Y22215I1087J-1053D01*
G01*
X33751D01*
G75*
G02*
X35265Y20701I0J-1514D01*
G01*
G75*
G02*
X34574Y19431I-1514J0D01*
G01*
G75*
G02*
X35265Y18161I-823J-1270D01*
G01*
X39496D01*
G75*
G02*
X41021Y19687I1526J0D01*
G01*
G75*
G02*
X42547Y18161I0J-1526D01*
G01*
X47115D01*
G75*
G02*
X47728Y19383I1526J0D01*
G01*
Y19479D01*
G75*
G02*
X47115Y20701I914J1222D01*
G01*
G75*
G02*
X47732Y21926I1526J0D01*
G01*
Y22016D01*
G75*
G02*
X47115Y23241I909J1225D01*
G01*
X42547D01*
G75*
G02*
X41021Y21715I-1526J0D01*
G01*
G75*
G02*
X39496Y23241I0J1526D01*
G01*
X25485D01*
G37*
X22948Y28370D02*
G36*
X22948Y28370D02*
Y25778D01*
X25485Y23241D01*
X39496D01*
G75*
G02*
X41021Y24767I1526J0D01*
G01*
G75*
G02*
X42547Y23241I0J-1526D01*
G01*
X47115D01*
G75*
G02*
X47732Y24466I1526J0D01*
G01*
Y24556D01*
G75*
G02*
X47115Y25781I909J1225D01*
G01*
G75*
G02*
X47528Y26824I1526J0D01*
G01*
Y30954D01*
X40007D01*
Y30606D01*
X36956D01*
Y30954D01*
X34515D01*
Y27088D01*
G75*
G02*
X35265Y25781I-764J-1307D01*
G01*
G75*
G02*
X33751Y24268I-1514J0D01*
G01*
X33051D01*
G75*
G02*
X32026Y24668I0J1513D01*
G01*
X30554D01*
G75*
G02*
X29756Y24994I-11J1114D01*
G01*
X28804Y25946D01*
G75*
G02*
X28477Y26734I788J788D01*
G01*
G75*
G02*
Y26736I295J1D01*
G01*
G75*
G02*
X28478Y26744I287J0D01*
G01*
Y28493D01*
G75*
G02*
X28321Y28679I1105J1090D01*
G01*
G75*
G02*
X25781I-1270J912D01*
G01*
G75*
G02*
X23241I-1270J912D01*
G01*
G75*
G02*
X22948Y28370I-1271J913D01*
G01*
G37*
X47015Y11750D02*
Y5410D01*
G75*
G02*
X47467Y3517I-914J-1219D01*
G01*
X48263D01*
X49950Y5204D01*
Y9758D01*
G75*
G02*
X47115Y10541I-1309J783D01*
G01*
G75*
G02*
X47796Y11811I1526J0D01*
G01*
G75*
G02*
X47425Y12160I845J1270D01*
G01*
X47015Y11750D01*
G36*
X47015Y11750D02*
Y5410D01*
G75*
G02*
X47467Y3517I-914J-1219D01*
G01*
X48263D01*
X49950Y5204D01*
Y9758D01*
G75*
G02*
X47115Y10541I-1309J783D01*
G01*
G75*
G02*
X47796Y11811I1526J0D01*
G01*
G75*
G02*
X47425Y12160I845J1270D01*
G01*
X47015Y11750D01*
G37*
X49486Y24511D02*
G75*
G02*
X49863Y24155I-845J-1270D01*
G01*
X54704D01*
G75*
G02*
X55088Y24511I1207J-913D01*
G01*
G75*
G02*
X55911Y27295I823J1270D01*
G01*
X56611D01*
G75*
G02*
X57570Y26952I0J-1514D01*
G01*
Y28003D01*
G75*
G02*
X57845Y28657I914J0D01*
G01*
X58508Y29319D01*
Y30507D01*
G75*
G02*
X58613Y30861I647J0D01*
G01*
G75*
G02*
X58538Y31017I542J354D01*
G01*
X49755D01*
Y26824D01*
G75*
G02*
X49486Y24511I-1114J-1043D01*
G01*
G36*
X49486Y24511D02*
G75*
G02*
X49863Y24155I-845J-1270D01*
G01*
X54704D01*
G75*
G02*
X55088Y24511I1207J-913D01*
G01*
G75*
G02*
X55911Y27295I823J1270D01*
G01*
X56611D01*
G75*
G02*
X57570Y26952I0J-1514D01*
G01*
Y28003D01*
G75*
G02*
X57845Y28657I914J0D01*
G01*
X58508Y29319D01*
Y30507D01*
G75*
G02*
X58613Y30861I647J0D01*
G01*
G75*
G02*
X58538Y31017I542J354D01*
G01*
X49755D01*
Y26824D01*
G75*
G02*
X49486Y24511I-1114J-1043D01*
G01*
G37*
X51205Y701D02*
X58508D01*
G75*
G02*
X58508Y735I647J34D01*
G01*
Y2567D01*
G75*
G02*
X58613Y2921I647J0D01*
G01*
G75*
G02*
X58508Y3275I542J354D01*
G01*
Y3278D01*
X57480D01*
G75*
G02*
X54738Y4191I-1219J914D01*
G01*
G75*
G02*
X57480Y5105I1524J0D01*
G01*
X58508D01*
Y5107D01*
G75*
G02*
X59155Y5755I647J0D01*
G01*
X59756D01*
X58798Y6713D01*
G75*
G02*
X58523Y7366I639J653D01*
G01*
Y14290D01*
X58105Y14708D01*
X57818D01*
G75*
G02*
X57434Y14351I-1207J913D01*
G01*
G75*
G02*
Y11811I-823J-1270D01*
G01*
G75*
G02*
Y9271I-823J-1270D01*
G01*
G75*
G02*
X56611Y6488I-823J-1270D01*
G01*
X55911D01*
G75*
G02*
X55088Y9271I0J1514D01*
G01*
G75*
G02*
Y11811I823J1270D01*
G01*
G75*
G02*
X54704Y12168I823J1270D01*
G01*
X54417D01*
X53682Y11433D01*
Y3556D01*
G75*
G02*
X53407Y2903I-914J0D01*
G01*
X51205Y701D01*
G36*
X51205Y701D02*
X58508D01*
G75*
G02*
X58508Y735I647J34D01*
G01*
Y2567D01*
G75*
G02*
X58613Y2921I647J0D01*
G01*
G75*
G02*
X58508Y3275I542J354D01*
G01*
Y3278D01*
X57480D01*
G75*
G02*
X54738Y4191I-1219J914D01*
G01*
G75*
G02*
X57480Y5105I1524J0D01*
G01*
X58508D01*
Y5107D01*
G75*
G02*
X59155Y5755I647J0D01*
G01*
X59756D01*
X58798Y6713D01*
G75*
G02*
X58523Y7366I639J653D01*
G01*
Y14290D01*
X58105Y14708D01*
X57818D01*
G75*
G02*
X57434Y14351I-1207J913D01*
G01*
G75*
G02*
Y11811I-823J-1270D01*
G01*
G75*
G02*
Y9271I-823J-1270D01*
G01*
G75*
G02*
X56611Y6488I-823J-1270D01*
G01*
X55911D01*
G75*
G02*
X55088Y9271I0J1514D01*
G01*
G75*
G02*
Y11811I823J1270D01*
G01*
G75*
G02*
X54704Y12168I823J1270D01*
G01*
X54417D01*
X53682Y11433D01*
Y3556D01*
G75*
G02*
X53407Y2903I-914J0D01*
G01*
X51205Y701D01*
G37*
X61024Y7366D02*
X64198D01*
Y26416D01*
X61024D01*
X60389Y25781D01*
Y8001D01*
X61024Y7366D01*
G36*
X61024Y7366D02*
X64198D01*
Y26416D01*
X61024D01*
X60389Y25781D01*
Y8001D01*
X61024Y7366D01*
G37*
D02*
D11*
X4191Y32131D02*
X29591D01*
Y29591D01*
X14351Y25781D02*
Y27051D01*
X13716Y27686D01*
X9906D01*
X9271Y28321D01*
Y29591D01*
X29591D02*
Y32131D01*
X33401D01*
Y25781D02*
X30544D01*
X29591Y26734D01*
Y29591D01*
X33401Y25781D02*
Y32131D01*
X38481D01*
X52451D01*
X48641Y28321D02*
Y25781D01*
X52451Y32131D02*
X48641D01*
Y28321D01*
X60071Y32131D02*
X52451D01*
D02*
D12*
X14351Y25781D03*
X24511D03*
D02*
D13*
X14351Y4191D02*
X16256Y6096D01*
Y18479D01*
X18479Y20701D01*
X20701D01*
X16891Y29591D02*
Y27369D01*
X27369Y16891D01*
Y3556D01*
X30226Y699D01*
X49911D01*
X52769Y3556D01*
Y11811D01*
X54039Y13081D01*
X56261D01*
X18796Y4191D02*
Y14986D01*
X19431Y15621D01*
X20701D01*
X19431Y29591D02*
Y26416D01*
X28321Y17526D01*
Y4191D01*
X30861Y1651D01*
X49276D01*
X51816Y4191D01*
Y14351D01*
X53086Y15621D01*
X56261D01*
X21971Y29591D02*
Y25464D01*
X29274Y18161D01*
Y4826D01*
X31496Y2604D01*
X48641D01*
X50864Y4826D01*
Y18796D01*
X52769Y20701D01*
X56261D01*
X23241Y4191D02*
X20701Y6731D01*
Y13081D01*
X30861D02*
X33401D01*
X30861Y15621D02*
X33401D01*
X30861Y20701D02*
X33401D01*
X48641Y13081D02*
X47053D01*
X46101Y12129D01*
Y4191D01*
X48641Y15621D02*
Y13081D01*
Y20701D02*
Y18161D01*
Y23241D02*
X56261D01*
Y4191D02*
X60071D01*
X56261Y18161D02*
X58484D01*
X59436Y19114D01*
Y26416D01*
X61341Y28321D01*
Y30861D01*
X62611Y32131D01*
X60071Y29591D02*
X58484Y28003D01*
Y21336D01*
X57849Y20701D01*
X56261D01*
X62611Y1651D02*
X61341Y2921D01*
Y5461D01*
X59436Y7366D01*
Y14669D01*
X58484Y15621D01*
X56261D01*
D02*
D14*
X46101Y4191D03*
X56261D03*
D02*
D15*
X38481Y32131D03*
D02*
D16*
X20701Y13081D03*
Y15621D03*
Y20701D03*
X30861Y13081D03*
Y15621D03*
Y20701D03*
X38481Y29591D03*
X41021Y10541D03*
Y13081D03*
Y15621D03*
Y18161D03*
Y20701D03*
Y23241D03*
Y25781D03*
X48641Y10541D03*
Y13081D03*
Y15621D03*
Y18161D03*
Y20701D03*
Y23241D03*
Y25781D03*
D02*
D17*
X33401Y8001D03*
Y10541D03*
Y13081D03*
Y15621D03*
Y18161D03*
Y20701D03*
Y23241D03*
Y25781D03*
X56261Y8001D03*
Y10541D03*
Y13081D03*
Y15621D03*
Y18161D03*
Y20701D03*
Y23241D03*
Y25781D03*
D02*
D18*
X1651Y1651D03*
Y4191D03*
Y29591D03*
Y32131D03*
X4191Y1651D03*
Y4191D03*
Y29591D03*
Y32131D03*
X60071Y1651D03*
Y4191D03*
Y29591D03*
Y32131D03*
X62611Y1651D03*
Y4191D03*
Y29591D03*
Y32131D03*
D02*
D19*
X14351Y1651D03*
X18796D03*
X23241D03*
D02*
D70*
X14351Y4191D03*
X18796D03*
X23241D03*
D02*
D71*
X9271Y29591D03*
D02*
D20*
X11811D03*
X14351D03*
X16891D03*
X19431D03*
X21971D03*
X24511D03*
X27051D03*
X29591D03*
X0Y0D02*
M02*
