G05
M48
;#@! TF.GenerationSoftware,Number One Systems,Easy-PC,27.0.5940
;#@! TF.CreationDate,2026-08-11T15:21:51--1:00*
;#@! TF.FileFunction,Plated,1,4,PTH
;FILE_FORMAT=3:3
;TYPE=PLATED
METRIC,000.000
FMAT,2
T1C000.800
T2C000.813
T3C000.900
T4C000.940
T5C000.950
T6C001.067
T7C001.397
T8C001.400
%
T001
X018796Y003874
X018796Y006414
T002
X003556Y008954
X013716Y008954
X040386Y024194
X040386Y031814
X043561Y029274
X047371Y029274
X051816Y006414
X051816Y008954
X059436Y008954
X072136Y008954
T003
X008636Y003874
X008636Y006414
X011176Y003874
X011176Y006414
X013716Y003874
X013716Y006414
X034036Y003874
X034036Y006414
X034036Y008954
X034036Y011494
X034036Y014034
X034036Y016574
X034036Y019114
X034036Y021654
X034036Y024194
X034036Y026734
X036576Y003874
X036576Y006414
X039116Y003874
X039116Y006414
X056896Y008954
X056896Y011494
X056896Y014034
X056896Y016574
X056896Y019114
X056896Y021654
X056896Y024194
X056896Y026734
X064516Y003874
X064516Y006414
X067056Y003874
X067056Y006414
X069596Y003874
X069596Y006414
T004
X043561Y031814
X053721Y031814
T005
X006096Y011494
X008636Y011494
X011176Y011494
X013716Y011494
X016256Y011494
X018796Y011494
X021336Y011494
X023876Y011494
X026416Y011494
T006
X072136Y012764
X072136Y015304
X072136Y017844
T007
X062929Y028639
X066739Y028639
T008
X073089Y023559
X073089Y033719
M30
