G04 Easy-PC Gerber Version 27.0 Build 5942*
%FSLAX33Y33*%
%MOMM*%
%AMT71*0 Rounded Rectangle Pad at angle 0*4,1,36,-0.56000,-0.76000,0.56000,-0.76000,0.59900,-0.75620,0.63650,-0.74480,0.67110,-0.72630,0.70140,-0.70140,0.72630,-0.67110,0.74480,-0.63650,0.75620,-0.59900,0.76000,-0.56000,0.76000,0.56000,0.75620,0.59900,0.74480,0.63650,0.72630,0.67110,0.70140,0.70140,0.67110,0.72630,0.63650,0.74480,0.59900,0.75620,0.56000,0.76000,-0.56000,0.76000,-0.59900,0.75620,-0.63650,0.74480,-0.67110,0.72630,-0.70140,0.70140,-0.72630,0.67110,-0.74480,0.63650,-0.75620,0.59900,-0.76000,0.56000,-0.76000,-0.56000,-0.75620,-0.59900,-0.74480,-0.63650,-0.72630,-0.67110,-0.70140,-0.70140,-0.67110,-0.72630,-0.63650,-0.74480,-0.59900,-0.75620,-0.56000,-0.76000,0*%
%ADD71T71*%
%AMT28*0 Rounded Rectangle Pad at angle 0*4,1,36,-0.56200,-0.76000,0.56200,-0.76000,0.60100,-0.75620,0.63850,-0.74480,0.67310,-0.72630,0.70340,-0.70140,0.72830,-0.67110,0.74680,-0.63650,0.75820,-0.59900,0.76200,-0.56000,0.76200,0.56000,0.75820,0.59900,0.74680,0.63650,0.72830,0.67110,0.70340,0.70140,0.67310,0.72630,0.63850,0.74480,0.60100,0.75620,0.56200,0.76000,-0.56200,0.76000,-0.60100,0.75620,-0.63850,0.74480,-0.67310,0.72630,-0.70340,0.70140,-0.72830,0.67110,-0.74680,0.63650,-0.75820,0.59900,-0.76200,0.56000,-0.76200,-0.56000,-0.75820,-0.59900,-0.74680,-0.63650,-0.72830,-0.67110,-0.70340,-0.70140,-0.67310,-0.72630,-0.63850,-0.74480,-0.60100,-0.75620,-0.56200,-0.76000,0*%
%ADD28T28*%
%ADD70R,1.15000X1.40000*%
%ADD14R,1.52400X1.52400*%
%ADD26R,1.52400X1.52400*%
%ADD25R,1.65100X1.65100*%
%ADD23R,2.54000X2.54000*%
%ADD10C,0.12700*%
%ADD13C,0.30000*%
%ADD11C,0.70000*%
%ADD12C,1.42240*%
%ADD17C,1.50000*%
%ADD15C,1.52400*%
%AMT18*0 Rounded Rectangle Pad at angle 90*4,1,36,0.75000,-0.55000,0.75000,0.55000,0.74620,0.58900,0.73480,0.62650,0.71630,0.66110,0.69140,0.69140,0.66110,0.71630,0.62650,0.73480,0.58900,0.74620,0.55000,0.75000,-0.55000,0.75000,-0.58900,0.74620,-0.62650,0.73480,-0.66110,0.71630,-0.69140,0.69140,-0.71630,0.66110,-0.73480,0.62650,-0.74620,0.58900,-0.75000,0.55000,-0.75000,-0.55000,-0.74620,-0.58900,-0.73480,-0.62650,-0.71630,-0.66110,-0.69140,-0.69140,-0.66110,-0.71630,-0.62650,-0.73480,-0.58900,-0.74620,-0.55000,-0.75000,0.55000,-0.75000,0.58900,-0.74620,0.62650,-0.73480,0.66110,-0.71630,0.69140,-0.69140,0.71630,-0.66110,0.73480,-0.62650,0.74620,-0.58900,0.75000,-0.55000,0*%
%ADD18T18*%
%ADD16O,2.20000X1.50000*%
%ADD19R,1.40000X1.15000*%
%ADD20C,1.60000*%
%ADD24C,1.65100*%
%ADD27C,1.77800*%
%ADD21C,2.15900*%
%ADD22C,3.55600*%
X0Y0D02*
D02*
D10*
X701Y34987D02*
Y701D01*
X8647D01*
X7849Y1499D01*
G75*
G02*
X7522Y2286I787J788D01*
G01*
G75*
G02*
X7523Y2297I1109J-5D01*
G01*
Y2394D01*
G75*
G02*
X7156Y2760I235J603D01*
G01*
X6742D01*
G75*
G02*
X5944Y3086I-11J1113D01*
G01*
X5309Y3721D01*
G75*
G02*
X4982Y4508I787J788D01*
G01*
G75*
G02*
X4983Y4519I1109J-5D01*
G01*
Y10396D01*
G75*
G02*
X7194Y12607I1114J1098D01*
G01*
X7538D01*
G75*
G02*
X9906Y12405I1098J-1114D01*
G01*
G75*
G02*
X12446I1270J-912D01*
G01*
G75*
G02*
X14986I1270J-912D01*
G01*
G75*
G02*
X17526I1270J-912D01*
G01*
G75*
G02*
X20066I1270J-912D01*
G01*
G75*
G02*
X22747Y10819I1270J-912D01*
G01*
X27308D01*
X27725Y11237D01*
Y18479D01*
G75*
G02*
X28000Y19132I914J0D01*
G01*
X31160Y22292D01*
G75*
G02*
X31814Y22567I653J-639D01*
G01*
X32479D01*
G75*
G02*
X32863Y22924I1207J-913D01*
G01*
G75*
G02*
Y25464I823J1270D01*
G01*
G75*
G02*
X33686Y28247I823J1270D01*
G01*
X34386D01*
G75*
G02*
X35209Y25464I0J-1514D01*
G01*
G75*
G02*
Y22924I-823J-1270D01*
G01*
G75*
G02*
X35593Y22567I-823J-1270D01*
G01*
X36576D01*
G75*
G02*
X37229Y22292I0J-914D01*
G01*
X40860Y18661D01*
Y22145D01*
X40336Y22669D01*
G75*
G02*
X38861Y24194I50J1525D01*
G01*
G75*
G02*
X41911Y24244I1526J0D01*
G01*
X42761Y23393D01*
G75*
G02*
X43087Y22606I-787J-788D01*
G01*
G75*
G02*
X43087Y22595I-1111J5D01*
G01*
Y10067D01*
X50291D01*
Y10479D01*
X53342D01*
Y10067D01*
X55521D01*
G75*
G02*
X56546Y10467I1025J-1114D01*
G01*
X57246D01*
G75*
G02*
X58271Y10067I0J-1514D01*
G01*
X58469D01*
G75*
G02*
X60911Y8954I967J-1114D01*
G01*
G75*
G02*
X58469Y7840I-1475J0D01*
G01*
X58271D01*
G75*
G02*
X57246Y7440I-1025J1114D01*
G01*
X56546D01*
G75*
G02*
X55521Y7840I0J1514D01*
G01*
X53342D01*
Y7428D01*
X50291D01*
Y7840D01*
X43087D01*
Y3249D01*
G75*
G02*
X43087Y3239I-1111J-16D01*
G01*
G75*
G02*
X42761Y2451I-1114J0D01*
G01*
X41010Y701D01*
X77532D01*
Y34987D01*
X75291D01*
G75*
G02*
X74202Y31434I-2203J-1268D01*
G01*
Y25843D01*
G75*
G02*
X73089Y21017I-1114J-2285D01*
G01*
G75*
G02*
X70710Y22664I0J2542D01*
G01*
Y20845D01*
X71885Y19669D01*
G75*
G02*
X73979Y17844I251J-1826D01*
G01*
G75*
G02*
X70293I-1843J0D01*
G01*
G75*
G02*
X70310Y18095I1843J0D01*
G01*
X68809Y19596D01*
G75*
G02*
X68482Y20384I787J788D01*
G01*
G75*
G02*
X68483Y20394I1109J-5D01*
G01*
Y26605D01*
X64705D01*
Y30672D01*
X68483D01*
Y30717D01*
X67865Y31335D01*
X60215D01*
X58318Y29439D01*
G75*
G02*
X57520Y29113I-787J787D01*
G01*
X50874D01*
G75*
G02*
X50076Y29439I-11J1113D01*
G01*
X48815Y30700D01*
X45150D01*
Y27685D01*
X41972D01*
Y30700D01*
X41912D01*
Y30288D01*
X38861D01*
Y33339D01*
X41912D01*
Y32927D01*
X41972D01*
Y33403D01*
X45150D01*
Y32927D01*
X49265D01*
G75*
G02*
X50063Y32601I11J-1114D01*
G01*
X51325Y31340D01*
X52204D01*
G75*
G02*
X54855Y32927I1517J474D01*
G01*
X56435D01*
X58014Y34506D01*
G75*
G02*
X58812Y34832I787J-787D01*
G01*
X70804D01*
G75*
G02*
X70886Y34987I2285J-1114D01*
G01*
X701D01*
X53760Y15951D02*
Y18466D01*
G75*
G02*
X53760Y18479I910J14D01*
G01*
G75*
G02*
X54028Y19125I914J0D01*
G01*
X54663Y19760D01*
G75*
G02*
X55321Y20027I646J-646D01*
G01*
X55339D01*
G75*
G02*
X55723Y20384I1207J-913D01*
G01*
G75*
G02*
Y22924I823J1270D01*
G01*
G75*
G02*
Y25464I823J1270D01*
G01*
G75*
G02*
X56546Y28247I823J1270D01*
G01*
X57246D01*
G75*
G02*
X58069Y25464I0J-1514D01*
G01*
G75*
G02*
Y22924I-823J-1270D01*
G01*
G75*
G02*
X58453Y22567I-823J-1270D01*
G01*
X58471D01*
G75*
G02*
X59130Y22300I12J-914D01*
G01*
X59765Y21665D01*
G75*
G02*
X60032Y21019I-646J-646D01*
G01*
G75*
G02*
X60032Y21006I-911J1D01*
G01*
Y19175D01*
X60450Y18757D01*
X65151D01*
G75*
G02*
X65804Y18482I0J-914D01*
G01*
X69917Y14369D01*
G75*
G02*
X70182Y13848I-639J-653D01*
G01*
X70646D01*
G75*
G02*
X73717Y11816I1490J-1085D01*
G01*
X76457D01*
Y9139D01*
X76099D01*
G75*
G02*
X75781Y8484I-1106J132D01*
G01*
X75463Y8166D01*
G75*
G02*
X74665Y7840I-787J787D01*
G01*
X73103D01*
G75*
G02*
X70673Y9139I-967J1114D01*
G01*
X70192D01*
Y8966D01*
G75*
G02*
X70192Y8954I-911J-14D01*
G01*
G75*
G02*
X69924Y8307I-914J0D01*
G01*
X69554Y7937D01*
X70474D01*
G75*
G02*
X71122Y7290I0J-647D01*
G01*
Y5537D01*
G75*
G02*
X70474Y4890I-647J0D01*
G01*
X69204D01*
G75*
G02*
X68965Y4490I-878J254D01*
G01*
X68582Y4107D01*
Y2997D01*
G75*
G02*
X67934Y2350I-647J0D01*
G01*
X66178D01*
G75*
G02*
X65786Y2482I0J647D01*
G01*
G75*
G02*
X65394Y2350I-392J515D01*
G01*
X63638D01*
G75*
G02*
X62990Y2997I0J647D01*
G01*
Y4750D01*
G75*
G02*
X63124Y5144I647J0D01*
G01*
G75*
G02*
X62990Y5537I514J394D01*
G01*
Y7290D01*
G75*
G02*
X63354Y7871I647J0D01*
G01*
X62918Y8307D01*
G75*
G02*
X62650Y8954I646J646D01*
G01*
G75*
G02*
X62650Y8966I910J-1D01*
G01*
Y9139D01*
X62100D01*
Y13120D01*
X58453D01*
G75*
G02*
X57246Y12520I-1207J913D01*
G01*
X56546D01*
G75*
G02*
X55082Y14418I0J1513D01*
G01*
G75*
G02*
X54663Y14658I226J885D01*
G01*
X54028Y15293D01*
G75*
G02*
X53760Y15939I646J646D01*
G01*
G75*
G02*
X53760Y15951I910J-1D01*
G01*
X764Y15299D02*
G36*
X764Y15299D02*
Y764D01*
X8583D01*
X7849Y1499D01*
G75*
G02*
X7522Y2286I788J788D01*
G01*
G75*
G02*
Y2289I295J1D01*
G01*
G75*
G02*
X7523Y2297I287J0D01*
G01*
Y2394D01*
G75*
G02*
X7156Y2760I236J604D01*
G01*
X6742D01*
G75*
G02*
X5944Y3086I-11J1114D01*
G01*
X5309Y3721D01*
G75*
G02*
X4982Y4508I788J788D01*
G01*
G75*
G02*
Y4511I295J1D01*
G01*
G75*
G02*
X4983Y4519I287J0D01*
G01*
Y10396D01*
G75*
G02*
X4532Y11494I1114J1098D01*
G01*
G75*
G02*
X7194Y12607I1563J0D01*
G01*
X7538D01*
G75*
G02*
X9906Y12405I1098J-1113D01*
G01*
G75*
G02*
X12446I1270J-912D01*
G01*
G75*
G02*
X14986I1270J-912D01*
G01*
G75*
G02*
X17526I1270J-912D01*
G01*
G75*
G02*
X20066I1270J-912D01*
G01*
G75*
G02*
X22900Y11493I1270J-912D01*
G01*
G75*
G02*
X22747Y10819I-1564J0D01*
G01*
X27308D01*
X27725Y11237D01*
Y15299D01*
X764D01*
G37*
X42761Y2451D02*
G36*
X42761Y2451D02*
X41074Y764D01*
X77468D01*
Y15299D01*
X68988D01*
X69917Y14369D01*
G75*
G02*
X70182Y13848I-639J-654D01*
G01*
X70646D01*
G75*
G02*
X73979Y12764I1490J-1085D01*
G01*
G75*
G02*
X73717Y11816I-1843J0D01*
G01*
X76457D01*
Y9139D01*
X76099D01*
G75*
G02*
X75781Y8484I-1105J132D01*
G01*
X75463Y8166D01*
G75*
G02*
X74665Y7840I-788J788D01*
G01*
X73103D01*
G75*
G02*
X70661Y8953I-967J1113D01*
G01*
G75*
G02*
X70673Y9139I1475J0D01*
G01*
X70192D01*
Y8966D01*
G75*
G02*
X70192Y8957I-370J-9D01*
G01*
G75*
G02*
Y8954I-379J-2D01*
G01*
G75*
G02*
X69924Y8307I-914J0D01*
G01*
X69554Y7937D01*
X70474D01*
G75*
G02*
X71122Y7290I0J-647D01*
G01*
Y7290D01*
Y5537D01*
Y5537D01*
G75*
G02*
X70474Y4890I-647J0D01*
G01*
X69204D01*
G75*
G02*
X68965Y4490I-877J253D01*
G01*
X68582Y4107D01*
Y2997D01*
Y2997D01*
G75*
G02*
X67934Y2350I-647J0D01*
G01*
X66178D01*
G75*
G02*
X65786Y2482I0J647D01*
G01*
G75*
G02*
X65394Y2350I-392J515D01*
G01*
X63638D01*
G75*
G02*
X62990Y2997I0J647D01*
G01*
Y2997D01*
Y4750D01*
Y4750D01*
G75*
G02*
X63124Y5144I647J0D01*
G01*
G75*
G02*
X62990Y5537I514J394D01*
G01*
Y5537D01*
Y7290D01*
G75*
G02*
X63354Y7871I648J0D01*
G01*
X62918Y8307D01*
G75*
G02*
X62650Y8954I647J646D01*
G01*
G75*
G02*
Y8957I379J2D01*
G01*
G75*
G02*
X62650Y8966I370J1D01*
G01*
Y9139D01*
X62100D01*
Y13120D01*
X58453D01*
G75*
G02*
X57246Y12520I-1207J914D01*
G01*
X56546D01*
G75*
G02*
X55033Y14033I0J1513D01*
G01*
G75*
G02*
X55082Y14418I1514J0D01*
G01*
G75*
G02*
X54663Y14658I226J885D01*
G01*
X54028Y15293D01*
G75*
G02*
X54022Y15299I647J642D01*
G01*
X43087D01*
Y10067D01*
X50291D01*
Y10479D01*
X53342D01*
Y10067D01*
X55521D01*
G75*
G02*
X56546Y10467I1025J-1113D01*
G01*
X57246D01*
G75*
G02*
X58271Y10067I0J-1513D01*
G01*
X58469D01*
G75*
G02*
X60911Y8954I967J-1113D01*
G01*
Y8954D01*
Y8953D01*
G75*
G02*
X58469Y7840I-1475J0D01*
G01*
X58271D01*
G75*
G02*
X57246Y7440I-1025J1113D01*
G01*
X56546D01*
G75*
G02*
X55521Y7840I0J1513D01*
G01*
X53342D01*
Y7428D01*
X50291D01*
Y7840D01*
X43087D01*
Y3249D01*
G75*
G02*
X43087Y3241I-284J-8D01*
G01*
G75*
G02*
Y3239I-284J-1D01*
G01*
G75*
G02*
X42761Y2451I-1114J0D01*
G01*
G37*
X764Y34923D02*
G36*
X764Y34923D02*
Y15299D01*
X27725D01*
Y18479D01*
G75*
G02*
X28000Y19132I914J0D01*
G01*
X31160Y22292D01*
G75*
G02*
X31814Y22567I654J-639D01*
G01*
X32479D01*
G75*
G02*
X32863Y22924I1210J-916D01*
G01*
G75*
G02*
X32173Y24194I823J1270D01*
G01*
G75*
G02*
X32863Y25464I1514J0D01*
G01*
G75*
G02*
X32172Y26734I823J1270D01*
G01*
G75*
G02*
X33686Y28247I1514J0D01*
G01*
X34386D01*
G75*
G02*
X35900Y26734I0J-1514D01*
G01*
G75*
G02*
X35209Y25464I-1514J0D01*
G01*
G75*
G02*
X35900Y24194I-823J-1270D01*
G01*
G75*
G02*
X35209Y22924I-1514J0D01*
G01*
G75*
G02*
X35593Y22567I-823J-1269D01*
G01*
X36576D01*
G75*
G02*
X37229Y22292I0J-914D01*
G01*
X40860Y18661D01*
Y22145D01*
X40336Y22669D01*
G75*
G02*
X38861Y24194I50J1525D01*
G01*
G75*
G02*
X41911Y24244I1526J0D01*
G01*
X42761Y23393D01*
G75*
G02*
X43087Y22606I-788J-788D01*
G01*
G75*
G02*
Y22603I-284J-1D01*
G01*
G75*
G02*
X43087Y22595I-284J-1D01*
G01*
Y15299D01*
X54022D01*
G75*
G02*
X53760Y15939I653J640D01*
G01*
G75*
G02*
Y15942I379J2D01*
G01*
G75*
G02*
X53760Y15951I370J1D01*
G01*
Y18466D01*
G75*
G02*
X53760Y18476I374J9D01*
G01*
G75*
G02*
Y18479I367J2D01*
G01*
G75*
G02*
X54028Y19125I914J0D01*
G01*
X54663Y19760D01*
G75*
G02*
X55321Y20027I646J-645D01*
G01*
X55339D01*
G75*
G02*
X55723Y20384I1210J-916D01*
G01*
G75*
G02*
X55033Y21654I823J1270D01*
G01*
G75*
G02*
X55723Y22924I1514J0D01*
G01*
G75*
G02*
X55033Y24194I823J1270D01*
G01*
G75*
G02*
X55723Y25464I1514J0D01*
G01*
G75*
G02*
X55032Y26734I823J1270D01*
G01*
G75*
G02*
X56546Y28247I1514J0D01*
G01*
X57246D01*
G75*
G02*
X58760Y26734I0J-1514D01*
G01*
G75*
G02*
X58069Y25464I-1514J0D01*
G01*
G75*
G02*
X58760Y24194I-823J-1270D01*
G01*
G75*
G02*
X58069Y22924I-1514J0D01*
G01*
G75*
G02*
X58453Y22567I-823J-1269D01*
G01*
X58471D01*
G75*
G02*
X59130Y22300I13J-913D01*
G01*
X59765Y21665D01*
G75*
G02*
X60032Y21019I-647J-646D01*
G01*
G75*
G02*
Y21016I-367J-2D01*
G01*
G75*
G02*
X60032Y21006I-374J-1D01*
G01*
Y19175D01*
X60450Y18757D01*
X65151D01*
G75*
G02*
X65804Y18482I0J-914D01*
G01*
X68988Y15299D01*
X77468D01*
Y34923D01*
X75327D01*
G75*
G02*
X75630Y33719I-2238J-1204D01*
G01*
G75*
G02*
X74202Y31434I-2542J0D01*
G01*
Y25843D01*
G75*
G02*
X75630Y23559I-1114J-2285D01*
G01*
G75*
G02*
X73089Y21017I-2541J0D01*
G01*
G75*
G02*
X70710Y22664I0J2542D01*
G01*
Y20845D01*
X71885Y19669D01*
G75*
G02*
X73979Y17844I251J-1826D01*
G01*
G75*
G02*
X70293I-1843J0D01*
G01*
Y17844D01*
G75*
G02*
X70310Y18095I1837J0D01*
G01*
X68809Y19596D01*
G75*
G02*
X68482Y20384I788J788D01*
G01*
G75*
G02*
Y20386I295J1D01*
G01*
G75*
G02*
X68483Y20394I287J0D01*
G01*
Y26605D01*
X64705D01*
Y30672D01*
X68483D01*
Y30717D01*
X67865Y31335D01*
X60215D01*
X58318Y29439D01*
G75*
G02*
X57520Y29113I-788J788D01*
G01*
X50874D01*
G75*
G02*
X50076Y29439I-11J1114D01*
G01*
X48815Y30700D01*
X45150D01*
Y27685D01*
X41972D01*
Y30700D01*
X41912D01*
Y30288D01*
X38861D01*
Y33339D01*
X41912D01*
Y32927D01*
X41972D01*
Y33403D01*
X45150D01*
Y32927D01*
X49265D01*
G75*
G02*
X50063Y32601I11J-1114D01*
G01*
X51325Y31340D01*
X52204D01*
G75*
G02*
X52132Y31814I1516J474D01*
G01*
G75*
G02*
X54855Y32927I1589J0D01*
G01*
X56435D01*
X58014Y34506D01*
G75*
G02*
X58812Y34832I788J-788D01*
G01*
X70804D01*
G75*
G02*
X70851Y34923I2293J-1117D01*
G01*
X764D01*
G37*
X7210Y10380D02*
Y5094D01*
G75*
G02*
X7758Y5397I548J-344D01*
G01*
X9514D01*
G75*
G02*
X9906Y5265I0J-647D01*
G01*
G75*
G02*
X10298Y5397I392J-515D01*
G01*
X12054D01*
G75*
G02*
X12211Y5378I0J-648D01*
G01*
G75*
G02*
X12191Y5537I627J160D01*
G01*
Y7290D01*
G75*
G02*
X12838Y7937I647J0D01*
G01*
X14594D01*
G75*
G02*
X15241Y7290I0J-647D01*
G01*
Y5537D01*
G75*
G02*
X15108Y5144I-647J0D01*
G01*
G75*
G02*
X15241Y4750I-514J-394D01*
G01*
Y2997D01*
G75*
G02*
X14935Y2447I-647J0D01*
G01*
X23144D01*
Y4950D01*
X20887D01*
Y5500D01*
X20308D01*
G75*
G02*
X19662Y4900I-646J47D01*
G01*
X17930D01*
G75*
G02*
X17283Y5547I0J647D01*
G01*
Y7088D01*
X17209D01*
G75*
G02*
X16555Y7363I0J914D01*
G01*
X13967Y9950D01*
G75*
G02*
X12446Y10582I-251J1543D01*
G01*
G75*
G02*
X9906I-1270J912D01*
G01*
G75*
G02*
X7538Y10380I-1270J912D01*
G01*
X7210D01*
G36*
X7210Y10380D02*
Y5094D01*
G75*
G02*
X7758Y5397I548J-344D01*
G01*
X9514D01*
G75*
G02*
X9906Y5265I0J-647D01*
G01*
G75*
G02*
X10298Y5397I392J-515D01*
G01*
X12054D01*
G75*
G02*
X12211Y5378I0J-648D01*
G01*
G75*
G02*
X12191Y5537I627J160D01*
G01*
Y7290D01*
G75*
G02*
X12838Y7937I647J0D01*
G01*
X14594D01*
G75*
G02*
X15241Y7290I0J-647D01*
G01*
Y5537D01*
G75*
G02*
X15108Y5144I-647J0D01*
G01*
G75*
G02*
X15241Y4750I-514J-394D01*
G01*
Y2997D01*
G75*
G02*
X14935Y2447I-647J0D01*
G01*
X23144D01*
Y4950D01*
X20887D01*
Y5500D01*
X20308D01*
G75*
G02*
X19662Y4900I-646J47D01*
G01*
X17930D01*
G75*
G02*
X17283Y5547I0J647D01*
G01*
Y7088D01*
X17209D01*
G75*
G02*
X16555Y7363I0J914D01*
G01*
X13967Y9950D01*
G75*
G02*
X12446Y10582I-251J1543D01*
G01*
G75*
G02*
X9906I-1270J912D01*
G01*
G75*
G02*
X7538Y10380I-1270J912D01*
G01*
X7210D01*
G37*
X25370Y4950D02*
Y2447D01*
X32817D01*
G75*
G02*
X32512Y2960I341J550D01*
G01*
X32461D01*
G75*
G02*
X31803Y3228I-12J913D01*
G01*
X31168Y3863D01*
G75*
G02*
X30900Y4508I646J646D01*
G01*
G75*
G02*
X30900Y4521I910J-1D01*
G01*
Y8653D01*
X29609Y7363D01*
G75*
G02*
X28956Y7088I-653J639D01*
G01*
X25596D01*
Y4950D01*
X25370D01*
G36*
X25370Y4950D02*
Y2447D01*
X32817D01*
G75*
G02*
X32512Y2960I341J550D01*
G01*
X32461D01*
G75*
G02*
X31803Y3228I-12J913D01*
G01*
X31168Y3863D01*
G75*
G02*
X30900Y4508I646J646D01*
G01*
G75*
G02*
X30900Y4521I910J-1D01*
G01*
Y8653D01*
X29609Y7363D01*
G75*
G02*
X28956Y7088I-653J639D01*
G01*
X25596D01*
Y4950D01*
X25370D01*
G37*
D02*
D11*
X3556Y8954D02*
Y27051D01*
X6731Y30226D01*
X37846D01*
X41974Y26099D01*
X46419D01*
X47371Y27051D01*
Y29274D01*
X6096Y11494D02*
Y4508D01*
X6731Y3874D01*
X8636D01*
Y2286D01*
X9589Y1334D01*
X24257D01*
X8636Y11494D02*
X6096D01*
X11176Y6414D02*
Y8954D01*
X13716D01*
X24257Y1334D02*
X40069D01*
X41974Y3239D01*
Y8954D01*
X24257Y6414D02*
Y1334D01*
X40386Y24194D02*
X41974Y22606D01*
Y8954D01*
X40386Y31814D02*
X43561D01*
X41974Y8954D02*
X51816D01*
X43561Y31814D02*
Y29274D01*
X51816Y8954D02*
X56896D01*
X53721Y31814D02*
X56896D01*
X58801Y33719D01*
X73089D01*
X56896Y8954D02*
X59436D01*
X72136D02*
Y12764D01*
Y17844D02*
X69596Y20384D01*
Y31178D01*
X68326Y32449D01*
X59754D01*
X57531Y30226D01*
X50864D01*
X49276Y31814D01*
X43561D01*
X73089Y33719D02*
Y23559D01*
X74994Y10478D02*
Y9271D01*
X74676Y8954D01*
X72136D01*
D02*
D12*
X3556D03*
X13716D03*
X59436D03*
X72136D03*
D02*
D13*
X13716Y11494D02*
X17209Y8001D01*
X28956D01*
X30544Y9589D01*
Y12764D01*
X31814Y14034D01*
X34036D01*
X16256Y11494D02*
X18796Y8954D01*
X28321D01*
X29591Y10224D01*
Y16891D01*
X31814Y19114D01*
X34036D01*
X18796Y11494D02*
X20384Y9906D01*
X27686D01*
X28639Y10859D01*
Y18479D01*
X31814Y21654D01*
X34036D01*
X22225Y6414D02*
X18796D01*
X34036Y11494D02*
X32449D01*
X31814Y10859D01*
Y4508D01*
X32449Y3874D01*
X34036D01*
Y14034D02*
X35941D01*
X36576Y13399D01*
Y6414D01*
X34036Y16574D02*
X36576D01*
X37846Y15304D01*
Y5144D01*
X36576Y3874D01*
X34036Y21654D02*
X36576D01*
X40386Y17844D01*
Y5144D01*
X39116Y3874D01*
Y6414D02*
Y8001D01*
Y16574D01*
X36576Y19114D01*
X34036D01*
X56896Y14034D02*
X62928D01*
X63564Y13399D01*
Y12510D01*
X56896Y16574D02*
X64516D01*
X67374Y13716D01*
Y12510D01*
X64516Y6414D02*
Y8001D01*
X63564Y8954D01*
Y10478D01*
X65469D02*
X65786D01*
Y5144D01*
X64516Y3874D01*
X65469Y12510D02*
Y13716D01*
X63881Y15304D01*
X55309D01*
X54674Y15939D01*
Y18479D01*
X55309Y19114D01*
X56896D01*
X67056Y6414D02*
Y10160D01*
X67374Y10478D01*
X69279D02*
Y8954D01*
X68326Y8001D01*
Y5144D01*
X67056Y3874D01*
X69279Y12510D02*
Y13716D01*
X65151Y17844D01*
X60071D01*
X59118Y18796D01*
Y21019D01*
X58484Y21654D01*
X56896D01*
D02*
D14*
X51816Y8954D03*
D02*
D15*
X40386Y24194D03*
X51816Y6414D03*
D02*
D16*
X34036Y8954D03*
Y11494D03*
Y14034D03*
Y16574D03*
Y19114D03*
Y21654D03*
Y24194D03*
Y26734D03*
X56896Y8954D03*
Y11494D03*
Y14034D03*
Y16574D03*
Y19114D03*
Y21654D03*
Y24194D03*
Y26734D03*
D02*
D17*
X18796Y3874D03*
D02*
D18*
Y6414D03*
D02*
D19*
X63564Y10478D03*
Y12510D03*
X65469Y10478D03*
Y12510D03*
X67374Y10478D03*
Y12510D03*
X69279Y10478D03*
Y12510D03*
X74994Y10478D03*
Y12510D03*
D02*
D70*
X22225Y6414D03*
X24257D03*
D02*
D71*
X26416Y11494D03*
D02*
D20*
X6096D03*
X8636D03*
X11176D03*
X13716D03*
X16256D03*
X18796D03*
X21336D03*
X23876D03*
D02*
D21*
X72136Y12764D03*
Y15304D03*
Y17844D03*
D02*
D22*
X73089Y23559D03*
Y33719D03*
D02*
D23*
X62928Y28639D03*
X66739D03*
D02*
D24*
X53721Y31814D03*
D02*
D25*
X43561Y29274D03*
Y31814D03*
D02*
D26*
X40386D03*
D02*
D27*
X47371Y29274D03*
D02*
D28*
X8636Y3874D03*
Y6414D03*
X11176Y3874D03*
Y6414D03*
X13716Y3874D03*
Y6414D03*
X34036Y3874D03*
Y6414D03*
X36576Y3874D03*
Y6414D03*
X39116Y3874D03*
Y6414D03*
X64516Y3874D03*
Y6414D03*
X67056Y3874D03*
Y6414D03*
X69596Y3874D03*
Y6414D03*
X0Y0D02*
M02*
