G05
M48
;#@! TF.GenerationSoftware,Number One Systems,Easy-PC,27.0.5940
;#@! TF.CreationDate,2026-08-11T16:37:02--1:00*
;#@! TF.FileFunction,Plated,1,4,PTH
;FILE_FORMAT=3:3
;TYPE=PLATED
METRIC,000.000
FMAT,2
T1C000.813
T2C000.889
T3C000.950
%
T001
X015304Y002604
X015304Y017844
X017844Y002604
X017844Y017844
X020384Y002604
X020384Y017844
X022924Y002604
X022924Y017844
X025464Y002604
X025464Y017844
X028004Y002604
X028004Y017844
X030544Y002604
X030544Y017844
X033084Y002604
X033084Y017844
X035624Y002604
X035624Y017844
X038164Y002604
X038164Y017844
X040704Y002604
X040704Y017844
X043244Y002604
X043244Y017844
X045784Y002604
X045784Y017844
X048324Y002604
X048324Y017844
T002
X002604Y008954
X002604Y011494
X005144Y008954
X005144Y011494
X007684Y008954
X007684Y011494
X010224Y008954
X010224Y011494
X012764Y008954
X012764Y011494
X015304Y008954
X015304Y011494
X017844Y008954
X017844Y011494
X020384Y008954
X020384Y011494
X022924Y008954
X022924Y011494
X025464Y008954
X025464Y011494
X028004Y008954
X028004Y011494
X030544Y008954
X030544Y011494
X033084Y008954
X033084Y011494
X035624Y008954
X035624Y011494
X038164Y008954
X038164Y011494
X040704Y008954
X040704Y011494
X043244Y008954
X043244Y011494
X045784Y008954
X045784Y011494
X048324Y008954
X048324Y011494
X050864Y008954
X050864Y011494
X053404Y008954
X053404Y011494
X055944Y008954
X055944Y011494
X058484Y008954
X058484Y011494
X061024Y008954
X061024Y011494
X063564Y008954
X063564Y011494
T003
X010224Y015304
X010224Y017844
M30
