G05
M48
;#@! TF.GenerationSoftware,Number One Systems,Easy-PC,27.0.5940
;#@! TF.CreationDate,2026-08-11T20:55:40--1:00*
;#@! TF.FileFunction,Plated,1,4,PTH
;FILE_FORMAT=3:3
;TYPE=PLATED
METRIC,000.000
FMAT,2
T1C000.813
T2C000.940
T3C000.950
%
T001
X015621Y003874
X015621Y019114
X018161Y003874
X018161Y019114
X020701Y003874
X020701Y019114
X023241Y003874
X023241Y019114
X025781Y003874
X025781Y019114
X028321Y003874
X028321Y019114
X030861Y003874
X030861Y019114
X033401Y003874
X033401Y019114
X035941Y003874
X035941Y019114
X038481Y003874
X038481Y019114
X041021Y003874
X041021Y019114
X043561Y003874
X043561Y019114
X046101Y003874
X046101Y019114
X048641Y003874
X048641Y019114
T002
X053721Y019114
X056261Y019114
X058801Y019114
X061341Y019114
X063881Y019114
T003
X002921Y010224
X002921Y012764
X005461Y010224
X005461Y012764
X008001Y010224
X008001Y012764
X008001Y019114
X010541Y010224
X010541Y012764
X010541Y019114
X013081Y010224
X013081Y012764
X015621Y010224
X015621Y012764
X018161Y010224
X018161Y012764
X020701Y010224
X020701Y012764
X023241Y010224
X023241Y012764
X025781Y010224
X025781Y012764
X028321Y010224
X028321Y012764
X030861Y010224
X030861Y012764
X033401Y010224
X033401Y012764
X035941Y010224
X035941Y012764
X038481Y010224
X038481Y012764
X041021Y010224
X041021Y012764
X043561Y010224
X043561Y012764
X046101Y010224
X046101Y012764
X048641Y010224
X048641Y012764
X051181Y010224
X051181Y012764
X053721Y010224
X053721Y012764
X056261Y010224
X056261Y012764
X058801Y010224
X058801Y012764
X061341Y010224
X061341Y012764
X063881Y010224
X063881Y012764
M30
