G05
M48
;#@! TF.GenerationSoftware,Number One Systems,Easy-PC,27.0.5940
;#@! TF.CreationDate,2026-08-05T08:08:57--1:00*
;#@! TF.FileFunction,Plated,1,4,PTH
;FILE_FORMAT=3:3
;TYPE=PLATED
METRIC,000.000
FMAT,2
T1C000.800
T2C000.813
T3C000.900
T4C000.940
T5C000.950
T6C001.067
T7C001.397
T8C001.400
T9C003.200
%
T001
X011494Y019431
X021654Y019431
X033401Y004191
X035941Y004191
X043561Y004191
X046101Y004191
T002
X033401Y024511
X033401Y034671
X038481Y004191
X038481Y014351
X038481Y019431
X041021Y004191
X041021Y014351
X041021Y019431
X054356Y011811
X054356Y016891
X057531Y034671
X059436Y028321
X063246Y028321
X065151Y034671
T003
X028321Y009271
X028321Y011811
X028321Y014351
X028321Y016891
X028321Y019431
X028321Y021971
X028321Y024511
X028321Y027051
X051181Y009271
X051181Y011811
X051181Y014351
X051181Y016891
X051181Y019431
X051181Y021971
X051181Y024511
X051181Y027051
T004
X068326Y008001
X068326Y018161
T005
X003874Y021971
X006414Y021971
X008954Y021971
X010541Y028321
X010541Y030861
X011494Y021971
X013081Y028321
X013081Y030861
X014034Y021971
X015621Y028321
X015621Y030861
X016574Y021971
X018161Y028321
X018161Y030861
X019114Y021971
X020701Y028321
X020701Y030861
X021654Y021971
X024194Y021971
T006
X058801Y021971
X061341Y021971
X063881Y021971
T007
X061341Y011494
X061341Y015304
T008
X056261Y005144
X066421Y005144
T009
X003556Y037846
X068644Y037846
M30
