G05
M48
;#@! TF.GenerationSoftware,Number One Systems,Easy-PC,27.0.5940
;#@! TF.CreationDate,2026-08-06T09:37:59--1:00*
;#@! TF.FileFunction,Plated,1,4,PTH
;FILE_FORMAT=3:3
;TYPE=PLATED
METRIC,000.000
FMAT,2
T1C000.800
T2C000.813
T3C000.950
T4C001.100
%
T001
X021654Y039434
X021654Y049594
X024194Y034354
X024194Y044514
X026734Y016574
X026734Y029274
X061024Y029274
X061024Y039434
T002
X006414Y016574
X006414Y019114
X014034Y016574
X014034Y019114
X016574Y003874
X016574Y011494
X016574Y016574
X016574Y019114
X016574Y021654
X016574Y024194
X016574Y026734
X016574Y029274
X016574Y031814
X016574Y034354
X016574Y036894
X016574Y039434
X016574Y041974
X016574Y044514
X016574Y047054
X016574Y049594
X019114Y003874
X019114Y007684
X019114Y011494
X021654Y003874
X021654Y011494
X024194Y003874
X024194Y011494
X026734Y003874
X026734Y011494
X029274Y003874
X029274Y011494
X031814Y003874
X031814Y007684
X031814Y011494
X031814Y016574
X031814Y019114
X031814Y021654
X031814Y024194
X031814Y026734
X031814Y029274
X031814Y031814
X031814Y034354
X031814Y036894
X031814Y039434
X031814Y041974
X031814Y044514
X031814Y047054
X031814Y049594
X035624Y016574
X035624Y019114
X035624Y021654
X035624Y024194
X035624Y026734
X035624Y029274
X035624Y031814
X035624Y034354
X035624Y036894
X035624Y039434
X035624Y041974
X035624Y044514
X035624Y047054
X035624Y049594
X043244Y034354
X043244Y049594
X050864Y016574
X050864Y019114
X050864Y021654
X050864Y024194
X050864Y026734
X050864Y029274
X050864Y031814
X050864Y034354
X050864Y036894
X050864Y039434
X050864Y041974
X050864Y044514
X050864Y047054
X050864Y049594
X054674Y003874
X054674Y011494
X054674Y016574
X054674Y019114
X054674Y021654
X054674Y024194
X054674Y026734
X054674Y029274
X054674Y031814
X054674Y034354
X054674Y036894
X054674Y039434
X054674Y041974
X054674Y044514
X057214Y003874
X057214Y011494
X058484Y016574
X058484Y029274
X058484Y031814
X058484Y047054
X059754Y003874
X059754Y011494
X062294Y003874
X062294Y011494
X062294Y047054
X062294Y049594
X064834Y003874
X064834Y011494
X067374Y003874
X067374Y011494
X069914Y003874
X069914Y011494
X069914Y016574
X069914Y019114
X069914Y021654
X069914Y024194
X069914Y026734
X069914Y029274
X069914Y031814
X069914Y034354
X069914Y036894
X069914Y039434
X069914Y041974
X069914Y044514
T003
X014034Y044514
X014034Y047054
X021654Y014034
X024194Y014034
X026734Y014034
X057214Y014034
X059754Y014034
T004
X003874Y024194
X003874Y044514
M30
