G04 Easy-PC Gerber Version 27.0 Build 5942*
%FSLAX33Y33*%
%MOMM*%
%AMT18*0 Rounded Rectangle Pad at angle 0*4,1,36,-0.57500,-0.77500,0.57500,-0.77500,0.61400,-0.77120,0.65150,-0.75980,0.68610,-0.74130,0.71640,-0.71640,0.74130,-0.68610,0.75980,-0.65150,0.77120,-0.61400,0.77500,-0.57500,0.77500,0.57500,0.77120,0.61400,0.75980,0.65150,0.74130,0.68610,0.71640,0.71640,0.68610,0.74130,0.65150,0.75980,0.61400,0.77120,0.57500,0.77500,-0.57500,0.77500,-0.61400,0.77120,-0.65150,0.75980,-0.68610,0.74130,-0.71640,0.71640,-0.74130,0.68610,-0.75980,0.65150,-0.77120,0.61400,-0.77500,0.57500,-0.77500,-0.57500,-0.77120,-0.61400,-0.75980,-0.65150,-0.74130,-0.68610,-0.71640,-0.71640,-0.68610,-0.74130,-0.65150,-0.75980,-0.61400,-0.77120,-0.57500,-0.77500,0*%
%ADD18T18*%
%ADD16O,1.50000X2.00000*%
%ADD22R,1.15000X1.40000*%
%ADD20R,1.52400X1.52400*%
%ADD23R,1.52400X1.52400*%
%ADD10C,0.12700*%
%ADD11C,0.30000*%
%ADD13C,0.70000*%
%ADD14C,1.42240*%
%ADD12C,1.52000*%
%AMT19*0 Rounded Rectangle Pad at angle 90*4,1,36,0.77500,-0.57500,0.77500,0.57500,0.77120,0.61400,0.75980,0.65150,0.74130,0.68610,0.71640,0.71640,0.68610,0.74130,0.65150,0.75980,0.61400,0.77120,0.57500,0.77500,-0.57500,0.77500,-0.61400,0.77120,-0.65150,0.75980,-0.68610,0.74130,-0.71640,0.71640,-0.74130,0.68610,-0.75980,0.65150,-0.77120,0.61400,-0.77500,0.57500,-0.77500,-0.57500,-0.77120,-0.61400,-0.75980,-0.65150,-0.74130,-0.68610,-0.71640,-0.71640,-0.68610,-0.74130,-0.65150,-0.75980,-0.61400,-0.77120,-0.57500,-0.77500,0.57500,-0.77500,0.61400,-0.77120,0.65150,-0.75980,0.68610,-0.74130,0.71640,-0.71640,0.74130,-0.68610,0.75980,-0.65150,0.77120,-0.61400,0.77500,-0.57500,0*%
%ADD19T19*%
%AMT70*0 Rounded Rectangle Pad at angle 90*4,1,36,0.80000,-0.60000,0.80000,0.60000,0.79620,0.63900,0.78480,0.67650,0.76630,0.71110,0.74140,0.74140,0.71110,0.76630,0.67650,0.78480,0.63900,0.79620,0.60000,0.80000,-0.60000,0.80000,-0.63900,0.79620,-0.67650,0.78480,-0.71110,0.76630,-0.74140,0.74140,-0.76630,0.71110,-0.78480,0.67650,-0.79620,0.63900,-0.80000,0.60000,-0.80000,-0.60000,-0.79620,-0.63900,-0.78480,-0.67650,-0.76630,-0.71110,-0.74140,-0.74140,-0.71110,-0.76630,-0.67650,-0.78480,-0.63900,-0.79620,-0.60000,-0.80000,0.60000,-0.80000,0.63900,-0.79620,0.67650,-0.78480,0.71110,-0.76630,0.74140,-0.74140,0.76630,-0.71110,0.78480,-0.67650,0.79620,-0.63900,0.80000,-0.60000,0*%
%ADD70T70*%
%ADD15O,2.00000X1.50000*%
%ADD17R,1.40000X1.15000*%
%ADD71C,1.52400*%
%ADD21C,3.00000*%
X0Y0D02*
D02*
D10*
X701Y51497D02*
Y701D01*
X74357D01*
Y9599D01*
X72669Y7912D01*
G75*
G02*
X71871Y7586I-787J787D01*
G01*
X66297D01*
Y7361D01*
X63609D01*
X62128Y5880D01*
G75*
G02*
X61330Y5554I-787J787D01*
G01*
X61217D01*
Y5329D01*
X60669D01*
G75*
G02*
X61267Y4124I-915J-1206D01*
G01*
Y3624D01*
G75*
G02*
X58240I-1514J0D01*
G01*
Y4124D01*
G75*
G02*
X58838Y5329I1514J0D01*
G01*
X55750D01*
Y5554D01*
X55637D01*
G75*
G02*
X54839Y5880I-11J1113D01*
G01*
X53886Y6833D01*
G75*
G02*
X53561Y7586I787J787D01*
G01*
X44707D01*
Y7361D01*
X41780D01*
Y7586D01*
X33291D01*
X33285Y7580D01*
G75*
G02*
X30339Y7684I-1471J104D01*
G01*
G75*
G02*
X31710Y9155I1475J0D01*
G01*
X32042Y9487D01*
G75*
G02*
X32840Y9813I787J-787D01*
G01*
X41780D01*
Y10038D01*
X44707D01*
Y9813D01*
X53560D01*
Y10218D01*
G75*
G02*
X53160Y11244I1114J1025D01*
G01*
Y11744D01*
G75*
G02*
X55943Y12567I1514J0D01*
G01*
G75*
G02*
X55967Y12602I1270J-824D01*
G01*
G75*
G02*
X55675Y13142I356J541D01*
G01*
Y14925D01*
G75*
G02*
X56322Y15572I647J0D01*
G01*
X58105D01*
G75*
G02*
X58484Y15450I0J-647D01*
G01*
G75*
G02*
X58862Y15572I379J-525D01*
G01*
X60645D01*
G75*
G02*
X61292Y14925I0J-647D01*
G01*
Y13142D01*
G75*
G02*
X61000Y12602I-647J0D01*
G01*
G75*
G02*
X61024Y12567I-1247J-859D01*
G01*
G75*
G02*
X63564I1270J-823D01*
G01*
G75*
G02*
X66104I1270J-823D01*
G01*
G75*
G02*
X67521Y13250I1270J-823D01*
G01*
X68308Y14037D01*
G75*
G02*
X68961Y14312I653J-639D01*
G01*
X69853D01*
X70698Y15158D01*
G75*
G02*
X70164Y15060I-535J1416D01*
G01*
X69664D01*
G75*
G02*
X68457Y15660I0J1514D01*
G01*
X62611D01*
G75*
G02*
X61958Y15935I0J914D01*
G01*
X60963Y16930D01*
X53782D01*
X52787Y15935D01*
G75*
G02*
X52337Y15683I-653J639D01*
G01*
G75*
G02*
X51114Y15060I-1224J891D01*
G01*
X50614D01*
G75*
G02*
X49407Y15660I0J1514D01*
G01*
X39434D01*
G75*
G02*
X38780Y15935I0J914D01*
G01*
X37785Y16930D01*
X34732D01*
X33737Y15935D01*
G75*
G02*
X33287Y15683I-653J639D01*
G01*
G75*
G02*
X32064Y15060I-1224J891D01*
G01*
X31564D01*
G75*
G02*
X30095Y16940I0J1514D01*
G01*
G75*
G02*
X29573Y17205I131J904D01*
G01*
X26990Y19788D01*
X24199D01*
Y17650D01*
X21522D01*
Y17690D01*
X20366Y16535D01*
X23864D01*
G75*
G02*
X24522Y16267I12J-914D01*
G01*
X24840Y15950D01*
G75*
G02*
X25067Y15572I-646J-646D01*
G01*
X25085D01*
G75*
G02*
X25433Y15470I0J-647D01*
G01*
G75*
G02*
X25597Y15559I385J-521D01*
G01*
G75*
G02*
X25210Y16574I1136J1015D01*
G01*
G75*
G02*
X28257I1524J0D01*
G01*
G75*
G02*
X27870Y15559I-1524J0D01*
G01*
G75*
G02*
X28297Y14950I-220J-609D01*
G01*
Y13762D01*
X28642Y13417D01*
G75*
G02*
X28917Y12764I-639J-653D01*
G01*
Y9906D01*
G75*
G02*
X28642Y9253I-914J0D01*
G01*
X25107Y5718D01*
Y5330D01*
G75*
G02*
X25464Y4947I-913J-1207D01*
G01*
G75*
G02*
X28003I1270J-823D01*
G01*
G75*
G02*
X30787Y4124I1270J-823D01*
G01*
Y3624D01*
G75*
G02*
X28003Y2800I-1514J0D01*
G01*
G75*
G02*
X26587Y2117I-1270J823D01*
G01*
X26117Y1648D01*
G75*
G02*
X25464Y1373I-653J639D01*
G01*
X17538D01*
G75*
G02*
X16880Y1640I-12J913D01*
G01*
X16400Y2120D01*
G75*
G02*
X15060Y3624I173J1504D01*
G01*
Y4124D01*
G75*
G02*
X15492Y5183I1514J0D01*
G01*
X12764D01*
G75*
G02*
X12110Y5458I0J914D01*
G01*
X9903Y7665D01*
G75*
G02*
X9627Y8319I639J653D01*
G01*
Y41021D01*
G75*
G02*
X9903Y41674I914J0D01*
G01*
X12495Y44267D01*
Y45405D01*
G75*
G02*
X12618Y45783I647J0D01*
G01*
G75*
G02*
X12495Y46140I525J379D01*
G01*
X12322D01*
Y45969D01*
X9395D01*
Y48226D01*
X9147D01*
Y48001D01*
X6220D01*
Y48226D01*
X5605D01*
X4987Y47608D01*
Y46484D01*
G75*
G02*
X6137Y44514I-1114J-1971D01*
G01*
G75*
G02*
X1610I-2264J0D01*
G01*
G75*
G02*
X2760Y46484I2264J0D01*
G01*
Y48070D01*
G75*
G02*
X3096Y48867I1114J0D01*
G01*
X4346Y50117D01*
G75*
G02*
X5144Y50453I797J-777D01*
G01*
X6220D01*
Y50678D01*
X9147D01*
Y50453D01*
X9395D01*
Y50678D01*
X12322D01*
Y50453D01*
X12620D01*
X13663Y51497D01*
X701D01*
X65860Y3624D02*
Y4124D01*
G75*
G02*
X68887I1514J0D01*
G01*
Y3624D01*
G75*
G02*
X65860I-1514J0D01*
G01*
X3874Y26457D02*
G75*
G02*
X4787Y22123I0J-2264D01*
G01*
Y22032D01*
X6180Y20639D01*
X7939D01*
Y17588D01*
X4888D01*
Y19347D01*
X3235Y21000D01*
G75*
G02*
X2960Y21654I639J653D01*
G01*
Y22123D01*
G75*
G02*
X3874Y26457I914J2071D01*
G01*
X764Y3874D02*
G36*
X764Y3874D02*
Y764D01*
X74293D01*
Y3874D01*
X68887D01*
Y3624D01*
G75*
G02*
X65860I-1514J0D01*
G01*
Y3874D01*
X61267D01*
Y3624D01*
G75*
G02*
X58240I-1514J0D01*
G01*
Y3874D01*
X30787D01*
Y3624D01*
Y3623D01*
G75*
G02*
X28003Y2800I-1514J0D01*
G01*
G75*
G02*
X26587Y2117I-1270J823D01*
G01*
X26117Y1648D01*
G75*
G02*
X25464Y1373I-654J639D01*
G01*
X17538D01*
G75*
G02*
X16880Y1640I-13J913D01*
G01*
X16400Y2120D01*
G75*
G02*
X15060Y3623I173J1503D01*
G01*
Y3624D01*
Y3874D01*
X764D01*
G37*
Y22023D02*
G36*
X764Y22023D02*
Y3874D01*
X15060D01*
Y4124D01*
G75*
G02*
X15492Y5183I1514J0D01*
G01*
X12764D01*
G75*
G02*
X12110Y5458I0J914D01*
G01*
X9903Y7665D01*
G75*
G02*
X9627Y8319I639J654D01*
G01*
Y22023D01*
X4796D01*
X6180Y20639D01*
X7939D01*
Y17588D01*
X4888D01*
Y19347D01*
X3235Y21000D01*
G75*
G02*
X2960Y21654I639J654D01*
G01*
Y22023D01*
X764D01*
G37*
X21522Y17650D02*
G36*
X21522Y17650D02*
Y17690D01*
X20366Y16535D01*
X23864D01*
G75*
G02*
X24522Y16267I13J-913D01*
G01*
X24840Y15950D01*
G75*
G02*
X25067Y15572I-645J-646D01*
G01*
X25085D01*
G75*
G02*
X25433Y15470I0J-647D01*
G01*
G75*
G02*
X25597Y15559I385J-522D01*
G01*
G75*
G02*
X25210Y16574I1137J1015D01*
G01*
G75*
G02*
X28257I1524J0D01*
G01*
Y16573D01*
G75*
G02*
X27870Y15559I-1523J0D01*
G01*
G75*
G02*
X28297Y14950I-220J-609D01*
G01*
Y14950D01*
Y13762D01*
X28642Y13417D01*
G75*
G02*
X28917Y12764I-639J-654D01*
G01*
Y9906D01*
G75*
G02*
X28642Y9253I-914J0D01*
G01*
X25107Y5718D01*
Y5330D01*
G75*
G02*
X25464Y4947I-916J-1210D01*
G01*
G75*
G02*
X28003I1270J-823D01*
G01*
G75*
G02*
X30787Y4124I1270J-823D01*
G01*
Y4124D01*
Y3874D01*
X58240D01*
Y4124D01*
Y4124D01*
G75*
G02*
X58838Y5329I1513J0D01*
G01*
X55750D01*
Y5554D01*
X55637D01*
G75*
G02*
X54839Y5880I-11J1114D01*
G01*
X53886Y6833D01*
G75*
G02*
X53561Y7586I788J788D01*
G01*
X44707D01*
Y7361D01*
X41780D01*
Y7586D01*
X33291D01*
X33285Y7580D01*
G75*
G02*
X30339Y7684I-1471J104D01*
G01*
G75*
G02*
X31710Y9155I1475J0D01*
G01*
X32042Y9487D01*
G75*
G02*
X32840Y9813I788J-788D01*
G01*
X41780D01*
Y10038D01*
X44707D01*
Y9813D01*
X53560D01*
Y10218D01*
G75*
G02*
X53160Y11243I1113J1025D01*
G01*
Y11244D01*
Y11744D01*
Y11744D01*
G75*
G02*
X55943Y12567I1514J0D01*
G01*
G75*
G02*
X55967Y12602I1644J-1074D01*
G01*
G75*
G02*
X55675Y13142I356J541D01*
G01*
Y14925D01*
Y14925D01*
G75*
G02*
X56322Y15572I647J0D01*
G01*
X58105D01*
G75*
G02*
X58484Y15450I0J-648D01*
G01*
G75*
G02*
X58862Y15572I379J-525D01*
G01*
X60645D01*
G75*
G02*
X61292Y14925I0J-647D01*
G01*
Y14925D01*
Y13142D01*
G75*
G02*
X61000Y12602I-647J0D01*
G01*
G75*
G02*
X61024Y12567I-1621J-1109D01*
G01*
G75*
G02*
X63564I1270J-823D01*
G01*
G75*
G02*
X66104I1270J-823D01*
G01*
G75*
G02*
X67521Y13250I1270J-823D01*
G01*
X68308Y14037D01*
G75*
G02*
X68961Y14312I654J-639D01*
G01*
X69853D01*
X70698Y15158D01*
G75*
G02*
X70164Y15060I-535J1414D01*
G01*
X69664D01*
G75*
G02*
X68457Y15660I0J1514D01*
G01*
X62611D01*
G75*
G02*
X61958Y15935I0J914D01*
G01*
X60963Y16930D01*
X53782D01*
X52787Y15935D01*
G75*
G02*
X52337Y15683I-654J639D01*
G01*
G75*
G02*
X51114Y15060I-1224J891D01*
G01*
X50614D01*
G75*
G02*
X49407Y15660I0J1514D01*
G01*
X39434D01*
G75*
G02*
X38780Y15935I0J914D01*
G01*
X37785Y16930D01*
X34732D01*
X33737Y15935D01*
G75*
G02*
X33287Y15683I-654J639D01*
G01*
G75*
G02*
X32064Y15060I-1224J891D01*
G01*
X31564D01*
G75*
G02*
X30050Y16574I0J1514D01*
G01*
G75*
G02*
X30095Y16940I1514J0D01*
G01*
G75*
G02*
X29573Y17205I131J904D01*
G01*
X26990Y19788D01*
X24199D01*
Y17650D01*
X21522D01*
G37*
X61217Y5329D02*
G36*
X61217Y5329D02*
X60669D01*
G75*
G02*
X61267Y4124I-915J-1205D01*
G01*
Y4124D01*
Y3874D01*
X65860D01*
Y4124D01*
G75*
G02*
X68887I1514J0D01*
G01*
Y3874D01*
X74293D01*
Y9536D01*
X72669Y7912D01*
G75*
G02*
X71871Y7586I-788J788D01*
G01*
X66297D01*
Y7361D01*
X63609D01*
X62128Y5880D01*
G75*
G02*
X61330Y5554I-788J788D01*
G01*
X61217D01*
Y5329D01*
G37*
X764Y51433D02*
G36*
X764Y51433D02*
Y22023D01*
X2960D01*
Y22123D01*
G75*
G02*
X1610Y24194I913J2071D01*
G01*
G75*
G02*
X3874Y26457I2264J0D01*
G01*
G75*
G02*
X6137Y24194I0J-2264D01*
G01*
G75*
G02*
X4787Y22123I-2264J0D01*
G01*
Y22032D01*
X4796Y22023D01*
X9627D01*
Y41021D01*
G75*
G02*
X9903Y41674I914J0D01*
G01*
X12495Y44267D01*
Y45405D01*
G75*
G02*
X12618Y45783I648J0D01*
G01*
G75*
G02*
X12495Y46140I524J379D01*
G01*
X12322D01*
Y45969D01*
X9395D01*
Y48226D01*
X9147D01*
Y48001D01*
X6220D01*
Y48226D01*
X5605D01*
X4987Y47608D01*
Y46484D01*
G75*
G02*
X6137Y44514I-1113J-1970D01*
G01*
Y44514D01*
G75*
G02*
X1610I-2264J0D01*
G01*
G75*
G02*
X2760Y46484I2264J0D01*
G01*
Y48070D01*
G75*
G02*
X3096Y48867I1114J0D01*
G01*
X4346Y50117D01*
G75*
G02*
X5144Y50453I797J-777D01*
G01*
X6220D01*
Y50678D01*
X9147D01*
Y50453D01*
X9395D01*
Y50678D01*
X12322D01*
Y50453D01*
X12620D01*
X13600Y51433D01*
X764D01*
G37*
X11454Y14051D02*
Y8697D01*
X13142Y7010D01*
X17802D01*
G75*
G02*
X17642Y7580I1312J674D01*
G01*
X15786Y9436D01*
G75*
G02*
X15460Y10219I788J787D01*
G01*
G75*
G02*
X15060Y11244I1113J1025D01*
G01*
Y11744D01*
G75*
G02*
X15492Y12803I1514J0D01*
G01*
X13081D01*
G75*
G02*
X12428Y13078I0J914D01*
G01*
X11454Y14051D01*
G36*
X11454Y14051D02*
Y8697D01*
X13142Y7010D01*
X17802D01*
G75*
G02*
X17642Y7580I1312J674D01*
G01*
X15786Y9436D01*
G75*
G02*
X15460Y10219I788J787D01*
G01*
G75*
G02*
X15060Y11244I1113J1025D01*
G01*
Y11744D01*
G75*
G02*
X15492Y12803I1514J0D01*
G01*
X13081D01*
G75*
G02*
X12428Y13078I0J914D01*
G01*
X11454Y14051D01*
G37*
X12407Y37785D02*
Y34971D01*
X13698Y36262D01*
G75*
G02*
X14351Y36537I653J-639D01*
G01*
X14853D01*
G75*
G02*
X15500Y38164I1471J357D01*
G01*
G75*
G02*
X14853Y39790I823J1270D01*
G01*
X14412D01*
X12407Y37785D01*
G36*
X12407Y37785D02*
Y34971D01*
X13698Y36262D01*
G75*
G02*
X14351Y36537I653J-639D01*
G01*
X14853D01*
G75*
G02*
X15500Y38164I1471J357D01*
G01*
G75*
G02*
X14853Y39790I823J1270D01*
G01*
X14412D01*
X12407Y37785D01*
G37*
X13360Y33340D02*
Y20482D01*
G75*
G02*
X15187Y20112I674J-1369D01*
G01*
G75*
G02*
X15500Y20384I1137J-999D01*
G01*
G75*
G02*
Y22924I823J1270D01*
G01*
G75*
G02*
Y25464I823J1270D01*
G01*
G75*
G02*
Y28003I823J1270D01*
G01*
G75*
G02*
Y30544I823J1270D01*
G01*
G75*
G02*
Y33084I823J1270D01*
G01*
G75*
G02*
X14853Y34710I823J1270D01*
G01*
X14729D01*
X13360Y33340D01*
G36*
X13360Y33340D02*
Y20482D01*
G75*
G02*
X15187Y20112I674J-1369D01*
G01*
G75*
G02*
X15500Y20384I1137J-999D01*
G01*
G75*
G02*
Y22924I823J1270D01*
G01*
G75*
G02*
Y25464I823J1270D01*
G01*
G75*
G02*
Y28003I823J1270D01*
G01*
G75*
G02*
Y30544I823J1270D01*
G01*
G75*
G02*
Y33084I823J1270D01*
G01*
G75*
G02*
X14853Y34710I823J1270D01*
G01*
X14729D01*
X13360Y33340D01*
G37*
X19926Y24673D02*
X20762Y23837D01*
X30093D01*
G75*
G02*
Y24550I1471J357D01*
G01*
X20384D01*
G75*
G02*
X19926Y24673I0J913D01*
G01*
G36*
X19926Y24673D02*
X20762Y23837D01*
X30093D01*
G75*
G02*
Y24550I1471J357D01*
G01*
X20384D01*
G75*
G02*
X19926Y24673I0J913D01*
G01*
G37*
Y27213D02*
X20762Y26377D01*
X30093D01*
G75*
G02*
Y27090I1471J357D01*
G01*
X20384D01*
G75*
G02*
X19926Y27213I0J913D01*
G01*
G36*
X19926Y27213D02*
X20762Y26377D01*
X30093D01*
G75*
G02*
Y27090I1471J357D01*
G01*
X20384D01*
G75*
G02*
X19926Y27213I0J913D01*
G01*
G37*
Y32293D02*
X20762Y31457D01*
X30093D01*
G75*
G02*
Y32170I1471J357D01*
G01*
X20384D01*
G75*
G02*
X19926Y32293I0J913D01*
G01*
G36*
X19926Y32293D02*
X20762Y31457D01*
X30093D01*
G75*
G02*
Y32170I1471J357D01*
G01*
X20384D01*
G75*
G02*
X19926Y32293I0J913D01*
G01*
G37*
Y37373D02*
X20762Y36537D01*
X30093D01*
G75*
G02*
Y37250I1471J357D01*
G01*
X20384D01*
G75*
G02*
X19926Y37373I0J913D01*
G01*
G36*
X19926Y37373D02*
X20762Y36537D01*
X30093D01*
G75*
G02*
Y37250I1471J357D01*
G01*
X20384D01*
G75*
G02*
X19926Y37373I0J913D01*
G01*
G37*
Y42453D02*
X20762Y41617D01*
X30093D01*
G75*
G02*
Y42330I1471J357D01*
G01*
X20384D01*
G75*
G02*
X19926Y42453I0J913D01*
G01*
G36*
X19926Y42453D02*
X20762Y41617D01*
X30093D01*
G75*
G02*
Y42330I1471J357D01*
G01*
X20384D01*
G75*
G02*
X19926Y42453I0J913D01*
G01*
G37*
X20161Y10151D02*
X22292Y8019D01*
G75*
G02*
X22567Y7366I-639J-653D01*
G01*
Y5330D01*
G75*
G02*
X22924Y4947I-913J-1207D01*
G01*
G75*
G02*
X23280Y5330I1270J-823D01*
G01*
Y6096D01*
G75*
G02*
X23555Y6749I914J0D01*
G01*
X26547Y9742D01*
G75*
G02*
X25464Y10420I186J1502D01*
G01*
G75*
G02*
X22924I-1270J823D01*
G01*
G75*
G02*
X20384I-1270J823D01*
G01*
G75*
G02*
X20161Y10151I-1270J823D01*
G01*
G36*
X20161Y10151D02*
X22292Y8019D01*
G75*
G02*
X22567Y7366I-639J-653D01*
G01*
Y5330D01*
G75*
G02*
X22924Y4947I-913J-1207D01*
G01*
G75*
G02*
X23280Y5330I1270J-823D01*
G01*
Y6096D01*
G75*
G02*
X23555Y6749I914J0D01*
G01*
X26547Y9742D01*
G75*
G02*
X25464Y10420I186J1502D01*
G01*
G75*
G02*
X22924I-1270J823D01*
G01*
G75*
G02*
X20384I-1270J823D01*
G01*
G75*
G02*
X20161Y10151I-1270J823D01*
G01*
G37*
X25675Y34710D02*
G75*
G02*
Y33997I-1481J-357D01*
G01*
X32705D01*
X33541Y34833D01*
G75*
G02*
X33084Y34710I-457J791D01*
G01*
X25675D01*
G36*
X25675Y34710D02*
G75*
G02*
Y33997I-1481J-357D01*
G01*
X32705D01*
X33541Y34833D01*
G75*
G02*
X33084Y34710I-457J791D01*
G01*
X25675D01*
G37*
X27040Y51497D02*
X27830Y50707D01*
X30538D01*
G75*
G02*
X31564Y51107I1025J-1114D01*
G01*
X32064D01*
G75*
G02*
X33089Y50707I0J-1514D01*
G01*
X34348D01*
G75*
G02*
X35374Y51107I1025J-1114D01*
G01*
X35874D01*
G75*
G02*
X36899Y50707I0J-1514D01*
G01*
X38655D01*
X39444Y51497D01*
X27040D01*
G36*
X27040Y51497D02*
X27830Y50707D01*
X30538D01*
G75*
G02*
X31564Y51107I1025J-1114D01*
G01*
X32064D01*
G75*
G02*
X33089Y50707I0J-1514D01*
G01*
X34348D01*
G75*
G02*
X35374Y51107I1025J-1114D01*
G01*
X35874D01*
G75*
G02*
X36899Y50707I0J-1514D01*
G01*
X38655D01*
X39444Y51497D01*
X27040D01*
G37*
X38976Y29753D02*
X39812Y28917D01*
X51755D01*
X52591Y29753D01*
G75*
G02*
X52134Y29630I-457J791D01*
G01*
X39434D01*
G75*
G02*
X38976Y29753I0J913D01*
G01*
G36*
X38976Y29753D02*
X39812Y28917D01*
X51755D01*
X52591Y29753D01*
G75*
G02*
X52134Y29630I-457J791D01*
G01*
X39434D01*
G75*
G02*
X38976Y29753I0J913D01*
G01*
G37*
Y34833D02*
X39812Y33997D01*
X49143D01*
G75*
G02*
Y34710I1471J357D01*
G01*
X39434D01*
G75*
G02*
X38976Y34833I0J913D01*
G01*
G36*
X38976Y34833D02*
X39812Y33997D01*
X49143D01*
G75*
G02*
Y34710I1471J357D01*
G01*
X39434D01*
G75*
G02*
X38976Y34833I0J913D01*
G01*
G37*
X39286Y48493D02*
X39812Y47967D01*
X49407D01*
G75*
G02*
X49790Y48324I1207J-913D01*
G01*
G75*
G02*
X49111Y49772I823J1270D01*
G01*
X48815Y50068D01*
X41165D01*
X39903Y48806D01*
G75*
G02*
X39286Y48493I-787J788D01*
G01*
G36*
X39286Y48493D02*
X39812Y47967D01*
X49407D01*
G75*
G02*
X49790Y48324I1207J-913D01*
G01*
G75*
G02*
X49111Y49772I823J1270D01*
G01*
X48815Y50068D01*
X41165D01*
X39903Y48806D01*
G75*
G02*
X39286Y48493I-787J788D01*
G01*
G37*
X50535Y51497D02*
X50925Y51107D01*
X51114D01*
G75*
G02*
X52139Y50707I0J-1514D01*
G01*
X60768D01*
Y51119D01*
X63819D01*
Y50707D01*
X67045D01*
G75*
G02*
X67843Y50381I11J-1114D01*
G01*
X70701Y47523D01*
G75*
G02*
X71027Y46736I-787J-788D01*
G01*
G75*
G02*
X71027Y46725I-1111J5D01*
G01*
Y45757D01*
G75*
G02*
X71189Y45627I-864J-1243D01*
G01*
X72125D01*
G75*
G02*
X72923Y45301I11J-1114D01*
G01*
X74357Y43868D01*
Y51497D01*
X50535D01*
G36*
X50535Y51497D02*
X50925Y51107D01*
X51114D01*
G75*
G02*
X52139Y50707I0J-1514D01*
G01*
X60768D01*
Y51119D01*
X63819D01*
Y50707D01*
X67045D01*
G75*
G02*
X67843Y50381I11J-1114D01*
G01*
X70701Y47523D01*
G75*
G02*
X71027Y46736I-787J-788D01*
G01*
G75*
G02*
X71027Y46725I-1111J5D01*
G01*
Y45757D01*
G75*
G02*
X71189Y45627I-864J-1243D01*
G01*
X72125D01*
G75*
G02*
X72923Y45301I11J-1114D01*
G01*
X74357Y43868D01*
Y51497D01*
X50535D01*
G37*
X51937Y48324D02*
G75*
G02*
X52584Y46697I-823J-1270D01*
G01*
X57849D01*
G75*
G02*
X58502Y46422I0J-914D01*
G01*
X60767Y44157D01*
X68193D01*
G75*
G02*
X68800Y45757I1471J357D01*
G01*
Y46275D01*
X66595Y48480D01*
X63819D01*
Y48068D01*
X60768D01*
Y48480D01*
X52139D01*
G75*
G02*
X51937Y48324I-1025J1114D01*
G01*
G36*
X51937Y48324D02*
G75*
G02*
X52584Y46697I-823J-1270D01*
G01*
X57849D01*
G75*
G02*
X58502Y46422I0J-914D01*
G01*
X60767Y44157D01*
X68193D01*
G75*
G02*
X68800Y45757I1471J357D01*
G01*
Y46275D01*
X66595Y48480D01*
X63819D01*
Y48068D01*
X60768D01*
Y48480D01*
X52139D01*
G75*
G02*
X51937Y48324I-1025J1114D01*
G01*
G37*
X55747Y30544D02*
G75*
G02*
X56394Y28917I-823J-1270D01*
G01*
X56896D01*
G75*
G02*
X57549Y28642I0J-914D01*
G01*
X58544Y27647D01*
X68457D01*
G75*
G02*
X68840Y28003I1207J-913D01*
G01*
G75*
G02*
X68457Y28360I823J1270D01*
G01*
X62243D01*
G75*
G02*
X59500Y29274I-1219J914D01*
G01*
G75*
G02*
X62243Y30187I1524J0D01*
G01*
X68457D01*
G75*
G02*
X68840Y30544I1207J-913D01*
G01*
G75*
G02*
X68457Y30900I823J1270D01*
G01*
X65469D01*
G75*
G02*
X64815Y31175I0J914D01*
G01*
X63820Y32170D01*
X56394D01*
G75*
G02*
X55747Y30544I-1471J-357D01*
G01*
G36*
X55747Y30544D02*
G75*
G02*
X56394Y28917I-823J-1270D01*
G01*
X56896D01*
G75*
G02*
X57549Y28642I0J-914D01*
G01*
X58544Y27647D01*
X68457D01*
G75*
G02*
X68840Y28003I1207J-913D01*
G01*
G75*
G02*
X68457Y28360I823J1270D01*
G01*
X62243D01*
G75*
G02*
X59500Y29274I-1219J914D01*
G01*
G75*
G02*
X62243Y30187I1524J0D01*
G01*
X68457D01*
G75*
G02*
X68840Y30544I1207J-913D01*
G01*
G75*
G02*
X68457Y30900I823J1270D01*
G01*
X65469D01*
G75*
G02*
X64815Y31175I0J914D01*
G01*
X63820Y32170D01*
X56394D01*
G75*
G02*
X55747Y30544I-1471J-357D01*
G01*
G37*
X56394Y34710D02*
G75*
G02*
Y33997I-1471J-357D01*
G01*
X64198D01*
G75*
G02*
X64852Y33722I0J-914D01*
G01*
X65847Y32727D01*
X68457D01*
G75*
G02*
X68840Y33084I1207J-913D01*
G01*
G75*
G02*
X68193Y34710I823J1270D01*
G01*
X56394D01*
G36*
X56394Y34710D02*
G75*
G02*
Y33997I-1471J-357D01*
G01*
X64198D01*
G75*
G02*
X64852Y33722I0J-914D01*
G01*
X65847Y32727D01*
X68457D01*
G75*
G02*
X68840Y33084I1207J-913D01*
G01*
G75*
G02*
X68193Y34710I823J1270D01*
G01*
X56394D01*
G37*
Y37250D02*
G75*
G02*
Y36537I-1471J-357D01*
G01*
X68193D01*
G75*
G02*
X68840Y38164I1471J357D01*
G01*
G75*
G02*
X68457Y38520I823J1270D01*
G01*
X64198D01*
G75*
G02*
X63545Y38795I0J914D01*
G01*
X62550Y39790D01*
X62505D01*
G75*
G02*
X59804Y38520I-1481J-357D01*
G01*
X58862D01*
X57867Y37525D01*
G75*
G02*
X57214Y37250I-653J639D01*
G01*
X56394D01*
G36*
X56394Y37250D02*
G75*
G02*
Y36537I-1471J-357D01*
G01*
X68193D01*
G75*
G02*
X68840Y38164I1471J357D01*
G01*
G75*
G02*
X68457Y38520I823J1270D01*
G01*
X64198D01*
G75*
G02*
X63545Y38795I0J914D01*
G01*
X62550Y39790D01*
X62505D01*
G75*
G02*
X59804Y38520I-1481J-357D01*
G01*
X58862D01*
X57867Y37525D01*
G75*
G02*
X57214Y37250I-653J639D01*
G01*
X56394D01*
G37*
X58026Y20863D02*
X58862Y20027D01*
X68457D01*
G75*
G02*
X68840Y20384I1207J-913D01*
G01*
G75*
G02*
X68457Y20740I823J1270D01*
G01*
X58484D01*
G75*
G02*
X58026Y20863I0J913D01*
G01*
G36*
X58026Y20863D02*
X58862Y20027D01*
X68457D01*
G75*
G02*
X68840Y20384I1207J-913D01*
G01*
G75*
G02*
X68457Y20740I823J1270D01*
G01*
X58484D01*
G75*
G02*
X58026Y20863I0J913D01*
G01*
G37*
Y23403D02*
X58862Y22567D01*
X68457D01*
G75*
G02*
X68840Y22924I1207J-913D01*
G01*
G75*
G02*
X68457Y23280I823J1270D01*
G01*
X58484D01*
G75*
G02*
X58026Y23403I0J913D01*
G01*
G36*
X58026Y23403D02*
X58862Y22567D01*
X68457D01*
G75*
G02*
X68840Y22924I1207J-913D01*
G01*
G75*
G02*
X68457Y23280I823J1270D01*
G01*
X58484D01*
G75*
G02*
X58026Y23403I0J913D01*
G01*
G37*
X58149Y25820D02*
X58862Y25107D01*
X68457D01*
G75*
G02*
X68840Y25464I1207J-913D01*
G01*
G75*
G02*
X68457Y25820I823J1270D01*
G01*
X58166D01*
G75*
G02*
X58149Y25820I2J916D01*
G01*
G36*
X58149Y25820D02*
X58862Y25107D01*
X68457D01*
G75*
G02*
X68840Y25464I1207J-913D01*
G01*
G75*
G02*
X68457Y25820I823J1270D01*
G01*
X58166D01*
G75*
G02*
X58149Y25820I2J916D01*
G01*
G37*
D02*
D11*
X6414Y19114D02*
X3874Y21654D01*
Y24194D01*
X10859Y47308D02*
Y47053D01*
X14034D01*
Y16574D02*
X16574D01*
X14034Y19114D02*
Y16574D01*
Y47053D02*
X15304Y48324D01*
X19114D01*
X20384Y47053D01*
X31814D01*
X16574Y3874D02*
Y3239D01*
X17526Y2286D01*
X25464D01*
X26734Y3556D01*
Y3874D01*
X16574Y19114D02*
X19114D01*
X20701Y20701D01*
X27369D01*
X30226Y17844D01*
X33084D01*
X34353Y19114D01*
X35624D01*
X16574Y21654D02*
X28003D01*
X29274Y20384D01*
X33084D01*
X34353Y21654D01*
X35624D01*
X16574Y24194D02*
X19114D01*
X20384Y22924D01*
X33084D01*
X34353Y24194D01*
X35624D01*
X16574Y26734D02*
X19114D01*
X20384Y25464D01*
X33084D01*
X34353Y26734D01*
X35624D01*
X16574Y29274D02*
X19114D01*
X20384Y28003D01*
X33084D01*
X34353Y29274D01*
X35624D01*
X16574Y31814D02*
X19114D01*
X20384Y30544D01*
X33084D01*
X34353Y31814D01*
X35624D01*
X16574Y34353D02*
X19114D01*
X20384Y33084D01*
X33084D01*
X34353Y34353D01*
X35624D01*
X16574Y36894D02*
X19114D01*
X20384Y35624D01*
X33084D01*
X34353Y36894D01*
X35624D01*
X16574Y39434D02*
X19114D01*
X20384Y38164D01*
X33084D01*
X34353Y39434D01*
X35624D01*
X16574Y41974D02*
X19114D01*
X20384Y40703D01*
X33084D01*
X34353Y41974D01*
X35624D01*
X16574Y44514D02*
X19114D01*
X20384Y43243D01*
X33084D01*
X34353Y44514D01*
X35624D01*
X16574Y49594D02*
X21654D01*
X19114Y3874D02*
Y5461D01*
X18479Y6096D01*
X12764D01*
X10541Y8319D01*
Y41021D01*
X14034Y44514D01*
X19114Y11494D02*
Y9906D01*
X21654Y7366D01*
Y3874D01*
Y14034D02*
Y11494D01*
Y14034D02*
Y13716D01*
X13081D01*
X11494Y15304D01*
Y38164D01*
X14034Y40703D01*
X19114D01*
X20384Y39434D01*
X21654D01*
Y49594D02*
X25146D01*
X26416Y48324D01*
X38164D01*
X39434Y47053D01*
X50864D01*
X22860Y19114D02*
X21654D01*
X19114Y16574D01*
X16574D01*
X24194Y14034D02*
Y11494D01*
Y34353D02*
X20384D01*
X19114Y35624D01*
X14351D01*
X12446Y33719D01*
Y15939D01*
X13716Y14669D01*
X19114D01*
X20066Y15621D01*
X23876D01*
X24194Y15304D01*
Y14034D01*
Y44514D02*
X31814D01*
X26734Y3874D02*
X29274D01*
X26734Y14034D02*
X28003Y12764D01*
Y9906D01*
X24194Y6096D01*
Y3874D01*
X26734Y16574D02*
Y14034D01*
Y29274D02*
X31814D01*
Y16574D02*
X33084D01*
X34353Y17844D01*
X38164D01*
X39434Y16574D01*
X50864D01*
X31814Y19114D02*
X33084D01*
X34353Y20384D01*
X38164D01*
X39434Y19114D01*
X50864D01*
X31814Y21654D02*
X33084D01*
X34353Y22924D01*
X38164D01*
X39434Y21654D01*
X50864D01*
X31814Y24194D02*
X33084D01*
X34353Y25464D01*
X38164D01*
X39434Y24194D01*
X50864D01*
X31814Y26734D02*
X33084D01*
X34353Y28003D01*
X38164D01*
X39434Y26734D01*
X50864D01*
X31814Y31814D02*
X33084D01*
X34353Y33084D01*
X38164D01*
X39434Y31814D01*
X50864D01*
X31814Y34353D02*
X33084D01*
X34353Y35624D01*
X38164D01*
X39434Y34353D01*
X43243D01*
X31814Y36894D02*
X33084D01*
X34353Y38164D01*
X38164D01*
X39434Y36894D01*
X50864D01*
X31814Y39434D02*
X33084D01*
X34353Y40703D01*
X38164D01*
X39434Y39434D01*
X50864D01*
X31814Y41974D02*
X33084D01*
X34353Y43243D01*
X38164D01*
X39434Y41974D01*
X50864D01*
X31814Y44514D02*
X33084D01*
X34353Y45783D01*
X38164D01*
X39434Y44514D01*
X50864D01*
X35624Y21654D02*
X38164D01*
X39434Y20384D01*
X52134D01*
X53403Y21654D01*
X54674D01*
X35624Y24194D02*
X38164D01*
X39434Y22924D01*
X52134D01*
X53403Y24194D01*
X54674D01*
X35624Y26734D02*
X38164D01*
X39434Y25464D01*
X52134D01*
X53403Y26734D01*
X54674D01*
X35624Y31814D02*
X38164D01*
X39434Y30544D01*
X52134D01*
X53403Y31814D01*
X54674D01*
X35624Y34353D02*
X38164D01*
X39434Y33084D01*
X52134D01*
X53403Y34353D01*
X54674D01*
X35624Y36894D02*
X38164D01*
X39434Y35624D01*
X52134D01*
X53403Y36894D01*
X54674D01*
X35624Y39434D02*
X38164D01*
X39434Y38164D01*
X52134D01*
X53403Y39434D01*
X54674D01*
X35624Y41974D02*
X38164D01*
X39434Y40703D01*
X52134D01*
X53403Y41974D01*
X54674D01*
X35624Y44514D02*
X38164D01*
X39434Y43243D01*
X52134D01*
X53403Y44514D01*
X54674D01*
X35624Y47053D02*
X38164D01*
X39434Y45783D01*
X57849D01*
X60389Y43243D01*
X71184D01*
X71819Y42608D01*
Y37529D01*
X71184Y36894D01*
X69914D01*
X35624Y47053D02*
X34353D01*
X33084Y45783D01*
X20384D01*
X19114Y47053D01*
X16574D01*
X43243Y49594D02*
X45466D01*
X46736Y48324D01*
X53721D01*
X54991Y47053D01*
X58484D01*
X50864Y16574D02*
X52134D01*
X53403Y17844D01*
X61341D01*
X62611Y16574D01*
X69914D01*
X50864Y19114D02*
X52134D01*
X53403Y20384D01*
X57214D01*
X58484Y19114D01*
X69914D01*
X50864Y21654D02*
X52134D01*
X53403Y22924D01*
X57214D01*
X58484Y21654D01*
X69914D01*
X50864Y24194D02*
X52134D01*
X53403Y25464D01*
X57214D01*
X58484Y24194D01*
X69914D01*
X50864Y26734D02*
X52134D01*
X53403Y28003D01*
X56896D01*
X58166Y26734D01*
X69914D01*
X50864Y31814D02*
X52134D01*
X53403Y33084D01*
X64198D01*
X65469Y31814D01*
X69914D01*
X50864Y36894D02*
X52134D01*
X53403Y38164D01*
X57214D01*
X58484Y39434D01*
X61024D01*
X50864D02*
X52134D01*
X53403Y40703D01*
X62928D01*
X64198Y39434D01*
X69914D01*
X50864Y41974D02*
X52134D01*
X53403Y43243D01*
X57214D01*
X58484Y41974D01*
X69914D01*
X54674Y19114D02*
X53403D01*
X52134Y17844D01*
X39434D01*
X38164Y19114D01*
X35624D01*
X54674Y29274D02*
X53403D01*
X52134Y28003D01*
X39434D01*
X38164Y29274D01*
X35624D01*
X57214Y14034D02*
Y8700D01*
X58484Y31814D02*
Y30544D01*
X53403D01*
X52134Y29274D01*
X50864D01*
X59754Y14034D02*
Y8700D01*
X61024Y29274D02*
X69914D01*
X62294Y11494D02*
X64834D01*
X69914D02*
X72771Y14351D01*
Y34353D01*
X71501Y35624D01*
X53403D01*
X52134Y34353D01*
X50864D01*
X69914D02*
X71184D01*
X71819Y33719D01*
Y14986D01*
X70231Y13399D01*
X68961D01*
X67374Y11811D01*
Y11494D01*
D02*
D12*
X21654Y39434D03*
Y49594D03*
X24194Y34353D03*
Y44514D03*
X26734Y16574D03*
Y29274D03*
X61024D03*
Y39434D03*
D02*
D13*
X3874Y44514D02*
Y48070D01*
X5144Y49340D01*
X7684D01*
X10859D01*
X19114Y7684D02*
X16574Y10224D01*
Y11494D01*
X29274D02*
X31814D01*
X29274D02*
Y14351D01*
Y16891D01*
X27051Y19114D01*
X24892D01*
X29274Y14351D02*
X33401D01*
X35624Y16574D01*
X31814Y3874D02*
X47097D01*
X31814Y49594D02*
X39116D01*
X40703Y51181D01*
X49276D01*
X50864Y49594D01*
X31814D02*
X27369D01*
X25781Y51181D01*
X14923D01*
X13081Y49340D01*
X10859D01*
X43243Y6668D02*
Y3917D01*
X43287Y3874D01*
X47097D01*
X43243Y8700D02*
X32830D01*
X31814Y7684D01*
X43243Y8700D02*
X54674D01*
Y8636D01*
X47097Y3874D02*
X57214D01*
X50864Y49594D02*
X62294D01*
X54674Y8636D02*
Y7620D01*
X55626Y6668D01*
X59754D01*
X54674Y11494D02*
Y8636D01*
Y16574D02*
X58484D01*
X54674D02*
X52134Y14034D01*
X38164D01*
X35624Y16574D01*
X58484Y29274D02*
Y31814D01*
X62294Y47053D02*
X58484D01*
X62294Y49594D02*
X67056D01*
X69914Y46736D01*
Y44514D01*
X64834Y6668D02*
Y3874D01*
Y8700D02*
X71882D01*
X74041Y10859D01*
Y42608D01*
X72136Y44514D01*
X69914D01*
X64834Y8700D02*
X63373D01*
X61341Y6668D01*
X59754D01*
D02*
D14*
X19114Y7684D03*
X31814D03*
X43243Y34353D03*
Y49594D03*
X58484Y16574D03*
Y29274D03*
Y31814D03*
Y47053D03*
D02*
D15*
X16574Y16574D03*
Y19114D03*
Y21654D03*
Y24194D03*
Y26734D03*
Y29274D03*
Y31814D03*
Y34353D03*
Y36894D03*
Y39434D03*
Y41974D03*
Y44514D03*
Y47053D03*
Y49594D03*
X31814Y16574D03*
Y19114D03*
Y21654D03*
Y24194D03*
Y26734D03*
Y29274D03*
Y31814D03*
Y34353D03*
Y36894D03*
Y39434D03*
Y41974D03*
Y44514D03*
Y47053D03*
Y49594D03*
X35624Y16574D03*
Y19114D03*
Y21654D03*
Y24194D03*
Y26734D03*
Y29274D03*
Y31814D03*
Y34353D03*
Y36894D03*
Y39434D03*
Y41974D03*
Y44514D03*
Y47053D03*
Y49594D03*
X50864Y16574D03*
Y19114D03*
Y21654D03*
Y24194D03*
Y26734D03*
Y29274D03*
Y31814D03*
Y34353D03*
Y36894D03*
Y39434D03*
Y41974D03*
Y44514D03*
Y47053D03*
Y49594D03*
X54674Y16574D03*
Y19114D03*
Y21654D03*
Y24194D03*
Y26734D03*
Y29274D03*
Y31814D03*
Y34353D03*
Y36894D03*
Y39434D03*
Y41974D03*
Y44514D03*
X69914Y16574D03*
Y19114D03*
Y21654D03*
Y24194D03*
Y26734D03*
Y29274D03*
Y31814D03*
Y34353D03*
Y36894D03*
Y39434D03*
Y41974D03*
Y44514D03*
D02*
D16*
X16574Y3874D03*
Y11494D03*
X19114Y3874D03*
Y11494D03*
X21654Y3874D03*
Y11494D03*
X24194Y3874D03*
Y11494D03*
X26734Y3874D03*
Y11494D03*
X29274Y3874D03*
Y11494D03*
X31814Y3874D03*
Y11494D03*
X54674Y3874D03*
Y11494D03*
X57214Y3874D03*
Y11494D03*
X59754Y3874D03*
Y11494D03*
X62294Y3874D03*
Y11494D03*
X64834Y3874D03*
Y11494D03*
X67374Y3874D03*
Y11494D03*
X69914Y3874D03*
Y11494D03*
D02*
D17*
X7684Y47308D03*
Y49340D03*
X10859Y47308D03*
Y49340D03*
X43243Y6668D03*
Y8700D03*
X57214Y6668D03*
Y8700D03*
X59754Y6668D03*
Y8700D03*
X64834Y6668D03*
Y8700D03*
D02*
D18*
X21654Y14034D03*
X24194D03*
X57214D03*
X59754D03*
D02*
D19*
X14034Y44514D03*
Y47053D03*
D02*
D70*
X26734Y14034D03*
D02*
D71*
X14034Y16574D03*
Y19114D03*
X62294Y47053D03*
D02*
D20*
X6414Y16574D03*
Y19114D03*
D02*
D21*
X3874Y24194D03*
Y44514D03*
D02*
D22*
X22860Y19114D03*
X24892D03*
D02*
D23*
X62294Y49594D03*
X0Y0D02*
M02*
