G05
M48
;#@! TF.GenerationSoftware,Number One Systems,Easy-PC,27.0.5940
;#@! TF.CreationDate,2026-08-06T09:06:29--1:00*
;#@! TF.FileFunction,Plated,1,4,PTH
;FILE_FORMAT=3:3
;TYPE=PLATED
METRIC,000.000
FMAT,2
T1C000.813
T2C000.940
%
T001
X005144Y001969
X005144Y017209
X007684Y001969
X007684Y017209
X010224Y001969
X010224Y017209
X012764Y001969
X012764Y017209
X015304Y001969
X015304Y017209
X017844Y001969
X017844Y017209
X020384Y001969
X020384Y017209
X022924Y001969
X022924Y017209
X025464Y001969
X025464Y017209
X028004Y001969
X028004Y017209
X030544Y001969
X030544Y017209
X033084Y001969
X033084Y017209
X048324Y001969
X048324Y017209
X050864Y001969
X050864Y017209
X053404Y001969
X053404Y017209
X055944Y001969
X055944Y017209
X058484Y001969
X058484Y017209
X061024Y001969
X061024Y017209
X063564Y001969
X063564Y017209
X066104Y001969
X066104Y017209
X068644Y001969
X068644Y017209
X071184Y001969
X071184Y017209
X073724Y001969
X073724Y017209
X076264Y001969
X076264Y017209
T002
X005144Y008319
X005144Y010859
X007684Y008319
X007684Y010859
X010224Y008319
X010224Y010859
X012764Y008319
X012764Y010859
X015304Y008319
X015304Y010859
X017844Y008319
X017844Y010859
X020384Y008319
X020384Y010859
X022924Y008319
X022924Y010859
X025464Y008319
X025464Y010859
X028004Y008319
X028004Y010859
X030544Y008319
X030544Y010859
X033084Y008319
X033084Y010859
X035624Y008319
X035624Y010859
X048324Y008319
X048324Y010859
X050864Y008319
X050864Y010859
X053404Y008319
X053404Y010859
X055944Y008319
X055944Y010859
X058484Y008319
X058484Y010859
X061024Y008319
X061024Y010859
X063564Y008319
X063564Y010859
X066104Y008319
X066104Y010859
X068644Y008319
X068644Y010859
X071184Y008319
X071184Y010859
X073724Y008319
X073724Y010859
X076264Y008319
X076264Y010859
X078804Y008319
X078804Y010859
M30
