G04 Easy-PC Gerber Version 27.0 Build 5942*
%FSLAX33Y33*%
%MOMM*%
%ADD12R,1.52400X1.52400*%
%ADD10C,0.12700*%
%ADD11C,0.30000*%
%ADD14C,1.52400*%
%ADD13C,1.60000*%
X0Y0D02*
D02*
D10*
X701Y701D02*
X4295D01*
G75*
G02*
X4230Y3190I848J1268D01*
G01*
Y6793D01*
X3618D01*
Y9844D01*
X3954D01*
G75*
G02*
X4230Y12127I1190J1014D01*
G01*
Y15987D01*
G75*
G02*
X4295Y18477I914J1222D01*
G01*
X701D01*
Y701D01*
G36*
X701Y701D02*
X4295D01*
G75*
G02*
X4230Y3190I848J1268D01*
G01*
Y6793D01*
X3618D01*
Y9844D01*
X3954D01*
G75*
G02*
X4230Y12127I1190J1014D01*
G01*
Y15987D01*
G75*
G02*
X4295Y18477I914J1222D01*
G01*
X701D01*
Y701D01*
G37*
X33932D02*
X40067D01*
Y18477D01*
X33932D01*
G75*
G02*
X33997Y15987I-848J-1268D01*
G01*
Y12127D01*
G75*
G02*
X34353Y11770I-914J-1269D01*
G01*
G75*
G02*
X37187Y10859I1270J-912D01*
G01*
G75*
G02*
X36535Y9589I-1563J0D01*
G01*
G75*
G02*
X35624Y6755I-912J-1270D01*
G01*
G75*
G02*
X34353Y7407I0J1563D01*
G01*
G75*
G02*
X33997Y7050I-1270J912D01*
G01*
Y3190D01*
G75*
G02*
X33932Y701I-914J-1222D01*
G01*
G36*
X33932Y701D02*
X40067D01*
Y18477D01*
X33932D01*
G75*
G02*
X33997Y15987I-848J-1268D01*
G01*
Y12127D01*
G75*
G02*
X34353Y11770I-914J-1269D01*
G01*
G75*
G02*
X37187Y10859I1270J-912D01*
G01*
G75*
G02*
X36535Y9589I-1563J0D01*
G01*
G75*
G02*
X35624Y6755I-912J-1270D01*
G01*
G75*
G02*
X34353Y7407I0J1563D01*
G01*
G75*
G02*
X33997Y7050I-1270J912D01*
G01*
Y3190D01*
G75*
G02*
X33932Y701I-914J-1222D01*
G01*
G37*
X43880D02*
X47475D01*
G75*
G02*
X47410Y3190I848J1268D01*
G01*
Y6793D01*
X46798D01*
Y9844D01*
X47134D01*
G75*
G02*
X47410Y12127I1190J1014D01*
G01*
Y15987D01*
G75*
G02*
X47475Y18477I914J1222D01*
G01*
X43880D01*
Y701D01*
G36*
X43880Y701D02*
X47475D01*
G75*
G02*
X47410Y3190I848J1268D01*
G01*
Y6793D01*
X46798D01*
Y9844D01*
X47134D01*
G75*
G02*
X47410Y12127I1190J1014D01*
G01*
Y15987D01*
G75*
G02*
X47475Y18477I914J1222D01*
G01*
X43880D01*
Y701D01*
G37*
X77112D02*
X83247D01*
Y18477D01*
X77112D01*
G75*
G02*
X77177Y15987I-848J-1268D01*
G01*
Y12127D01*
G75*
G02*
X77534Y11770I-914J-1269D01*
G01*
G75*
G02*
X80367Y10859I1270J-912D01*
G01*
G75*
G02*
X79715Y9589I-1563J0D01*
G01*
G75*
G02*
X78804Y6755I-912J-1270D01*
G01*
G75*
G02*
X77534Y7407I0J1563D01*
G01*
G75*
G02*
X77177Y7050I-1270J912D01*
G01*
Y3190D01*
G75*
G02*
X77112Y701I-914J-1222D01*
G01*
G36*
X77112Y701D02*
X83247D01*
Y18477D01*
X77112D01*
G75*
G02*
X77177Y15987I-848J-1268D01*
G01*
Y12127D01*
G75*
G02*
X77534Y11770I-914J-1269D01*
G01*
G75*
G02*
X80367Y10859I1270J-912D01*
G01*
G75*
G02*
X79715Y9589I-1563J0D01*
G01*
G75*
G02*
X78804Y6755I-912J-1270D01*
G01*
G75*
G02*
X77534Y7407I0J1563D01*
G01*
G75*
G02*
X77177Y7050I-1270J912D01*
G01*
Y3190D01*
G75*
G02*
X77112Y701I-914J-1222D01*
G01*
G37*
D02*
D11*
X5144Y8319D02*
Y1969D01*
Y10859D02*
Y17209D01*
X7684Y8319D02*
Y1969D01*
Y10859D02*
Y17209D01*
X10224Y8319D02*
Y1969D01*
Y10859D02*
Y17209D01*
X12764Y8319D02*
Y1969D01*
Y10859D02*
Y17209D01*
X15304Y8319D02*
Y1969D01*
Y10859D02*
Y17209D01*
X17844Y8319D02*
Y1969D01*
Y10859D02*
Y17209D01*
X20384Y8319D02*
Y1969D01*
Y10859D02*
Y17209D01*
X22924Y8319D02*
Y1969D01*
Y10859D02*
Y17209D01*
X25464Y8319D02*
Y1969D01*
Y10859D02*
Y17209D01*
X28003Y8319D02*
Y1969D01*
Y10859D02*
Y17209D01*
X30544Y8319D02*
Y1969D01*
Y10859D02*
Y17209D01*
X33084Y8319D02*
Y1969D01*
Y10859D02*
Y17209D01*
X48324Y8319D02*
Y1969D01*
Y10859D02*
Y17209D01*
X50864Y8319D02*
Y1969D01*
Y10859D02*
Y17209D01*
X53403Y8319D02*
Y1969D01*
Y10859D02*
Y17209D01*
X55943Y8319D02*
Y1969D01*
Y10859D02*
Y17209D01*
X58484Y8319D02*
Y1969D01*
Y10859D02*
Y17209D01*
X61024Y8319D02*
Y1969D01*
Y10859D02*
Y17209D01*
X63564Y8319D02*
Y1969D01*
Y10859D02*
Y17209D01*
X66104Y8319D02*
Y1969D01*
Y10859D02*
Y17209D01*
X68644Y8319D02*
Y1969D01*
Y10859D02*
Y17209D01*
X71184Y8319D02*
Y1969D01*
Y10859D02*
Y17209D01*
X73724Y8319D02*
Y1969D01*
Y10859D02*
Y17209D01*
X76264Y8319D02*
Y1969D01*
Y10859D02*
Y17209D01*
D02*
D12*
X5144Y8319D03*
X48324D03*
D02*
D13*
X5144Y10859D03*
X7684Y8319D03*
Y10859D03*
X10224Y8319D03*
Y10859D03*
X12764Y8319D03*
Y10859D03*
X15304Y8319D03*
Y10859D03*
X17844Y8319D03*
Y10859D03*
X20384Y8319D03*
Y10859D03*
X22924Y8319D03*
Y10859D03*
X25464Y8319D03*
Y10859D03*
X28003Y8319D03*
Y10859D03*
X30544Y8319D03*
Y10859D03*
X33084Y8319D03*
Y10859D03*
X35624Y8319D03*
Y10859D03*
X48324D03*
X50864Y8319D03*
Y10859D03*
X53403Y8319D03*
Y10859D03*
X55943Y8319D03*
Y10859D03*
X58484Y8319D03*
Y10859D03*
X61024Y8319D03*
Y10859D03*
X63564Y8319D03*
Y10859D03*
X66104Y8319D03*
Y10859D03*
X68644Y8319D03*
Y10859D03*
X71184Y8319D03*
Y10859D03*
X73724Y8319D03*
Y10859D03*
X76264Y8319D03*
Y10859D03*
X78804Y8319D03*
Y10859D03*
D02*
D14*
X5144Y1969D03*
Y17209D03*
X7684Y1969D03*
Y17209D03*
X10224Y1969D03*
Y17209D03*
X12764Y1969D03*
Y17209D03*
X15304Y1969D03*
Y17209D03*
X17844Y1969D03*
Y17209D03*
X20384Y1969D03*
Y17209D03*
X22924Y1969D03*
Y17209D03*
X25464Y1969D03*
Y17209D03*
X28003Y1969D03*
Y17209D03*
X30544Y1969D03*
Y17209D03*
X33084Y1969D03*
Y17209D03*
X48324Y1969D03*
Y17209D03*
X50864Y1969D03*
Y17209D03*
X53403Y1969D03*
Y17209D03*
X55943Y1969D03*
Y17209D03*
X58484Y1969D03*
Y17209D03*
X61024Y1969D03*
Y17209D03*
X63564Y1969D03*
Y17209D03*
X66104Y1969D03*
Y17209D03*
X68644Y1969D03*
Y17209D03*
X71184Y1969D03*
Y17209D03*
X73724Y1969D03*
Y17209D03*
X76264Y1969D03*
Y17209D03*
X0Y0D02*
M02*
