G05
M48
;#@! TF.GenerationSoftware,Number One Systems,Easy-PC,27.0.5940
;#@! TF.CreationDate,2026-08-15T14:14:09--1:00*
;#@! TF.FileFunction,Plated,1,4,PTH
;FILE_FORMAT=3:3
;TYPE=PLATED
METRIC,000.000
FMAT,2
T1C000.800
T2C000.813
T3C000.900
T4C000.940
T5C000.950
T6C001.067
T7C001.397
T8C001.400
%
T001
X016293Y050900
X016293Y054710
X018833Y003910
X018833Y006450
X026453Y050900
X026453Y054710
T002
X008673Y069950
X008673Y085190
X011213Y069950
X011213Y085190
X013753Y069950
X013753Y085190
X016293Y069950
X016293Y085190
X018833Y069950
X018833Y085190
X021373Y069950
X021373Y085190
X023913Y069950
X023913Y085190
X026453Y034390
X026453Y036930
X026453Y069950
X026453Y085190
X028993Y069950
X028993Y085190
X031533Y069950
X031533Y085190
X034073Y029310
X034073Y036930
X034073Y069950
X034073Y085190
X036613Y069950
X036613Y085190
X039153Y069950
X039153Y085190
X041693Y069950
X041693Y085190
X059473Y008990
X068363Y043280
X070903Y043280
X072173Y008990
X073443Y043280
T003
X008673Y003910
X008673Y006450
X011213Y003910
X011213Y006450
X013753Y003910
X013753Y006450
X034073Y003910
X034073Y006450
X034073Y008990
X034073Y011530
X034073Y014070
X034073Y016610
X034073Y019150
X034073Y021690
X034073Y024230
X034073Y026770
X036613Y003910
X036613Y006450
X039153Y003910
X039153Y006450
X056933Y008990
X056933Y011530
X056933Y014070
X056933Y016610
X056933Y019150
X056933Y021690
X056933Y024230
X056933Y026770
X064552Y003910
X064552Y006450
X067093Y003910
X067093Y006450
X069633Y003910
X069633Y006450
T004
X004863Y040740
X004863Y050900
X059473Y036930
X069633Y036930
T005
X006133Y076300
X006133Y078840
X008673Y029310
X008673Y050900
X008673Y057250
X008673Y059790
X008673Y076300
X008673Y078840
X011213Y029310
X011213Y050900
X011213Y057250
X011213Y059790
X011213Y076300
X011213Y078840
X013753Y029310
X013753Y050900
X013753Y057250
X013753Y059790
X013753Y076300
X013753Y078840
X016293Y029310
X016293Y057250
X016293Y059790
X016293Y076300
X016293Y078840
X018833Y029310
X018833Y042010
X018833Y044550
X018833Y057250
X018833Y059790
X018833Y076300
X018833Y078840
X021373Y029310
X021373Y042010
X021373Y044550
X021373Y057250
X021373Y059790
X021373Y076300
X021373Y078840
X023913Y029310
X023913Y042010
X023913Y044550
X023913Y057250
X023913Y059790
X023913Y076300
X023913Y078840
X026453Y029310
X026453Y042010
X026453Y044550
X026453Y057250
X026453Y059790
X026453Y076300
X026453Y078840
X028993Y029310
X028993Y042010
X028993Y044550
X028993Y057250
X028993Y059790
X028993Y076300
X028993Y078840
X031533Y042010
X031533Y044550
X031533Y057250
X031533Y059790
X031533Y076300
X031533Y078840
X034073Y042010
X034073Y044550
X034073Y057250
X034073Y059790
X034073Y076300
X034073Y078840
X036613Y042010
X036613Y044550
X036613Y057250
X036613Y059790
X036613Y076300
X036613Y078840
X039153Y042010
X039153Y044550
X039153Y057250
X039153Y059790
X039153Y076300
X039153Y078840
X041693Y042010
X041693Y044550
X041693Y057250
X041693Y059790
X041693Y076300
X041693Y078840
X044233Y042010
X044233Y044550
X044233Y057250
X044233Y059790
X044233Y076300
X044233Y078840
X046773Y042010
X046773Y044550
X046773Y057250
X046773Y059790
X046773Y076300
X046773Y078840
X049313Y042010
X049313Y044550
X049313Y057250
X049313Y059790
X051853Y042010
X051853Y044550
X051853Y057250
X051853Y059790
X054393Y042010
X054393Y044550
X054393Y057250
X054393Y059790
X054393Y067410
X054393Y069950
X054393Y072490
X054393Y075030
X054393Y077570
X054393Y080110
X054393Y082650
X054393Y085190
X054393Y087730
X056933Y042010
X056933Y044550
X056933Y057250
X056933Y059790
X059473Y042010
X059473Y044550
X059473Y057250
X059473Y059790
X062013Y057250
X062013Y059790
X064552Y057250
X064552Y059790
X067093Y057250
X067093Y059790
X069633Y057250
X069633Y059790
T006
X072173Y011530
X072173Y014070
X072173Y016610
T007
X062965Y028675
X066775Y028675
T008
X073125Y023595
X073125Y033755
M30
