G05
M48
;#@! TF.GenerationSoftware,Number One Systems,Easy-PC,27.0.5940
;#@! TF.CreationDate,2026-08-21T12:55:58--1:00*
;#@! TF.FileFunction,Plated,1,2,PTH
;FILE_FORMAT=3:3
;TYPE=PLATED
METRIC,000.000
FMAT,2
T1C000.800
T2C000.950
T3C001.000
T4C001.100
T5C001.397
T6C001.400
T7C003.200
%
T001
X003593Y006450
X006133Y006450
X016293Y014070
X016293Y024230
X023900Y016610
X023900Y026770
X028980Y008990
X028980Y021690
X051853Y030580
X059473Y030580
X062013Y011530
X062013Y021690
X070903Y030580
X074713Y030580
T002
X003593Y015340
X003593Y017880
X003593Y020420
X006133Y015340
X006133Y017880
X006133Y020420
T003
X012610Y009308
X016280Y029323
X018820Y029323
X021360Y029323
X023900Y029323
X026440Y029323
X028980Y029323
X031520Y029323
X034020Y029323
X037692Y009308
X042963Y008990
X042963Y011530
X042963Y014070
X042963Y016610
X042963Y019150
X042963Y021690
X042963Y024230
X042963Y026770
X051853Y034390
X062013Y034390
X065823Y008990
X065823Y011530
X065823Y014070
X065823Y016610
X065823Y019150
X065823Y021690
X065823Y024230
X065823Y026770
X070903Y011530
X070903Y021690
X083603Y020420
X083603Y022960
X083603Y025500
X083603Y028040
X083603Y030580
X083603Y033120
T004
X051853Y028040
X054393Y028040
X056933Y028040
T005
X078205Y011530
X078205Y015340
T006
X073125Y005180
X083285Y005180
T007
X054393Y010260
M30
