G04 Easy-PC Gerber Version 27.0 Build 5942*
%FSLAX33Y33*%
%MOMM*%
%AMT21*0 Rounded Rectangle Pad at angle 0*4,1,36,-0.56000,-0.76000,0.56000,-0.76000,0.59900,-0.75620,0.63650,-0.74480,0.67110,-0.72630,0.70140,-0.70140,0.72630,-0.67110,0.74480,-0.63650,0.75620,-0.59900,0.76000,-0.56000,0.76000,0.56000,0.75620,0.59900,0.74480,0.63650,0.72630,0.67110,0.70140,0.70140,0.67110,0.72630,0.63650,0.74480,0.59900,0.75620,0.56000,0.76000,-0.56000,0.76000,-0.59900,0.75620,-0.63650,0.74480,-0.67110,0.72630,-0.70140,0.70140,-0.72630,0.67110,-0.74480,0.63650,-0.75620,0.59900,-0.76000,0.56000,-0.76000,-0.56000,-0.75620,-0.59900,-0.74480,-0.63650,-0.72630,-0.67110,-0.70140,-0.70140,-0.67110,-0.72630,-0.63650,-0.74480,-0.59900,-0.75620,-0.56000,-0.76000,0*%
%ADD21T21*%
%AMT72*0 Rounded Rectangle Pad at angle 0*4,1,36,-0.56200,-0.76000,0.56200,-0.76000,0.60100,-0.75620,0.63850,-0.74480,0.67310,-0.72630,0.70340,-0.70140,0.72830,-0.67110,0.74680,-0.63650,0.75820,-0.59900,0.76200,-0.56000,0.76200,0.56000,0.75820,0.59900,0.74680,0.63650,0.72830,0.67110,0.70340,0.70140,0.67310,0.72630,0.63850,0.74480,0.60100,0.75620,0.56200,0.76000,-0.56200,0.76000,-0.60100,0.75620,-0.63850,0.74480,-0.67310,0.72630,-0.70340,0.70140,-0.72830,0.67110,-0.74680,0.63650,-0.75820,0.59900,-0.76200,0.56000,-0.76200,-0.56000,-0.75820,-0.59900,-0.74680,-0.63650,-0.72830,-0.67110,-0.70340,-0.70140,-0.67310,-0.72630,-0.63850,-0.74480,-0.60100,-0.75620,-0.56200,-0.76000,0*%
%ADD72T72*%
%AMT73*0 Rounded Rectangle Pad at angle 0*4,1,36,-0.57500,-0.77500,0.57500,-0.77500,0.61400,-0.77120,0.65150,-0.75980,0.68610,-0.74130,0.71640,-0.71640,0.74130,-0.68610,0.75980,-0.65150,0.77120,-0.61400,0.77500,-0.57500,0.77500,0.57500,0.77120,0.61400,0.75980,0.65150,0.74130,0.68610,0.71640,0.71640,0.68610,0.74130,0.65150,0.75980,0.61400,0.77120,0.57500,0.77500,-0.57500,0.77500,-0.61400,0.77120,-0.65150,0.75980,-0.68610,0.74130,-0.71640,0.71640,-0.74130,0.68610,-0.75980,0.65150,-0.77120,0.61400,-0.77500,0.57500,-0.77500,-0.57500,-0.77120,-0.61400,-0.75980,-0.65150,-0.74130,-0.68610,-0.71640,-0.71640,-0.68610,-0.74130,-0.65150,-0.75980,-0.61400,-0.77120,-0.57500,-0.77500,0*%
%ADD73T73*%
%ADD20R,1.15000X1.40000*%
%ADD17R,1.52400X1.52400*%
%ADD28R,1.52400X1.52400*%
%ADD27R,1.65100X1.65100*%
%ADD25R,2.54000X2.54000*%
%ADD10C,0.20000*%
%ADD13C,0.30000*%
%ADD14C,0.50000*%
%ADD11C,0.70000*%
%ADD12C,1.42240*%
%ADD19C,1.50000*%
%ADD15C,1.52000*%
%ADD16C,1.52400*%
%AMT70*0 Rounded Rectangle Pad at angle 90*4,1,36,0.75000,-0.55000,0.75000,0.55000,0.74620,0.58900,0.73480,0.62650,0.71630,0.66110,0.69140,0.69140,0.66110,0.71630,0.62650,0.73480,0.58900,0.74620,0.55000,0.75000,-0.55000,0.75000,-0.58900,0.74620,-0.62650,0.73480,-0.66110,0.71630,-0.69140,0.69140,-0.71630,0.66110,-0.73480,0.62650,-0.74620,0.58900,-0.75000,0.55000,-0.75000,-0.55000,-0.74620,-0.58900,-0.73480,-0.62650,-0.71630,-0.66110,-0.69140,-0.69140,-0.66110,-0.71630,-0.62650,-0.73480,-0.58900,-0.74620,-0.55000,-0.75000,0.55000,-0.75000,0.58900,-0.74620,0.62650,-0.73480,0.66110,-0.71630,0.69140,-0.69140,0.71630,-0.66110,0.73480,-0.62650,0.74620,-0.58900,0.75000,-0.55000,0*%
%ADD70T70*%
%AMT74*0 Rounded Rectangle Pad at angle 90*4,1,36,0.76000,-0.56000,0.76000,0.56000,0.75620,0.59900,0.74480,0.63650,0.72630,0.67110,0.70140,0.70140,0.67110,0.72630,0.63650,0.74480,0.59900,0.75620,0.56000,0.76000,-0.56000,0.76000,-0.59900,0.75620,-0.63650,0.74480,-0.67110,0.72630,-0.70140,0.70140,-0.72630,0.67110,-0.74480,0.63650,-0.75620,0.59900,-0.76000,0.56000,-0.76000,-0.56000,-0.75620,-0.59900,-0.74480,-0.63650,-0.72630,-0.67110,-0.70140,-0.70140,-0.67110,-0.72630,-0.63650,-0.74480,-0.59900,-0.75620,-0.56000,-0.76000,0.56000,-0.76000,0.59900,-0.75620,0.63650,-0.74480,0.67110,-0.72630,0.70140,-0.70140,0.72630,-0.67110,0.74480,-0.63650,0.75620,-0.59900,0.76000,-0.56000,0*%
%ADD74T74*%
%ADD18O,2.20000X1.50000*%
%ADD71R,1.40000X1.15000*%
%ADD22C,1.60000*%
%ADD26C,1.65100*%
%ADD23C,2.15900*%
%ADD24C,3.55600*%
%ADD29R,1.52400X1.52400*%
X0Y0D02*
D02*
D10*
X810Y63600D02*
Y810D01*
X8559D01*
X7859Y1509D01*
G75*
G02*
X7523Y2322I813J813D01*
G01*
G75*
G02*
Y2332I1148J5D01*
G01*
Y2401D01*
G75*
G02*
X7163Y2760I257J618D01*
G01*
X5824D01*
G75*
G02*
X5002Y3097I-9J1150D01*
G01*
X4049Y4049D01*
G75*
G02*
X3713Y4863I813J813D01*
G01*
G75*
G02*
Y4872I1148J5D01*
G01*
Y39115D01*
X3237D01*
Y40739D01*
X2144Y41832D01*
G75*
G02*
X1808Y42645I813J813D01*
G01*
G75*
G02*
Y42654I1148J5D01*
G01*
Y55336D01*
G75*
G02*
Y55345I1148J5D01*
G01*
G75*
G02*
X2144Y56158I1150J0D01*
G01*
X4049Y58063D01*
G75*
G02*
X4872Y58400I813J-813D01*
G01*
X7144D01*
G75*
G02*
X7766Y58825I623J-244D01*
G01*
X9579D01*
G75*
G02*
X9943Y58717I0J-669D01*
G01*
G75*
G02*
X10306Y58825I364J-561D01*
G01*
X12119D01*
G75*
G02*
X12180Y58822I1J-668D01*
G01*
G75*
G02*
X12178Y58884I665J61D01*
G01*
Y60696D01*
G75*
G02*
X12846Y61365I669J0D01*
G01*
X14659D01*
G75*
G02*
X15023Y61257I0J-669D01*
G01*
G75*
G02*
X15386Y61365I364J-561D01*
G01*
X17199D01*
G75*
G02*
X17563Y61257I0J-669D01*
G01*
G75*
G02*
X17926Y61365I364J-561D01*
G01*
X19739D01*
G75*
G02*
X20102Y61257I0J-669D01*
G01*
G75*
G02*
X20466Y61365I364J-561D01*
G01*
X22279D01*
G75*
G02*
X22643Y61257I0J-669D01*
G01*
G75*
G02*
X23006Y61365I364J-561D01*
G01*
X24819D01*
G75*
G02*
X25183Y61257I0J-669D01*
G01*
G75*
G02*
X25546Y61365I364J-561D01*
G01*
X27359D01*
G75*
G02*
X27723Y61257I0J-669D01*
G01*
G75*
G02*
X28086Y61365I364J-561D01*
G01*
X29899D01*
G75*
G02*
X30263Y61257I0J-669D01*
G01*
G75*
G02*
X30626Y61365I364J-561D01*
G01*
X32439D01*
G75*
G02*
X32803Y61257I0J-669D01*
G01*
G75*
G02*
X33166Y61365I364J-561D01*
G01*
X34979D01*
G75*
G02*
X35343Y61257I0J-669D01*
G01*
G75*
G02*
X35706Y61365I364J-561D01*
G01*
X37519D01*
G75*
G02*
X37883Y61257I0J-669D01*
G01*
G75*
G02*
X38246Y61365I364J-561D01*
G01*
X40059D01*
G75*
G02*
X40423Y61257I0J-669D01*
G01*
G75*
G02*
X40786Y61365I364J-561D01*
G01*
X42599D01*
G75*
G02*
X42963Y61257I0J-669D01*
G01*
G75*
G02*
X43326Y61365I364J-561D01*
G01*
X45139D01*
G75*
G02*
X45503Y61257I0J-669D01*
G01*
G75*
G02*
X45866Y61365I364J-561D01*
G01*
X47679D01*
G75*
G02*
X48043Y61257I0J-669D01*
G01*
G75*
G02*
X48406Y61365I364J-561D01*
G01*
X50219D01*
G75*
G02*
X50583Y61257I0J-669D01*
G01*
G75*
G02*
X50946Y61365I364J-561D01*
G01*
X52759D01*
G75*
G02*
X53123Y61257I0J-669D01*
G01*
G75*
G02*
X53486Y61365I364J-561D01*
G01*
X55299D01*
G75*
G02*
X55663Y61257I0J-669D01*
G01*
G75*
G02*
X56026Y61365I364J-561D01*
G01*
X57839D01*
G75*
G02*
X58203Y61257I0J-669D01*
G01*
G75*
G02*
X58566Y61365I364J-561D01*
G01*
X60379D01*
G75*
G02*
X60743Y61257I0J-669D01*
G01*
G75*
G02*
X61106Y61365I364J-561D01*
G01*
X62919D01*
G75*
G02*
X63283Y61257I0J-669D01*
G01*
G75*
G02*
X63646Y61365I364J-561D01*
G01*
X65459D01*
G75*
G02*
X65823Y61257I0J-669D01*
G01*
G75*
G02*
X66186Y61365I364J-561D01*
G01*
X67999D01*
G75*
G02*
X68363Y61257I0J-669D01*
G01*
G75*
G02*
X68726Y61365I364J-561D01*
G01*
X70539D01*
G75*
G02*
X71207Y60696I0J-669D01*
G01*
Y58884D01*
G75*
G02*
X71100Y58520I-669J0D01*
G01*
G75*
G02*
X71207Y58156I-561J-364D01*
G01*
Y56344D01*
G75*
G02*
X70539Y55675I-669J0D01*
G01*
X68726D01*
G75*
G02*
X68363Y55783I0J669D01*
G01*
G75*
G02*
X67999Y55675I-364J561D01*
G01*
X66186D01*
G75*
G02*
X65823Y55783I0J669D01*
G01*
G75*
G02*
X65459Y55675I-364J561D01*
G01*
X63646D01*
G75*
G02*
X63283Y55783I0J669D01*
G01*
G75*
G02*
X62919Y55675I-364J561D01*
G01*
X61693D01*
Y43280D01*
G75*
G02*
X61406Y42600I-950J0D01*
G01*
X61055Y42249D01*
G75*
G02*
X58203Y41037I-1582J-239D01*
G01*
G75*
G02*
X55333Y42010I-1270J973D01*
G01*
G75*
G02*
X55959Y43280I1600J0D01*
G01*
G75*
G02*
X55663Y43577I973J1270D01*
G01*
G75*
G02*
X54028Y42992I-1270J973D01*
G01*
G75*
G02*
X53786Y42600I-905J288D01*
G01*
X53435Y42249D01*
G75*
G02*
X50583Y41037I-1582J-239D01*
G01*
G75*
G02*
X48043I-1270J973D01*
G01*
G75*
G02*
X45503I-1270J973D01*
G01*
G75*
G02*
X42963I-1270J973D01*
G01*
G75*
G02*
X40423I-1270J973D01*
G01*
G75*
G02*
X37883I-1270J973D01*
G01*
G75*
G02*
X35343I-1270J973D01*
G01*
G75*
G02*
X32803I-1270J973D01*
G01*
G75*
G02*
X30263I-1270J973D01*
G01*
G75*
G02*
X27723I-1270J973D01*
G01*
G75*
G02*
X25183I-1270J973D01*
G01*
G75*
G02*
X22643I-1270J973D01*
G01*
G75*
G02*
X19773Y42010I-1270J973D01*
G01*
G75*
G02*
X20399Y43280I1600J0D01*
G01*
G75*
G02*
X20260Y43400I973J1270D01*
G01*
X19945D01*
G75*
G02*
X17720I-1112J1150D01*
G01*
X12713D01*
Y41334D01*
X9713D01*
Y44084D01*
X10053D01*
X7859Y46277D01*
G75*
G02*
X7523Y47090I813J813D01*
G01*
G75*
G02*
Y47099I1148J5D01*
G01*
Y49392D01*
G75*
G02*
X7165Y49750I259J617D01*
G01*
X6011D01*
G75*
G02*
X4108Y49461I-1149J1150D01*
G01*
Y43121D01*
X4863Y42365D01*
X6488D01*
Y39115D01*
X6013D01*
Y5339D01*
X6291Y5060D01*
X7163D01*
G75*
G02*
X7779Y5470I617J-259D01*
G01*
X9566D01*
G75*
G02*
X9943Y5354I0J-669D01*
G01*
G75*
G02*
X10319Y5470I377J-553D01*
G01*
X12106D01*
G75*
G02*
X12197Y5464I0J-669D01*
G01*
G75*
G02*
X12191Y5559I662J95D01*
G01*
Y7341D01*
G75*
G02*
X12859Y8010I669J0D01*
G01*
X14646D01*
G75*
G02*
X15315Y7341I0J-669D01*
G01*
Y5559D01*
G75*
G02*
X15197Y5180I-669J0D01*
G01*
G75*
G02*
X15315Y4801I-551J-379D01*
G01*
Y3019D01*
G75*
G02*
X15091Y2520I-669J0D01*
G01*
X23144D01*
Y4950D01*
X20887D01*
Y5500D01*
X20379D01*
G75*
G02*
X19714Y4900I-665J69D01*
G01*
X17951D01*
G75*
G02*
X17283Y5569I0J669D01*
G01*
Y7331D01*
G75*
G02*
X17951Y8000I669J0D01*
G01*
X19714D01*
G75*
G02*
X20379Y7400I0J-669D01*
G01*
X20887D01*
Y7950D01*
X25669D01*
Y4950D01*
X25444D01*
Y2520D01*
X30627D01*
X30234Y2913D01*
G75*
G02*
X29948Y3593I663J680D01*
G01*
Y10502D01*
X28282Y12168D01*
X22643D01*
G75*
G02*
X21963Y12454I0J950D01*
G01*
X15629Y18788D01*
G75*
G02*
X15342Y19468I663J680D01*
G01*
Y28023D01*
G75*
G02*
X15023Y28337I950J1287D01*
G01*
G75*
G02*
X12153Y29310I-1270J973D01*
G01*
G75*
G02*
X15023Y30283I1600J0D01*
G01*
G75*
G02*
X16799Y30828I1270J-973D01*
G01*
G75*
G02*
X16891Y30934I763J-565D01*
G01*
X17526Y31569D01*
G75*
G02*
X18209Y31848I672J-672D01*
G01*
X21044D01*
G75*
G02*
X21727Y31569I11J-950D01*
G01*
X22044Y31252D01*
G75*
G02*
X22322Y30598I-672J-672D01*
G01*
G75*
G02*
X22643Y30283I-950J-1288D01*
G01*
G75*
G02*
X25183I1270J-973D01*
G01*
G75*
G02*
X25303Y30422I1270J-973D01*
G01*
Y32828D01*
X24891D01*
Y35952D01*
X28015D01*
Y32828D01*
X27603D01*
Y30460D01*
X27880D01*
G75*
G02*
X30105I1112J-1150D01*
G01*
X33016D01*
G75*
G02*
X35130I1057J-1150D01*
G01*
X37238D01*
G75*
G02*
X38061Y30123I9J-1150D01*
G01*
X42823Y25361D01*
G75*
G02*
X43160Y24548I-813J-813D01*
G01*
G75*
G02*
Y24538I-1151J-5D01*
G01*
Y10140D01*
X55543D01*
G75*
G02*
X56583Y10540I1039J-1150D01*
G01*
X57283D01*
G75*
G02*
X58322Y10140I0J-1550D01*
G01*
X58492D01*
G75*
G02*
X60984Y8990I980J-1150D01*
G01*
G75*
G02*
X58492Y7840I-1511J0D01*
G01*
X58322D01*
G75*
G02*
X57283Y7440I-1039J1150D01*
G01*
X56583D01*
G75*
G02*
X55543Y7840I0J1550D01*
G01*
X43160D01*
Y3284D01*
G75*
G02*
Y3275I-1151J-5D01*
G01*
G75*
G02*
X42823Y2462I-1150J0D01*
G01*
X41171Y810D01*
X77495D01*
Y63600D01*
X810D01*
X66801Y44842D02*
X69924D01*
Y41718D01*
X69513D01*
Y40432D01*
G75*
G02*
Y40423I-1151J-5D01*
G01*
G75*
G02*
X69176Y39609I-1150J0D01*
G01*
X67925Y38359D01*
Y37406D01*
X68046Y37285D01*
G75*
G02*
X71258Y36931I1586J-355D01*
G01*
X72078Y36111D01*
G75*
G02*
X74275Y31448I1047J-2356D01*
G01*
Y25902D01*
G75*
G02*
X73125Y21017I-1150J-2307D01*
G01*
G75*
G02*
X71100Y22000I0J2578D01*
G01*
Y19309D01*
X71935Y18474D01*
G75*
G02*
X74052Y16610I238J-1864D01*
G01*
G75*
G02*
X70293I-1880J0D01*
G01*
G75*
G02*
X70308Y16848I1879J0D01*
G01*
X69137Y18019D01*
G75*
G02*
X68800Y18833I813J813D01*
G01*
G75*
G02*
Y18842I1148J5D01*
G01*
Y26605D01*
X64705D01*
Y30745D01*
X68800D01*
Y33279D01*
X66299Y35780D01*
X61098D01*
Y35305D01*
X57847D01*
Y35780D01*
X35635D01*
Y35368D01*
X32511D01*
Y38492D01*
X35635D01*
Y38080D01*
X57847D01*
Y38556D01*
X61098D01*
Y38080D01*
X65625D01*
Y38826D01*
G75*
G02*
Y38835I1148J5D01*
G01*
G75*
G02*
X65962Y39648I1150J0D01*
G01*
X67213Y40899D01*
Y41718D01*
X66801D01*
Y44842D01*
X53760Y15986D02*
Y18504D01*
G75*
G02*
X53760Y18515I948J14D01*
G01*
G75*
G02*
X54038Y19187I950J0D01*
G01*
X54673Y19822D01*
G75*
G02*
X55356Y20100I672J-672D01*
G01*
X55358D01*
G75*
G02*
X55694Y20420I1225J-950D01*
G01*
G75*
G02*
Y22960I889J1270D01*
G01*
G75*
G02*
Y25500I889J1270D01*
G01*
G75*
G02*
X56583Y28320I889J1270D01*
G01*
X57283D01*
G75*
G02*
X58171Y25500I0J-1550D01*
G01*
G75*
G02*
Y22960I-889J-1270D01*
G01*
G75*
G02*
X58507Y22640I-889J-1270D01*
G01*
X58509D01*
G75*
G02*
X59192Y22362I11J-950D01*
G01*
X59827Y21727D01*
G75*
G02*
X60105Y21055I-672J-672D01*
G01*
G75*
G02*
X60105Y21044I-949J3D01*
G01*
Y19226D01*
X60501Y18830D01*
X65188D01*
G75*
G02*
X65868Y18543I0J-950D01*
G01*
X69978Y14433D01*
G75*
G02*
X70250Y13921I-663J-680D01*
G01*
X70815D01*
Y12830D01*
G75*
G02*
X74017Y11889I1358J-1300D01*
G01*
X76530D01*
Y9139D01*
X76168D01*
G75*
G02*
X75843Y8494I-1138J169D01*
G01*
X75526Y8177D01*
G75*
G02*
X74703Y7840I-813J813D01*
G01*
X73153D01*
G75*
G02*
X70661Y8990I-980J1150D01*
G01*
G75*
G02*
X70669Y9139I1511J0D01*
G01*
X70265D01*
Y9001D01*
G75*
G02*
X70265Y8990I-949J-14D01*
G01*
G75*
G02*
X69987Y8318I-950J0D01*
G01*
X69679Y8010D01*
X70526D01*
G75*
G02*
X71195Y7341I0J-669D01*
G01*
Y5559D01*
G75*
G02*
X70526Y4890I-669J0D01*
G01*
X69267D01*
G75*
G02*
X69026Y4500I-905J290D01*
G01*
X68655Y4129D01*
Y3019D01*
G75*
G02*
X67986Y2350I-669J0D01*
G01*
X66199D01*
G75*
G02*
X65823Y2466I0J669D01*
G01*
G75*
G02*
X65446Y2350I-377J553D01*
G01*
X63659D01*
G75*
G02*
X62990Y3019I0J669D01*
G01*
Y4801D01*
G75*
G02*
X63108Y5180I669J0D01*
G01*
G75*
G02*
X62990Y5559I551J379D01*
G01*
Y7341D01*
G75*
G02*
X63326Y7921I669J0D01*
G01*
X62928Y8318D01*
G75*
G02*
X62650Y8990I672J672D01*
G01*
G75*
G02*
X62650Y9001I948J-3D01*
G01*
Y9139D01*
X62100D01*
Y13120D01*
X58507D01*
G75*
G02*
X57283Y12520I-1225J950D01*
G01*
X56583D01*
G75*
G02*
X55075Y14429I0J1550D01*
G01*
G75*
G02*
X54673Y14668I270J911D01*
G01*
X54038Y15303D01*
G75*
G02*
X53760Y15975I672J672D01*
G01*
G75*
G02*
X53760Y15986I948J-3D01*
G01*
X910Y15335D02*
G36*
X910Y15335D02*
Y910D01*
X8459D01*
X7859Y1509D01*
G75*
G02*
X7523Y2322I813J813D01*
G01*
Y2322D01*
Y2332D01*
Y2401D01*
G75*
G02*
X7163Y2760I257J618D01*
G01*
X5824D01*
G75*
G02*
X5002Y3097I-9J1150D01*
G01*
X4049Y4049D01*
G75*
G02*
X3713Y4862I813J813D01*
G01*
Y4863D01*
Y4872D01*
Y15335D01*
X910D01*
G37*
X6013D02*
G36*
X6013Y15335D02*
Y5339D01*
X6291Y5060D01*
X7163D01*
G75*
G02*
X7779Y5470I617J-259D01*
G01*
X9566D01*
G75*
G02*
X9943Y5354I0J-669D01*
G01*
G75*
G02*
X10319Y5470I377J-552D01*
G01*
X12106D01*
G75*
G02*
X12197Y5464I-1J-679D01*
G01*
G75*
G02*
X12191Y5559I660J95D01*
G01*
Y5559D01*
Y7341D01*
G75*
G02*
X12859Y8010I669J0D01*
G01*
X14646D01*
G75*
G02*
X15315Y7341I0J-669D01*
G01*
Y5559D01*
G75*
G02*
X15197Y5180I-670J0D01*
G01*
G75*
G02*
X15315Y4801I-552J-379D01*
G01*
Y3019D01*
G75*
G02*
X15091Y2520I-669J0D01*
G01*
X23144D01*
Y4950D01*
X20887D01*
Y5500D01*
X20379D01*
G75*
G02*
X19714Y4900I-665J69D01*
G01*
X17951D01*
G75*
G02*
X17283Y5569I0J669D01*
G01*
Y7331D01*
G75*
G02*
X17951Y8000I669J0D01*
G01*
X19714D01*
G75*
G02*
X20379Y7400I0J-669D01*
G01*
X20887D01*
Y7950D01*
X25669D01*
Y4950D01*
X25444D01*
Y2520D01*
X30627D01*
X30234Y2913D01*
G75*
G02*
X29948Y3593I664J680D01*
G01*
Y10502D01*
X28282Y12168D01*
X22643D01*
G75*
G02*
X21963Y12454I0J950D01*
G01*
X19082Y15335D01*
X6013D01*
G37*
X42823Y2462D02*
G36*
X42823Y2462D02*
X41271Y910D01*
X77395D01*
Y15335D01*
X73553D01*
G75*
G02*
X70792I-1381J1275D01*
G01*
X69076D01*
X69978Y14433D01*
G75*
G02*
X70250Y13921I-663J-680D01*
G01*
X70815D01*
Y12830D01*
G75*
G02*
X74017Y11889I1358J-1300D01*
G01*
X76530D01*
Y9139D01*
X76168D01*
G75*
G02*
X75843Y8494I-1138J169D01*
G01*
X75526Y8177D01*
G75*
G02*
X74703Y7840I-813J813D01*
G01*
X73153D01*
G75*
G02*
X70661Y8990I-980J1150D01*
G01*
G75*
G02*
X70669Y9139I1544J-2D01*
G01*
X70265D01*
Y9001D01*
G75*
G02*
X70265Y8993I-323J-8D01*
G01*
G75*
G02*
Y8990I-331J-1D01*
G01*
Y8990D01*
G75*
G02*
X69987Y8318I-950J0D01*
G01*
X69679Y8010D01*
X70526D01*
G75*
G02*
X71195Y7341I0J-669D01*
G01*
Y5559D01*
G75*
G02*
X70526Y4890I-669J0D01*
G01*
X69267D01*
G75*
G02*
X69026Y4500I-905J291D01*
G01*
X68655Y4129D01*
Y3019D01*
G75*
G02*
X67986Y2350I-669J0D01*
G01*
X66199D01*
G75*
G02*
X65823Y2466I0J669D01*
G01*
G75*
G02*
X65446Y2350I-377J552D01*
G01*
X63659D01*
G75*
G02*
X62990Y3019I0J669D01*
G01*
Y4801D01*
G75*
G02*
X63108Y5180I670J0D01*
G01*
G75*
G02*
X62990Y5559I552J379D01*
G01*
Y7341D01*
G75*
G02*
X63326Y7921I669J0D01*
G01*
X62928Y8318D01*
G75*
G02*
X62650Y8990I671J672D01*
G01*
Y8990D01*
G75*
G02*
Y8993I331J2D01*
G01*
G75*
G02*
X62650Y9001I323J0D01*
G01*
Y9139D01*
X62100D01*
Y13120D01*
X58507D01*
G75*
G02*
X57283Y12520I-1225J950D01*
G01*
X56583D01*
G75*
G02*
X55033Y14070I0J1550D01*
G01*
G75*
G02*
X55075Y14429I1550J0D01*
G01*
G75*
G02*
X54673Y14668I270J910D01*
G01*
X54038Y15303D01*
G75*
G02*
X54008Y15335I671J672D01*
G01*
X43160D01*
Y10140D01*
X55543D01*
G75*
G02*
X56583Y10540I1039J-1150D01*
G01*
X57283D01*
G75*
G02*
X58322Y10140I0J-1550D01*
G01*
X58492D01*
G75*
G02*
X60984Y8990I980J-1150D01*
G01*
G75*
G02*
X58492Y7840I-1511J0D01*
G01*
X58322D01*
G75*
G02*
X57283Y7440I-1039J1150D01*
G01*
X56583D01*
G75*
G02*
X55543Y7840I0J1551D01*
G01*
X43160D01*
Y3284D01*
Y3275D01*
Y3275D01*
G75*
G02*
X42823Y2462I-1150J0D01*
G01*
G37*
X910Y29786D02*
G36*
X910Y29786D02*
Y15335D01*
X3713D01*
Y29786D01*
X910D01*
G37*
X6013D02*
G36*
X6013Y29786D02*
Y15335D01*
X19082D01*
X15629Y18788D01*
G75*
G02*
X15342Y19468I664J680D01*
G01*
Y28023D01*
G75*
G02*
X15023Y28337I947J1284D01*
G01*
G75*
G02*
X12153Y29310I-1270J973D01*
G01*
Y29310D01*
Y29310D01*
G75*
G02*
X12225Y29786I1600J0D01*
G01*
X6013D01*
G37*
X38398D02*
G36*
X38398Y29786D02*
X42823Y25361D01*
G75*
G02*
X43160Y24548I-813J-813D01*
G01*
Y24548D01*
Y24538D01*
Y15335D01*
X54008D01*
G75*
G02*
X53760Y15975I702J640D01*
G01*
Y15975D01*
G75*
G02*
Y15978I331J2D01*
G01*
G75*
G02*
X53760Y15986I323J0D01*
G01*
Y18504D01*
G75*
G02*
X53760Y18512I327J8D01*
G01*
G75*
G02*
Y18515I320J1D01*
G01*
Y18515D01*
G75*
G02*
X54038Y19187I950J0D01*
G01*
X54673Y19822D01*
G75*
G02*
X55356Y20100I672J-672D01*
G01*
X55358D01*
G75*
G02*
X55694Y20420I1227J-952D01*
G01*
G75*
G02*
X55033Y21690I889J1270D01*
G01*
G75*
G02*
X55694Y22960I1550J0D01*
G01*
G75*
G02*
X55033Y24230I889J1270D01*
G01*
G75*
G02*
X55694Y25500I1550J0D01*
G01*
G75*
G02*
X55033Y26770I889J1270D01*
G01*
G75*
G02*
X56583Y28320I1550J0D01*
G01*
X57283D01*
G75*
G02*
X58833Y26770I0J-1550D01*
G01*
G75*
G02*
X58171Y25500I-1550J0D01*
G01*
G75*
G02*
X58833Y24230I-889J-1270D01*
G01*
G75*
G02*
X58171Y22960I-1550J0D01*
G01*
G75*
G02*
X58507Y22640I-886J-1267D01*
G01*
X58509D01*
G75*
G02*
X59192Y22362I11J-950D01*
G01*
X59827Y21727D01*
G75*
G02*
X60105Y21055I-671J-672D01*
G01*
Y21055D01*
G75*
G02*
Y21052I-320J-1D01*
G01*
G75*
G02*
X60105Y21044I-327J-1D01*
G01*
Y19226D01*
X60501Y18830D01*
X65188D01*
G75*
G02*
X65868Y18543I0J-950D01*
G01*
X69076Y15335D01*
X70792D01*
G75*
G02*
X70293Y16610I1381J1275D01*
G01*
G75*
G02*
X70308Y16848I1895J-1D01*
G01*
X69137Y18019D01*
G75*
G02*
X68800Y18832I813J813D01*
G01*
Y18833D01*
Y18842D01*
Y26605D01*
X64705D01*
Y29786D01*
X38398D01*
G37*
X71100Y22000D02*
G36*
X71100Y22000D02*
Y19309D01*
X71935Y18474D01*
G75*
G02*
X74052Y16610I238J-1864D01*
G01*
G75*
G02*
X73553Y15335I-1880J0D01*
G01*
X77395D01*
Y29786D01*
X74275D01*
Y25902D01*
G75*
G02*
X75703Y23595I-1150J-2307D01*
G01*
G75*
G02*
X73125Y21017I-2578J0D01*
G01*
G75*
G02*
X71100Y22000I0J2578D01*
G01*
G37*
X910Y63500D02*
G36*
X910Y63500D02*
Y29786D01*
X3713D01*
Y39115D01*
X3237D01*
Y40739D01*
X2144Y41832D01*
G75*
G02*
X1808Y42645I813J813D01*
G01*
Y42645D01*
Y42654D01*
Y55336D01*
Y55345D01*
Y55345D01*
G75*
G02*
X2144Y56158I1150J0D01*
G01*
X4049Y58063D01*
G75*
G02*
X4872Y58400I813J-813D01*
G01*
X7144D01*
G75*
G02*
X7766Y58825I623J-244D01*
G01*
X9579D01*
G75*
G02*
X9943Y58717I0J-670D01*
G01*
G75*
G02*
X10306Y58825I364J-562D01*
G01*
X12119D01*
G75*
G02*
X12180Y58822I0J-680D01*
G01*
G75*
G02*
X12178Y58884I677J62D01*
G01*
Y60696D01*
G75*
G02*
X12846Y61365I669J0D01*
G01*
X14659D01*
G75*
G02*
X15023Y61257I0J-670D01*
G01*
G75*
G02*
X15386Y61365I364J-562D01*
G01*
X17199D01*
G75*
G02*
X17563Y61257I0J-670D01*
G01*
G75*
G02*
X17926Y61365I364J-562D01*
G01*
X19739D01*
G75*
G02*
X20102Y61257I0J-670D01*
G01*
G75*
G02*
X20466Y61365I364J-562D01*
G01*
X22279D01*
G75*
G02*
X22643Y61257I0J-670D01*
G01*
G75*
G02*
X23006Y61365I364J-562D01*
G01*
X24819D01*
G75*
G02*
X25183Y61257I0J-670D01*
G01*
G75*
G02*
X25546Y61365I364J-562D01*
G01*
X27359D01*
G75*
G02*
X27723Y61257I0J-670D01*
G01*
G75*
G02*
X28086Y61365I364J-562D01*
G01*
X29899D01*
G75*
G02*
X30263Y61257I0J-670D01*
G01*
G75*
G02*
X30626Y61365I364J-562D01*
G01*
X32439D01*
G75*
G02*
X32803Y61257I0J-670D01*
G01*
G75*
G02*
X33166Y61365I364J-562D01*
G01*
X34979D01*
G75*
G02*
X35343Y61257I0J-670D01*
G01*
G75*
G02*
X35706Y61365I364J-562D01*
G01*
X37519D01*
G75*
G02*
X37883Y61257I0J-670D01*
G01*
G75*
G02*
X38246Y61365I364J-562D01*
G01*
X40059D01*
G75*
G02*
X40423Y61257I0J-670D01*
G01*
G75*
G02*
X40786Y61365I364J-562D01*
G01*
X42599D01*
G75*
G02*
X42963Y61257I0J-670D01*
G01*
G75*
G02*
X43326Y61365I364J-562D01*
G01*
X45139D01*
G75*
G02*
X45503Y61257I0J-670D01*
G01*
G75*
G02*
X45866Y61365I364J-562D01*
G01*
X47679D01*
G75*
G02*
X48043Y61257I0J-670D01*
G01*
G75*
G02*
X48406Y61365I364J-562D01*
G01*
X50219D01*
G75*
G02*
X50583Y61257I0J-670D01*
G01*
G75*
G02*
X50946Y61365I364J-562D01*
G01*
X52759D01*
G75*
G02*
X53123Y61257I0J-670D01*
G01*
G75*
G02*
X53486Y61365I364J-562D01*
G01*
X55299D01*
G75*
G02*
X55663Y61257I0J-670D01*
G01*
G75*
G02*
X56026Y61365I364J-562D01*
G01*
X57839D01*
G75*
G02*
X58203Y61257I0J-670D01*
G01*
G75*
G02*
X58566Y61365I364J-562D01*
G01*
X60379D01*
G75*
G02*
X60743Y61257I0J-670D01*
G01*
G75*
G02*
X61106Y61365I364J-562D01*
G01*
X62919D01*
G75*
G02*
X63283Y61257I0J-670D01*
G01*
G75*
G02*
X63646Y61365I364J-562D01*
G01*
X65459D01*
G75*
G02*
X65823Y61257I0J-670D01*
G01*
G75*
G02*
X66186Y61365I364J-562D01*
G01*
X67999D01*
G75*
G02*
X68363Y61257I0J-670D01*
G01*
G75*
G02*
X68726Y61365I364J-562D01*
G01*
X70539D01*
G75*
G02*
X71207Y60696I0J-669D01*
G01*
Y58884D01*
G75*
G02*
X71100Y58520I-670J0D01*
G01*
G75*
G02*
X71207Y58156I-562J-364D01*
G01*
Y56344D01*
G75*
G02*
X70539Y55675I-669J0D01*
G01*
X68726D01*
G75*
G02*
X68363Y55783I0J670D01*
G01*
G75*
G02*
X67999Y55675I-364J562D01*
G01*
X66186D01*
G75*
G02*
X65823Y55783I0J670D01*
G01*
G75*
G02*
X65459Y55675I-364J562D01*
G01*
X63646D01*
G75*
G02*
X63283Y55783I0J670D01*
G01*
G75*
G02*
X62919Y55675I-364J562D01*
G01*
X61693D01*
Y43280D01*
G75*
G02*
X61406Y42600I-950J0D01*
G01*
X61055Y42249D01*
G75*
G02*
X61073Y42010I-1582J-239D01*
G01*
G75*
G02*
X58203Y41037I-1600J0D01*
G01*
G75*
G02*
X55333Y42010I-1270J973D01*
G01*
Y42010D01*
Y42010D01*
G75*
G02*
X55959Y43280I1600J0D01*
G01*
G75*
G02*
X55663Y43577I970J1267D01*
G01*
G75*
G02*
X54028Y42992I-1270J974D01*
G01*
G75*
G02*
X53786Y42600I-905J288D01*
G01*
X53435Y42249D01*
G75*
G02*
X53453Y42010I-1582J-239D01*
G01*
G75*
G02*
X50583Y41037I-1600J0D01*
G01*
G75*
G02*
X48043I-1270J973D01*
G01*
G75*
G02*
X45503I-1270J973D01*
G01*
G75*
G02*
X42963I-1270J973D01*
G01*
G75*
G02*
X40423I-1270J973D01*
G01*
G75*
G02*
X37883I-1270J973D01*
G01*
G75*
G02*
X35343I-1270J973D01*
G01*
G75*
G02*
X32803I-1270J973D01*
G01*
G75*
G02*
X30263I-1270J973D01*
G01*
G75*
G02*
X27723I-1270J973D01*
G01*
G75*
G02*
X25183I-1270J973D01*
G01*
G75*
G02*
X22643I-1270J973D01*
G01*
G75*
G02*
X19773Y42010I-1270J973D01*
G01*
Y42010D01*
Y42010D01*
G75*
G02*
X20399Y43280I1600J0D01*
G01*
G75*
G02*
X20260Y43400I980J1277D01*
G01*
X19945D01*
G75*
G02*
X17720I-1112J1150D01*
G01*
X12713D01*
Y41334D01*
X9713D01*
Y44084D01*
X10053D01*
X7859Y46277D01*
G75*
G02*
X7523Y47090I813J813D01*
G01*
Y47090D01*
Y47099D01*
Y49392D01*
G75*
G02*
X7165Y49750I259J617D01*
G01*
X6011D01*
G75*
G02*
X4108Y49461I-1149J1150D01*
G01*
Y43121D01*
X4863Y42365D01*
X6488D01*
Y39115D01*
X6013D01*
Y29786D01*
X12225D01*
G75*
G02*
X15023Y30283I1528J-476D01*
G01*
G75*
G02*
X16799Y30828I1270J-973D01*
G01*
G75*
G02*
X16891Y30934I749J-553D01*
G01*
X17526Y31569D01*
G75*
G02*
X18209Y31848I672J-672D01*
G01*
X21044D01*
G75*
G02*
X21727Y31569I11J-950D01*
G01*
X22044Y31252D01*
G75*
G02*
X22322Y30598I-671J-672D01*
G01*
G75*
G02*
X22643Y30283I-952J-1290D01*
G01*
G75*
G02*
X25183I1270J-973D01*
G01*
G75*
G02*
X25303Y30422I1277J-980D01*
G01*
Y32828D01*
X24891D01*
Y35952D01*
X28015D01*
Y32828D01*
X27603D01*
Y30460D01*
X27880D01*
G75*
G02*
X30105I1112J-1150D01*
G01*
X33016D01*
G75*
G02*
X35130I1057J-1150D01*
G01*
X37238D01*
G75*
G02*
X38061Y30123I10J-1150D01*
G01*
X38398Y29786D01*
X64705D01*
Y30745D01*
X68800D01*
Y33279D01*
X66299Y35780D01*
X61098D01*
Y35305D01*
X57847D01*
Y35780D01*
X35635D01*
Y35368D01*
X32511D01*
Y38492D01*
X35635D01*
Y38080D01*
X57847D01*
Y38556D01*
X61098D01*
Y38080D01*
X65625D01*
Y38826D01*
Y38835D01*
Y38835D01*
G75*
G02*
X65962Y39648I1150J0D01*
G01*
X67213Y40899D01*
Y41718D01*
X66801D01*
Y44842D01*
X69924D01*
Y41718D01*
X69513D01*
Y40432D01*
Y40423D01*
Y40422D01*
G75*
G02*
X69176Y39609I-1150J0D01*
G01*
X67925Y38359D01*
Y37406D01*
X68046Y37285D01*
G75*
G02*
X71258Y36931I1586J-355D01*
G01*
X72078Y36111D01*
G75*
G02*
X75703Y33755I1047J-2356D01*
G01*
G75*
G02*
X74275Y31448I-2578J0D01*
G01*
Y29786D01*
X77395D01*
Y63500D01*
X910D01*
G37*
X810Y88608D02*
Y66140D01*
X77495D01*
Y88608D01*
X57676D01*
G75*
G02*
X57746Y88543I-744J-877D01*
G01*
X59016Y87273D01*
G75*
G02*
X59353Y86460I-813J-813D01*
G01*
G75*
G02*
Y86451I-1151J-5D01*
G01*
Y79961D01*
X59703D01*
Y77211D01*
X56703D01*
Y79961D01*
X57053D01*
Y85984D01*
X56456Y86580D01*
X55543D01*
Y86302D01*
G75*
G02*
X55366Y83920I-1150J-1112D01*
G01*
G75*
G02*
Y81380I-973J-1270D01*
G01*
G75*
G02*
Y78840I-973J-1270D01*
G01*
G75*
G02*
Y76300I-973J-1270D01*
G01*
G75*
G02*
Y73760I-973J-1270D01*
G01*
G75*
G02*
X54393Y70890I-973J-1270D01*
G01*
G75*
G02*
X53419Y73760I0J1600D01*
G01*
G75*
G02*
X53105Y74080I973J1270D01*
G01*
X51611D01*
X51254Y73723D01*
G75*
G02*
X50571Y73445I-672J672D01*
G01*
X44879D01*
G75*
G02*
X44196Y73723I-11J950D01*
G01*
X43561Y74358D01*
G75*
G02*
X43283Y75013I672J672D01*
G01*
G75*
G02*
X43259Y77570I950J1288D01*
G01*
G75*
G02*
X42963Y77867I973J1270D01*
G01*
G75*
G02*
X40423I-1270J973D01*
G01*
G75*
G02*
X40126Y77570I-1270J973D01*
G01*
G75*
G02*
X40103Y75013I-973J-1270D01*
G01*
Y71190D01*
G75*
G02*
X40715Y69950I-950J-1240D01*
G01*
G75*
G02*
X37883Y69041I-1562J0D01*
G01*
G75*
G02*
X35343I-1270J909D01*
G01*
G75*
G02*
X32803I-1270J909D01*
G01*
G75*
G02*
X30263I-1270J909D01*
G01*
G75*
G02*
X27723I-1270J909D01*
G01*
G75*
G02*
X25183I-1270J909D01*
G01*
G75*
G02*
X22643I-1270J909D01*
G01*
G75*
G02*
X20102I-1270J909D01*
G01*
G75*
G02*
X17563I-1270J909D01*
G01*
G75*
G02*
X15023I-1270J909D01*
G01*
G75*
G02*
X12483I-1270J909D01*
G01*
G75*
G02*
X9943I-1270J909D01*
G01*
G75*
G02*
X7111Y69950I-1270J909D01*
G01*
G75*
G02*
X7723Y71190I1562J0D01*
G01*
Y75013D01*
G75*
G02*
X7699Y77570I950J1287D01*
G01*
G75*
G02*
X7560Y77690I973J1270D01*
G01*
X7245D01*
G75*
G02*
X4532Y78840I-1112J1150D01*
G01*
G75*
G02*
X7245Y79990I1600J0D01*
G01*
X7523D01*
Y84133D01*
G75*
G02*
Y86247I1150J1057D01*
G01*
Y86451D01*
G75*
G02*
Y86460I1148J5D01*
G01*
G75*
G02*
X7859Y87273I1150J0D01*
G01*
X9129Y88543D01*
G75*
G02*
X9199Y88608I813J-813D01*
G01*
X810D01*
G36*
X810Y88608D02*
Y66140D01*
X77495D01*
Y88608D01*
X57676D01*
G75*
G02*
X57746Y88543I-744J-877D01*
G01*
X59016Y87273D01*
G75*
G02*
X59353Y86460I-813J-813D01*
G01*
G75*
G02*
Y86451I-1151J-5D01*
G01*
Y79961D01*
X59703D01*
Y77211D01*
X56703D01*
Y79961D01*
X57053D01*
Y85984D01*
X56456Y86580D01*
X55543D01*
Y86302D01*
G75*
G02*
X55366Y83920I-1150J-1112D01*
G01*
G75*
G02*
Y81380I-973J-1270D01*
G01*
G75*
G02*
Y78840I-973J-1270D01*
G01*
G75*
G02*
Y76300I-973J-1270D01*
G01*
G75*
G02*
Y73760I-973J-1270D01*
G01*
G75*
G02*
X54393Y70890I-973J-1270D01*
G01*
G75*
G02*
X53419Y73760I0J1600D01*
G01*
G75*
G02*
X53105Y74080I973J1270D01*
G01*
X51611D01*
X51254Y73723D01*
G75*
G02*
X50571Y73445I-672J672D01*
G01*
X44879D01*
G75*
G02*
X44196Y73723I-11J950D01*
G01*
X43561Y74358D01*
G75*
G02*
X43283Y75013I672J672D01*
G01*
G75*
G02*
X43259Y77570I950J1288D01*
G01*
G75*
G02*
X42963Y77867I973J1270D01*
G01*
G75*
G02*
X40423I-1270J973D01*
G01*
G75*
G02*
X40126Y77570I-1270J973D01*
G01*
G75*
G02*
X40103Y75013I-973J-1270D01*
G01*
Y71190D01*
G75*
G02*
X40715Y69950I-950J-1240D01*
G01*
G75*
G02*
X37883Y69041I-1562J0D01*
G01*
G75*
G02*
X35343I-1270J909D01*
G01*
G75*
G02*
X32803I-1270J909D01*
G01*
G75*
G02*
X30263I-1270J909D01*
G01*
G75*
G02*
X27723I-1270J909D01*
G01*
G75*
G02*
X25183I-1270J909D01*
G01*
G75*
G02*
X22643I-1270J909D01*
G01*
G75*
G02*
X20102I-1270J909D01*
G01*
G75*
G02*
X17563I-1270J909D01*
G01*
G75*
G02*
X15023I-1270J909D01*
G01*
G75*
G02*
X12483I-1270J909D01*
G01*
G75*
G02*
X9943I-1270J909D01*
G01*
G75*
G02*
X7111Y69950I-1270J909D01*
G01*
G75*
G02*
X7723Y71190I1562J0D01*
G01*
Y75013D01*
G75*
G02*
X7699Y77570I950J1287D01*
G01*
G75*
G02*
X7560Y77690I973J1270D01*
G01*
X7245D01*
G75*
G02*
X4532Y78840I-1112J1150D01*
G01*
G75*
G02*
X7245Y79990I1600J0D01*
G01*
X7523D01*
Y84133D01*
G75*
G02*
Y86247I1150J1057D01*
G01*
Y86451D01*
G75*
G02*
Y86460I1148J5D01*
G01*
G75*
G02*
X7859Y87273I1150J0D01*
G01*
X9129Y88543D01*
G75*
G02*
X9199Y88608I813J-813D01*
G01*
X810D01*
G37*
X4108Y54869D02*
Y52340D01*
G75*
G02*
X6011Y52050I755J-1440D01*
G01*
X7165D01*
G75*
G02*
X7781Y52460I617J-259D01*
G01*
X9564D01*
G75*
G02*
X10156Y52102I0J-669D01*
G01*
G75*
G02*
X12253Y52116I1056J-1202D01*
G01*
Y55689D01*
G75*
G02*
X12119Y55675I-134J655D01*
G01*
X10306D01*
G75*
G02*
X9943Y55783I0J669D01*
G01*
G75*
G02*
X9579Y55675I-364J561D01*
G01*
X7766D01*
G75*
G02*
X7144Y56100I0J669D01*
G01*
X5339D01*
X4108Y54869D01*
G36*
X4108Y54869D02*
Y52340D01*
G75*
G02*
X6011Y52050I755J-1440D01*
G01*
X7165D01*
G75*
G02*
X7781Y52460I617J-259D01*
G01*
X9564D01*
G75*
G02*
X10156Y52102I0J-669D01*
G01*
G75*
G02*
X12253Y52116I1056J-1202D01*
G01*
Y55689D01*
G75*
G02*
X12119Y55675I-134J655D01*
G01*
X10306D01*
G75*
G02*
X9943Y55783I0J669D01*
G01*
G75*
G02*
X9579Y55675I-364J561D01*
G01*
X7766D01*
G75*
G02*
X7144Y56100I0J669D01*
G01*
X5339D01*
X4108Y54869D01*
G37*
X9823Y49392D02*
Y47566D01*
X11689Y45700D01*
X17720D01*
G75*
G02*
X19945I1112J-1150D01*
G01*
X20260D01*
G75*
G02*
X21143Y46133I1112J-1150D01*
G01*
Y50116D01*
X21693D01*
Y55675D01*
X20466D01*
G75*
G02*
X20102Y55783I0J669D01*
G01*
G75*
G02*
X19739Y55675I-364J561D01*
G01*
X17926D01*
G75*
G02*
X17563Y55783I0J669D01*
G01*
G75*
G02*
X17471Y55733I-364J561D01*
G01*
G75*
G02*
X15253Y53547I-1178J-1023D01*
G01*
Y52063D01*
G75*
G02*
X17343Y49746I1040J-1163D01*
G01*
Y49641D01*
G75*
G02*
X17343Y49630I-1051J-15D01*
G01*
G75*
G02*
X17035Y48888I-1050J0D01*
G01*
X16718Y48570D01*
G75*
G02*
X15964Y48263I-743J743D01*
G01*
X11541D01*
G75*
G02*
X10788Y48570I-11J1050D01*
G01*
X10470Y48888D01*
G75*
G02*
X10162Y49630I743J743D01*
G01*
G75*
G02*
X10163Y49641I1049J-5D01*
G01*
Y49693D01*
G75*
G02*
X10156Y49698I1049J1205D01*
G01*
G75*
G02*
X9823Y49392I-592J311D01*
G01*
G36*
X9823Y49392D02*
Y47566D01*
X11689Y45700D01*
X17720D01*
G75*
G02*
X19945I1112J-1150D01*
G01*
X20260D01*
G75*
G02*
X21143Y46133I1112J-1150D01*
G01*
Y50116D01*
X21693D01*
Y55675D01*
X20466D01*
G75*
G02*
X20102Y55783I0J669D01*
G01*
G75*
G02*
X19739Y55675I-364J561D01*
G01*
X17926D01*
G75*
G02*
X17563Y55783I0J669D01*
G01*
G75*
G02*
X17471Y55733I-364J561D01*
G01*
G75*
G02*
X15253Y53547I-1178J-1023D01*
G01*
Y52063D01*
G75*
G02*
X17343Y49746I1040J-1163D01*
G01*
Y49641D01*
G75*
G02*
X17343Y49630I-1051J-15D01*
G01*
G75*
G02*
X17035Y48888I-1050J0D01*
G01*
X16718Y48570D01*
G75*
G02*
X15964Y48263I-743J743D01*
G01*
X11541D01*
G75*
G02*
X10788Y48570I-11J1050D01*
G01*
X10470Y48888D01*
G75*
G02*
X10162Y49630I743J743D01*
G01*
G75*
G02*
X10163Y49641I1049J-5D01*
G01*
Y49693D01*
G75*
G02*
X10156Y49698I1049J1205D01*
G01*
G75*
G02*
X9823Y49392I-592J311D01*
G01*
G37*
X18513Y21619D02*
Y20179D01*
X23671Y15020D01*
X32498D01*
G75*
G02*
X32834Y15340I1225J-950D01*
G01*
G75*
G02*
Y17880I889J1270D01*
G01*
G75*
G02*
X32498Y18200I889J1270D01*
G01*
X22336D01*
G75*
G02*
X21653Y18478I-11J950D01*
G01*
X18513Y21619D01*
G36*
X18513Y21619D02*
Y20179D01*
X23671Y15020D01*
X32498D01*
G75*
G02*
X32834Y15340I1225J-950D01*
G01*
G75*
G02*
Y17880I889J1270D01*
G01*
G75*
G02*
X32498Y18200I889J1270D01*
G01*
X22336D01*
G75*
G02*
X21653Y18478I-11J950D01*
G01*
X18513Y21619D01*
G37*
X19783Y28023D02*
Y23036D01*
X22719Y20100D01*
X32498D01*
G75*
G02*
X32834Y20420I1225J-950D01*
G01*
G75*
G02*
Y22960I889J1270D01*
G01*
G75*
G02*
Y25500I889J1270D01*
G01*
G75*
G02*
X33023Y28153I889J1270D01*
G01*
G75*
G02*
X33016Y28160I1044J1143D01*
G01*
X30105D01*
G75*
G02*
X27880I-1112J1150D01*
G01*
X27565D01*
G75*
G02*
X25183Y28337I-1112J1150D01*
G01*
G75*
G02*
X22643I-1270J973D01*
G01*
G75*
G02*
X20102I-1270J973D01*
G01*
G75*
G02*
X19783Y28023I-1270J973D01*
G01*
G36*
X19783Y28023D02*
Y23036D01*
X22719Y20100D01*
X32498D01*
G75*
G02*
X32834Y20420I1225J-950D01*
G01*
G75*
G02*
Y22960I889J1270D01*
G01*
G75*
G02*
Y25500I889J1270D01*
G01*
G75*
G02*
X33023Y28153I889J1270D01*
G01*
G75*
G02*
X33016Y28160I1044J1143D01*
G01*
X30105D01*
G75*
G02*
X27880I-1112J1150D01*
G01*
X27565D01*
G75*
G02*
X25183Y28337I-1112J1150D01*
G01*
G75*
G02*
X22643I-1270J973D01*
G01*
G75*
G02*
X20102I-1270J973D01*
G01*
G75*
G02*
X19783Y28023I-1270J973D01*
G01*
G37*
X35122Y28153D02*
G75*
G02*
X35311Y25500I-700J-1383D01*
G01*
G75*
G02*
Y22960I-889J-1270D01*
G01*
G75*
G02*
X35647Y22640I-889J-1270D01*
G01*
X36613D01*
G75*
G02*
X37292Y22353I0J-950D01*
G01*
X40860Y18786D01*
Y24071D01*
X36771Y28160D01*
X35130D01*
G75*
G02*
X35122Y28153I-1051J1136D01*
G01*
G36*
X35122Y28153D02*
G75*
G02*
X35311Y25500I-700J-1383D01*
G01*
G75*
G02*
Y22960I-889J-1270D01*
G01*
G75*
G02*
X35647Y22640I-889J-1270D01*
G01*
X36613D01*
G75*
G02*
X37292Y22353I0J-950D01*
G01*
X40860Y18786D01*
Y24071D01*
X36771Y28160D01*
X35130D01*
G75*
G02*
X35122Y28153I-1051J1136D01*
G01*
G37*
X42405Y86580D02*
G75*
G02*
X42643Y83950I-713J-1390D01*
G01*
Y80127D01*
G75*
G02*
X42963Y79813I-950J-1287D01*
G01*
G75*
G02*
X45503I1270J-973D01*
G01*
G75*
G02*
X48060Y79790I1270J-973D01*
G01*
X48919D01*
X49903Y80773D01*
G75*
G02*
X50583Y81060I680J-663D01*
G01*
X53105D01*
G75*
G02*
X53419Y81380I1287J-950D01*
G01*
G75*
G02*
Y83920I973J1270D01*
G01*
G75*
G02*
X53243Y86302I973J1270D01*
G01*
Y86580D01*
X42405D01*
G36*
X42405Y86580D02*
G75*
G02*
X42643Y83950I-713J-1390D01*
G01*
Y80127D01*
G75*
G02*
X42963Y79813I-950J-1287D01*
G01*
G75*
G02*
X45503I1270J-973D01*
G01*
G75*
G02*
X48060Y79790I1270J-973D01*
G01*
X48919D01*
X49903Y80773D01*
G75*
G02*
X50583Y81060I680J-663D01*
G01*
X53105D01*
G75*
G02*
X53419Y81380I1287J-950D01*
G01*
G75*
G02*
Y83920I973J1270D01*
G01*
G75*
G02*
X53243Y86302I973J1270D01*
G01*
Y86580D01*
X42405D01*
G37*
D02*
D11*
X735Y64870D02*
X77570D01*
X4863Y40740D02*
X2958Y42645D01*
Y55345D01*
X4863Y57250D01*
X8673D01*
X4863Y50900D02*
X8673D01*
X6133Y78840D02*
X8673D01*
Y3910D02*
X5815D01*
X4863Y4863D01*
Y40740D01*
X8673Y3910D02*
Y2322D01*
X9625Y1370D01*
X24294D01*
X8673Y29310D02*
X11213D01*
X8673Y78840D02*
Y86460D01*
X9943Y87730D01*
X54393D01*
X11213Y42709D02*
Y44550D01*
X8673Y47090D01*
Y50900D01*
X11213Y59790D02*
X8673D01*
X13753Y85190D02*
Y78840D01*
X21373Y44550D02*
X11213D01*
X24294Y1370D02*
X40105D01*
X42010Y3275D01*
Y8990D01*
X24294Y6450D02*
Y1370D01*
X26453Y29310D02*
X34072D01*
X26453Y34390D02*
Y29310D01*
X34072D02*
X37248D01*
X42010Y24548D01*
Y8990D01*
X34072Y36930D02*
X59472D01*
X41693Y76300D02*
Y69950D01*
X54393Y67410D02*
X49948D01*
X47408Y69950D01*
X41693D01*
X54393Y87730D02*
Y85190D01*
Y87730D02*
X56932D01*
X58203Y86460D01*
Y78586D01*
X56932Y8990D02*
X59472D01*
X56932D02*
X47281D01*
X42010D01*
X59472Y36930D02*
X66775D01*
X68363Y43280D02*
Y40423D01*
X66775Y38835D01*
Y36930D01*
X69632D02*
X72808Y33755D01*
X73125D01*
X72173Y8990D02*
Y11530D01*
Y16610D02*
X69950Y18833D01*
Y33755D01*
X66775Y36930D01*
X73125Y33755D02*
Y23595D01*
X75030Y10514D02*
Y9307D01*
X74713Y8990D01*
X72173D01*
D02*
D12*
X59472D03*
X72173D03*
D02*
D13*
X8673Y76300D02*
Y69950D01*
X11213Y76300D02*
Y69950D01*
Y85190D02*
Y78840D01*
X13753Y53059D02*
Y50900D01*
Y76300D02*
Y69950D01*
X16293Y54710D02*
X16039D01*
X15658Y55091D01*
X13753D01*
X16293Y76300D02*
Y69950D01*
Y85190D02*
Y78840D01*
X18833Y76300D02*
Y69950D01*
Y78840D02*
Y85190D01*
X21373Y76300D02*
Y69950D01*
Y85190D02*
Y78840D01*
X22262Y6450D02*
X18833D01*
X22643Y46709D02*
Y43280D01*
X21373Y42010D01*
X22643Y48741D02*
Y58520D01*
X21373Y59790D01*
X23913Y53059D02*
Y44550D01*
Y55091D02*
Y57250D01*
Y76300D02*
Y69950D01*
Y78840D02*
Y85190D01*
X25183Y46709D02*
Y43280D01*
X23913Y42010D01*
X25183Y48741D02*
Y58520D01*
X23913Y59790D01*
X26453Y44550D02*
Y50900D01*
Y57250D02*
Y54710D01*
Y76300D02*
Y69950D01*
Y85190D02*
Y78840D01*
X27723Y46709D02*
Y43280D01*
X26453Y42010D01*
X27723Y48741D02*
Y58520D01*
X26453Y59790D01*
X28993Y53059D02*
Y44550D01*
Y55091D02*
Y57250D01*
Y76300D02*
Y69950D01*
Y78840D02*
Y85190D01*
X30263Y46709D02*
Y43280D01*
X28993Y42010D01*
X30263Y48741D02*
Y58520D01*
X28993Y59790D01*
X31533Y53059D02*
Y44550D01*
Y55091D02*
Y57250D01*
Y76300D02*
Y69950D01*
Y85190D02*
Y78840D01*
X32803Y46709D02*
Y43280D01*
X31533Y42010D01*
X32803Y48741D02*
Y58520D01*
X31533Y59790D01*
X34072Y11530D02*
X32485D01*
X31850Y10895D01*
Y4545D01*
X32485Y3910D01*
X34072D01*
Y14070D02*
X23278D01*
X17563Y19785D01*
Y30263D01*
X18198Y30898D01*
X21055D01*
X21373Y30580D01*
Y29310D01*
X34072Y14070D02*
X35978D01*
X36613Y13435D01*
Y6450D01*
X34072Y16610D02*
X36613D01*
X37883Y15340D01*
Y5180D01*
X36613Y3910D01*
X34072Y19150D02*
X22325D01*
X18833Y22643D01*
Y29310D01*
X34072Y19150D02*
X36613D01*
X39153Y16610D01*
Y8038D01*
Y6450D01*
X34072Y21690D02*
X36613D01*
X40423Y17880D01*
Y5180D01*
X39153Y3910D01*
X34072Y53059D02*
Y44550D01*
Y55091D02*
Y57250D01*
Y76300D02*
Y69950D01*
Y78840D02*
Y85190D01*
X35343Y46709D02*
Y43280D01*
X34072Y42010D01*
X35343Y48741D02*
Y58520D01*
X34072Y59790D01*
X36613Y53059D02*
Y44550D01*
Y55091D02*
Y57250D01*
Y76300D02*
Y69950D01*
Y78840D02*
Y85190D01*
X37883Y46709D02*
Y43280D01*
X36613Y42010D01*
X37883Y48741D02*
Y58520D01*
X36613Y59790D01*
X39153Y3910D02*
Y2640D01*
X38835Y2322D01*
X32167D01*
X30898Y3593D01*
Y10895D01*
X28675Y13118D01*
X22643D01*
X16293Y19468D01*
Y29310D01*
X39153Y53059D02*
Y44550D01*
Y55091D02*
Y57250D01*
Y76300D02*
Y69950D01*
Y78840D02*
Y85190D01*
X40423Y46709D02*
Y43280D01*
X39153Y42010D01*
X40423Y48741D02*
Y58520D01*
X39153Y59790D01*
X41693Y53059D02*
Y44550D01*
Y55091D02*
Y57250D01*
Y78840D02*
Y85190D01*
X42963Y46709D02*
Y43280D01*
X41693Y42010D01*
X42963Y48741D02*
Y58520D01*
X41693Y59790D01*
X44233Y53059D02*
Y44550D01*
Y57250D02*
Y55091D01*
X45503Y46709D02*
Y43280D01*
X44233Y42010D01*
X45503Y48741D02*
Y58520D01*
X44233Y59790D01*
X46773Y53059D02*
Y44550D01*
Y55091D02*
Y57250D01*
Y76300D02*
X49630D01*
X50900Y77570D01*
X54393D01*
X46773Y78840D02*
X49313D01*
X50583Y80110D01*
X54393D01*
X48043Y46709D02*
Y43280D01*
X46773Y42010D01*
X48043Y48741D02*
Y58520D01*
X46773Y59790D01*
X49313Y53059D02*
Y44550D01*
Y55091D02*
Y57250D01*
X50583Y46709D02*
Y43280D01*
X49313Y42010D01*
X50583Y48741D02*
Y58520D01*
X49313Y59790D01*
X51853Y53059D02*
Y44550D01*
Y55091D02*
Y57250D01*
X53123Y46709D02*
Y43280D01*
X51853Y42010D01*
X53123Y48741D02*
Y58520D01*
X51853Y59790D01*
X54393Y53059D02*
Y44550D01*
Y55091D02*
Y57250D01*
Y75030D02*
X51218D01*
X50583Y74395D01*
X44868D01*
X44233Y75030D01*
Y76300D01*
X56932Y14070D02*
X62965D01*
X63600Y13435D01*
Y12546D01*
X56932Y16610D02*
X64553D01*
X67410Y13753D01*
Y12546D01*
X56932Y42010D02*
X58203Y43280D01*
Y58520D01*
X56932Y59790D01*
Y44550D02*
Y57250D01*
X59472Y42010D02*
X60743Y43280D01*
Y58520D01*
X59472Y59790D01*
Y44550D02*
Y57250D01*
X64553Y6450D02*
Y8038D01*
X63600Y8990D01*
Y10514D01*
X65505D02*
X65823D01*
Y5180D01*
X64553Y3910D01*
X65505Y12546D02*
Y13753D01*
X63918Y15340D01*
X55345D01*
X54710Y15975D01*
Y18515D01*
X55345Y19150D01*
X56932D01*
X67093Y6450D02*
Y10197D01*
X67410Y10514D01*
X69315D02*
Y8990D01*
X68363Y8038D01*
Y5180D01*
X67093Y3910D01*
X69315Y12546D02*
Y13753D01*
X65188Y17880D01*
X60108D01*
X59155Y18833D01*
Y21055D01*
X58520Y21690D01*
X56932D01*
D02*
D14*
X11213Y50900D02*
Y49630D01*
X11530Y49313D01*
X15975D01*
X16293Y49630D01*
Y50900D01*
D02*
D15*
D03*
Y54710D03*
X26453Y50900D03*
Y54710D03*
D02*
D16*
X8673Y69950D03*
Y85190D03*
X11213Y69950D03*
Y85190D03*
X13753Y69950D03*
Y85190D03*
X16293Y69950D03*
Y85190D03*
X18833Y69950D03*
Y85190D03*
X21373Y69950D03*
Y85190D03*
X23913Y69950D03*
Y85190D03*
X26453Y36930D03*
Y69950D03*
Y85190D03*
X28993Y69950D03*
Y85190D03*
X31533Y69950D03*
Y85190D03*
X34072Y29310D03*
Y69950D03*
Y85190D03*
X36613Y69950D03*
Y85190D03*
X39153Y69950D03*
Y85190D03*
X41693Y69950D03*
Y85190D03*
X70903Y43280D03*
X73443D03*
D02*
D17*
X26453Y34390D03*
D02*
D18*
X34072Y8990D03*
Y11530D03*
Y14070D03*
Y16610D03*
Y19150D03*
Y21690D03*
Y24230D03*
Y26770D03*
X56932Y8990D03*
Y11530D03*
Y14070D03*
Y16610D03*
Y19150D03*
Y21690D03*
Y24230D03*
Y26770D03*
D02*
D19*
X18833Y3910D03*
D02*
D70*
Y6450D03*
D02*
D71*
X11213Y40677D03*
Y42709D03*
X13753Y53059D03*
Y55091D03*
X22643Y46709D03*
Y48741D03*
X23913Y53059D03*
Y55091D03*
X25183Y46709D03*
Y48741D03*
X27723Y46709D03*
Y48741D03*
X28993Y53059D03*
Y55091D03*
X30263Y46709D03*
Y48741D03*
X31533Y53059D03*
Y55091D03*
X32803Y46709D03*
Y48741D03*
X34072Y53059D03*
Y55091D03*
X35343Y46709D03*
Y48741D03*
X36613Y53059D03*
Y55091D03*
X37883Y46709D03*
Y48741D03*
X39153Y53059D03*
Y55091D03*
X40423Y46709D03*
Y48741D03*
X41693Y53059D03*
Y55091D03*
X42963Y46709D03*
Y48741D03*
X44233Y53059D03*
Y55091D03*
X45503Y46709D03*
Y48741D03*
X46773Y53059D03*
Y55091D03*
X48043Y46709D03*
Y48741D03*
X49313Y53059D03*
Y55091D03*
X50583Y46709D03*
Y48741D03*
X51853Y53059D03*
Y55091D03*
X53123Y46709D03*
Y48741D03*
X54393Y53059D03*
Y55091D03*
X58203Y76554D03*
Y78586D03*
X63600Y10514D03*
Y12546D03*
X65505Y10514D03*
Y12546D03*
X67410Y10514D03*
Y12546D03*
X69315Y10514D03*
Y12546D03*
X75030Y10514D03*
Y12546D03*
D02*
D20*
X22262Y6450D03*
X24294D03*
D02*
D21*
X8673Y29310D03*
Y50900D03*
D02*
D22*
X6133Y78840D03*
X8673Y76300D03*
Y78840D03*
X11213Y29310D03*
Y50900D03*
Y76300D03*
Y78840D03*
X13753Y29310D03*
Y50900D03*
Y76300D03*
Y78840D03*
X16293Y29310D03*
Y76300D03*
Y78840D03*
X18833Y29310D03*
Y44550D03*
Y76300D03*
Y78840D03*
X21373Y29310D03*
Y42010D03*
Y44550D03*
Y76300D03*
Y78840D03*
X23913Y29310D03*
Y42010D03*
Y44550D03*
Y76300D03*
Y78840D03*
X26453Y29310D03*
Y42010D03*
Y44550D03*
Y76300D03*
Y78840D03*
X28993Y29310D03*
Y42010D03*
Y44550D03*
Y76300D03*
Y78840D03*
X31533Y42010D03*
Y44550D03*
Y76300D03*
Y78840D03*
X34072Y42010D03*
Y44550D03*
Y76300D03*
Y78840D03*
X36613Y42010D03*
Y44550D03*
Y76300D03*
Y78840D03*
X39153Y42010D03*
Y44550D03*
Y76300D03*
Y78840D03*
X41693Y42010D03*
Y44550D03*
Y76300D03*
Y78840D03*
X44233Y42010D03*
Y44550D03*
Y76300D03*
Y78840D03*
X46773Y42010D03*
Y44550D03*
Y76300D03*
Y78840D03*
X49313Y42010D03*
Y44550D03*
X51853Y42010D03*
Y44550D03*
X54393Y42010D03*
Y44550D03*
Y69950D03*
Y72490D03*
Y75030D03*
Y77570D03*
Y80110D03*
Y82650D03*
Y85190D03*
Y87730D03*
X56932Y42010D03*
Y44550D03*
X59472Y42010D03*
Y44550D03*
D02*
D23*
X72173Y11530D03*
Y14070D03*
Y16610D03*
D02*
D24*
X73125Y23595D03*
Y33755D03*
D02*
D25*
X62965Y28675D03*
X66775D03*
D02*
D26*
X4863Y50900D03*
X69632Y36930D03*
D02*
D27*
X4863Y40740D03*
X59472Y36930D03*
D02*
D28*
X34072D03*
D02*
D29*
X68363Y43280D03*
D02*
D72*
X8673Y3910D03*
Y6450D03*
X11213Y3910D03*
Y6450D03*
X13753Y3910D03*
Y6450D03*
X34072Y3910D03*
Y6450D03*
X36613Y3910D03*
Y6450D03*
X39153Y3910D03*
Y6450D03*
X64553Y3910D03*
Y6450D03*
X67093Y3910D03*
Y6450D03*
X69632Y3910D03*
Y6450D03*
D02*
D73*
X6133Y76300D03*
X8673Y57250D03*
Y59790D03*
X11213Y57250D03*
Y59790D03*
X13753Y57250D03*
Y59790D03*
X16293Y57250D03*
Y59790D03*
X18833Y42010D03*
Y57250D03*
Y59790D03*
X21373Y57250D03*
Y59790D03*
X23913Y57250D03*
Y59790D03*
X26453Y57250D03*
Y59790D03*
X28993Y57250D03*
Y59790D03*
X31533Y57250D03*
Y59790D03*
X34072Y57250D03*
Y59790D03*
X36613Y57250D03*
Y59790D03*
X39153Y57250D03*
Y59790D03*
X41693Y57250D03*
Y59790D03*
X44233Y57250D03*
Y59790D03*
X46773Y57250D03*
Y59790D03*
X49313Y57250D03*
Y59790D03*
X51853Y57250D03*
Y59790D03*
X54393Y57250D03*
Y59790D03*
X56932Y57250D03*
Y59790D03*
X59472Y57250D03*
Y59790D03*
X62013Y57250D03*
Y59790D03*
X64553Y57250D03*
Y59790D03*
X67093Y57250D03*
Y59790D03*
X69632Y57250D03*
Y59790D03*
D02*
D74*
X54393Y67410D03*
X0Y0D02*
M02*
