G04 Easy-PC Gerber Version 27.0 Build 5942*
%FSLAX33Y33*%
%MOMM*%
%AMT23*0 Rounded Rectangle Pad at angle 0*4,1,36,-0.56000,-0.76000,0.56000,-0.76000,0.59900,-0.75620,0.63650,-0.74480,0.67110,-0.72630,0.70140,-0.70140,0.72630,-0.67110,0.74480,-0.63650,0.75620,-0.59900,0.76000,-0.56000,0.76000,0.56000,0.75620,0.59900,0.74480,0.63650,0.72630,0.67110,0.70140,0.70140,0.67110,0.72630,0.63650,0.74480,0.59900,0.75620,0.56000,0.76000,-0.56000,0.76000,-0.59900,0.75620,-0.63650,0.74480,-0.67110,0.72630,-0.70140,0.70140,-0.72630,0.67110,-0.74480,0.63650,-0.75620,0.59900,-0.76000,0.56000,-0.76000,-0.56000,-0.75620,-0.59900,-0.74480,-0.63650,-0.72630,-0.67110,-0.70140,-0.70140,-0.67110,-0.72630,-0.63650,-0.74480,-0.59900,-0.75620,-0.56000,-0.76000,0*%
%ADD23T23*%
%AMT22*0 Rounded Rectangle Pad at angle 0*4,1,36,-0.60000,-0.80000,0.60000,-0.80000,0.63900,-0.79620,0.67650,-0.78480,0.71110,-0.76630,0.74140,-0.74140,0.76630,-0.71110,0.78480,-0.67650,0.79620,-0.63900,0.80000,-0.60000,0.80000,0.60000,0.79620,0.63900,0.78480,0.67650,0.76630,0.71110,0.74140,0.74140,0.71110,0.76630,0.67650,0.78480,0.63900,0.79620,0.60000,0.80000,-0.60000,0.80000,-0.63900,0.79620,-0.67650,0.78480,-0.71110,0.76630,-0.74140,0.74140,-0.76630,0.71110,-0.78480,0.67650,-0.79620,0.63900,-0.80000,0.60000,-0.80000,-0.60000,-0.79620,-0.63900,-0.78480,-0.67650,-0.76630,-0.71110,-0.74140,-0.74140,-0.71110,-0.76630,-0.67650,-0.78480,-0.63900,-0.79620,-0.60000,-0.80000,0*%
%ADD22T22*%
%ADD19R,1.15000X1.40000*%
%ADD71R,2.54000X2.54000*%
%ADD10C,0.20000*%
%ADD13C,0.30000*%
%ADD14C,0.50000*%
%ADD11C,0.70000*%
%ADD12C,1.52000*%
%ADD17C,1.52400*%
%ADD24C,1.60000*%
%ADD21C,1.65100*%
%ADD26C,1.77800*%
%ADD15C,2.15900*%
%AMT20*0 Rounded Rectangle Pad at angle 90*4,1,36,0.76000,-0.56200,0.76000,0.56200,0.75620,0.60100,0.74480,0.63850,0.72630,0.67310,0.70140,0.70340,0.67110,0.72830,0.63650,0.74680,0.59900,0.75820,0.56000,0.76200,-0.56000,0.76200,-0.59900,0.75820,-0.63650,0.74680,-0.67110,0.72830,-0.70140,0.70340,-0.72630,0.67310,-0.74480,0.63850,-0.75620,0.60100,-0.76000,0.56200,-0.76000,-0.56200,-0.75620,-0.60100,-0.74480,-0.63850,-0.72630,-0.67310,-0.70140,-0.70340,-0.67110,-0.72830,-0.63650,-0.74680,-0.59900,-0.75820,-0.56000,-0.76200,0.56000,-0.76200,0.59900,-0.75820,0.63650,-0.74680,0.67110,-0.72830,0.70140,-0.70340,0.72630,-0.67310,0.74480,-0.63850,0.75620,-0.60100,0.76000,-0.56200,0*%
%ADD20T20*%
%AMT28*0 Rounded Rectangle Pad at angle 90*4,1,36,0.77500,-0.57500,0.77500,0.57500,0.77120,0.61400,0.75980,0.65150,0.74130,0.68610,0.71640,0.71640,0.68610,0.74130,0.65150,0.75980,0.61400,0.77120,0.57500,0.77500,-0.57500,0.77500,-0.61400,0.77120,-0.65150,0.75980,-0.68610,0.74130,-0.71640,0.71640,-0.74130,0.68610,-0.75980,0.65150,-0.77120,0.61400,-0.77500,0.57500,-0.77500,-0.57500,-0.77120,-0.61400,-0.75980,-0.65150,-0.74130,-0.68610,-0.71640,-0.71640,-0.68610,-0.74130,-0.65150,-0.75980,-0.61400,-0.77120,-0.57500,-0.77500,0.57500,-0.77500,0.61400,-0.77120,0.65150,-0.75980,0.68610,-0.74130,0.71640,-0.71640,0.74130,-0.68610,0.75980,-0.65150,0.77120,-0.61400,0.77500,-0.57500,0*%
%ADD28T28*%
%AMT25*0 Rounded Rectangle Pad at angle 90*4,1,36,0.80000,-0.60000,0.80000,0.60000,0.79620,0.63900,0.78480,0.67650,0.76630,0.71110,0.74140,0.74140,0.71110,0.76630,0.67650,0.78480,0.63900,0.79620,0.60000,0.80000,-0.60000,0.80000,-0.63900,0.79620,-0.67650,0.78480,-0.71110,0.76630,-0.74140,0.74140,-0.76630,0.71110,-0.78480,0.67650,-0.79620,0.63900,-0.80000,0.60000,-0.80000,-0.60000,-0.79620,-0.63900,-0.78480,-0.67650,-0.76630,-0.71110,-0.74140,-0.74140,-0.71110,-0.76630,-0.67650,-0.78480,-0.63900,-0.79620,-0.60000,-0.80000,0.60000,-0.80000,0.63900,-0.79620,0.67650,-0.78480,0.71110,-0.76630,0.74140,-0.74140,0.76630,-0.71110,0.78480,-0.67650,0.79620,-0.63900,0.80000,-0.60000,0*%
%ADD25T25*%
%ADD18O,2.20000X1.50000*%
%ADD29R,2.19960X0.59940*%
%ADD16R,1.52400X1.52400*%
%ADD70C,3.55600*%
%ADD27C,4.00000*%
X0Y0D02*
D02*
D10*
X810Y15050D02*
Y810D01*
X4255D01*
X2850Y2215D01*
G75*
G02*
X2542Y2958I743J743D01*
G01*
G75*
G02*
X2543Y2968I1049J-5D01*
G01*
Y4988D01*
X2131D01*
Y7912D01*
X2543D01*
Y14269D01*
G75*
G02*
X2521Y14290I1050J1071D01*
G01*
X2016D01*
G75*
G02*
X1263Y14598I-11J1050D01*
G01*
X810Y15050D01*
G36*
X810Y15050D02*
Y810D01*
X4255D01*
X2850Y2215D01*
G75*
G02*
X2542Y2958I743J743D01*
G01*
G75*
G02*
X2543Y2968I1049J-5D01*
G01*
Y4988D01*
X2131D01*
Y7912D01*
X2543D01*
Y14269D01*
G75*
G02*
X2521Y14290I1050J1071D01*
G01*
X2016D01*
G75*
G02*
X1263Y14598I-11J1050D01*
G01*
X810Y15050D01*
G37*
X2420Y33320D02*
Y26892D01*
G75*
G02*
X2728Y26975I308J-527D01*
G01*
X4457D01*
G75*
G02*
X5044Y26532I0J-610D01*
G01*
G75*
G02*
X7633Y25500I1088J-1032D01*
G01*
G75*
G02*
X6931Y24230I-1500J0D01*
G01*
G75*
G02*
X7573Y22540I-798J-1270D01*
G01*
X20510D01*
Y28088D01*
G75*
G02*
X20090Y28525I850J1236D01*
G01*
G75*
G02*
X17320Y29323I-1270J798D01*
G01*
G75*
G02*
X17830Y30450I1500J0D01*
G01*
X17304D01*
Y33250D01*
X19854D01*
Y32800D01*
X33491D01*
G75*
G02*
X34178Y32505I0J-950D01*
G01*
X34744Y31939D01*
G75*
G02*
X35023Y31267I-672J-672D01*
G01*
Y30439D01*
G75*
G02*
X35091Y30374I-1002J-1115D01*
G01*
X43902D01*
G75*
G02*
X44544Y30154I0J-1050D01*
G01*
G75*
G02*
X44644Y30066I-642J-831D01*
G01*
X46245Y28465D01*
G75*
G02*
X46553Y27723I-743J-743D01*
G01*
G75*
G02*
X46553Y27712I-1051J5D01*
G01*
Y15369D01*
X48387Y17204D01*
G75*
G02*
X48995Y17460I608J-594D01*
G01*
X64298D01*
G75*
G02*
X64773Y17880I1175J-850D01*
G01*
G75*
G02*
Y20420I700J1270D01*
G01*
G75*
G02*
Y22960I700J1270D01*
G01*
G75*
G02*
Y25500I700J1270D01*
G01*
G75*
G02*
X65472Y28220I700J1270D01*
G01*
X66173D01*
G75*
G02*
X66872Y25500I0J-1450D01*
G01*
G75*
G02*
Y22960I-700J-1270D01*
G01*
G75*
G02*
X67347Y22540I-700J-1270D01*
G01*
X67410D01*
G75*
G02*
X68018Y22284I0J-850D01*
G01*
X69403Y20900D01*
Y22580D01*
G75*
G02*
X69853Y23169I610J0D01*
G01*
Y29101D01*
G75*
G02*
X69424Y29530I160J589D01*
G01*
X60899D01*
G75*
G02*
X60322Y29118I-577J198D01*
G01*
X59496D01*
X58691Y28313D01*
G75*
G02*
X56932Y26261I-1758J-273D01*
G01*
G75*
G02*
X55153Y28040I0J1780D01*
G01*
G75*
G02*
X57206Y29798I1780J0D01*
G01*
X58013Y30605D01*
Y31432D01*
G75*
G02*
X58623Y32042I610J0D01*
G01*
X60322D01*
G75*
G02*
X60899Y31630I0J-610D01*
G01*
X69424D01*
G75*
G02*
X70013Y32080I589J-160D01*
G01*
X71792D01*
G75*
G02*
X72403Y31470I0J-610D01*
G01*
Y29690D01*
G75*
G02*
X71953Y29101I-610J0D01*
G01*
Y23169D01*
G75*
G02*
X72403Y22580I-160J-589D01*
G01*
Y21217D01*
X72593Y21407D01*
Y24865D01*
G75*
G02*
X72849Y25473I850J0D01*
G01*
X76010Y28634D01*
G75*
G02*
X76549Y28887I608J-594D01*
G01*
Y29440D01*
X81131D01*
Y28890D01*
X82367D01*
G75*
G02*
X85103Y28040I1236J-850D01*
G01*
G75*
G02*
X84401Y26770I-1500J0D01*
G01*
G75*
G02*
Y24230I-798J-1270D01*
G01*
G75*
G02*
X84635Y21872I-798J-1270D01*
G01*
G75*
G02*
X85078Y21285I-168J-587D01*
G01*
Y19555D01*
G75*
G02*
X84467Y18945I-610J0D01*
G01*
X82738D01*
G75*
G02*
X82128Y19555I0J610D01*
G01*
Y19570D01*
X81131D01*
Y19020D01*
X78674D01*
Y18833D01*
G75*
G02*
X78418Y18225I-850J0D01*
G01*
X75575Y15381D01*
G75*
G02*
X74967Y15125I-608J594D01*
G01*
X70620D01*
X68971Y13476D01*
G75*
G02*
X68363Y13220I-608J594D01*
G01*
X67347D01*
G75*
G02*
X66173Y12620I-1175J850D01*
G01*
X65472D01*
G75*
G02*
X64085Y14490I0J1450D01*
G01*
X49665D01*
X49210Y14035D01*
Y9307D01*
G75*
G02*
X48954Y8700I-850J0D01*
G01*
X46111Y5856D01*
G75*
G02*
X45503Y5600I-608J594D01*
G01*
X32485D01*
G75*
G02*
X31877Y5856I0J850D01*
G01*
X30863Y6870D01*
X27995D01*
Y6721D01*
X24395D01*
Y11950D01*
X22795D01*
Y10531D01*
X19195D01*
Y10680D01*
X19162D01*
G75*
G02*
X18549Y10929I-12J850D01*
G01*
X17914Y11564D01*
G75*
G02*
X17665Y12165I601J601D01*
G01*
G75*
G02*
X17665Y12177I847J-1D01*
G01*
Y15623D01*
X16258Y17030D01*
X7368D01*
G75*
G02*
X4863Y17082I-1236J850D01*
G01*
G75*
G02*
X4391Y16610I-1270J798D01*
G01*
G75*
G02*
X4643Y14269I-798J-1270D01*
G01*
Y7912D01*
X5055D01*
Y4988D01*
X4643D01*
Y3393D01*
X5933Y2103D01*
X61895D01*
X64772Y4980D01*
Y7720D01*
G75*
G02*
X65472Y10440I700J1270D01*
G01*
X66173D01*
G75*
G02*
X66873Y7720I0J-1450D01*
G01*
Y4556D01*
G75*
G02*
X66873Y4545I-1051J-15D01*
G01*
G75*
G02*
X66565Y3803I-1050J0D01*
G01*
X63573Y810D01*
X86385D01*
Y36220D01*
X51507D01*
X51837Y35890D01*
X52742D01*
G75*
G02*
X53353Y35280I0J-610D01*
G01*
Y33500D01*
G75*
G02*
X52903Y32911I-610J0D01*
G01*
Y31597D01*
G75*
G02*
Y29563I-1050J-1017D01*
G01*
Y29477D01*
G75*
G02*
X52839Y26559I-1050J-1437D01*
G01*
Y25630D01*
X53064D01*
Y22830D01*
X50514D01*
Y25630D01*
X50739D01*
Y26652D01*
G75*
G02*
X50803Y29477I1114J1388D01*
G01*
Y29563D01*
G75*
G02*
Y31597I1050J1017D01*
G01*
Y32911D01*
G75*
G02*
X50353Y33500I160J589D01*
G01*
Y34405D01*
X50148Y34610D01*
X3710D01*
X2420Y33320D01*
X60487Y34390D02*
G75*
G02*
X63119Y35440I1525J0D01*
G01*
X78522D01*
G75*
G02*
X79275Y35123I0J-1050D01*
G01*
X80227Y34170D01*
X82531D01*
G75*
G02*
X85103Y33120I1071J-1050D01*
G01*
G75*
G02*
X82531Y32070I-1500J0D01*
G01*
X79793D01*
G75*
G02*
X79041Y32387I0J1050D01*
G01*
X78088Y33340D01*
X63119D01*
G75*
G02*
X60487Y34390I-1107J1050D01*
G01*
X76235Y13500D02*
X80175D01*
Y9560D01*
X76235D01*
Y13500D01*
X69377Y11530D02*
G75*
G02*
X72428I1526J0D01*
G01*
G75*
G02*
X71953Y10423I-1526J0D01*
G01*
Y7838D01*
X72280Y7510D01*
G75*
G02*
X75370Y6230I845J-2330D01*
G01*
X81041D01*
G75*
G02*
X85763Y5180I2245J-1050D01*
G01*
G75*
G02*
X81041Y4130I-2478J0D01*
G01*
X75370D01*
G75*
G02*
X70795Y6025I-2245J1050D01*
G01*
X70160Y6660D01*
G75*
G02*
X69852Y7403I743J743D01*
G01*
G75*
G02*
X69853Y7413I1049J-5D01*
G01*
Y10423D01*
G75*
G02*
X69377Y11530I1050J1107D01*
G01*
X19195Y7449D02*
X22795D01*
Y5451D01*
X19195D01*
Y7449D01*
Y9990D02*
X22795D01*
Y7991D01*
X19195D01*
Y9990D01*
X4643Y4988D02*
G36*
X4643Y4988D02*
Y3393D01*
X5933Y2103D01*
X61895D01*
X64772Y4980D01*
Y6450D01*
X46705D01*
X46111Y5856D01*
G75*
G02*
X45503Y5600I-608J594D01*
G01*
X32485D01*
G75*
G02*
X31877Y5856I0J850D01*
G01*
X31283Y6450D01*
X22795D01*
Y5451D01*
X19195D01*
Y6450D01*
X5055D01*
Y4988D01*
X4643D01*
G37*
X66565Y3803D02*
G36*
X66565Y3803D02*
X63673Y910D01*
X86285D01*
Y6450D01*
X85413D01*
G75*
G02*
X85763Y5180I-2128J-1270D01*
G01*
G75*
G02*
X81041Y4130I-2478J0D01*
G01*
X75370D01*
G75*
G02*
X70647Y5180I-2245J1050D01*
G01*
G75*
G02*
X70795Y6025I2478J0D01*
G01*
X70370Y6450D01*
X66873D01*
Y4556D01*
G75*
G02*
X66873Y4548I-279J-8D01*
G01*
G75*
G02*
Y4545I-287J-1D01*
G01*
G75*
G02*
X66565Y3803I-1051J0D01*
G01*
G37*
X75253Y6450D02*
G36*
X75253Y6450D02*
G75*
G02*
X75370Y6230I-2128J-1270D01*
G01*
X81041D01*
G75*
G02*
X81157Y6450I2245J-1050D01*
G01*
X75253D01*
G37*
X4643Y8990D02*
G36*
X4643Y8990D02*
Y7912D01*
X5055D01*
Y6450D01*
X19195D01*
Y7449D01*
X22795D01*
Y6450D01*
X31283D01*
X30863Y6870D01*
X27995D01*
Y6721D01*
X24395D01*
Y8990D01*
X22795D01*
Y7991D01*
X19195D01*
Y8990D01*
X4643D01*
G37*
X48954Y8700D02*
G36*
X48954Y8700D02*
X46705Y6450D01*
X64772D01*
Y7720D01*
G75*
G02*
X64022Y8990I700J1270D01*
G01*
X49149D01*
G75*
G02*
X48954Y8700I-789J318D01*
G01*
G37*
X66873Y7720D02*
G36*
X66873Y7720D02*
Y6450D01*
X70370D01*
X70160Y6660D01*
G75*
G02*
X69852Y7403I743J743D01*
G01*
G75*
G02*
Y7405I287J1D01*
G01*
G75*
G02*
X69853Y7413I279J0D01*
G01*
Y8990D01*
X67623D01*
G75*
G02*
X66873Y7720I-1450J0D01*
G01*
G37*
X71953Y8990D02*
G36*
X71953Y8990D02*
Y7838D01*
X72280Y7510D01*
G75*
G02*
X75253Y6450I845J-2330D01*
G01*
X81157D01*
G75*
G02*
X85413I2128J-1270D01*
G01*
X86285D01*
Y8990D01*
X71953D01*
G37*
X4643Y11530D02*
G36*
X4643Y11530D02*
Y8990D01*
X19195D01*
Y9990D01*
X22795D01*
Y8990D01*
X24395D01*
Y11530D01*
X22795D01*
Y10531D01*
X19195D01*
Y10680D01*
X19162D01*
G75*
G02*
X18549Y10929I-12J850D01*
G01*
X17948Y11530D01*
X4643D01*
G37*
X49210Y9307D02*
G36*
X49210Y9307D02*
G75*
G02*
X49149Y8990I-850J0D01*
G01*
X64022D01*
G75*
G02*
X65472Y10440I1450J0D01*
G01*
X66173D01*
G75*
G02*
X67623Y8990I0J-1450D01*
G01*
X69853D01*
Y10423D01*
G75*
G02*
X69377Y11530I1050J1107D01*
G01*
X49210D01*
Y9307D01*
G37*
X71953Y10423D02*
G36*
X71953Y10423D02*
Y8990D01*
X86285D01*
Y11530D01*
X80175D01*
Y9560D01*
X76235D01*
Y11530D01*
X72428D01*
G75*
G02*
X71953Y10423I-1525J0D01*
G01*
G37*
X2520Y33420D02*
G36*
X2520Y33420D02*
Y26939D01*
G75*
G02*
X2728Y26975I208J-574D01*
G01*
X4457D01*
G75*
G02*
X5044Y26532I0J-610D01*
G01*
G75*
G02*
X7633Y25500I1088J-1032D01*
G01*
Y25500D01*
G75*
G02*
X6931Y24230I-1500J0D01*
G01*
G75*
G02*
X7633Y22960I-798J-1270D01*
G01*
G75*
G02*
X7573Y22540I-1500J0D01*
G01*
X20510D01*
Y28088D01*
G75*
G02*
X20090Y28525I849J1235D01*
G01*
G75*
G02*
X17320Y29323I-1270J798D01*
G01*
G75*
G02*
X17830Y30450I1500J0D01*
G01*
X17304D01*
Y33250D01*
X19854D01*
Y32800D01*
X33491D01*
G75*
G02*
X34178Y32505I0J-950D01*
G01*
X34744Y31939D01*
G75*
G02*
X35023Y31268I-672J-672D01*
G01*
Y31267D01*
Y30439D01*
G75*
G02*
X35091Y30374I-1003J-1116D01*
G01*
X43902D01*
G75*
G02*
X44544Y30154I0J-1050D01*
G01*
G75*
G02*
X44644Y30066I-661J-852D01*
G01*
X46245Y28465D01*
G75*
G02*
X46553Y27723I-743J-743D01*
G01*
G75*
G02*
Y27720I-276J-1D01*
G01*
G75*
G02*
X46553Y27712I-283J-1D01*
G01*
Y15369D01*
X48387Y17204D01*
G75*
G02*
X48995Y17460I608J-594D01*
G01*
X64298D01*
G75*
G02*
X64773Y17880I1175J-850D01*
G01*
G75*
G02*
X64022Y19150I700J1270D01*
G01*
G75*
G02*
X64773Y20420I1450J0D01*
G01*
G75*
G02*
X64022Y21690I700J1270D01*
G01*
G75*
G02*
X64773Y22960I1450J0D01*
G01*
G75*
G02*
X64022Y24230I700J1270D01*
G01*
G75*
G02*
X64773Y25500I1450J0D01*
G01*
G75*
G02*
X64022Y26770I700J1270D01*
G01*
G75*
G02*
X65472Y28220I1450J0D01*
G01*
X66173D01*
G75*
G02*
X67623Y26770I0J-1450D01*
G01*
G75*
G02*
X66872Y25500I-1450J0D01*
G01*
G75*
G02*
X67623Y24230I-700J-1270D01*
G01*
G75*
G02*
X66872Y22960I-1450J0D01*
G01*
G75*
G02*
X67347Y22540I-700J-1270D01*
G01*
X67410D01*
G75*
G02*
X68018Y22284I0J-850D01*
G01*
X69403Y20900D01*
Y22580D01*
G75*
G02*
X69853Y23169I610J0D01*
G01*
Y29101D01*
G75*
G02*
X69424Y29530I160J589D01*
G01*
X60899D01*
G75*
G02*
X60322Y29118I-577J198D01*
G01*
X59496D01*
X58691Y28313D01*
G75*
G02*
X58712Y28040I-1758J-273D01*
G01*
G75*
G02*
X56932Y26261I-1780J0D01*
G01*
G75*
G02*
X55153Y28040I0J1780D01*
G01*
G75*
G02*
X57206Y29798I1780J0D01*
G01*
X58013Y30605D01*
Y31432D01*
G75*
G02*
X58623Y32042I610J0D01*
G01*
X60322D01*
G75*
G02*
X60899Y31630I0J-610D01*
G01*
X69424D01*
G75*
G02*
X70013Y32080I589J-160D01*
G01*
X71792D01*
G75*
G02*
X72403Y31470I0J-610D01*
G01*
Y29690D01*
G75*
G02*
X71953Y29101I-610J0D01*
G01*
Y23169D01*
G75*
G02*
X72403Y22580I-160J-589D01*
G01*
Y21217D01*
X72593Y21407D01*
Y24865D01*
G75*
G02*
X72849Y25473I850J0D01*
G01*
X76010Y28634D01*
G75*
G02*
X76549Y28887I608J-594D01*
G01*
Y29440D01*
X81131D01*
Y28890D01*
X82367D01*
G75*
G02*
X85103Y28040I1236J-850D01*
G01*
Y28040D01*
G75*
G02*
X84401Y26770I-1500J0D01*
G01*
G75*
G02*
X85103Y25500I-798J-1270D01*
G01*
G75*
G02*
X84401Y24230I-1500J0D01*
G01*
G75*
G02*
X85103Y22960I-798J-1270D01*
G01*
G75*
G02*
X84635Y21872I-1500J0D01*
G01*
G75*
G02*
X85078Y21285I-168J-587D01*
G01*
Y19555D01*
G75*
G02*
X84467Y18945I-610J0D01*
G01*
X82738D01*
G75*
G02*
X82128Y19555I0J610D01*
G01*
Y19570D01*
X81131D01*
Y19020D01*
X78674D01*
Y18833D01*
G75*
G02*
X78418Y18225I-850J0D01*
G01*
X75575Y15381D01*
G75*
G02*
X74967Y15125I-608J594D01*
G01*
X70620D01*
X68971Y13476D01*
G75*
G02*
X68363Y13220I-608J594D01*
G01*
X67347D01*
G75*
G02*
X66173Y12620I-1175J850D01*
G01*
X65472D01*
G75*
G02*
X64022Y14070I0J1450D01*
G01*
G75*
G02*
X64085Y14490I1450J0D01*
G01*
X49665D01*
X49210Y14035D01*
Y11530D01*
X69377D01*
G75*
G02*
X72428I1526J0D01*
G01*
X76235D01*
Y13500D01*
X80175D01*
Y11530D01*
X86285D01*
Y33768D01*
X84956D01*
G75*
G02*
X85103Y33120I-1353J-648D01*
G01*
Y33120D01*
Y33120D01*
G75*
G02*
X82531Y32070I-1500J0D01*
G01*
X79793D01*
G75*
G02*
X79041Y32387I0J1049D01*
G01*
X78088Y33340D01*
X63119D01*
G75*
G02*
X60620Y33768I-1107J1050D01*
G01*
X53353D01*
Y33500D01*
G75*
G02*
X52903Y32911I-610J0D01*
G01*
Y31597D01*
G75*
G02*
X53315Y30580I-1050J-1017D01*
G01*
G75*
G02*
X52903Y29563I-1462J0D01*
G01*
Y29477D01*
G75*
G02*
X53632Y28040I-1050J-1437D01*
G01*
G75*
G02*
X52839Y26559I-1779J0D01*
G01*
Y25630D01*
X53064D01*
Y22830D01*
X50514D01*
Y25630D01*
X50739D01*
Y26652D01*
G75*
G02*
X50073Y28040I1114J1388D01*
G01*
G75*
G02*
X50803Y29477I1779J0D01*
G01*
Y29563D01*
G75*
G02*
X50391Y30580I1050J1017D01*
G01*
G75*
G02*
X50803Y31597I1462J0D01*
G01*
Y32911D01*
G75*
G02*
X50353Y33500I160J589D01*
G01*
Y33768D01*
X2868D01*
X2520Y33420D01*
G37*
X4643Y14269D02*
G36*
X4643Y14269D02*
Y11530D01*
X17948D01*
X17914Y11564D01*
G75*
G02*
X17665Y12165I601J601D01*
G01*
G75*
G02*
Y12168I363J2D01*
G01*
G75*
G02*
X17665Y12177I355J1D01*
G01*
Y15623D01*
X16258Y17030D01*
X7368D01*
G75*
G02*
X4863Y17082I-1236J850D01*
G01*
G75*
G02*
X4391Y16610I-1269J797D01*
G01*
G75*
G02*
X5093Y15340I-798J-1270D01*
G01*
G75*
G02*
X4643Y14269I-1500J0D01*
G01*
G37*
X22795Y11950D02*
G36*
X22795Y11950D02*
Y11530D01*
X24395D01*
Y11950D01*
X22795D01*
G37*
X3710Y34610D02*
G36*
X3710Y34610D02*
X2868Y33768D01*
X50353D01*
Y34405D01*
X50148Y34610D01*
X3710D01*
G37*
X51607Y36120D02*
G36*
X51607Y36120D02*
X51837Y35890D01*
X52742D01*
G75*
G02*
X53353Y35280I0J-610D01*
G01*
Y33768D01*
X60620D01*
G75*
G02*
X60487Y34390I1393J622D01*
G01*
Y34390D01*
G75*
G02*
X63119Y35440I1525J0D01*
G01*
X78522D01*
G75*
G02*
X79275Y35123I0J-1049D01*
G01*
X80227Y34170D01*
X82531D01*
G75*
G02*
X84956Y33768I1071J-1050D01*
G01*
X86285D01*
Y36120D01*
X51607D01*
G37*
X22210Y28087D02*
Y22042D01*
X24252Y20000D01*
X41438D01*
G75*
G02*
X41913Y20420I1175J-850D01*
G01*
G75*
G02*
X41438Y20840I700J1270D01*
G01*
X34390D01*
G75*
G02*
X33782Y21096I0J850D01*
G01*
X30939Y23940D01*
G75*
G02*
X30683Y24548I594J608D01*
G01*
Y28079D01*
G75*
G02*
X30250Y28525I837J1245D01*
G01*
G75*
G02*
X29830Y28087I-1270J798D01*
G01*
Y22877D01*
G75*
G02*
X30440Y21690I-850J-1187D01*
G01*
G75*
G02*
X27520I-1460J0D01*
G01*
G75*
G02*
X28130Y22877I1460J0D01*
G01*
Y28088D01*
G75*
G02*
X27710Y28525I850J1236D01*
G01*
G75*
G02*
X25170I-1270J798D01*
G01*
G75*
G02*
X24750Y28087I-1270J798D01*
G01*
Y27957D01*
G75*
G02*
X25360Y26770I-850J-1187D01*
G01*
G75*
G02*
X22440I-1460J0D01*
G01*
G75*
G02*
X23050Y27957I1460J0D01*
G01*
Y28088D01*
G75*
G02*
X22630Y28525I850J1236D01*
G01*
G75*
G02*
X22210Y28087I-1270J798D01*
G01*
G36*
X22210Y28087D02*
Y22042D01*
X24252Y20000D01*
X41438D01*
G75*
G02*
X41913Y20420I1175J-850D01*
G01*
G75*
G02*
X41438Y20840I700J1270D01*
G01*
X34390D01*
G75*
G02*
X33782Y21096I0J850D01*
G01*
X30939Y23940D01*
G75*
G02*
X30683Y24548I594J608D01*
G01*
Y28079D01*
G75*
G02*
X30250Y28525I837J1245D01*
G01*
G75*
G02*
X29830Y28087I-1270J798D01*
G01*
Y22877D01*
G75*
G02*
X30440Y21690I-850J-1187D01*
G01*
G75*
G02*
X27520I-1460J0D01*
G01*
G75*
G02*
X28130Y22877I1460J0D01*
G01*
Y28088D01*
G75*
G02*
X27710Y28525I850J1236D01*
G01*
G75*
G02*
X25170I-1270J798D01*
G01*
G75*
G02*
X24750Y28087I-1270J798D01*
G01*
Y27957D01*
G75*
G02*
X25360Y26770I-850J-1187D01*
G01*
G75*
G02*
X22440I-1460J0D01*
G01*
G75*
G02*
X23050Y27957I1460J0D01*
G01*
Y28088D01*
G75*
G02*
X22630Y28525I850J1236D01*
G01*
G75*
G02*
X22210Y28087I-1270J798D01*
G01*
G37*
X27995Y13220D02*
Y12380D01*
X31533D01*
G75*
G02*
X32141Y12124I0J-850D01*
G01*
X36012Y8252D01*
X41364D01*
G75*
G02*
X41913Y10260I1248J738D01*
G01*
G75*
G02*
X41438Y10680I700J1270D01*
G01*
X38200D01*
G75*
G02*
X37592Y10936I0J850D01*
G01*
X35308Y13220D01*
X27995D01*
G36*
X27995Y13220D02*
Y12380D01*
X31533D01*
G75*
G02*
X32141Y12124I0J-850D01*
G01*
X36012Y8252D01*
X41364D01*
G75*
G02*
X41913Y10260I1248J738D01*
G01*
G75*
G02*
X41438Y10680I700J1270D01*
G01*
X38200D01*
G75*
G02*
X37592Y10936I0J850D01*
G01*
X35308Y13220D01*
X27995D01*
G37*
X32383Y28096D02*
Y24900D01*
X34742Y22540D01*
X41438D01*
G75*
G02*
X41913Y22960I1175J-850D01*
G01*
G75*
G02*
Y25500I700J1270D01*
G01*
G75*
G02*
X42613Y28220I700J1270D01*
G01*
X43313D01*
G75*
G02*
X43538Y28202I0J-1450D01*
G01*
X43467Y28274D01*
X35091D01*
G75*
G02*
X32770Y28494I-1072J1050D01*
G01*
G75*
G02*
X32383Y28096I-1250J829D01*
G01*
G36*
X32383Y28096D02*
Y24900D01*
X34742Y22540D01*
X41438D01*
G75*
G02*
X41913Y22960I1175J-850D01*
G01*
G75*
G02*
Y25500I700J1270D01*
G01*
G75*
G02*
X42613Y28220I700J1270D01*
G01*
X43313D01*
G75*
G02*
X43538Y28202I0J-1450D01*
G01*
X43467Y28274D01*
X35091D01*
G75*
G02*
X32770Y28494I-1072J1050D01*
G01*
G75*
G02*
X32383Y28096I-1250J829D01*
G01*
G37*
D02*
D11*
X3593Y6450D02*
Y15340D01*
X34020Y29323D02*
X43902D01*
X45503Y27723D01*
Y12800D01*
Y9943D01*
X44550Y8990D01*
X42963D01*
X51789Y24230D02*
Y27976D01*
X51853Y28040D01*
Y30580D02*
Y28040D01*
Y34390D02*
X50583Y35660D01*
X3275D01*
X1370Y33755D01*
Y15975D01*
X2005Y15340D01*
X3593D01*
X51853Y34390D02*
Y30580D01*
X56932Y28040D02*
X59472Y30580D01*
X70903D01*
X62013Y21690D02*
X54456D01*
X53821Y22325D01*
Y24230D01*
X65823Y8990D02*
Y4545D01*
X62330Y1053D01*
X5498D01*
X3593Y2958D01*
Y6450D01*
X65823Y11530D02*
X62013D01*
X70903D02*
Y7403D01*
X73125Y5180D01*
X70903Y21690D02*
Y30580D01*
X73125Y5180D02*
X83285D01*
X83603Y30580D02*
X74713D01*
X83603Y33120D02*
X79793D01*
X78522Y34390D01*
X62013D01*
D02*
D12*
X23900Y16610D03*
Y26770D03*
X28980Y8990D03*
Y21690D03*
X62013Y11530D03*
Y21690D03*
D02*
D13*
X6133Y17880D02*
X16610D01*
X18515Y15975D01*
Y12165D01*
X19150Y11530D01*
X20995D01*
Y14070D02*
X23595D01*
X24865Y15340D01*
X36295D01*
X38835Y12800D01*
X45503D01*
X21360Y21690D02*
X4863D01*
X3593Y20420D01*
X21360Y29323D02*
Y21690D01*
X23900Y16610D02*
X22008D01*
X19468Y19150D01*
X4863D01*
X3593Y17880D01*
X23900Y16610D02*
X36930D01*
X39470Y14070D01*
X42963D01*
X23900Y29323D02*
Y26770D01*
X26195Y10260D02*
Y8990D01*
Y12800D02*
X20995D01*
X26195Y14070D02*
X35660D01*
X38200Y11530D01*
X42963D01*
X28980Y8990D02*
Y7733D01*
X28993Y7720D01*
X28980Y29323D02*
Y21690D01*
X28993Y7720D02*
X26195D01*
X31520Y29323D02*
X31533D01*
Y24548D01*
X34390Y21690D01*
X42963D01*
Y16610D02*
X38835D01*
X37565Y17880D01*
X22960D01*
X20420Y20420D01*
X6133D01*
X42963Y19150D02*
X23900D01*
X21360Y21690D01*
X65823Y14070D02*
X68363D01*
X70268Y15975D01*
X74967D01*
X77824Y18833D01*
Y20420D01*
X65823Y16610D02*
X48995D01*
X47090Y14705D01*
Y9625D01*
X44868Y7403D01*
X35660D01*
X31533Y11530D01*
X26195D01*
X65823Y19150D02*
X68045D01*
X68680Y18515D01*
X72808D01*
X74713Y20420D01*
Y23595D01*
X76618Y25500D01*
X77824D01*
X65823Y21690D02*
X67410D01*
X69315Y19785D01*
X72173D01*
X73443Y21055D01*
Y24865D01*
X76618Y28040D01*
X77824D01*
Y22960D02*
X76618D01*
X75983Y22325D01*
Y19785D01*
X73443Y17245D01*
X69315D01*
X67410Y15340D01*
X49313D01*
X48360Y14388D01*
Y9307D01*
X45503Y6450D01*
X32485D01*
X31215Y7720D01*
X28993D01*
X79856Y20420D02*
X83603D01*
X79856Y22960D02*
X83603D01*
X79856Y25500D02*
X83603D01*
X79856Y28040D02*
X83603D01*
D02*
D14*
X18578Y31850D02*
X18873D01*
Y29323D01*
X18820D01*
X26440D02*
X26453D01*
Y31850D01*
X18833D01*
Y29323D01*
X18820D01*
X34020D02*
X34072D01*
Y31268D01*
X33490Y31850D01*
X26453D01*
D02*
D15*
X12610Y9307D03*
X37692D03*
X51853Y28040D03*
X54393D03*
X56932D03*
D02*
D16*
X3593Y6450D03*
D02*
D17*
X6133D03*
X51853Y30580D03*
D02*
D18*
X42963Y8990D03*
Y11530D03*
Y14070D03*
Y16610D03*
Y19150D03*
Y21690D03*
Y24230D03*
Y26770D03*
X65823Y8990D03*
Y11530D03*
Y14070D03*
Y16610D03*
Y19150D03*
Y21690D03*
Y24230D03*
Y26770D03*
D02*
D19*
X16547Y31850D03*
X18578D03*
X51789Y24230D03*
X53821D03*
X77824Y20420D03*
Y22960D03*
Y25500D03*
Y28040D03*
X79856Y20420D03*
Y22960D03*
Y25500D03*
Y28040D03*
D02*
D70*
X73125Y5180D03*
X83285D03*
D02*
D71*
X78205Y11530D03*
Y15340D03*
D02*
D20*
X59472Y30580D03*
D02*
D21*
X62013Y34390D03*
X70903Y11530D03*
D02*
D22*
Y21690D03*
D02*
D23*
X16280Y29323D03*
D02*
D24*
X3593Y15340D03*
Y17880D03*
Y20420D03*
Y22960D03*
X6133Y15340D03*
Y17880D03*
Y20420D03*
Y22960D03*
Y25500D03*
X18820Y29323D03*
X21360D03*
X23900D03*
X26440D03*
X28980D03*
X31520D03*
X34020D03*
X83603Y22960D03*
Y25500D03*
Y28040D03*
Y30580D03*
Y33120D03*
D02*
D25*
X51853Y34390D03*
X70903Y30580D03*
D02*
D26*
X74713D03*
D02*
D27*
X54393Y10260D03*
D02*
D28*
X3593Y25500D03*
X83603Y20420D03*
D02*
D29*
X20995Y6450D03*
Y7720D03*
Y8990D03*
Y10260D03*
Y11530D03*
Y12800D03*
Y14070D03*
X26195Y6450D03*
Y7720D03*
Y8990D03*
Y10260D03*
Y11530D03*
Y12800D03*
Y14070D03*
X0Y0D02*
M02*
