G04 Easy-PC Gerber Version 27.0 Build 5942*
%FSLAX33Y33*%
%MOMM*%
%AMT16*0 Rounded Rectangle Pad at angle 0*4,1,36,-0.56000,-0.76000,0.56000,-0.76000,0.59900,-0.75620,0.63650,-0.74480,0.67110,-0.72630,0.70140,-0.70140,0.72630,-0.67110,0.74480,-0.63650,0.75620,-0.59900,0.76000,-0.56000,0.76000,0.56000,0.75620,0.59900,0.74480,0.63650,0.72630,0.67110,0.70140,0.70140,0.67110,0.72630,0.63650,0.74480,0.59900,0.75620,0.56000,0.76000,-0.56000,0.76000,-0.59900,0.75620,-0.63650,0.74480,-0.67110,0.72630,-0.70140,0.70140,-0.72630,0.67110,-0.74480,0.63650,-0.75620,0.59900,-0.76000,0.56000,-0.76000,-0.56000,-0.75620,-0.59900,-0.74480,-0.63650,-0.72630,-0.67110,-0.70140,-0.70140,-0.67110,-0.72630,-0.63650,-0.74480,-0.59900,-0.75620,-0.56000,-0.76000,0*%
%ADD16T16*%
%AMT70*0 Rounded Rectangle Pad at angle 0*4,1,36,-0.57500,-0.77500,0.57500,-0.77500,0.61400,-0.77120,0.65150,-0.75980,0.68610,-0.74130,0.71640,-0.71640,0.74130,-0.68610,0.75980,-0.65150,0.77120,-0.61400,0.77500,-0.57500,0.77500,0.57500,0.77120,0.61400,0.75980,0.65150,0.74130,0.68610,0.71640,0.71640,0.68610,0.74130,0.65150,0.75980,0.61400,0.77120,0.57500,0.77500,-0.57500,0.77500,-0.61400,0.77120,-0.65150,0.75980,-0.68610,0.74130,-0.71640,0.71640,-0.74130,0.68610,-0.75980,0.65150,-0.77120,0.61400,-0.77500,0.57500,-0.77500,-0.57500,-0.77120,-0.61400,-0.75980,-0.65150,-0.74130,-0.68610,-0.71640,-0.71640,-0.68610,-0.74130,-0.65150,-0.75980,-0.61400,-0.77120,-0.57500,-0.77500,0*%
%ADD70T70*%
%ADD18R,1.15000X1.40000*%
%ADD10C,0.12700*%
%ADD13C,0.30000*%
%ADD12C,0.50000*%
%ADD11C,0.70000*%
%ADD14C,1.52000*%
%ADD15R,1.40000X1.15000*%
%ADD19C,1.52400*%
%ADD17C,1.60000*%
X0Y0D02*
D02*
D10*
X701Y22287D02*
Y13727D01*
G75*
G02*
X1028Y13777I316J-963D01*
G01*
X1077D01*
G75*
G02*
X1490Y14263I636J-122D01*
G01*
Y17635D01*
G75*
G02*
X1080Y18237I237J602D01*
G01*
Y19990D01*
G75*
G02*
X1511Y20600I647J0D01*
G01*
G75*
G02*
X1816Y21171I1092J-216D01*
G01*
X2451Y21806D01*
G75*
G02*
X3249Y22132I787J-787D01*
G01*
X14658D01*
G75*
G02*
X15456Y21806I11J-1114D01*
G01*
X16091Y21171D01*
G75*
G02*
X16417Y20384I-787J-788D01*
G01*
G75*
G02*
X16417Y20373I-1111J5D01*
G01*
Y20156D01*
G75*
G02*
X16574Y19959I-1114J-1043D01*
G01*
G75*
G02*
X19114I1270J-845D01*
G01*
G75*
G02*
X21654I1270J-845D01*
G01*
G75*
G02*
X24194I1270J-845D01*
G01*
G75*
G02*
X26734I1270J-845D01*
G01*
G75*
G02*
X29274I1270J-845D01*
G01*
G75*
G02*
X31814I1270J-845D01*
G01*
G75*
G02*
X34353I1270J-845D01*
G01*
G75*
G02*
X36894I1270J-845D01*
G01*
G75*
G02*
X39434I1270J-845D01*
G01*
G75*
G02*
X41974I1270J-845D01*
G01*
G75*
G02*
X44514I1270J-845D01*
G01*
G75*
G02*
X47053I1270J-845D01*
G01*
G75*
G02*
X49610Y18293I1270J-845D01*
G01*
X49787D01*
Y13897D01*
G75*
G02*
X52427Y12764I1077J-1134D01*
G01*
G75*
G02*
X51775Y11494I-1563J0D01*
G01*
G75*
G02*
X52427Y10224I-912J-1270D01*
G01*
G75*
G02*
X49594Y9312I-1563J0D01*
G01*
G75*
G02*
X47247Y9090I-1270J912D01*
G01*
Y4694D01*
X47070D01*
G75*
G02*
X44514Y3028I-1286J-821D01*
G01*
G75*
G02*
X41974I-1270J845D01*
G01*
G75*
G02*
X39434I-1270J845D01*
G01*
G75*
G02*
X36894I-1270J845D01*
G01*
G75*
G02*
X34353I-1270J845D01*
G01*
G75*
G02*
X31814I-1270J845D01*
G01*
G75*
G02*
X29274I-1270J845D01*
G01*
G75*
G02*
X26734I-1270J845D01*
G01*
G75*
G02*
X24194I-1270J845D01*
G01*
G75*
G02*
X21654I-1270J845D01*
G01*
G75*
G02*
X19114I-1270J845D01*
G01*
G75*
G02*
X16574I-1270J845D01*
G01*
G75*
G02*
X14017Y4694I-1270J845D01*
G01*
X13840D01*
Y9090D01*
G75*
G02*
X11494Y9312I-1077J1134D01*
G01*
G75*
G02*
X8954I-1270J912D01*
G01*
G75*
G02*
X6120Y10224I-1270J912D01*
G01*
G75*
G02*
X6772Y11494I1563J0D01*
G01*
G75*
G02*
X6414Y11852I912J1270D01*
G01*
G75*
G02*
X4087Y11611I-1270J912D01*
G01*
G75*
G02*
X3495Y11225I-592J261D01*
G01*
X1712D01*
X1712D01*
Y7560D01*
X3878D01*
Y4633D01*
X1202D01*
Y5082D01*
X1028D01*
G75*
G02*
X701Y5133I-12J1013D01*
G01*
Y701D01*
X52767D01*
Y22287D01*
X701D01*
G36*
X701Y22287D02*
Y13727D01*
G75*
G02*
X1028Y13777I316J-963D01*
G01*
X1077D01*
G75*
G02*
X1490Y14263I636J-122D01*
G01*
Y17635D01*
G75*
G02*
X1080Y18237I237J602D01*
G01*
Y19990D01*
G75*
G02*
X1511Y20600I647J0D01*
G01*
G75*
G02*
X1816Y21171I1092J-216D01*
G01*
X2451Y21806D01*
G75*
G02*
X3249Y22132I787J-787D01*
G01*
X14658D01*
G75*
G02*
X15456Y21806I11J-1114D01*
G01*
X16091Y21171D01*
G75*
G02*
X16417Y20384I-787J-788D01*
G01*
G75*
G02*
X16417Y20373I-1111J5D01*
G01*
Y20156D01*
G75*
G02*
X16574Y19959I-1114J-1043D01*
G01*
G75*
G02*
X19114I1270J-845D01*
G01*
G75*
G02*
X21654I1270J-845D01*
G01*
G75*
G02*
X24194I1270J-845D01*
G01*
G75*
G02*
X26734I1270J-845D01*
G01*
G75*
G02*
X29274I1270J-845D01*
G01*
G75*
G02*
X31814I1270J-845D01*
G01*
G75*
G02*
X34353I1270J-845D01*
G01*
G75*
G02*
X36894I1270J-845D01*
G01*
G75*
G02*
X39434I1270J-845D01*
G01*
G75*
G02*
X41974I1270J-845D01*
G01*
G75*
G02*
X44514I1270J-845D01*
G01*
G75*
G02*
X47053I1270J-845D01*
G01*
G75*
G02*
X49610Y18293I1270J-845D01*
G01*
X49787D01*
Y13897D01*
G75*
G02*
X52427Y12764I1077J-1134D01*
G01*
G75*
G02*
X51775Y11494I-1563J0D01*
G01*
G75*
G02*
X52427Y10224I-912J-1270D01*
G01*
G75*
G02*
X49594Y9312I-1563J0D01*
G01*
G75*
G02*
X47247Y9090I-1270J912D01*
G01*
Y4694D01*
X47070D01*
G75*
G02*
X44514Y3028I-1286J-821D01*
G01*
G75*
G02*
X41974I-1270J845D01*
G01*
G75*
G02*
X39434I-1270J845D01*
G01*
G75*
G02*
X36894I-1270J845D01*
G01*
G75*
G02*
X34353I-1270J845D01*
G01*
G75*
G02*
X31814I-1270J845D01*
G01*
G75*
G02*
X29274I-1270J845D01*
G01*
G75*
G02*
X26734I-1270J845D01*
G01*
G75*
G02*
X24194I-1270J845D01*
G01*
G75*
G02*
X21654I-1270J845D01*
G01*
G75*
G02*
X19114I-1270J845D01*
G01*
G75*
G02*
X16574I-1270J845D01*
G01*
G75*
G02*
X14017Y4694I-1270J845D01*
G01*
X13840D01*
Y9090D01*
G75*
G02*
X11494Y9312I-1077J1134D01*
G01*
G75*
G02*
X8954I-1270J912D01*
G01*
G75*
G02*
X6120Y10224I-1270J912D01*
G01*
G75*
G02*
X6772Y11494I1563J0D01*
G01*
G75*
G02*
X6414Y11852I912J1270D01*
G01*
G75*
G02*
X4087Y11611I-1270J912D01*
G01*
G75*
G02*
X3495Y11225I-592J261D01*
G01*
X1712D01*
X1712D01*
Y7560D01*
X3878D01*
Y4633D01*
X1202D01*
Y5082D01*
X1028D01*
G75*
G02*
X701Y5133I-12J1013D01*
G01*
Y701D01*
X52767D01*
Y22287D01*
X701D01*
G37*
X3717Y17635D02*
Y14263D01*
G75*
G02*
X4087Y13916I-222J-608D01*
G01*
G75*
G02*
X6414Y13675I1057J-1152D01*
G01*
G75*
G02*
X8954I1270J-912D01*
G01*
G75*
G02*
X11494I1270J-912D01*
G01*
G75*
G02*
X13120Y14286I1270J-912D01*
G01*
Y16513D01*
X11983Y17650D01*
X8504D01*
Y17783D01*
G75*
G02*
X6414Y18202I-821J1331D01*
G01*
G75*
G02*
X6057Y17845I-1270J912D01*
G01*
Y17587D01*
X6792Y16852D01*
X9004D01*
G75*
G02*
X11747Y15939I1219J-914D01*
G01*
G75*
G02*
X9004Y15025I-1524J0D01*
G01*
X6414D01*
G75*
G02*
X5760Y15300I0J914D01*
G01*
X4505Y16555D01*
G75*
G02*
X4230Y17209I639J653D01*
G01*
Y17845D01*
G75*
G02*
X4072Y17975I914J1269D01*
G01*
G75*
G02*
X3717Y17635I-592J262D01*
G01*
G36*
X3717Y17635D02*
Y14263D01*
G75*
G02*
X4087Y13916I-222J-608D01*
G01*
G75*
G02*
X6414Y13675I1057J-1152D01*
G01*
G75*
G02*
X8954I1270J-912D01*
G01*
G75*
G02*
X11494I1270J-912D01*
G01*
G75*
G02*
X13120Y14286I1270J-912D01*
G01*
Y16513D01*
X11983Y17650D01*
X8504D01*
Y17783D01*
G75*
G02*
X6414Y18202I-821J1331D01*
G01*
G75*
G02*
X6057Y17845I-1270J912D01*
G01*
Y17587D01*
X6792Y16852D01*
X9004D01*
G75*
G02*
X11747Y15939I1219J-914D01*
G01*
G75*
G02*
X9004Y15025I-1524J0D01*
G01*
X6414D01*
G75*
G02*
X5760Y15300I0J914D01*
G01*
X4505Y16555D01*
G75*
G02*
X4230Y17209I639J653D01*
G01*
Y17845D01*
G75*
G02*
X4072Y17975I914J1269D01*
G01*
G75*
G02*
X3717Y17635I-592J262D01*
G01*
G37*
D02*
D11*
X2604Y19114D02*
Y12764D01*
X15304Y19114D02*
Y20384D01*
X14669Y21019D01*
X3239D01*
X2604Y20384D01*
Y19114D01*
D02*
D12*
X2540Y6096D02*
X1016D01*
X699Y6414D01*
Y12446D01*
X1016Y12764D01*
X2604D01*
D02*
D13*
X7684Y19114D02*
X9843D01*
X10224Y15939D02*
X6414D01*
X5144Y17209D01*
Y19114D01*
X11874D02*
Y19050D01*
X14034Y16891D01*
Y11811D01*
X14351Y11494D01*
X19114D01*
X20384Y12764D01*
X15304Y6033D02*
Y3874D01*
Y8065D02*
Y10224D01*
X17844Y6033D02*
Y3874D01*
Y8065D02*
Y10224D01*
Y14923D02*
Y12764D01*
Y16955D02*
Y19114D01*
X20384Y6033D02*
Y3874D01*
Y8065D02*
Y10224D01*
Y19114D02*
Y15939D01*
X22924Y6033D02*
Y3874D01*
Y8065D02*
Y10224D01*
Y14923D02*
Y12764D01*
Y16955D02*
Y19114D01*
X25464Y6033D02*
Y3874D01*
Y8065D02*
Y10224D01*
Y14923D02*
Y12764D01*
Y16955D02*
Y19114D01*
X28003Y6033D02*
Y3874D01*
Y8065D02*
Y10224D01*
Y14923D02*
Y12764D01*
Y16955D02*
Y19114D01*
X30544Y14923D02*
Y12764D01*
Y16955D02*
Y19114D01*
X30607Y6033D02*
X30544Y3874D01*
X30607Y8065D02*
X30544Y10224D01*
X33084Y6033D02*
Y3874D01*
Y8065D02*
Y10224D01*
Y14923D02*
Y12764D01*
Y16955D02*
Y19114D01*
X35624Y6033D02*
Y3874D01*
Y8065D02*
Y10224D01*
Y14923D02*
Y12764D01*
Y16955D02*
Y19114D01*
X38164Y6033D02*
Y3874D01*
Y8065D02*
Y10224D01*
Y14923D02*
Y12764D01*
Y16955D02*
Y19114D01*
X40703Y6033D02*
Y3874D01*
Y8065D02*
Y10224D01*
Y14923D02*
Y12764D01*
Y16955D02*
Y19114D01*
X43243Y6033D02*
Y3874D01*
Y8065D02*
Y10224D01*
Y14923D02*
Y12764D01*
Y16955D02*
Y19114D01*
X45783Y6033D02*
Y3874D01*
Y8065D02*
Y10224D01*
Y14923D02*
Y12764D01*
Y16955D02*
Y19114D01*
X48324Y14923D02*
Y12764D01*
Y16955D02*
Y19114D01*
D02*
D14*
X10224Y15939D03*
X20384D03*
D02*
D15*
X15304Y6033D03*
Y8065D03*
X17844Y6033D03*
Y8065D03*
Y14923D03*
Y16955D03*
X20384Y6033D03*
Y8065D03*
X22924Y6033D03*
Y8065D03*
Y14923D03*
Y16955D03*
X25464Y6033D03*
Y8065D03*
Y14923D03*
Y16955D03*
X28003Y6033D03*
Y8065D03*
Y14923D03*
Y16955D03*
X30544Y14923D03*
Y16955D03*
X30607Y6033D03*
Y8065D03*
X33084Y6033D03*
Y8065D03*
Y14923D03*
Y16955D03*
X35624Y6033D03*
Y8065D03*
Y14923D03*
Y16955D03*
X38164Y6033D03*
Y8065D03*
Y14923D03*
Y16955D03*
X40703Y6033D03*
Y8065D03*
Y14923D03*
Y16955D03*
X43243Y6033D03*
Y8065D03*
Y14923D03*
Y16955D03*
X45783Y6033D03*
Y8065D03*
Y14923D03*
Y16955D03*
X48324Y14923D03*
Y16955D03*
D02*
D16*
X2604Y19114D03*
D02*
D17*
X5144Y10224D03*
Y12764D03*
Y19114D03*
X7684Y10224D03*
Y12764D03*
Y19114D03*
X10224Y10224D03*
Y12764D03*
X12764Y10224D03*
Y12764D03*
X15304Y10224D03*
Y12764D03*
X17844Y10224D03*
Y12764D03*
X20384Y10224D03*
Y12764D03*
X22924Y10224D03*
Y12764D03*
X25464Y10224D03*
Y12764D03*
X28003Y10224D03*
Y12764D03*
X30544Y10224D03*
Y12764D03*
X33084Y10224D03*
Y12764D03*
X35624Y10224D03*
Y12764D03*
X38164Y10224D03*
Y12764D03*
X40703Y10224D03*
Y12764D03*
X43243Y10224D03*
Y12764D03*
X45783Y10224D03*
Y12764D03*
X48324Y10224D03*
Y12764D03*
X50864Y10224D03*
Y12764D03*
D02*
D18*
X2540Y6096D03*
X4572D03*
X9843Y19114D03*
X11874D03*
D02*
D19*
X15304Y3874D03*
Y19114D03*
X17844Y3874D03*
Y19114D03*
X20384Y3874D03*
Y19114D03*
X22924Y3874D03*
Y19114D03*
X25464Y3874D03*
Y19114D03*
X28003Y3874D03*
Y19114D03*
X30544Y3874D03*
Y19114D03*
X33084Y3874D03*
Y19114D03*
X35624Y3874D03*
Y19114D03*
X38164Y3874D03*
Y19114D03*
X40703Y3874D03*
Y19114D03*
X43243Y3874D03*
Y19114D03*
X45783Y3874D03*
Y19114D03*
X48324Y3874D03*
Y19114D03*
D02*
D70*
X2604Y10224D03*
Y12764D03*
X0Y0D02*
M02*
