G05
M48
;#@! TF.GenerationSoftware,Number One Systems,Easy-PC,27.0.5940
;#@! TF.CreationDate,2026-08-14T11:58:48--1:00*
;#@! TF.FileFunction,Plated,1,4,PTH
;FILE_FORMAT=3:3
;TYPE=PLATED
METRIC,000.000
FMAT,2
T1C000.800
T2C000.813
T3C000.950
%
T001
X010224Y015939
X020384Y015939
T002
X015304Y003874
X015304Y019114
X017844Y003874
X017844Y019114
X020384Y003874
X020384Y019114
X022924Y003874
X022924Y019114
X025464Y003874
X025464Y019114
X028004Y003874
X028004Y019114
X030544Y003874
X030544Y019114
X033084Y003874
X033084Y019114
X035624Y003874
X035624Y019114
X038164Y003874
X038164Y019114
X040704Y003874
X040704Y019114
X043244Y003874
X043244Y019114
X045784Y003874
X045784Y019114
X048324Y003874
X048324Y019114
T003
X002604Y010224
X002604Y012764
X002604Y019114
X005144Y010224
X005144Y012764
X005144Y019114
X007684Y010224
X007684Y012764
X007684Y019114
X010224Y010224
X010224Y012764
X012764Y010224
X012764Y012764
X015304Y010224
X015304Y012764
X017844Y010224
X017844Y012764
X020384Y010224
X020384Y012764
X022924Y010224
X022924Y012764
X025464Y010224
X025464Y012764
X028004Y010224
X028004Y012764
X030544Y010224
X030544Y012764
X033084Y010224
X033084Y012764
X035624Y010224
X035624Y012764
X038164Y010224
X038164Y012764
X040704Y010224
X040704Y012764
X043244Y010224
X043244Y012764
X045784Y010224
X045784Y012764
X048324Y010224
X048324Y012764
X050864Y010224
X050864Y012764
M30
