G05
M48
;#@! TF.GenerationSoftware,Number One Systems,Easy-PC,27.0.5940
;#@! TF.CreationDate,2026-07-30T06:34:17--1:00*
;#@! TF.FileFunction,Plated,1,4,PTH
;FILE_FORMAT=3:3
;TYPE=PLATED
METRIC,000.000
FMAT,2
T1C000.800
T2C000.813
T3C000.900
T4C000.950
%
T001
X014351Y001651
X014351Y004191
X018796Y001651
X018796Y004191
X023241Y001651
X023241Y004191
X046101Y004191
X056261Y004191
T002
X014351Y025781
X020701Y013081
X020701Y015621
X020701Y020701
X024511Y025781
X030861Y013081
X030861Y015621
X030861Y020701
X038481Y029591
X038481Y032131
X041021Y010541
X041021Y013081
X041021Y015621
X041021Y018161
X041021Y020701
X041021Y023241
X041021Y025781
X048641Y010541
X048641Y013081
X048641Y015621
X048641Y018161
X048641Y020701
X048641Y023241
X048641Y025781
T003
X033401Y008001
X033401Y010541
X033401Y013081
X033401Y015621
X033401Y018161
X033401Y020701
X033401Y023241
X033401Y025781
X056261Y008001
X056261Y010541
X056261Y013081
X056261Y015621
X056261Y018161
X056261Y020701
X056261Y023241
X056261Y025781
T004
X001651Y001651
X001651Y004191
X001651Y029591
X001651Y032131
X004191Y001651
X004191Y004191
X004191Y029591
X004191Y032131
X009271Y029591
X011811Y029591
X014351Y029591
X016891Y029591
X019431Y029591
X021971Y029591
X024511Y029591
X027051Y029591
X029591Y029591
X060071Y001651
X060071Y004191
X060071Y029591
X060071Y032131
X062611Y001651
X062611Y004191
X062611Y029591
X062611Y032131
M30
