G04 Easy-PC Gerber Version 27.0 Build 5942*
%FSLAX33Y33*%
%MOMM*%
%AMT21*0 Rounded Rectangle Pad at angle 0*4,1,36,-0.55000,-0.75000,0.55000,-0.75000,0.58900,-0.74620,0.62650,-0.73480,0.66110,-0.71630,0.69140,-0.69140,0.71630,-0.66110,0.73480,-0.62650,0.74620,-0.58900,0.75000,-0.55000,0.75000,0.55000,0.74620,0.58900,0.73480,0.62650,0.71630,0.66110,0.69140,0.69140,0.66110,0.71630,0.62650,0.73480,0.58900,0.74620,0.55000,0.75000,-0.55000,0.75000,-0.58900,0.74620,-0.62650,0.73480,-0.66110,0.71630,-0.69140,0.69140,-0.71630,0.66110,-0.73480,0.62650,-0.74620,0.58900,-0.75000,0.55000,-0.75000,-0.55000,-0.74620,-0.58900,-0.73480,-0.62650,-0.71630,-0.66110,-0.69140,-0.69140,-0.66110,-0.71630,-0.62650,-0.73480,-0.58900,-0.74620,-0.55000,-0.75000,0*%
%ADD21T21*%
%AMT28*0 Rounded Rectangle Pad at angle 0*4,1,36,-0.56000,-0.76000,0.56000,-0.76000,0.59900,-0.75620,0.63650,-0.74480,0.67110,-0.72630,0.70140,-0.70140,0.72630,-0.67110,0.74480,-0.63650,0.75620,-0.59900,0.76000,-0.56000,0.76000,0.56000,0.75620,0.59900,0.74480,0.63650,0.72630,0.67110,0.70140,0.70140,0.67110,0.72630,0.63650,0.74480,0.59900,0.75620,0.56000,0.76000,-0.56000,0.76000,-0.59900,0.75620,-0.63650,0.74480,-0.67110,0.72630,-0.70140,0.70140,-0.72630,0.67110,-0.74480,0.63650,-0.75620,0.59900,-0.76000,0.56000,-0.76000,-0.56000,-0.75620,-0.59900,-0.74480,-0.63650,-0.72630,-0.67110,-0.70140,-0.70140,-0.67110,-0.72630,-0.63650,-0.74480,-0.59900,-0.75620,-0.56000,-0.76000,0*%
%ADD28T28*%
%AMT70*0 Rounded Rectangle Pad at angle 0*4,1,36,-0.57500,-0.77500,0.57500,-0.77500,0.61400,-0.77120,0.65150,-0.75980,0.68610,-0.74130,0.71640,-0.71640,0.74130,-0.68610,0.75980,-0.65150,0.77120,-0.61400,0.77500,-0.57500,0.77500,0.57500,0.77120,0.61400,0.75980,0.65150,0.74130,0.68610,0.71640,0.71640,0.68610,0.74130,0.65150,0.75980,0.61400,0.77120,0.57500,0.77500,-0.57500,0.77500,-0.61400,0.77120,-0.65150,0.75980,-0.68610,0.74130,-0.71640,0.71640,-0.74130,0.68610,-0.75980,0.65150,-0.77120,0.61400,-0.77500,0.57500,-0.77500,-0.57500,-0.77120,-0.61400,-0.75980,-0.65150,-0.74130,-0.68610,-0.71640,-0.71640,-0.68610,-0.74130,-0.65150,-0.75980,-0.61400,-0.77120,-0.57500,-0.77500,0*%
%ADD70T70*%
%ADD25R,1.52400X1.52400*%
%ADD24R,1.65100X1.65100*%
%ADD18R,2.54000X2.54000*%
%ADD10C,0.12700*%
%ADD13C,0.30000*%
%ADD11C,0.70000*%
%ADD12C,1.42240*%
%ADD20C,1.50000*%
%ADD14C,1.52000*%
%ADD19O,2.20000X1.50000*%
%ADD15R,1.52400X1.52400*%
%ADD16C,1.52400*%
%ADD71C,1.60000*%
%ADD23C,1.65100*%
%ADD26C,1.77800*%
%ADD22C,2.15900*%
%ADD17C,3.55600*%
%ADD27C,3.81000*%
X0Y0D02*
D02*
D10*
X701Y40702D02*
Y701D01*
X71499D01*
Y40702D01*
X701D01*
X7390Y21971D02*
G75*
G02*
X10224Y22883I1563J0D01*
G01*
G75*
G02*
X12764I1270J-912D01*
G01*
G75*
G02*
X13086Y23215I1270J-912D01*
G01*
X9903Y26398D01*
G75*
G02*
X9627Y27051I639J653D01*
G01*
Y27052D01*
G75*
G02*
X8977Y28321I914J1269D01*
G01*
G75*
G02*
X11811Y29233I1563J0D01*
G01*
G75*
G02*
X14351I1270J-912D01*
G01*
G75*
G02*
X16891I1270J-912D01*
G01*
G75*
G02*
X19431I1270J-912D01*
G01*
G75*
G02*
X19549Y29378I1270J-912D01*
G01*
G75*
G02*
X19163Y29970I261J592D01*
G01*
Y31752D01*
G75*
G02*
X19588Y32360I647J0D01*
G01*
Y33401D01*
G75*
G02*
X19924Y34198I1114J0D01*
G01*
X21174Y35448D01*
G75*
G02*
X21971Y35785I797J-777D01*
G01*
X32434D01*
G75*
G02*
X34368I967J-1114D01*
G01*
X56488D01*
G75*
G02*
X58645Y33628I1043J-1114D01*
G01*
Y25925D01*
X59578Y24991D01*
G75*
G02*
X59915Y24194I-777J-797D01*
G01*
Y23440D01*
G75*
G02*
X58801Y20128I-1114J-1469D01*
G01*
G75*
G02*
X57332Y20858I0J1843D01*
G01*
X56405D01*
X55469Y19922D01*
Y17934D01*
G75*
G02*
X55882Y16891I-1114J-1043D01*
G01*
G75*
G02*
X52937Y16331I-1526J0D01*
G01*
G75*
G02*
X52354Y15621I-1406J560D01*
G01*
G75*
G02*
X51531Y12838I-823J-1270D01*
G01*
X50831D01*
G75*
G02*
X50008Y15621I0J1514D01*
G01*
G75*
G02*
Y18161I823J1270D01*
G01*
G75*
G02*
X49624Y18517I823J1270D01*
G01*
X47371D01*
G75*
G02*
X46718Y18793I0J914D01*
G01*
X36198Y29313D01*
X33349D01*
X34178Y28483D01*
G75*
G02*
X34515Y27686I-777J-797D01*
G01*
Y25478D01*
G75*
G02*
Y23544I-1114J-967D01*
G01*
Y20845D01*
X34815Y20545D01*
X36956D01*
Y20957D01*
X40007D01*
Y18210D01*
X41808Y16408D01*
G75*
G02*
X42135Y15621I-787J-788D01*
G01*
G75*
G02*
X42135Y15610I-1111J5D01*
G01*
Y15394D01*
G75*
G02*
Y13308I-1114J-1043D01*
G01*
Y11320D01*
X43070Y10385D01*
X49806D01*
G75*
G02*
X50831Y10785I1025J-1114D01*
G01*
X51531D01*
G75*
G02*
X53044Y9271I0J-1514D01*
G01*
G75*
G02*
X51531Y7758I-1514J0D01*
G01*
X50831D01*
G75*
G02*
X49806Y8158I0J1514D01*
G01*
X42619D01*
G75*
G02*
X41821Y8484I-11J1113D01*
G01*
X40234Y10071D01*
G75*
G02*
X39907Y10859I787J788D01*
G01*
G75*
G02*
X39908Y10869I1109J-5D01*
G01*
Y13308D01*
G75*
G02*
X39751Y13506I1114J1043D01*
G01*
G75*
G02*
X38263Y12841I-1270J845D01*
G01*
X36594Y11173D01*
G75*
G02*
X35941Y10898I-653J639D01*
G01*
X29878D01*
G75*
G02*
X29494Y10541I-1207J913D01*
G01*
G75*
G02*
X28671Y7758I-823J-1270D01*
G01*
X27971D01*
G75*
G02*
X27148Y10541I0J1514D01*
G01*
G75*
G02*
X26500Y12168I823J1270D01*
G01*
X16574D01*
G75*
G02*
X15920Y12443I0J914D01*
G01*
X13395Y14968D01*
G75*
G02*
X13120Y15621I639J653D01*
G01*
Y20702D01*
G75*
G02*
X12764Y21059I914J1269D01*
G01*
G75*
G02*
X12407Y20702I-1270J912D01*
G01*
Y20650D01*
G75*
G02*
X13017Y19431I-914J-1219D01*
G01*
G75*
G02*
X9970I-1524J0D01*
G01*
G75*
G02*
X10580Y20650I1524J0D01*
G01*
Y20702D01*
G75*
G02*
X10224Y21059I914J1269D01*
G01*
G75*
G02*
X7390Y21971I-1270J912D01*
G01*
X59307Y13527D02*
X63375D01*
Y9460D01*
X59307D01*
Y13527D01*
X53719Y5144D02*
G75*
G02*
X58546Y6257I2542J0D01*
G01*
X64136D01*
G75*
G02*
X66435Y7685I2285J-1114D01*
G01*
X66737Y7987D01*
G75*
G02*
X66737Y8001I1584J18D01*
G01*
G75*
G02*
X69915I1589J0D01*
G01*
G75*
G02*
X68609Y6437I-1589J0D01*
G01*
G75*
G02*
X68963Y5144I-2188J-1294D01*
G01*
G75*
G02*
X64136Y4030I-2542J0D01*
G01*
X58546D01*
G75*
G02*
X53719Y5144I-2285J1114D01*
G01*
X31888Y3325D02*
Y5057D01*
G75*
G02*
X32488Y5703I647J0D01*
G01*
Y5766D01*
G75*
G02*
X32487Y5779I910J14D01*
G01*
G75*
G02*
X32755Y6425I914J0D01*
G01*
X33390Y7060D01*
G75*
G02*
X34048Y7327I646J-646D01*
G01*
X37834D01*
G75*
G02*
X38492Y7060I12J-914D01*
G01*
X39127Y6425D01*
G75*
G02*
X39395Y5779I-646J-646D01*
G01*
G75*
G02*
X39395Y5766I-911J1D01*
G01*
Y5413D01*
G75*
G02*
X39751Y5036I-914J-1222D01*
G01*
G75*
G02*
X42088Y5282I1270J-845D01*
G01*
G75*
G02*
X42695Y5705I607J-225D01*
G01*
X44427D01*
G75*
G02*
X45075Y5057I0J-647D01*
G01*
Y3325D01*
G75*
G02*
X44427Y2678I-647J0D01*
G01*
X42695D01*
G75*
G02*
X42088Y3100I0J647D01*
G01*
G75*
G02*
X39751Y3346I-1067J1091D01*
G01*
G75*
G02*
X36956Y4191I-1270J845D01*
G01*
G75*
G02*
X37560Y5407I1526J0D01*
G01*
X37468Y5500D01*
X34739D01*
G75*
G02*
X34915Y5057I-472J-443D01*
G01*
Y3325D01*
G75*
G02*
X34267Y2678I-647J0D01*
G01*
X32535D01*
G75*
G02*
X31888Y3325I0J647D01*
G01*
X61657Y29910D02*
X62133D01*
Y30215D01*
G75*
G02*
X62132Y30226I1109J16D01*
G01*
G75*
G02*
X62459Y31013I1114J0D01*
G01*
X64038Y32592D01*
Y33146D01*
X63626D01*
Y36197D01*
X66677D01*
Y33146D01*
X66265D01*
Y32142D01*
G75*
G02*
X66265Y32131I-1111J-16D01*
G01*
G75*
G02*
X65938Y31344I-1114J0D01*
G01*
X64505Y29910D01*
X64835D01*
Y26732D01*
X64360D01*
Y26560D01*
X64668Y26251D01*
G75*
G02*
X64995Y25464I-787J-788D01*
G01*
G75*
G02*
X64995Y25453I-1111J5D01*
G01*
Y23440D01*
G75*
G02*
X65350Y23085I-1114J-1469D01*
G01*
X67363D01*
G75*
G02*
X68161Y22758I11J-1114D01*
G01*
X69113Y21806D01*
G75*
G02*
X69440Y21019I-787J-788D01*
G01*
G75*
G02*
X69440Y21008I-1111J5D01*
G01*
Y19750D01*
X69915D01*
Y16572D01*
X66737D01*
Y19750D01*
X67213D01*
Y20557D01*
X66912Y20858D01*
X65350D01*
G75*
G02*
X62038Y21971I-1469J1114D01*
G01*
G75*
G02*
X62768Y23440I1843J0D01*
G01*
Y25002D01*
X62459Y25311D01*
G75*
G02*
X62132Y26099I787J788D01*
G01*
G75*
G02*
X62133Y26109I1109J-5D01*
G01*
Y26732D01*
X61657D01*
Y29910D01*
X764Y6096D02*
G36*
X764Y6096D02*
Y764D01*
X71436D01*
Y6096D01*
X68777D01*
G75*
G02*
X68963Y5144I-2356J-953D01*
G01*
G75*
G02*
X64136Y4030I-2542J0D01*
G01*
X58546D01*
G75*
G02*
X53719Y5143I-2285J1113D01*
G01*
Y5144D01*
Y5144D01*
G75*
G02*
X53905Y6096I2542J0D01*
G01*
X39338D01*
G75*
G02*
X39395Y5779I-857J-318D01*
G01*
G75*
G02*
Y5776I-367J-2D01*
G01*
G75*
G02*
X39395Y5766I-374J-1D01*
G01*
Y5413D01*
G75*
G02*
X39751Y5036I-911J-1220D01*
G01*
G75*
G02*
X42088Y5282I1270J-845D01*
G01*
G75*
G02*
X42695Y5705I607J-224D01*
G01*
X44427D01*
G75*
G02*
X45075Y5057I0J-647D01*
G01*
Y5057D01*
Y3325D01*
Y3325D01*
G75*
G02*
X44427Y2678I-647J0D01*
G01*
X42695D01*
G75*
G02*
X42088Y3100I0J647D01*
G01*
G75*
G02*
X39751Y3346I-1067J1091D01*
G01*
G75*
G02*
X36956Y4191I-1270J845D01*
G01*
Y4191D01*
G75*
G02*
X37560Y5407I1525J0D01*
G01*
X37468Y5500D01*
X34739D01*
G75*
G02*
X34915Y5057I-473J-443D01*
G01*
Y3325D01*
Y3325D01*
G75*
G02*
X34267Y2678I-647J0D01*
G01*
X32535D01*
G75*
G02*
X31888Y3325I0J647D01*
G01*
Y3325D01*
Y5057D01*
Y5057D01*
G75*
G02*
X32488Y5703I647J0D01*
G01*
Y5766D01*
G75*
G02*
X32487Y5776I374J9D01*
G01*
G75*
G02*
Y5779I367J2D01*
G01*
G75*
G02*
X32544Y6096I914J0D01*
G01*
X764D01*
G37*
Y11494D02*
G36*
X764Y11494D02*
Y6096D01*
X32544D01*
G75*
G02*
X32755Y6425I857J-318D01*
G01*
X33390Y7060D01*
G75*
G02*
X34048Y7327I646J-645D01*
G01*
X37834D01*
G75*
G02*
X38492Y7060I13J-913D01*
G01*
X39127Y6425D01*
G75*
G02*
X39338Y6096I-647J-646D01*
G01*
X53905D01*
G75*
G02*
X58546Y6257I2356J-952D01*
G01*
X64136D01*
G75*
G02*
X66435Y7685I2285J-1113D01*
G01*
X66737Y7987D01*
G75*
G02*
X66737Y7998I496J10D01*
G01*
G75*
G02*
Y8001I487J2D01*
G01*
G75*
G02*
X69915I1589J0D01*
G01*
G75*
G02*
X68609Y6437I-1589J0D01*
G01*
G75*
G02*
X68777Y6096I-2187J-1294D01*
G01*
X71436D01*
Y11494D01*
X63375D01*
Y9460D01*
X59307D01*
Y11494D01*
X42135D01*
Y11320D01*
X43070Y10385D01*
X49806D01*
G75*
G02*
X50831Y10785I1025J-1113D01*
G01*
X51531D01*
G75*
G02*
X53044Y9271I0J-1514D01*
G01*
G75*
G02*
X51531Y7758I-1514J0D01*
G01*
X50831D01*
G75*
G02*
X49806Y8158I0J1513D01*
G01*
X42619D01*
G75*
G02*
X41821Y8484I-11J1114D01*
G01*
X40234Y10071D01*
G75*
G02*
X39907Y10859I788J788D01*
G01*
G75*
G02*
Y10861I295J1D01*
G01*
G75*
G02*
X39908Y10869I287J0D01*
G01*
Y11494D01*
X36915D01*
X36594Y11173D01*
G75*
G02*
X35941Y10898I-654J639D01*
G01*
X29878D01*
G75*
G02*
X29494Y10541I-1210J916D01*
G01*
G75*
G02*
X30185Y9271I-823J-1270D01*
G01*
G75*
G02*
X28671Y7758I-1514J0D01*
G01*
X27971D01*
G75*
G02*
X26457Y9271I0J1514D01*
G01*
G75*
G02*
X27148Y10541I1514J0D01*
G01*
G75*
G02*
X26491Y11494I824J1270D01*
G01*
X764D01*
G37*
Y21977D02*
G36*
X764Y21977D02*
Y11494D01*
X26491D01*
G75*
G02*
X26458Y11811I1480J318D01*
G01*
G75*
G02*
X26500Y12168I1514J0D01*
G01*
X16574D01*
G75*
G02*
X15920Y12443I0J914D01*
G01*
X13395Y14968D01*
G75*
G02*
X13120Y15621I639J654D01*
G01*
Y20702D01*
G75*
G02*
X12764Y21059I914J1270D01*
G01*
G75*
G02*
X12407Y20702I-1271J913D01*
G01*
Y20650D01*
G75*
G02*
X13017Y19431I-914J-1219D01*
G01*
Y19431D01*
G75*
G02*
X9970I-1524J0D01*
G01*
Y19431D01*
G75*
G02*
X10580Y20650I1524J0D01*
G01*
Y20702D01*
G75*
G02*
X10224Y21059I914J1270D01*
G01*
G75*
G02*
X7390Y21971I-1270J912D01*
G01*
G75*
G02*
Y21977I1570J3D01*
G01*
X764D01*
G37*
X34515D02*
G36*
X34515Y21977D02*
Y20845D01*
X34815Y20545D01*
X36956D01*
Y20957D01*
X40007D01*
Y18210D01*
X41808Y16408D01*
G75*
G02*
X42135Y15621I-788J-788D01*
G01*
G75*
G02*
Y15618I-284J-1D01*
G01*
G75*
G02*
X42135Y15610I-284J-1D01*
G01*
Y15394D01*
G75*
G02*
X42547Y14351I-1114J-1043D01*
G01*
G75*
G02*
X42135Y13308I-1526J0D01*
G01*
Y11494D01*
X59307D01*
Y13527D01*
X63375D01*
Y11494D01*
X71436D01*
Y21977D01*
X68942D01*
X69113Y21806D01*
G75*
G02*
X69440Y21019I-788J-788D01*
G01*
G75*
G02*
Y21016I-284J-1D01*
G01*
G75*
G02*
X69440Y21008I-284J-1D01*
G01*
Y19750D01*
X69915D01*
Y16572D01*
X66737D01*
Y19750D01*
X67213D01*
Y20557D01*
X66912Y20858D01*
X65350D01*
G75*
G02*
X62038Y21971I-1469J1114D01*
G01*
Y21971D01*
G75*
G02*
Y21977I1837J3D01*
G01*
X60644D01*
G75*
G02*
Y21971I-1848J-3D01*
G01*
G75*
G02*
X58801Y20128I-1843J0D01*
G01*
G75*
G02*
X57332Y20858I0J1843D01*
G01*
X56405D01*
X55469Y19922D01*
Y17934D01*
G75*
G02*
X55882Y16891I-1113J-1043D01*
G01*
Y16891D01*
G75*
G02*
X52937Y16331I-1526J0D01*
G01*
G75*
G02*
X52354Y15621I-1406J560D01*
G01*
G75*
G02*
X53044Y14351I-823J-1270D01*
G01*
G75*
G02*
X51531Y12838I-1514J0D01*
G01*
X50831D01*
G75*
G02*
X49317Y14351I0J1514D01*
G01*
G75*
G02*
X50008Y15621I1514J0D01*
G01*
G75*
G02*
X49318Y16891I823J1270D01*
G01*
G75*
G02*
X50008Y18161I1514J0D01*
G01*
G75*
G02*
X49624Y18517I823J1269D01*
G01*
X47371D01*
G75*
G02*
X46718Y18793I0J914D01*
G01*
X43533Y21977D01*
X34515D01*
G37*
X38263Y12841D02*
G36*
X38263Y12841D02*
X36915Y11494D01*
X39908D01*
Y13308D01*
G75*
G02*
X39751Y13506I1126J1053D01*
G01*
G75*
G02*
X38263Y12841I-1270J845D01*
G01*
G37*
X764Y40638D02*
G36*
X764Y40638D02*
Y21977D01*
X7390D01*
G75*
G02*
X10224Y22883I1563J-6D01*
G01*
G75*
G02*
X12764I1270J-912D01*
G01*
G75*
G02*
X13086Y23215I1270J-912D01*
G01*
X9903Y26398D01*
G75*
G02*
X9627Y27051I639J654D01*
G01*
Y27052D01*
G75*
G02*
X8977Y28321I914J1269D01*
G01*
G75*
G02*
X11811Y29233I1563J0D01*
G01*
G75*
G02*
X14351I1270J-912D01*
G01*
G75*
G02*
X16891I1270J-912D01*
G01*
G75*
G02*
X19431I1270J-912D01*
G01*
G75*
G02*
X19549Y29378I1258J-902D01*
G01*
G75*
G02*
X19163Y29970I262J593D01*
G01*
Y31752D01*
G75*
G02*
X19588Y32360I648J0D01*
G01*
Y33401D01*
G75*
G02*
X19924Y34198I1114J0D01*
G01*
X21174Y35448D01*
G75*
G02*
X21971Y35785I797J-777D01*
G01*
X32434D01*
G75*
G02*
X34368I967J-1114D01*
G01*
X56488D01*
G75*
G02*
X59057Y34671I1043J-1114D01*
G01*
G75*
G02*
X58645Y33628I-1526J0D01*
G01*
Y25925D01*
X59578Y24991D01*
G75*
G02*
X59915Y24194I-777J-797D01*
G01*
Y24194D01*
Y23440D01*
G75*
G02*
X60644Y21977I-1114J-1469D01*
G01*
X62038D01*
G75*
G02*
X62768Y23440I1843J-6D01*
G01*
Y25002D01*
X62459Y25311D01*
G75*
G02*
X62132Y26099I788J788D01*
G01*
G75*
G02*
Y26101I295J1D01*
G01*
G75*
G02*
X62133Y26109I287J0D01*
G01*
Y26732D01*
X61657D01*
Y29910D01*
X62133D01*
Y30215D01*
G75*
G02*
X62132Y30223I284J8D01*
G01*
G75*
G02*
Y30226I284J1D01*
G01*
G75*
G02*
X62459Y31013I1114J0D01*
G01*
X64038Y32592D01*
Y33146D01*
X63626D01*
Y36197D01*
X66677D01*
Y33146D01*
X66265D01*
Y32142D01*
G75*
G02*
X66265Y32134I-284J-8D01*
G01*
G75*
G02*
Y32131I-284J-1D01*
G01*
G75*
G02*
X65938Y31344I-1114J0D01*
G01*
X64505Y29910D01*
X64835D01*
Y26732D01*
X64360D01*
Y26560D01*
X64668Y26251D01*
G75*
G02*
X64995Y25464I-788J-788D01*
G01*
G75*
G02*
Y25461I-284J-1D01*
G01*
G75*
G02*
X64995Y25453I-284J-1D01*
G01*
Y23440D01*
G75*
G02*
X65350Y23085I-1114J-1469D01*
G01*
X67363D01*
G75*
G02*
X68161Y22758I11J-1114D01*
G01*
X68942Y21977D01*
X71436D01*
Y40638D01*
X764D01*
G37*
X33349Y29313D02*
G36*
X33349Y29313D02*
X34178Y28483D01*
G75*
G02*
X34515Y27686I-777J-797D01*
G01*
Y27686D01*
Y25478D01*
G75*
G02*
X34876Y24511I-1114J-967D01*
G01*
G75*
G02*
X34515Y23544I-1475J0D01*
G01*
Y21977D01*
X43533D01*
X36198Y29313D01*
X33349D01*
G37*
X17487Y20702D02*
Y15999D01*
X18222Y15265D01*
X26764D01*
G75*
G02*
X27148Y15621I1207J-913D01*
G01*
G75*
G02*
Y18161I823J1270D01*
G01*
G75*
G02*
Y20701I823J1270D01*
G01*
G75*
G02*
X26928Y20874I823J1270D01*
G01*
X24847Y18793D01*
G75*
G02*
X24194Y18517I-653J639D01*
G01*
X22873D01*
G75*
G02*
X20130Y19431I-1219J914D01*
G01*
G75*
G02*
X20776Y20677I1524J0D01*
G01*
G75*
G02*
X20384Y21059I877J1294D01*
G01*
G75*
G02*
X17844I-1270J912D01*
G01*
G75*
G02*
X17487Y20702I-1270J912D01*
G01*
G36*
X17487Y20702D02*
Y15999D01*
X18222Y15265D01*
X26764D01*
G75*
G02*
X27148Y15621I1207J-913D01*
G01*
G75*
G02*
Y18161I823J1270D01*
G01*
G75*
G02*
Y20701I823J1270D01*
G01*
G75*
G02*
X26928Y20874I823J1270D01*
G01*
X24847Y18793D01*
G75*
G02*
X24194Y18517I-653J639D01*
G01*
X22873D01*
G75*
G02*
X20130Y19431I-1219J914D01*
G01*
G75*
G02*
X20776Y20677I1524J0D01*
G01*
G75*
G02*
X20384Y21059I877J1294D01*
G01*
G75*
G02*
X17844I-1270J912D01*
G01*
G75*
G02*
X17487Y20702I-1270J912D01*
G01*
G37*
X21815Y32940D02*
Y32360D01*
G75*
G02*
X22240Y31752I-222J-608D01*
G01*
Y30199D01*
X23858Y31817D01*
G75*
G02*
X24511Y32092I653J-639D01*
G01*
X36894D01*
G75*
G02*
X37547Y31817I0J-914D01*
G01*
X46479Y22885D01*
X49624D01*
G75*
G02*
X50008Y23241I1207J-913D01*
G01*
G75*
G02*
Y25781I823J1270D01*
G01*
G75*
G02*
X50831Y28565I823J1270D01*
G01*
X51531D01*
G75*
G02*
X52354Y25781I0J-1514D01*
G01*
G75*
G02*
Y23241I-823J-1270D01*
G01*
G75*
G02*
Y20701I-823J-1270D01*
G01*
G75*
G02*
Y18161I-823J-1270D01*
G01*
G75*
G02*
X52937Y17451I-823J-1270D01*
G01*
G75*
G02*
X53243Y17934I1419J-560D01*
G01*
Y20373D01*
G75*
G02*
X53242Y20384I1109J16D01*
G01*
G75*
G02*
X53569Y21171I1114J0D01*
G01*
X55156Y22758D01*
G75*
G02*
X55954Y23085I787J-787D01*
G01*
X57332D01*
G75*
G02*
X57688Y23440I1469J-1114D01*
G01*
Y23732D01*
X56754Y24666D01*
G75*
G02*
X56418Y25464I777J797D01*
G01*
Y33558D01*
X34368D01*
G75*
G02*
X32434I-967J1114D01*
G01*
X22432D01*
X21815Y32940D01*
G36*
X21815Y32940D02*
Y32360D01*
G75*
G02*
X22240Y31752I-222J-608D01*
G01*
Y30199D01*
X23858Y31817D01*
G75*
G02*
X24511Y32092I653J-639D01*
G01*
X36894D01*
G75*
G02*
X37547Y31817I0J-914D01*
G01*
X46479Y22885D01*
X49624D01*
G75*
G02*
X50008Y23241I1207J-913D01*
G01*
G75*
G02*
Y25781I823J1270D01*
G01*
G75*
G02*
X50831Y28565I823J1270D01*
G01*
X51531D01*
G75*
G02*
X52354Y25781I0J-1514D01*
G01*
G75*
G02*
Y23241I-823J-1270D01*
G01*
G75*
G02*
Y20701I-823J-1270D01*
G01*
G75*
G02*
Y18161I-823J-1270D01*
G01*
G75*
G02*
X52937Y17451I-823J-1270D01*
G01*
G75*
G02*
X53243Y17934I1419J-560D01*
G01*
Y20373D01*
G75*
G02*
X53242Y20384I1109J16D01*
G01*
G75*
G02*
X53569Y21171I1114J0D01*
G01*
X55156Y22758D01*
G75*
G02*
X55954Y23085I787J-787D01*
G01*
X57332D01*
G75*
G02*
X57688Y23440I1469J-1114D01*
G01*
Y23732D01*
X56754Y24666D01*
G75*
G02*
X56418Y25464I777J797D01*
G01*
Y33558D01*
X34368D01*
G75*
G02*
X32434I-967J1114D01*
G01*
X22432D01*
X21815Y32940D01*
G37*
X29494Y25781D02*
G75*
G02*
Y23241I-823J-1270D01*
G01*
G75*
G02*
Y20701I-823J-1270D01*
G01*
G75*
G02*
X29878Y20345I-823J-1270D01*
G01*
X29896D01*
G75*
G02*
X30555Y20077I12J-914D01*
G01*
X30872Y19760D01*
G75*
G02*
X31140Y19114I-646J-646D01*
G01*
G75*
G02*
X31140Y19101I-911J1D01*
G01*
Y13728D01*
G75*
G02*
X31140Y13716I-911J-14D01*
G01*
G75*
G02*
X30872Y13070I-914J0D01*
G01*
X30526Y12725D01*
X35563D01*
X36971Y14133D01*
G75*
G02*
X36956Y14351I1509J218D01*
G01*
G75*
G02*
X39751Y15196I1526J0D01*
G01*
G75*
G02*
X39801Y15267I1271J-845D01*
G01*
X37694Y17374D01*
G75*
G02*
X37397Y17906I787J787D01*
G01*
X36956D01*
Y18317D01*
X34364D01*
G75*
G02*
X33566Y18644I-11J1113D01*
G01*
X32614Y19596D01*
G75*
G02*
X32287Y20384I787J788D01*
G01*
G75*
G02*
X32288Y20394I1109J-5D01*
G01*
Y23544D01*
G75*
G02*
Y25478I1114J967D01*
G01*
Y27225D01*
X31670Y27843D01*
X29961D01*
G75*
G02*
X29494Y25781I-1290J-792D01*
G01*
G36*
X29494Y25781D02*
G75*
G02*
Y23241I-823J-1270D01*
G01*
G75*
G02*
Y20701I-823J-1270D01*
G01*
G75*
G02*
X29878Y20345I-823J-1270D01*
G01*
X29896D01*
G75*
G02*
X30555Y20077I12J-914D01*
G01*
X30872Y19760D01*
G75*
G02*
X31140Y19114I-646J-646D01*
G01*
G75*
G02*
X31140Y19101I-911J1D01*
G01*
Y13728D01*
G75*
G02*
X31140Y13716I-911J-14D01*
G01*
G75*
G02*
X30872Y13070I-914J0D01*
G01*
X30526Y12725D01*
X35563D01*
X36971Y14133D01*
G75*
G02*
X36956Y14351I1509J218D01*
G01*
G75*
G02*
X39751Y15196I1526J0D01*
G01*
G75*
G02*
X39801Y15267I1271J-845D01*
G01*
X37694Y17374D01*
G75*
G02*
X37397Y17906I787J787D01*
G01*
X36956D01*
Y18317D01*
X34364D01*
G75*
G02*
X33566Y18644I-11J1113D01*
G01*
X32614Y19596D01*
G75*
G02*
X32287Y20384I787J788D01*
G01*
G75*
G02*
X32288Y20394I1109J-5D01*
G01*
Y23544D01*
G75*
G02*
Y25478I1114J967D01*
G01*
Y27225D01*
X31670Y27843D01*
X29961D01*
G75*
G02*
X29494Y25781I-1290J-792D01*
G01*
G37*
D02*
D11*
X3874Y21971D02*
X6414D01*
Y3239D01*
X8636Y1016D01*
X35941D01*
X18161Y30861D02*
X6731D01*
X6414Y30544D01*
Y21971D01*
X20701Y28321D02*
Y30861D01*
Y33401D01*
X21971Y34671D01*
X33401D01*
X21654Y21971D02*
X24194D01*
X25146Y22924D01*
Y28003D01*
X26099Y28956D01*
X32131D01*
X33401Y27686D01*
Y26734D01*
Y24511D02*
Y26734D01*
Y24511D02*
Y20384D01*
X34353Y19431D01*
X38481D01*
X33401Y34671D02*
X57531D01*
X35941Y1016D02*
X44831D01*
X46101Y2286D01*
Y4191D01*
X35941D02*
Y1016D01*
X41021Y14351D02*
Y15621D01*
X38481Y18161D01*
Y19431D01*
X41021Y14351D02*
Y10859D01*
X42608Y9271D01*
X51181D01*
Y11811D02*
X54356D01*
X57849Y15304D01*
X61341D01*
X54356Y16891D02*
Y20384D01*
X55943Y21971D01*
X58801D01*
X56261Y5144D02*
X65469D01*
X68326Y8001D01*
X58801Y21971D02*
Y24194D01*
X57531Y25464D01*
Y34671D01*
X59436Y28321D02*
Y26416D01*
X61341Y24511D01*
Y21971D01*
X63246Y28321D02*
Y26099D01*
X63881Y25464D01*
Y21971D01*
X67374D01*
X68326Y21019D01*
Y18161D01*
X65151Y34671D02*
Y32131D01*
X63246Y30226D01*
Y28321D01*
D02*
D12*
X33401Y24511D03*
Y34671D03*
D02*
D13*
X10541Y28321D02*
Y27051D01*
X14034Y23559D01*
Y21971D01*
X11494D02*
Y19431D01*
X13081Y28321D02*
Y27051D01*
X16574Y23559D01*
Y21971D01*
X15621Y28321D02*
Y27051D01*
X17209Y25464D01*
X22289D01*
X23559Y26734D01*
Y28639D01*
X25146Y30226D01*
X36576D01*
X47371Y19431D01*
X51181D01*
X18161Y28321D02*
Y27051D01*
X18796Y26416D01*
X21654D01*
X22606Y27369D01*
Y29274D01*
X24511Y31178D01*
X36894D01*
X46101Y21971D01*
X51181D01*
X21654Y19431D02*
X24194D01*
X26734Y21971D01*
X28321D01*
Y11811D02*
X35941D01*
X38481Y14351D01*
X28321D02*
X17844D01*
X16574Y15621D01*
Y21971D01*
X28321Y19431D02*
X29909D01*
X30226Y19114D01*
Y13716D01*
X29591Y13081D01*
X16574D01*
X14034Y15621D01*
Y21971D01*
X33401Y4191D02*
Y5779D01*
X34036Y6414D01*
X37846D01*
X38481Y5779D01*
Y4191D01*
X41021D02*
X43561D01*
D02*
D14*
X11494Y19431D03*
X21654D03*
D02*
D15*
X38481D03*
D02*
D16*
Y4191D03*
Y14351D03*
X41021Y4191D03*
Y14351D03*
Y19431D03*
X54356Y11811D03*
Y16891D03*
X57531Y34671D03*
D02*
D17*
X56261Y5144D03*
X66421D03*
D02*
D18*
X61341Y11494D03*
Y15304D03*
D02*
D19*
X28321Y9271D03*
Y11811D03*
Y14351D03*
Y16891D03*
Y19431D03*
Y21971D03*
Y24511D03*
Y27051D03*
X51181Y9271D03*
Y11811D03*
Y14351D03*
Y16891D03*
Y19431D03*
Y21971D03*
Y24511D03*
Y27051D03*
D02*
D70*
X20701Y30861D03*
D02*
D71*
X6414Y21971D03*
X8954D03*
X10541Y28321D03*
Y30861D03*
X11494Y21971D03*
X13081Y28321D03*
Y30861D03*
X14034Y21971D03*
X15621Y28321D03*
Y30861D03*
X16574Y21971D03*
X18161Y28321D03*
Y30861D03*
X19114Y21971D03*
X20701Y28321D03*
X21654Y21971D03*
X24194D03*
D02*
D20*
X35941Y4191D03*
X46101D03*
D02*
D21*
X33401D03*
X43561D03*
D02*
D22*
X58801Y21971D03*
X61341D03*
X63881D03*
D02*
D23*
X68326Y8001D03*
D02*
D24*
X63246Y28321D03*
X68326Y18161D03*
D02*
D25*
X65151Y34671D03*
D02*
D26*
X59436Y28321D03*
D02*
D27*
X3556Y37846D03*
X68644D03*
D02*
D28*
X3874Y21971D03*
X0Y0D02*
M02*
